<svg xmlns="http://www.w3.org/2000/svg" width="512" height="512" viewBox="0 0 128 128"><path xmlns="http://www.w3.org/2000/svg" d="M12 27.751h104v72.497H12z" fill="#d60a2e" data-original="#d60a2e"/><g xmlns="http://www.w3.org/2000/svg" fill="#fed953"><path d="M29.33 40.976l3.645 7.386 8.15 1.184-5.898 5.749 1.393 8.118-7.29-3.833-7.291 3.833 1.393-8.118-5.898-5.749 8.15-1.184zM50.92 55.152l1.457 2.951 3.257.473-2.357 2.298.556 3.243-2.913-1.531-2.913 1.531.556-3.243-2.356-2.298 3.257-.473zM49.196 42.248l2.662 1.936 3.103-1.095-1.019 3.13 2.001 2.613-3.291-.002-1.868 2.71-1.015-3.131-3.154-.938 2.663-1.933zM44.927 33.343l-.622 3.232 2.31 2.345-3.266.407-1.516 2.921-1.396-2.98-3.247-.54 2.403-2.249-.491-3.254 2.882 1.59zM44.927 66.456l-.622 3.232 2.31 2.344-3.266.407-1.516 2.921-1.396-2.98-3.247-.539 2.403-2.249-.491-3.254 2.882 1.59z" data-original="#fed953"/></g></svg>