<?xml version="1.0" standalone="no"?>
<!DOCTYPE svg PUBLIC "-//W3C//DTD SVG 20010904//EN"
 "http://www.w3.org/TR/2001/REC-SVG-20010904/DTD/svg10.dtd">
<svg version="1.0" xmlns="http://www.w3.org/2000/svg"
 width="1024.000000pt" height="1024.000000pt" viewBox="0 0 1024.000000 1024.000000"
 preserveAspectRatio="xMidYMid meet">

<g transform="translate(0.000000,1024.000000) scale(0.100000,-0.100000)"
fill="rgb(242,78,50)" stroke="none">
<path d="M5035 9960 c-90 -10 -188 -47 -268 -100 -50 -34 -212 -189 -522 -499
l-450 -451 555 -555 556 -556 69 16 c109 26 261 21 368 -10 104 -30 150 -52
233 -111 135 -95 238 -244 286 -410 29 -102 31 -276 5 -374 l-18 -64 535 -535
534 -534 48 12 c147 37 306 31 443 -17 115 -41 185 -86 282 -182 72 -71 93
-101 132 -180 64 -130 81 -200 81 -340 1 -139 -16 -207 -80 -340 -40 -81 -60
-109 -138 -186 -77 -76 -107 -99 -186 -138 -131 -64 -200 -80 -340 -80 -172 0
-294 39 -436 140 -257 182 -369 522 -274 827 l20 62 -495 495 -495 495 1
-1315 0 -1315 71 -45 c103 -66 199 -173 253 -284 65 -132 80 -197 79 -346 0
-114 -3 -133 -33 -220 -66 -194 -200 -349 -374 -435 -129 -63 -198 -79 -337
-79 -135 1 -208 17 -325 74 -259 126 -416 378 -416 670 0 282 153 537 396 660
l65 33 0 1327 0 1326 -47 23 c-174 84 -317 249 -381 438 -24 71 -26 92 -26
233 0 133 3 164 22 220 l22 65 -548 548 -547 547 -1463 -1462 c-1095 -1095
-1475 -1481 -1512 -1536 -72 -106 -102 -208 -102 -342 0 -80 5 -122 22 -175
52 -167 -96 -11 2254 -2363 1637 -1639 2179 -2175 2234 -2212 199 -134 471
-138 673 -9 93 59 4329 4293 4399 4397 134 199 138 471 9 673 -59 93 -4313
4349 -4417 4419 -119 80 -269 116 -417 100z"/>
</g>
</svg>
