<svg height="512" viewBox="0 0 512 512" width="512" xmlns="http://www.w3.org/2000/svg"><g id="filled_outline" data-name="filled outline"><path d="m160 314.667a142.883 142.883 0 0 0 -5.9 65.392l.563 3.941-5.428-5.428a72.514 72.514 0 0 1 -21.235-51.272 72.513 72.513 0 0 1 26.092-55.707l5.908-4.926-1.808 4.521a53.111 53.111 0 0 0 1.808 43.479z" fill="#f55441"/><path d="m158.192 271.188 1.808-4.521-5.908 4.923a72.506 72.506 0 0 0 -25.707 48.392 16.9 16.9 0 0 0 11.615-4.953l15.17-15.169a53.081 53.081 0 0 1 3.022-28.672z" fill="#d3463c"/><path d="m168 232-48 48 20 28 44-44z" fill="#315a70"/><path d="m140 308a16.971 16.971 0 0 1 -24 0l-44-44 8-40 60 60a16.971 16.971 0 0 1 0 24z" fill="#6ad3d3"/><path d="m88 280a214.34 214.34 0 0 0 -8.845 98.088l.845 5.912-8.142-8.142a108.772 108.772 0 0 1 -31.858-76.912 108.776 108.776 0 0 1 39.137-83.561l8.863-7.385-2.713 6.782a79.673 79.673 0 0 0 2.713 65.218z" fill="#f55441"/><path d="m352 314.667a142.883 142.883 0 0 1 5.9 65.392l-.567 3.941 5.428-5.428a72.514 72.514 0 0 0 21.239-51.272 72.513 72.513 0 0 0 -26.092-55.707l-5.908-4.926 1.808 4.521a53.111 53.111 0 0 1 -1.808 43.479z" fill="#f55441"/><path d="m344 232 48 48-20 28-44-44z" fill="#315a70"/><path d="m372 308a16.971 16.971 0 0 0 24 0l44-44-8-40-60 60a16.971 16.971 0 0 0 0 24z" fill="#6ad3d3"/><path d="m424 280a214.34 214.34 0 0 1 8.845 98.088l-.845 5.912 8.142-8.142a108.772 108.772 0 0 0 31.858-76.912 108.776 108.776 0 0 0 -39.137-83.561l-8.863-7.385 2.713 6.782a79.673 79.673 0 0 1 -2.713 65.218z" fill="#f55441"/><circle cx="256" cy="240" fill="#6ad3d3" r="96"/><path d="m349.527 285.527a103.381 103.381 0 0 0 10.188-37.812l-15.715-15.715-16 32z" fill="#203b47"/><path d="m319.454 167.968a132.007 132.007 0 0 1 -131.454 120.032 133.5 133.5 0 0 1 -15.681-.931 96 96 0 1 0 147.135-119.1z" fill="#4eb7b4"/><path d="m24 416h464v80h-464z" fill="#e6e6e6"/><path d="m24 416h464v24h-464z" fill="#ccc"/><path d="m24 384h464v48h-464z" fill="#645960"/><circle cx="256" cy="240" fill="#f8f8f8" r="48"/><circle cx="256" cy="240" fill="#e11919" r="16"/><path d="m230.849 280.884a48.008 48.008 0 0 0 70.371-57 132.391 132.391 0 0 1 -70.371 57z" fill="#e6e6e6"/><path d="m488 376h-37.036a116.766 116.766 0 0 0 -12.98-166.76l-8.862-7.386a8 8 0 0 0 -12.55 9.117l2.713 6.782c.748 1.869 1.389 3.766 1.972 5.676l-37.257 37.257-24.061-24.061a104.144 104.144 0 0 0 -95.939-100.32v-120.305h-16v120.305a104.144 104.144 0 0 0 -95.939 100.32l-24.061 24.061-37.257-37.257c.583-1.91 1.224-3.807 1.972-5.676l2.713-6.782a8 8 0 0 0 -12.55-9.117l-8.862 7.386a116.766 116.766 0 0 0 -12.98 166.76h-37.036a8 8 0 0 0 -8 8v112h16v-56h448v56h16v-112a8 8 0 0 0 -8-8zm-112.406 0a79.893 79.893 0 0 0 16.406-48.7c0-2.514-.125-5.03-.361-7.535a24.806 24.806 0 0 0 10.018-6.105l18.5-18.5a207.532 207.532 0 0 1 4.89 80.84zm-213.945 0a135.626 135.626 0 0 1 5.94-58.8 8 8 0 0 0 -.434-6.108 44.919 44.919 0 0 1 -4.4-14.533l3.706-3.706a103.94 103.94 0 0 0 179.072 0l3.706 3.706a44.919 44.919 0 0 1 -4.4 14.533 8 8 0 0 0 -.434 6.108 135.626 135.626 0 0 1 5.94 58.8zm-25.149-56.526a24.825 24.825 0 0 0 9.162-5.817l3.765-3.765c.587 1.8 1.249 3.569 2 5.311a151.75 151.75 0 0 0 -6.743 44.475 64.213 64.213 0 0 1 -8.188-40.2zm239.01 0a64.213 64.213 0 0 1 -8.188 40.2 151.745 151.745 0 0 0 -6.743-44.475c.755-1.742 1.417-3.515 2-5.311l3.765 3.765a24.825 24.825 0 0 0 9.161 5.821zm64.2-86.166a100.826 100.826 0 0 1 2.88 127.762 223.734 223.734 0 0 0 -10-80.511 87.751 87.751 0 0 0 7.116-47.251zm-22.352 42.025-27.011 27.01a8.97 8.97 0 1 1 -12.686-12.686l46.72-46.72a71.675 71.675 0 0 1 -7.027 32.396zm-51.011 3.01a24.956 24.956 0 0 0 -5.169 7.517l-8.224-8.224a103.047 103.047 0 0 0 5.522-19.85l14.21 14.214zm-110.347-126.343a88 88 0 1 1 -88 88 88.1 88.1 0 0 1 88-88zm-102.472 105.786a103.047 103.047 0 0 0 5.522 19.85l-8.224 8.224a24.956 24.956 0 0 0 -5.169-7.517l-6.343-6.343zm-19.185 31.871a8.97 8.97 0 1 1 -12.686 12.686l-27.01-27.01a71.662 71.662 0 0 1 -7.024-32.4zm-62.049-56.349a87.751 87.751 0 0 0 7.113 47.251 223.734 223.734 0 0 0 -10 80.511 100.826 100.826 0 0 1 2.884-127.762zm19.551 61.851 18.5 18.5a24.806 24.806 0 0 0 10.018 6.105c-.236 2.5-.361 5.021-.361 7.535a79.9 79.9 0 0 0 16.404 48.701h-49.453a207.532 207.532 0 0 1 4.892-80.841zm-59.845 128.841v-32h448v32z"/><circle cx="96" cy="408" r="8"/><circle cx="72" cy="408" r="8"/><circle cx="48" cy="408" r="8"/><path d="m256 296a56 56 0 1 0 -56-56 56.063 56.063 0 0 0 56 56zm0-96a40 40 0 1 1 -40 40 40.045 40.045 0 0 1 40-40z"/><path d="m256 264a24 24 0 1 0 -24-24 24.027 24.027 0 0 0 24 24zm0-32a8 8 0 1 1 -8 8 8.009 8.009 0 0 1 8-8z"/></g></svg>