<svg xmlns="http://www.w3.org/2000/svg" xmlns:xlink="http://www.w3.org/1999/xlink" viewBox="0 0 750 500"><defs><linearGradient id="prefix__a" x1="375" y1="463.12" x2="375" y2="432.64" gradientUnits="userSpaceOnUse"><stop offset="0" stop-color="#fff" stop-opacity="0"/><stop offset="1" stop-color="#d0e7ea"/></linearGradient><linearGradient id="prefix__b" x1="375" y1="465.17" x2="375" y2="434.68" gradientTransform="matrix(1 0 0 -.24 0 550.79)" xlink:href="#prefix__a"/><linearGradient id="prefix__c" x1="375" y1="608.57" x2="375" y2="388.01" xlink:href="#prefix__a"/><linearGradient id="prefix__d" x1="487.2" y1="893.64" x2="361.26" y2="421.39" xlink:href="#prefix__a"/><linearGradient id="prefix__e" x1="762.78" y1="-5.93" x2="641.12" y2="160.07" gradientUnits="userSpaceOnUse"><stop offset="0" stop-color="#fff" stop-opacity="0"/><stop offset="1" stop-color="#ead2ac"/></linearGradient><linearGradient id="prefix__f" x1="538.54" y1="470.87" x2="626.54" y2="246.87" xlink:href="#prefix__a"/><linearGradient id="prefix__g" x1="598.19" y1="157.82" x2="552.44" y2="232.07" gradientUnits="userSpaceOnUse"><stop offset="0" stop-color="#fff" stop-opacity="0"/><stop offset="1" stop-color="#c3d893"/></linearGradient><linearGradient id="prefix__h" x1="599.21" y1="59.06" x2="553.47" y2="133.3" gradientTransform="rotate(-83.1 588.77 92.507)" xlink:href="#prefix__g"/><linearGradient id="prefix__i" x1="590.94" y1="99.92" x2="589.77" y2="110.42" xlink:href="#prefix__g"/><linearGradient id="prefix__j" x1="845.58" y1="399.76" x2="845.58" y2="402.66" gradientTransform="rotate(92.3 813.85 171.116)" xlink:href="#prefix__e"/><linearGradient id="prefix__k" x1="795.87" y1="382.46" x2="795.87" y2="385.36" gradientTransform="rotate(80.3 809.992 178.171)" xlink:href="#prefix__e"/><linearGradient id="prefix__l" x1="699.77" y1="351.3" x2="699.77" y2="354.2" gradientTransform="rotate(80.3 809.992 178.171)" xlink:href="#prefix__e"/><linearGradient id="prefix__m" x1="831.65" y1="359.33" x2="831.65" y2="362.23" gradientTransform="rotate(88.6 815.18 174.09)" xlink:href="#prefix__e"/><linearGradient id="prefix__n" x1="738.48" y1="393.69" x2="738.48" y2="396.59" gradientTransform="rotate(1.6 10352.693 -4965.194)" xlink:href="#prefix__e"/><linearGradient id="prefix__o" x1="-137.19" y1="109.55" x2="118.81" y2="359.55" xlink:href="#prefix__a"/><linearGradient id="prefix__p" x1="186.16" y1="416.14" x2="304.16" y2="296.14" xlink:href="#prefix__a"/><linearGradient id="prefix__q" x1="448.21" y1="250.23" x2="474.46" y2="169.48" xlink:href="#prefix__e"/><linearGradient id="prefix__r" x1="404.45" y1="472.31" x2="233.12" y2="227.65" xlink:href="#prefix__a"/><linearGradient id="prefix__s" x1="174.03" y1="86.92" x2="229.37" y2="200.25" xlink:href="#prefix__e"/><linearGradient id="prefix__t" x1="386.45" y1="332.66" x2="434.23" y2="285.48" gradientUnits="userSpaceOnUse"><stop offset="0" stop-color="#fff" stop-opacity="0"/><stop offset="1" stop-color="#c8c8cc"/></linearGradient><linearGradient id="prefix__u" x1="434.83" y1="291.56" x2="449.44" y2="201.39" gradientUnits="userSpaceOnUse"><stop offset="0" stop-color="#fff" stop-opacity="0"/><stop offset="1" stop-color="#fff"/></linearGradient><linearGradient id="prefix__v" x1="411.27" y1="287.74" x2="425.87" y2="197.57" xlink:href="#prefix__u"/><linearGradient id="prefix__w" x1="469.92" y1="376.66" x2="463.98" y2="306" gradientUnits="userSpaceOnUse"><stop offset="0" stop-color="#fff" stop-opacity="0"/><stop offset="1" stop-color="#e1e9ea"/></linearGradient><linearGradient id="prefix__x" x1="460.23" y1="359.98" x2="469.68" y2="347.7" xlink:href="#prefix__w"/><linearGradient id="prefix__y" x1="459.56" y1="400.89" x2="469.02" y2="388.61" xlink:href="#prefix__w"/><linearGradient id="prefix__z" x1="459.56" y1="439.25" x2="469.02" y2="426.98" xlink:href="#prefix__w"/><linearGradient id="prefix__aa" x1="472.15" y1="422.01" x2="466.7" y2="431.16" xlink:href="#prefix__w"/><linearGradient id="prefix__ab" x1="472.16" y1="383.41" x2="466.71" y2="392.56" xlink:href="#prefix__w"/><linearGradient id="prefix__ac" x1="472.93" y1="342.17" x2="467.49" y2="351.32" xlink:href="#prefix__w"/><linearGradient id="prefix__ad" x1="465.79" y1="339.94" x2="465.45" y2="321.68" xlink:href="#prefix__w"/><linearGradient id="prefix__ae" x1="210.1" y1="362.69" x2="226.52" y2="322.89" xlink:href="#prefix__w"/><linearGradient id="prefix__af" x1="223.93" y1="327.03" x2="224.43" y2="323.55" gradientUnits="userSpaceOnUse"><stop offset="0" stop-color="#fff" stop-opacity="0"/><stop offset=".19" stop-color="#fff" stop-opacity=".01"/><stop offset=".33" stop-color="#fdfefe" stop-opacity=".05"/><stop offset=".45" stop-color="#fbfcfc" stop-opacity=".12"/><stop offset=".56" stop-color="#f9fafa" stop-opacity=".22"/><stop offset=".66" stop-color="#f5f8f8" stop-opacity=".34"/><stop offset=".76" stop-color="#f0f4f5" stop-opacity=".49"/><stop offset=".86" stop-color="#ebf0f1" stop-opacity=".67"/><stop offset=".95" stop-color="#e5eced" stop-opacity=".88"/><stop offset="1" stop-color="#e1e9ea"/></linearGradient><linearGradient id="prefix__ag" x1="362.89" y1="202.29" x2="265.39" y2="368.29" xlink:href="#prefix__t"/><linearGradient id="prefix__ah" x1="1618.4" y1="429.37" x2="1592.65" y2="453.61" gradientTransform="matrix(-1 0 0 1 1930.54 0)" xlink:href="#prefix__t"/><linearGradient id="prefix__ai" x1="297.17" y1="429.48" x2="271.42" y2="453.72" xlink:href="#prefix__t"/><linearGradient id="prefix__aj" x1="304.72" y1="447.99" x2="304.66" y2="441.19" xlink:href="#prefix__t"/><linearGradient id="prefix__ak" x1="304.7" y1="448.1" x2="304.7" y2="449.58" xlink:href="#prefix__t"/><linearGradient id="prefix__al" x1="309.3" y1="423.36" x2="310.79" y2="428.27" xlink:href="#prefix__t"/><linearGradient id="prefix__am" x1="299.57" y1="410.33" x2="306.19" y2="384.06" xlink:href="#prefix__t"/><linearGradient id="prefix__an" x1="308.65" y1="359.15" x2="295.88" y2="403.53" xlink:href="#prefix__t"/><linearGradient id="prefix__ao" x1="324.66" y1="392.13" x2="310.84" y2="379.05" xlink:href="#prefix__t"/><linearGradient id="prefix__ap" x1="299.1" y1="340.2" x2="316.15" y2="340.2" xlink:href="#prefix__t"/><linearGradient id="prefix__aq" x1="304.8" y1="400.3" x2="304.8" y2="353.3" xlink:href="#prefix__t"/><linearGradient id="prefix__ar" x1="316.67" y1="171.11" x2="292.92" y2="269.36" xlink:href="#prefix__t"/><linearGradient id="prefix__as" x1="337.78" y1="324.66" x2="282.53" y2="404.41" xlink:href="#prefix__t"/><linearGradient id="prefix__at" x1="296.43" y1="359.53" x2="303.29" y2="339.57" xlink:href="#prefix__t"/><linearGradient id="prefix__au" x1="168.36" y1="225.27" x2="245.69" y2="188.61" xlink:href="#prefix__t"/><linearGradient id="prefix__av" x1="219.3" y1="321.65" x2="185.3" y2="79.99" xlink:href="#prefix__t"/><linearGradient id="prefix__aw" x1="186.82" y1="149.64" x2="194.2" y2="136.52" xlink:href="#prefix__e"/><linearGradient id="prefix__ax" x1="303.4" y1="275.3" x2="313.15" y2="230.8" xlink:href="#prefix__e"/><linearGradient id="prefix__ay" x1="288.99" y1="276.65" x2="348.49" y2="207.9" xlink:href="#prefix__e"/><linearGradient id="prefix__az" x1="322.93" y1="131.92" x2="327.98" y2="122.93" xlink:href="#prefix__e"/><linearGradient id="prefix__ba" x1="345.45" y1="161.5" x2="350.5" y2="152.51" xlink:href="#prefix__e"/><linearGradient id="prefix__bb" x1="397.39" y1="157.99" x2="402.45" y2="148.99" xlink:href="#prefix__e"/><linearGradient id="prefix__bc" x1="475.54" y1="123.41" x2="480.59" y2="114.41" xlink:href="#prefix__e"/><linearGradient id="prefix__bd" x1="97.52" y1="252.76" x2="98.52" y2="277.51" xlink:href="#prefix__a"/><linearGradient id="prefix__bf" x1="61.24" y1="255.09" x2="123.99" y2="265.34" xlink:href="#prefix__a"/><linearGradient id="prefix__bg" x1="200.64" y1="141.07" x2="50.14" y2="291.07" xlink:href="#prefix__a"/><linearGradient id="prefix__bh" x1="108.93" y1="319.53" x2="97.93" y2="383.03" xlink:href="#prefix__w"/><linearGradient id="prefix__bi" x1="663.74" y1="323.45" x2="547.4" y2="455.79" xlink:href="#prefix__w"/><linearGradient id="prefix__bj" x1="644.38" y1="331.59" x2="565.08" y2="421.8" xlink:href="#prefix__w"/><linearGradient id="prefix__bk" x1="645" y1="334.32" x2="564.05" y2="426.4" xlink:href="#prefix__w"/><linearGradient id="prefix__bl" x1="657.36" y1="340.35" x2="576.87" y2="431.9" xlink:href="#prefix__w"/><style>.prefix__dd{opacity:.5}.prefix__cv{mix-blend-mode:multiply}.prefix__dd,.prefix__h{fill:#fff}.prefix__i{fill:#a5723a}.prefix__j{fill:#ddd2c7;opacity:.3}.prefix__m{fill:#b1d873}.prefix__o{fill:#493b3b}.prefix__p{fill:none;stroke-miterlimit:10;stroke:#e0dada}.prefix__q{fill:#e0dada}.prefix__t{fill:#f9e255}.prefix__v{fill:#f7578c}.prefix__y{fill:#ed4f4f}.prefix__aa{fill:#f9b74b}.prefix__ae{fill:#87582a}.prefix__aj,.prefix__ay{fill:#d1e2e5}.prefix__an{fill:#515151}.prefix__aq{fill:#5b5b5b}.prefix__ay{opacity:.2}.prefix__bl{fill:#5e83cc}.prefix__bm{fill:#7191d1}.prefix__bn{fill:#434344}.prefix__bo{fill:#737375}.prefix__br{fill:#686868}.prefix__bt{fill:#353535}.prefix__cl{fill:#a8a7a7}.prefix__cv{fill:url(#prefix__bd)}</style></defs><g style="isolation:isolate"><path fill="#a0d1ea" d="M0 0h750v500H0z"/><path fill="url(#prefix__a)" opacity=".5" d="M0 440.9h750v7.17H0z"/><path fill="url(#prefix__b)" opacity=".5" d="M0 440.9h750v1.75H0z"/><path fill="#80bfd8" d="M0 448.1h750v51.88H0z"/><path style="mix-blend-mode:multiply" fill="url(#prefix__c)" d="M0 448.1h750v51.88H0z"/><path d="M368.4 455.4c187.9 0 340.3-5 340.3-7.3H28.1c0 2.3 152.3 7.3 340.3 7.3z" style="mix-blend-mode:multiply" fill="url(#prefix__d)"/><path class="prefix__h" d="M586.6 399.6s1-10.7 6-9.9 5.7 9.4 5.7 9.4M561.1 397.1s-1.9-6.5 1-6.3.6-5.4 4.4-5 3.2 5.4 6.4 5.6 10.3-1.8 11.2 1.4a5.8 5.8 0 01-1.1 5.3M652.9 92l-2.3-13.6 58-2.8v10"/><path class="prefix__i" d="M647.1 84.3l3.7 42.4 62.3 2.8V78.4l-66 5.9z"/><path class="prefix__j" d="M658.8 93.4l2.6 24 42.4-1V90.5l-45 2.9z"/><path class="prefix__j" d="M661.9 116.8l-2.6-23.5-.5.1 2.6 24 42.4-1v-.6l-41.9 1z"/><path d="M696.4 121.6c-23.4 0-42.4-16.9-43.2-37.9l-6.1.6 3.7 42.4 62.3 2.8v-11a45.9 45.9 0 01-16.7 3.1z" style="mix-blend-mode:multiply" fill="url(#prefix__e)"/><path d="M646.4 229l7.6-58.4-15.9-1.1-3.3 59.5h-.2l3-59.3-16 .2 1.4 59h-7.8l2.5-.4-5.6-59.5-15.6 2.4.2-1.2-16-.8-2.1 59.2h-1.3l3-58.9-16 .2 1.4 58.6h-9.6v17.7l163.3-.4v-16.3zm-50-56.8l9.7 56.6h-16z" style="mix-blend-mode:multiply" fill="url(#prefix__f)"/><path class="prefix__m" d="M568.9 165l1.5 59.8 11.5-.3 3-59.6-16 .1z"/><path style="mix-blend-mode:multiply" fill="url(#prefix__g)" d="M568.9 165l1.5 59.8 11.5-.3 3-59.6-16 .1z"/><path class="prefix__o" d="M577 178a4 4 0 01-4.1-3.9 4.1 4.1 0 013.9-4.1 4 4 0 014.1 3.9 4 4 0 01-3.9 4.1z"/><path class="prefix__p" d="M577 178a4 4 0 01-4.1-3.9 4.1 4.1 0 013.9-4.1 4 4 0 014.1 3.9 4 4 0 01-3.9 4.1z"/><path class="prefix__q" d="M579.9 184.5l-7.1-.6 1 27 4.7-.6 1.4-25.8z"/><path class="prefix__m" d="M560 107.9l59.5 5.7 1.1-11.5L561.8 92l-1.8 15.9z"/><path style="mix-blend-mode:multiply" fill="url(#prefix__h)" d="M560 107.9l59.5 5.7 1.1-11.5L561.8 92l-1.8 15.9z"/><path style="mix-blend-mode:multiply" fill="url(#prefix__i)" d="M560 107.9l59.5 5.7 1.1-11.5L561.8 92l-1.8 15.9z"/><path class="prefix__o" d="M573.9 101.4a4.1 4.1 0 01-4.4 3.6 4 4 0 114.4-3.6z"/><path class="prefix__p" d="M573.9 101.4a4.1 4.1 0 01-4.4 3.6 4 4 0 114.4-3.6z"/><path class="prefix__q" d="M580.6 99.3l-1.4 7 26.9 2.2v-4.8l-25.5-4.4z"/><path class="prefix__t" d="M585.4 164.6l-2.2 59.7 11.5.4 6.6-59.3-15.9-.8z"/><path style="mix-blend-mode:multiply" fill="url(#prefix__j)" d="M585.4 164.6l-2.2 59.7 11.5.4 6.6-59.3-15.9-.8z"/><path class="prefix__o" d="M592.6 178a3.9 3.9 0 01-3.8-4.1 4 4 0 014.1-3.9 4.1 4.1 0 013.9 4.2 4 4 0 01-4.2 3.8z"/><path class="prefix__p" d="M592.6 178a3.9 3.9 0 01-3.8-4.1 4 4 0 014.1-3.9 4.1 4.1 0 013.9 4.2 4 4 0 01-4.2 3.8z"/><path class="prefix__q" d="M595.2 184.6l-7.1-1-.6 27 4.7-.2 3-25.8z"/><path class="prefix__v" d="M601 166.6l10 58.9 11.4-1.9-5.6-59.4-15.8 2.4z"/><path style="mix-blend-mode:multiply" fill="url(#prefix__k)" d="M601 166.6l10 58.9 11.4-1.9-5.6-59.4-15.8 2.4z"/><path class="prefix__o" d="M610.8 178.3a4 4 0 113.3-4.6 4 4 0 01-3.3 4.6z"/><path class="prefix__p" d="M610.8 178.3a4 4 0 113.3-4.6 4 4 0 01-3.3 4.6z"/><path class="prefix__q" d="M614.6 184.2l-7.1.5 4.9 26.6 4.6-1.3-2.4-25.8z"/><path class="prefix__v" d="M615.6 66.6l10 58.9 11.3-1.9-5.6-59.4-15.7 2.4z"/><path style="mix-blend-mode:multiply" fill="url(#prefix__l)" d="M615.6 66.6l10 58.9 11.3-1.9-5.6-59.4-15.7 2.4z"/><path class="prefix__o" d="M625.4 78.3a4 4 0 01-4.6-3.2 4.012 4.012 0 117.9-1.4 4 4 0 01-3.3 4.6z"/><path class="prefix__p" d="M625.4 78.3a4 4 0 01-4.6-3.2 4.012 4.012 0 117.9-1.4 4 4 0 01-3.3 4.6z"/><path class="prefix__q" d="M629.2 84.3l-7.1.4 4.9 26.6 4.6-1.2-2.4-25.8z"/><path class="prefix__y" d="M626.3 165l1.4 59.8 11.5-.3 3-59.6-15.9.1z"/><path style="mix-blend-mode:multiply" fill="url(#prefix__m)" d="M626.3 165l1.4 59.8 11.5-.3 3-59.6-15.9.1z"/><path class="prefix__o" d="M634.3 178a4 4 0 01-4.1-3.9 4.1 4.1 0 013.9-4.1 4 4 0 014.1 3.9 4 4 0 01-3.9 4.1z"/><path class="prefix__p" d="M634.3 178a4 4 0 01-4.1-3.9 4.1 4.1 0 013.9-4.1 4 4 0 014.1 3.9 4 4 0 01-3.9 4.1z"/><path class="prefix__q" d="M637.2 184.5l-7.1-.6 1 27 4.7-.6 1.4-25.8z"/><path class="prefix__aa" d="M562.8 125.1l59.7 1.6.3-11.5-59.4-6.1-.6 16z"/><path style="mix-blend-mode:multiply" fill="url(#prefix__n)" d="M562.8 125.1l59.7 1.6.3-11.5-59.4-6.1-.6 16z"/><path class="prefix__o" d="M576.1 117.7a4 4 0 01-4.1 3.9 4.1 4.1 0 01-3.9-4.2 4 4 0 014.2-3.8 3.9 3.9 0 013.8 4.1z"/><path class="prefix__p" d="M576.1 117.7a4 4 0 01-4.1 3.9 4.1 4.1 0 01-3.9-4.2 4 4 0 014.2-3.8 3.9 3.9 0 013.8 4.1z"/><path class="prefix__q" d="M582.7 115.1l-.9 7.1 27 .4-.3-4.8-25.8-2.7z"/><path d="M119.1 279.5l2.1-63.2a5.5 5.5 0 00-.8-2.9l-.4-.4c-.1-.1-.2-.2-.2-.3l-.4-.3-.3-.2-.5-.3h-.2l-.7-.3h-1l-13.6-.6H102l-47.6-2.2a4.7 4.7 0 00-4.5 4.9l3 70.2-2.4.2 7.2 163.8h60.4l3.6-168.3z" style="mix-blend-mode:multiply" fill="url(#prefix__o)"/><path style="mix-blend-mode:multiply" fill="url(#prefix__p)" d="M277.8 98.6l10 182.7 244.1 7.6 5.9-200.5-260 10.2z"/><path class="prefix__ae" d="M534.5 94.1L529 278.6l-232.6-7.1-9.4-167.8 247.5-9.6m6.2-6.2l-260 7.7 10 181.7 245.2 8 4.8-197.4z"/><path fill="#e0b280" d="M282.1 95.5l10 179.3 244.1 7.5 5.9-196.8-260 10z"/><path style="mix-blend-mode:multiply" fill="url(#prefix__q)" d="M445.3 110.2l5 75.1 68-1.7 4.7-75.4-77.7 2z"/><path class="prefix__ae" d="M533.7 282.2l5.8-193.8-257.6 9.9 9.9 176.5zm-.4-187.6L527.8 279l-232.6-7.1-9.4-167.8z"/><path class="prefix__i" d="M535.6 91.7l-5.5 184.4-232.6-7.1-9.4-167.8 247.5-9.5m6.2-6.2l-260 10 10 179.3 244.1 7.5 5.9-196.8z"/><path style="mix-blend-mode:multiply" fill="url(#prefix__r)" d="M158.9 130.5l1.3 124.1h93.9l.3-127.6-95.5 3.5z"/><path class="prefix__h" d="M155.3 128.5l1.3 121.1 92.7-2 2.5-122.6-96.5 3.5z"/><path class="prefix__aa" d="M155.7 170.7h95.2l.9-45.7-96.5 3.5.4 42.2z"/><path style="mix-blend-mode:multiply" fill="url(#prefix__s)" d="M155.7 170.7h95.2l.9-45.7-96.5 3.5.4 42.2z"/><path class="prefix__aj" d="M403.1 322.2l8.4 125.8h7.5l-5.2-125.8h-10.7z"/><path class="prefix__h" d="M218 273.6l.2-5.1 33.1-.6-.9 13.8-32.4-8.1z"/><path fill="#e5e1e1" d="M219.6 271.4v-2.9h-1.4l-.2 5.1 32.4 8.1.2-3.3-31-7z"/><path fill="#e2eef2" d="M505.1 293l-1.9-26.8h2.2l1.4 26.8h-1.7z"/><path class="prefix__t" d="M506.7 294.2l2.1-26.8 2.3.4-2.6 26.6-1.8-.2z"/><path class="prefix__v" d="M509.8 289.9l2.1-26.7 2.2.3-2.5 26.7-1.8-.3z"/><path class="prefix__m" d="M515.6 297.6l-1-26.8 2.3.1.5 26.8-1.8-.1z"/><path class="prefix__y" d="M515.5 291.8l4.9-26.4 2.2.6-5.4 26.2-1.7-.4z"/><path fill="#9d9e9e" d="M335.5 302.3l-.4-3h62.8l-.4 3h-62z"/><path class="prefix__an" d="M334.5 305.1l63.8-1 .6-2.7-65-.9.6 4.6zM414.8 280.3L417 301l-11 .8v1.5h32.3v-1.2l-8-.9 2.1-23.5"/><path style="mix-blend-mode:multiply" fill="url(#prefix__t)" d="M438.3 302.1l-8-.9 1.9-21.5-17.2 2.9 1.1 10.3 12.1 3.4v4l-11.2.7-11 .8v1.5h32.3v-1.2z"/><path fill="#717272" d="M482 211.8l-101.9 77.3 94.6 3.2 9.4-79.7-2.1-.8z"/><path class="prefix__an" d="M374.3 213.8l5.8 75.3 92.5 2.4 9.4-79.7-107.7 2z"/><path class="prefix__aq" d="M377.9 217.4l5.3 55.6 86.5 1.8 8.8-58.8-100.6 1.4z"/><path fill="#b4d9ef" d="M377.9 217.4l5.3 55.6 87.8 1.8 7.5-58.8-100.6 1.4z"/><path fill="url(#prefix__u)" d="M450.5 216.4l-8.5.1-5.4 57.6 6 .1 7.9-57.8z"/><path fill="url(#prefix__v)" d="M406 273.5l21.2.4 6.8-57.3-25 .4-3 56.5z"/><path fill="#878787" d="M379.2 218.6l99.1-1.4.2-1.2-100.6 1.4 5.3 55.6h1.3l-5.3-54.4z"/><path fill="#9d9d9e" d="M417 278.2l.8 6.5 12 .6.5-7.6"/><path d="M424.3 214.8a1.1 1.1 0 11-2.2 0 1.1 1.1 0 112.2 0z" fill="#555556"/><path d="M426.9 214.8a.5.5 0 01-.4.5.5.5 0 01-.5-.5.5.5 0 01.5-.4.4.4 0 01.4.4z" fill="#dce28a"/><path class="prefix__h" d="M209.8 322.2h323.1l3-20.6-328.7 3.6 2.6 17zM411.5 322.2L419 448h101.7l7.1-125.8H411.5z"/><path class="prefix__aj" d="M517.5 330.8l-2 32.7h-92.2l-1.5-32.3 95.7-.4m2.1-2l-99.9.5 1.7 36.2h96l2.2-36.7z"/><path class="prefix__ay" d="M519.6 328.8l-99.9.5 1.7 36.2h96l2.2-36.7z"/><path class="prefix__aj" d="M514.2 374.2l-1.3 29.4h-86.3l-1.5-29.4h89.1m2.1-2H423l1.8 33.4h90l1.5-33.4z"/><path class="prefix__ay" d="M516.3 372.2H423l1.8 33.4h90l1.5-33.4z"/><path class="prefix__aj" d="M512.7 414.6l-1 24.4h-83.1l-1.5-24.4h85.6m2.1-2H425l1.7 28.3h87l1.1-28.3z"/><path class="prefix__ay" d="M514.8 412.6H425l1.7 28.3h87l1.1-28.3z"/><path style="mix-blend-mode:multiply" fill="url(#prefix__w)" d="M404 335.6l8.4 1.8 114.8-4.2.6-11H403.1l.9 13.4z"/><path d="M472.5 348.7a3.6 3.6 0 01-3.6 3.7 3.7 3.7 0 110-7.3 3.6 3.6 0 013.6 3.6z" style="mix-blend-mode:multiply" fill="url(#prefix__x)"/><path d="M471.9 389.7a3.7 3.7 0 01-3.7 3.6 3.7 3.7 0 010-7.3 3.7 3.7 0 013.7 3.7z" style="mix-blend-mode:multiply" fill="url(#prefix__y)"/><path d="M471.9 428a3.8 3.8 0 01-3.7 3.7 3.7 3.7 0 01-3.6-3.7 3.6 3.6 0 013.6-3.6 3.7 3.7 0 013.7 3.6z" style="mix-blend-mode:multiply" fill="url(#prefix__z)"/><path class="prefix__aj" d="M473.3 347.7a3.7 3.7 0 11-7.3 0 3.7 3.7 0 017.3 0z"/><path class="prefix__h" d="M472.2 347.7c-.5.5-1.4.3-2.1-.4s-1-1.6-.6-2.1 1.4-.2 2.1.5 1 1.6.6 2z"/><path class="prefix__aj" d="M472.5 388.9a3.6 3.6 0 01-3.6 3.6 3.7 3.7 0 110-7.3 3.6 3.6 0 013.6 3.7z"/><circle class="prefix__aj" cx="468.9" cy="427.5" r="3.6"/><path d="M470 428.8a3.6 3.6 0 01-3.6-3.6v-.4a3.7 3.7 0 002.5 6.4 3.7 3.7 0 003.6-3.4 3.6 3.6 0 01-2.5 1z" style="mix-blend-mode:multiply" fill="url(#prefix__aa)"/><path d="M470 390.2a3.6 3.6 0 01-3.6-3.6v-.4a3.7 3.7 0 002.5 6.4 3.7 3.7 0 003.6-3.4 3.6 3.6 0 01-2.5 1z" style="mix-blend-mode:multiply" fill="url(#prefix__ab)"/><path d="M470.8 349a3.7 3.7 0 01-3.6-3.7v-.3a3.8 3.8 0 00-1.2 2.7 3.7 3.7 0 007.3.3 3.7 3.7 0 01-2.5 1z" style="mix-blend-mode:multiply" fill="url(#prefix__ac)"/><path class="prefix__h" d="M471.4 389c-.4.4-1.3.2-2.1-.5s-1-1.6-.5-2 1.3-.3 2.1.4.9 1.6.5 2.1zM471.5 427.6c-.4.4-1.4.2-2.1-.5s-1-1.6-.6-2 1.4-.3 2.1.4 1 1.6.6 2.1z"/><path style="mix-blend-mode:multiply" fill="url(#prefix__ad)" d="M403.3 325l8.4.8 116-1.7.1-1.9H403.1l.2 2.8z"/><path fill="#939393" d="M219.1 322.2l8 125.8h3.1l-2.7-125.8h-8.4z"/><path fill="#dbdcdd" d="M220.3 322.8h7.2v-.6h-8.4l8 125.8h.3l-7.1-125.2z"/><path d="M227.5 322.2h-8.4l.8 12.2a36.2 36.2 0 007.9 3.9z" style="mix-blend-mode:multiply" fill="url(#prefix__ae)"/><path d="M227.5 322.2h-8.4l.8 12.2a36.2 36.2 0 007.9 3.9z" style="mix-blend-mode:multiply" fill="url(#prefix__af)"/><path class="prefix__an" d="M458.5 302.5s5.9-12 11.9-.2"/><path class="prefix__bl" d="M348.8 350.6a5 5 0 01-5 5h-81a5 5 0 01-5-5l-10-86.6a5 5 0 015-5l99-7a5 5 0 015 5z"/><path class="prefix__bm" d="M351.8 252l-99 7a5.1 5.1 0 00-4.9 4 5.1 5.1 0 014.6-3l99-7a5.1 5.1 0 015 5l-8 93.6c0 .4-.1.7-.1 1a6.5 6.5 0 00.4-2l8-93.6a5 5 0 00-5-5z"/><path class="prefix__bn" d="M346 351a4.7 4.7 0 01-4.6 4.6h-75.2a4.7 4.7 0 01-4.6-4.6l-9.3-80.4a4.7 4.7 0 014.6-4.6l91.9-6.5a4.7 4.7 0 014.7 4.6z"/><path class="prefix__bo" d="M348.8 259.5l-91.9 6.5a4.5 4.5 0 00-4.3 3.1 4.4 4.4 0 013.4-1.6l91.9-6.5a4.7 4.7 0 014.7 4.6l-7.5 86.9a3.7 3.7 0 01-.3 1.5 4.1 4.1 0 001.2-3l7.5-86.9a4.7 4.7 0 00-4.7-4.6z"/><path d="M339.3 344.2a4 4 0 01-4 3.9H272a3.9 3.9 0 01-3.9-3.9l-7.9-67.8a4 4 0 013.9-3.9l77.5-5.5a3.9 3.9 0 013.9 3.9z" stroke="#686868" fill="none" stroke-miterlimit="10"/><path d="M323 341.5c-31.5 0-57-25.9-57-57.9a56.9 56.9 0 013-18.5l-12.1.9a4.7 4.7 0 00-4.6 4.6l9.3 80.4a4.7 4.7 0 004.6 4.6h75.2a4.7 4.7 0 004.6-4.6l1.3-15.1a55.3 55.3 0 01-24.3 5.6z" style="mix-blend-mode:multiply" fill="url(#prefix__ag)"/><path class="prefix__bl" d="M338.9 244.8a3.9 3.9 0 01-3.8 4.1l-61.8 4.4a4.1 4.1 0 01-4.2-3.9l-5.9-34.9a4.1 4.1 0 013.9-4.2l67.3-7.7a4.1 4.1 0 014.2 3.9z"/><path class="prefix__bm" d="M334.4 202.6l-67.3 7.7a4.1 4.1 0 00-3.9 3.4 3.9 3.9 0 013.6-2.5l67.3-7.8a4 4 0 014.2 3.9l.4 38.3a2.5 2.5 0 01-.1.8 4.5 4.5 0 00.3-1.6l-.4-38.3a4 4 0 00-4.1-3.9z"/><path class="prefix__bn" d="M336.7 245.1a3.7 3.7 0 01-3.6 3.9l-57.1 4.2a3.7 3.7 0 01-3.8-3.6l-5.2-29.9a3.7 3.7 0 013.6-3.9l61.6-7.1a3.6 3.6 0 013.8 3.6z"/><path class="prefix__bo" d="M332.2 208.7l-61.6 7.1a3.8 3.8 0 00-3.4 2.6 3.4 3.4 0 012.7-1.3l61.6-7.2a3.8 3.8 0 013.9 3.6l.6 32.8a2.8 2.8 0 01-.1 1.3 3.6 3.6 0 00.8-2.5l-.7-32.8a3.6 3.6 0 00-3.8-3.6z"/><path class="prefix__br" d="M280.5 247.4h-.1a3.6 3.6 0 01-3.6-3.5l-3.7-19.7a3.5 3.5 0 013.4-3.7l50-6a3.6 3.6 0 013.7 3.4l1.3 21.9a3.6 3.6 0 01-3.4 3.7zm46.1-32.1l-50 6a2.7 2.7 0 00-2.7 2.8l3.7 19.7a2.8 2.8 0 002.8 2.8l47.6-3.9a2.8 2.8 0 002.7-2.9l-1.3-21.8a2.8 2.8 0 00-2.8-2.7z"/><path class="prefix__bn" d="M307.8 435.7l33.5 7.5-.5.9-33.8-5.9"/><path style="mix-blend-mode:multiply" fill="url(#prefix__ah)" d="M307.8 435.7l33.5 7.5-.5.9-33.8-5.9"/><path class="prefix__bn" d="M337.9 445.8a3.4 3.4 0 003.4 3.4 3.4 3.4 0 100-6.8 3.4 3.4 0 00-3.4 3.4z"/><path class="prefix__bt" d="M339.8 445.8a1.5 1.5 0 001.5 1.5 1.6 1.6 0 001.6-1.5 1.6 1.6 0 00-1.6-1.6 1.6 1.6 0 00-1.5 1.6z"/><path class="prefix__bn" d="M301.5 435.8l-33.5 7.6.5.8 33.8-5.9"/><path style="mix-blend-mode:multiply" fill="url(#prefix__ai)" d="M301.5 435.8l-33.5 7.6.5.8 33.8-5.9"/><path class="prefix__bn" d="M302 442.4h5.4v6.91H302z"/><path style="mix-blend-mode:multiply" fill="url(#prefix__aj)" d="M302 442.4h5.4v6.91H302z"/><path style="mix-blend-mode:multiply" fill="url(#prefix__ak)" d="M302 442.4h5.4v6.91H302z"/><path class="prefix__bn" d="M302 386.2l1.4 49.7h2.9l1.3-50.2"/><path style="mix-blend-mode:multiply" fill="url(#prefix__al)" d="M302 386.2l1.4 49.7h2.9l1.3-50.2"/><path d="M302.1 391.2a16.3 16.3 0 005.3 2.6l.2-8.1-5.6.5z" style="mix-blend-mode:multiply" fill="url(#prefix__am)"/><path d="M358.8 377.2c0-7.3-24.7-13.2-55-13.2s-55 5.9-55 13.2 24.6 9 55 9 55-1.8 55-9z" fill="#4e69a8"/><path class="prefix__bn" d="M358.8 377.2c0-7.3-24.7-13.2-55-13.2s-55 5.9-55 13.2 24.6 9 55 9 55-1.8 55-9z"/><path class="prefix__br" d="M249 378.4c9.1 3.2 30.3 4.5 54.8 4.5s45.3-.9 54.5-4.1a3.3 3.3 0 00.4-1.4 5.7 5.7 0 00-.3-1.8c-1.9-3.9-10.8-7.2-23.6-9.3a279.3 279.3 0 00-31-1.3c-14 0-24.6.5-32.5 1.5-11.5 2-19.5 5.1-21.9 8.6a8.4 8.4 0 00-.6 2.4c0 .4-.1.5.2.9z"/><path d="M305.6 384.9c-30.4 0-55-1.8-55-9.1a4.8 4.8 0 012-3.5c-2.5 1.5-3.8 3.1-3.8 4.9 0 7.2 24.6 9 55 9 26.4 0 48.5-1.3 53.8-6.5-7.5 4.1-27.9 5.2-52 5.2z" style="mix-blend-mode:multiply" fill="url(#prefix__an)"/><path class="prefix__bl" d="M358.7 377.6c0-.1.1-.3.1-.4 0-13.2 5.1-13.2-55-13.2-56 0-55-1-55 13.2v.4c8.9 3.3 30.2 4.3 55 4.3s46-1 54.9-4.3z"/><path class="prefix__bm" d="M303.8 364.5c50.8 0 55 0 55.1 7.9.1-8.4-3.2-8.4-55.1-8.4-54.6 0-55.1-.9-55 12.2 0-12.6 1.1-11.7 55-11.7z"/><path d="M298.4 364l1 20.9h12.9l.5-20.8h-14.4z" style="mix-blend-mode:multiply" fill="url(#prefix__ao)"/><path style="mix-blend-mode:multiply" fill="url(#prefix__ap)" d="M300.4 355.6h15.1l.6-30.8-17 1.3 1.3 29.5z"/><path d="M353.5 367c0 1.2-21.8 2.1-48.7 2.1s-48.6-.9-48.6-2.1 21.7-1 48.6-1 48.7-.1 48.7 1z" style="mix-blend-mode:multiply" fill="url(#prefix__aq)"/><path class="prefix__bt" d="M300.5 429.6l1.5 9h5.6l1.3-9.5-8.4.5z"/><path class="prefix__bn" d="M303 436.9l.8 7.3h1.6l1.2-7.8a2.6 2.6 0 00-3.6.5zM271.4 445.9a3.4 3.4 0 01-3.4 3.4 3.4 3.4 0 110-6.8 3.4 3.4 0 013.4 3.4z"/><path class="prefix__bt" d="M269.5 445.9a1.5 1.5 0 01-1.5 1.5 1.6 1.6 0 01-1.6-1.5 1.5 1.5 0 011.6-1.5 1.5 1.5 0 011.5 1.5z"/><path d="M312.4 241.2c-19 0-34.5-11.5-36-26l-5.8.6a3.7 3.7 0 00-3.6 3.9l5.2 29.9a3.7 3.7 0 003.8 3.6l57.1-4.2a3.7 3.7 0 003.6-3.9l-.2-11.1a41.9 41.9 0 01-24.1 7.2z" style="mix-blend-mode:multiply" fill="url(#prefix__ar)"/><path d="M273.8 378.5c-24.6-5.2-21.5-12.2-21.5-12.2-3.7 1.8-3.5 5.1-3.5 10.9v.4c8.9 3.3 30.2 4.3 55 4.3s46-1 54.9-4.3c0-.1.1-.3.1-.4v-.8c-12.8 4.4-62.4 7-85 2.1z" style="mix-blend-mode:multiply" fill="url(#prefix__as)"/><path class="prefix__bn" d="M311.4 383.8h-12.9l-2.8-60.3 17.1-1.4-1.4 61.7z"/><path class="prefix__aq" d="M296.6 324.5l16.1-1.2.1-1.2-17.1 1.4 2.8 60.3h.8l-2.7-59.3z"/><path d="M308.4 338.2a4.7 4.7 0 11-4.6-4.7 4.7 4.7 0 014.6 4.7z" style="mix-blend-mode:multiply" fill="url(#prefix__at)"/><path class="prefix__aq" d="M309.4 336.8a4.7 4.7 0 11-4.6-4.7 4.7 4.7 0 014.6 4.7z"/><path class="prefix__aa" d="M503.3 302l15.4-.2 1.6-21.2-18-.9 1 22.3z"/><path style="mix-blend-mode:multiply" fill="url(#prefix__au)" d="M251.8 125l-5 122.7 2.5-.1 2.5-122.6z"/><path fill="url(#prefix__av)" d="M163.1 179.1l1.3 62 73.9-1.3 4.5-60.7h-79.7z"/><path style="mix-blend-mode:soft-light" fill="#ddd1bf" d="M163.1 136.1v10.7l75.2-4v-6.7h-75.2z"/><path d="M202.1 128.1a3.2 3.2 0 11-6.3 0 3.2 3.2 0 016.3 0z" style="mix-blend-mode:multiply" fill="url(#prefix__aw)"/><path class="prefix__y" d="M202.9 126.9a3.1 3.1 0 01-3.1 3.1 3.2 3.2 0 110-6.3 3.1 3.1 0 013.1 3.2z"/><circle class="prefix__cl" cx="284.8" cy="98.3" r="1.3"/><path class="prefix__cl" d="M539.5 88.4a1.3 1.3 0 01-1.3 1.3 1.3 1.3 0 01-1.4-1.3 1.4 1.4 0 011.4-1.4 1.3 1.3 0 011.3 1.4z"/><path style="mix-blend-mode:multiply" fill="url(#prefix__ax)" d="M303 120.6l4.7 65.7 50-2.4v-66l-54.7 2.7z"/><path class="prefix__h" d="M304.8 118.1l4.6 65.8 50-2.4v-66l-54.6 2.6z"/><path style="mix-blend-mode:multiply" fill="url(#prefix__ay)" d="M345.7 143.6l3.7 63.3 60.6-2.5-1-64.2-63.3 3.4z"/><path fill="#fcf4d4" d="M347.8 141.8l3.7 63.3 60.6-2.5-1-64.1-63.3 3.3z"/><path class="prefix__h" d="M447.1 108.8l5 75.1 68-1.8 4.7-75.3-77.7 2z"/><path d="M333.4 117.2a2.1 2.1 0 01-2.2 2.1 2.1 2.1 0 01-2.1-2.1 2.1 2.1 0 012.1-2.2 2.2 2.2 0 012.2 2.2z" style="mix-blend-mode:multiply" fill="url(#prefix__az)"/><path class="prefix__y" d="M334 116.3a2.2 2.2 0 01-2.2 2.2 2.2 2.2 0 010-4.4 2.2 2.2 0 012.2 2.2z"/><path d="M355.9 146.8a2.2 2.2 0 01-2.2 2.1 2.1 2.1 0 01-2.1-2.1 2.1 2.1 0 012.1-2.2 2.2 2.2 0 012.2 2.2z" style="mix-blend-mode:multiply" fill="url(#prefix__ba)"/><path class="prefix__bl" d="M356.5 145.9a2.1 2.1 0 01-2.2 2.1 2.1 2.1 0 01-2.1-2.1 2.1 2.1 0 012.1-2.2 2.2 2.2 0 012.2 2.2z"/><path d="M407.8 143.2a2.1 2.1 0 01-2.1 2.2 2.2 2.2 0 01-2.2-2.2 2.1 2.1 0 012.2-2.1 2.1 2.1 0 012.1 2.1z" style="mix-blend-mode:multiply" fill="url(#prefix__bb)"/><path class="prefix__bl" d="M408.4 142.4a2.1 2.1 0 01-2.1 2.1 2.1 2.1 0 01-2.2-2.1 2.2 2.2 0 012.2-2.2 2.1 2.1 0 012.1 2.2z"/><path d="M486 108.7a2.2 2.2 0 01-2.2 2.1 2.1 2.1 0 01-2.1-2.1 2.1 2.1 0 012.1-2.2 2.2 2.2 0 012.2 2.2z" style="mix-blend-mode:multiply" fill="url(#prefix__bc)"/><path class="prefix__y" d="M486.6 107.8a2.1 2.1 0 01-2.2 2.1 2.1 2.1 0 01-2.1-2.1 2.1 2.1 0 012.1-2.2 2.2 2.2 0 012.2 2.2z"/><path d="M61.5 235.6s6.3-5.4 17.3-3.4 36 14.7 53.5 6.5c0 0-62.2 23.7-70.8-3.1z" fill="#afe0ef"/><path d="M61.5 235.6l3.3 49.7 66.7-3.3.8-43.3a41.4 41.4 0 00-17.5-4c-23.5 0-35.2 19.7-53.3.9z" fill="#84bdd3"/><path class="prefix__cv" d="M61.5 235.6l3.3 49.7 66.7-3.3.8-43.3a41.4 41.4 0 00-17.5-4c-23.5 0-35.2 19.7-53.3.9z"/><path class="prefix__cv" d="M61.5 235.6l3.3 49.7 66.7-3.3.8-43.3a41.4 41.4 0 00-17.5-4c-23.5 0-35.2 19.7-53.3.9z"/><path d="M61.5 235.6l3.3 49.7 66.7-3.3.8-43.3a41.4 41.4 0 00-17.5-4c-23.5 0-35.2 19.7-53.3.9z" style="mix-blend-mode:multiply" fill="url(#prefix__bf)"/><path d="M136.6 210.3a5 5 0 00-5-5l-69.5-3a5.1 5.1 0 00-5 5l4 86.9a5 5 0 005 5h62.5a5 5 0 005-5z" opacity=".6" fill="#edf8f9"/><path d="M62.4 295.4l-4-86.8a5 5 0 015-5l69.5 3a5.4 5.4 0 012.8.8 5.2 5.2 0 00-4.1-2.1l-69.5-3a5.1 5.1 0 00-5 5l4 86.9a5 5 0 002.2 4.1 4.8 4.8 0 01-.9-2.9z" opacity=".8" fill="#edf8f9"/><path d="M134.6 268.6c-12.1 2.1-30.1 3.2-46.1-3.2-23.2-9.3-24.1-50.8-23.8-63h-2.6a5.1 5.1 0 00-5 5l3.9 83.7 72.9-4.7z" style="mix-blend-mode:multiply" fill="url(#prefix__bg)"/><path class="prefix__h" d="M57.8 279.7l8 168.3h67.3l4-172.9-79.3 4.6z"/><path class="prefix__aj" d="M129.4 286.4l-1.2 48.9-58.8-2.2-2.5-42.3 62.5-4.4m2.1-2.2l-66.7 4.7 2.7 46.2 62.6 2.3 1.4-53.2zM67.6 341.6l4 41h52.8l4.2-39.8-61-1.2z"/><path d="M71.6 382.6s24.4-8.9 52.8 0z" style="mix-blend-mode:multiply" fill="url(#prefix__bh)"/><path fill="#6ba6db" d="M78.3 340.2l1.2 9.5h3.1l.7-9.5h-5z"/><path fill="#d65754" d="M111 340.2v9.1l3.1.4 1.2-9.5H111z"/><path class="prefix__dd" d="M94.6 342.1l.6 4.8h2.3l.6-4.7-3.5-.1zM89.9 360.6l2.1 20a42.2 42.2 0 0010.8 0l1.1-20.4a80.4 80.4 0 00-14 .4z"/><path class="prefix__dd" d="M101.1 380.8l.9-20.7h-2.1l.7 20.8z"/><path class="prefix__aj" d="M109.6 433.3l-1 7.6h16.5v-11.8l-15.5 4.2z"/><path fill="#edf8f9" opacity=".5" d="M115.3 204.6v85.5l7.3-1.2 2.8-83.8-10.1-.5z"/><path class="prefix__h" d="M560.8 223.7l163.3.9V241l-163.3.3v-17.6zM557.8 125.5l163.3 1v16.4l-163.3.3v-17.7z"/><path class="prefix__bl" d="M561.7 448h35.7l6.3-51.2-45.6-2.3 3.6 53.5z"/><path d="M594 440.9c-17.3 0-31.4-18.7-31.4-41.7 0-1.5.1-3 .2-4.5l-4.7-.2 3.6 53.5h35.6l1-7.5a20.9 20.9 0 01-4.3.4z" style="mix-blend-mode:multiply" fill="url(#prefix__bi)"/><path style="mix-blend-mode:overlay" fill="url(#prefix__bj)" d="M602.5 406.1l.3-2-44.1-1.9v.1l43.8 3.8z"/><path style="mix-blend-mode:overlay" fill="url(#prefix__bk)" d="M602 410l.3-1.9-43.4-2.7.1 2.4 43 2.2z"/><path style="mix-blend-mode:soft-light" fill="url(#prefix__bl)" d="M589.1 398.1l9.2 1-4.6 33.5-4.6-34.5z"/></g></svg>