<svg xmlns="http://www.w3.org/2000/svg" xmlns:xlink="http://www.w3.org/1999/xlink" viewBox="0 0 500 500"><defs><linearGradient id="prefix__a" x1="92.32" y1="659.17" x2="272.22" y2="174.17" gradientUnits="userSpaceOnUse"><stop offset="0" stop-color="#ad68a4"/><stop offset=".11" stop-color="#b170a9" stop-opacity=".95"/><stop offset=".3" stop-color="#bd86b6" stop-opacity=".8"/><stop offset=".54" stop-color="#d0a9cb" stop-opacity=".57"/><stop offset=".81" stop-color="#ebdae9" stop-opacity=".25"/><stop offset="1" stop-color="#fff" stop-opacity="0"/></linearGradient><linearGradient id="prefix__b" x1="170.6" y1="511.25" x2="381.94" y2="221.76" xlink:href="#prefix__a"/><linearGradient id="prefix__c" x1="140.13" y1="404.03" x2="199.17" y2="404.03" gradientUnits="userSpaceOnUse"><stop offset="0" stop-color="#fff" stop-opacity="0"/><stop offset="1" stop-color="#90a4ae"/></linearGradient><linearGradient id="prefix__d" x1="171.01" y1="402.84" x2="171.01" y2="375.49" xlink:href="#prefix__c"/><linearGradient id="prefix__e" x1="143.5" y1="391.66" x2="185.24" y2="313.47" xlink:href="#prefix__c"/><linearGradient id="prefix__f" x1="155.49" y1="392.65" x2="174.68" y2="299.11" xlink:href="#prefix__c"/><linearGradient id="prefix__g" x1="364.33" y1="274.02" x2="397.86" y2="274.02" xlink:href="#prefix__a"/><linearGradient id="prefix__h" x1="184.4" y1="198.23" x2="243.92" y2="198.23" xlink:href="#prefix__a"/><linearGradient id="prefix__i" x1="185.65" y1="149.88" x2="212.84" y2="186.03" gradientUnits="userSpaceOnUse"><stop offset="0" stop-color="#fff" stop-opacity="0"/><stop offset=".17" stop-color="#ecdae1" stop-opacity=".22"/><stop offset=".45" stop-color="#cfa3b4" stop-opacity=".56"/><stop offset=".69" stop-color="#ba7c93" stop-opacity=".8"/><stop offset=".88" stop-color="#ad637f" stop-opacity=".95"/><stop offset="1" stop-color="#a85a78"/></linearGradient><linearGradient id="prefix__j" x1="204.84" y1="170.02" x2="226.91" y2="181.86" gradientUnits="userSpaceOnUse"><stop offset="0" stop-color="#fff" stop-opacity="0"/><stop offset=".15" stop-color="#feeed6" stop-opacity=".19"/><stop offset=".38" stop-color="#fdd599" stop-opacity=".47"/><stop offset=".59" stop-color="#fbc169" stop-opacity=".7"/><stop offset=".77" stop-color="#fbb246" stop-opacity=".86"/><stop offset=".91" stop-color="#faa931" stop-opacity=".96"/><stop offset="1" stop-color="#faa629"/></linearGradient><linearGradient id="prefix__k" x1="208.52" y1="190.28" x2="238.17" y2="190.28" gradientUnits="userSpaceOnUse"><stop offset="0" stop-color="#fff" stop-opacity="0"/><stop offset=".2" stop-color="#cee9ea" stop-opacity=".26"/><stop offset=".47" stop-color="#93ced2" stop-opacity=".58"/><stop offset=".71" stop-color="#68bbc0" stop-opacity=".81"/><stop offset=".89" stop-color="#4eafb5" stop-opacity=".95"/><stop offset="1" stop-color="#44abb1"/></linearGradient><linearGradient id="prefix__l" x1="239.85" y1="270.15" x2="286.1" y2="178.84" xlink:href="#prefix__a"/><linearGradient id="prefix__m" x1="267.52" y1="283.76" x2="327.73" y2="288.14" xlink:href="#prefix__a"/><linearGradient id="prefix__n" x1="301.94" y1="301.6" x2="348.2" y2="210.29" xlink:href="#prefix__a"/><linearGradient id="prefix__o" x1="126.27" y1="301.32" x2="291.6" y2="272.65" xlink:href="#prefix__a"/><linearGradient id="prefix__p" x1="135.23" y1="256.77" x2="135.23" y2="334.84" xlink:href="#prefix__c"/><linearGradient id="prefix__q" x1="122.68" y1="289.27" x2="122.68" y2="397.19" xlink:href="#prefix__c"/><linearGradient id="prefix__r" x1="112.3" y1="380.65" x2="130.67" y2="362.28" xlink:href="#prefix__c"/><linearGradient id="prefix__s" x1="358" y1="238.11" x2="374.69" y2="264.24" gradientUnits="userSpaceOnUse"><stop offset="0" stop-color="#fff" stop-opacity="0"/><stop offset=".07" stop-color="#edf5ee" stop-opacity=".09"/><stop offset=".38" stop-color="#9fc9a5" stop-opacity=".48"/><stop offset=".66" stop-color="#67aa70" stop-opacity=".76"/><stop offset=".87" stop-color="#44964f" stop-opacity=".94"/><stop offset="1" stop-color="#378f43"/></linearGradient><style>.prefix__a{isolation:isolate}.prefix__av,.prefix__bm,.prefix__bo,.prefix__c,.prefix__u{fill:none}.prefix__bn,.prefix__c{stroke:#fff}.prefix__bm,.prefix__bn,.prefix__c,.prefix__u{stroke-miterlimit:10}.prefix__av,.prefix__bo,.prefix__c{stroke-width:2px}.prefix__f{fill:#263238}.prefix__g{fill:#5d4037}.prefix__h{fill:#90a4ae}.prefix__j{fill:#eceff1}.prefix__l{fill:#cfd8dc}.prefix__p{fill:#ffcba4}.prefix__bk,.prefix__bn,.prefix__t{fill:#fff}.prefix__u{stroke:#0f294c;stroke-width:1.5px}.prefix__av,.prefix__bm,.prefix__bo,.prefix__u{stroke-linecap:round}.prefix__v{fill:#d81b61}.prefix__w{fill:#f06392}.prefix__z{fill:#faa629}.prefix__ad{fill:#229795}.prefix__aj{fill:#e5e5e5}.prefix__ak{fill:#78909c}.prefix__am{fill:#d38d59}.prefix__ao{fill:#bec8cc}.prefix__ap{fill:#3f6570}.prefix__aq{fill:#2e3333}.prefix__av{stroke:#b3e5fc}.prefix__av,.prefix__bo{stroke-linejoin:round}.prefix__aw{fill:#ffe0b2}.prefix__bb{fill:#863d11}.prefix__bg{fill:#346a34}.prefix__bh{fill:#fdd836}.prefix__bj{fill:#37474f}.prefix__bk{opacity:.8}.prefix__bm{stroke:#37474f}.prefix__bn{stroke-width:.75px}.prefix__bo{stroke:#f06392}</style></defs><g class="prefix__a"><path fill="#255c6d" d="M0 0h500v500H0z"/><path class="prefix__c" d="M378.7 182.2c0 1.1-.7 1.5-1.6 1a3.7 3.7 0 01-1.7-2.9 1 1 0 011.7-.9 3.6 3.6 0 011.6 2.8zM242.8 64.1c0 1.1-.7 1.5-1.6 1a3.4 3.4 0 01-1.7-2.9c0-1 .7-1.5 1.7-.9a3.6 3.6 0 011.6 2.8zM399.5 142.8c0 1.1-.7 1.5-1.6 1a3.4 3.4 0 01-1.7-2.9c0-1.1.7-1.5 1.7-1a3.9 3.9 0 011.6 2.9z"/><ellipse class="prefix__c" cx="252" cy="47" rx="1.4" ry="2.4" transform="matrix(.87 -.5 .5 .87 10.28 132.29)"/><path class="prefix__c" d="M310.7 112.3c0 1.1-.7 1.5-1.6 1a3.4 3.4 0 01-1.7-2.9c0-1.1.7-1.5 1.7-1a3.9 3.9 0 011.6 2.9zM369 207.2c0 1-.7 1.5-1.6.9a3.4 3.4 0 01-1.7-2.9c0-1 .7-1.5 1.7-.9a3.6 3.6 0 011.6 2.9zM194.5 73.2c0 1.1-.7 1.5-1.7 1a3.6 3.6 0 01-1.6-2.9c0-1.1.7-1.5 1.6-1a3.7 3.7 0 011.7 2.9z"/><ellipse class="prefix__c" cx="388.3" cy="173.4" rx="4.6" ry="8" transform="rotate(-30 388.324 173.451)"/><ellipse class="prefix__c" cx="185.4" cy="88.1" rx="4.6" ry="8" transform="rotate(-30 185.4 88.078)"/><path d="M168.6 446.9l-40.7-23.5a10.1 10.1 0 010-17.5l40.7-23.6a29 29 0 0128.8 0l40.8 23.6a10.1 10.1 0 010 17.5l-40.8 23.5a28.5 28.5 0 01-28.8 0z" style="mix-blend-mode:multiply" fill="url(#prefix__a)"/><path style="mix-blend-mode:multiply" fill="url(#prefix__b)" d="M295.8 446.2h35.1l118.3-68.3-210.5-121.4-112.3 67 196.2 111.4h-26.8v11.3z"/><path class="prefix__f" d="M204 369.9s16.5-5.6 21.9-3.9.9 11.7-12.4 19-18.7 5-21.4 1.7 1.9-13.4 1.9-13.4z"/><path class="prefix__g" d="M182.6 269.1s18.5-11 25.9 7-2.1 87-3.6 97.6a2.7 2.7 0 01-1.5 2.2 9.4 9.4 0 01-6.8.4 4.2 4.2 0 01-2.6-3l-16.9-70.2z"/><path class="prefix__f" d="M231 384.8s16.5-5.6 21.9-3.9.9 11.6-12.4 18.9-18.7 5.1-21.3 1.7 1.8-13.3 1.8-13.3z"/><path class="prefix__g" d="M209.6 284s18.5-11 25.9 7-2.1 87-3.5 97.6a2.5 2.5 0 01-1.6 2.1 8.9 8.9 0 01-6.8.5 4.2 4.2 0 01-2.6-3L204.1 318z"/><path class="prefix__h" d="M171 410.8l30.4-17.5a2 2 0 001.1-1.7h.1v7.4h-.1a1.9 1.9 0 01-1.1 1.4L171 418v-7.2z"/><path class="prefix__h" d="M202.6 428.8v-7.4l-63.2-29.9v7.4h.1a1.9 1.9 0 001.1 1.4l53.3 30.8a7.9 7.9 0 007-.3 3.3 3.3 0 001.7-2z"/><path class="prefix__h" d="M141.1 430.9a3.3 3.3 0 01-1.7-2.1v-7.1a3.3 3.3 0 001.7 2.1 7.9 7.9 0 007 .3l22.9-13.3v7.2l-22.9 13.2a7.9 7.9 0 01-7-.3z"/><path d="M201.4 419.7l-22.9-13.2 22.9-13.2a2 2 0 001.1-1.7 2.7 2.7 0 00-1.6-2.3c-2.1-1.2-5.2-1.4-7-.3L171 402.2 148.1 389c-1.8-1.1-4.9-.9-7 .3s-2.3 3-.5 4l22.9 13.2-22.9 13.2a2.5 2.5 0 00-1.1 1.7c0 .1-.1.2-.1.3a3.3 3.3 0 001.7 2.1 7.9 7.9 0 007 .3l22.9-13.3 22.9 13.3a7.9 7.9 0 007-.3c2.1-1.2 2.3-3 .5-4.1z" fill="#2e7ae5"/><path class="prefix__j" d="M201.4 419.7l-22.9-13.2 22.9-13.2a2 2 0 001.1-1.7 2.7 2.7 0 00-1.6-2.3c-2.1-1.2-5.2-1.4-7-.3L171 402.2 148.1 389c-1.8-1.1-4.9-.9-7 .3s-2.3 3-.5 4l22.9 13.2-22.9 13.2a2.5 2.5 0 00-1.1 1.7c0 .1-.1.2-.1.3a3.3 3.3 0 001.7 2.1 7.9 7.9 0 007 .3l22.9-13.3 22.9 13.3a7.9 7.9 0 007-.3c2.1-1.2 2.3-3 .5-4.1z"/><path style="mix-blend-mode:multiply" fill="url(#prefix__c)" d="M178.5 406.5l7.5-4.3 3.9-2.2h-15l-3.9 2.2v5.9h10.2l-2.7-1.6z"/><path class="prefix__l" d="M171 408.1a6.7 6.7 0 006.6-6.6v-26h-13.2v26a6.7 6.7 0 006.6 6.6z"/><path d="M171 408.1a6.7 6.7 0 006.6-6.6v-26h-13.2v26a6.7 6.7 0 006.6 6.6z" style="mix-blend-mode:multiply" fill="url(#prefix__d)"/><path class="prefix__h" d="M109.7 342.2l26.9-1 25.5-14.8c4.3-2.4 10.7-2.7 14.4-.6l22.5 13 23.9-.8v17.1c-.1 1.5-1.3 3.1-3.5 4.4l-48.9 28.3c-4.3 2.4-10.7 2.7-14.4.6L112.2 363a4.1 4.1 0 01-2.4-3.5h-.1z"/><path d="M109.7 342.2l26.9-1 25.5-14.8c4.3-2.4 10.7-2.7 14.4-.6l22.5 13 23.9-.8v17.1c-.1 1.5-1.3 3.1-3.5 4.4l-48.9 28.3c-4.3 2.4-10.7 2.7-14.4.6L112.2 363a4.1 4.1 0 01-2.4-3.5h-.1z" style="mix-blend-mode:multiply" fill="url(#prefix__e)"/><path class="prefix__j" d="M112.2 345.8l43.9 25.4c3.7 2.1 10.1 1.9 14.4-.6l48.9-28.3c4.2-2.4 4.7-6.1 1-8.2l-43.9-25.4c-3.7-2.1-10.1-1.9-14.4.6l-48.9 28.2c-4.2 2.5-4.7 6.2-1 8.3z"/><path d="M112.2 345.8l43.9 25.4c3.7 2.1 10.1 1.9 14.4-.6l48.9-28.3c4.2-2.4 4.7-6.1 1-8.2l-43.9-25.4c-3.7-2.1-10.1-1.9-14.4.6l-48.9 28.2c-4.2 2.5-4.7 6.2-1 8.3z" style="mix-blend-mode:multiply" fill="url(#prefix__f)"/><path class="prefix__g" d="M116.7 315.3s.6 41.8 47.7 41.8c20.9 0 66.4-35.1 66.4-35.1s5.1-15.9-6.5-24.2-41.3-21.2-41.3-21.2z"/><path class="prefix__h" d="M119.8 336.8l-6.8 3.9v-99.6l6.8-3.9v99.6z"/><path class="prefix__p" d="M384.4 387.3l6.7 3.9v-99.7l-6.7-3.9v99.7z"/><path fill="#eab588" d="M295.8 337.6L106.3 228.2l102.1-59 189.5 109.5-102.1 58.9z"/><path style="mix-blend-mode:multiply" fill="url(#prefix__g)" d="M364.3 283h25.6l8-4.3-23.6-13.7-10 18z"/><path style="mix-blend-mode:multiply" fill="url(#prefix__h)" d="M184.4 200.3h19.7l4.4 13.7h35.4v-18.1l-38-13.5-21.5 17.9z"/><path class="prefix__j" d="M312.2 323.5L278 303.7l45.2-26.1 34.2 19.8-45.2 26.1z"/><path class="prefix__t" d="M313.4 318.2l-34.3-19.7 45.3-26.1 34.2 19.7-45.2 26.1z"/><path class="prefix__u" d="M322.9 277.5L348 292M318.9 280.4l25.1 14.5M314.8 283.3l25.1 14.5M310.8 286.2l25.1 14.5"/><path class="prefix__v" d="M206.5 178.8l-29.8 17.1v-47.4l29.8-17.1v47.4z"/><path class="prefix__w" d="M184.4 200.3l-8.7-5v-47.5l8.7 5.1v47.4z"/><path class="prefix__v" d="M214.2 183.2l-29.8 17.1v-47.4l29.8-17.1v47.4z"/><path style="mix-blend-mode:multiply" opacity=".5" fill="url(#prefix__i)" d="M214.2 183.2l-29.8 17.1v-47.4l29.8-17.1v47.4z"/><path fill="#ec407a" d="M214.2 135.7l-.9-.5-28.9 16.5-6.7-3.8 28.8-16.5-1-.6-28.8 16.5-1 .6 1 .6 7.7 4.4 1-.6 28.8-16.6z"/><path class="prefix__t" d="M179.7 149l26.8-15.4 4.8 2.7-26.9 15.4-4.7-2.7z"/><path class="prefix__z" d="M220.6 186.8l-22.9 13.1v-42.6l22.9-13.1v42.6z"/><path fill="#f78c1f" d="M205.4 204.3l-8.7-5v-42.6l8.7 5v42.6z"/><path class="prefix__z" d="M228.3 191.2l-22.9 13.1v-42.6l22.9-13.1v42.6z"/><path style="mix-blend-mode:multiply" fill="url(#prefix__j)" d="M228.3 191.2l-22.9 13.1v-42.6l22.9-13.1v42.6z"/><path fill="#fcb64e" d="M228.3 148.6l-1-.6-21.9 12.5-6.7-3.8 21.9-12.5-1-.6-21.9 12.5-1 .6 1 .6 7.7 4.4 1-.6 21.9-12.5z"/><path class="prefix__t" d="M200.7 157.8l19.9-11.4 4.7 2.7-19.9 11.4-4.7-2.7z"/><path class="prefix__ad" d="M230.4 192.5l-29.6 17.1v-30.4l29.6-17.1v30.4z"/><path fill="#6fc9c5" d="M208.5 214l-8.7-5v-30.4l8.7 5V214z"/><path class="prefix__ad" d="M238.2 196.9L208.5 214v-30.3l29.7-17.2v30.4z"/><path style="mix-blend-mode:multiply" fill="url(#prefix__k)" d="M238.2 196.9L208.5 214v-30.3l29.7-17.2v30.4z"/><path fill="#56bab3" d="M238.2 166.5l-1-.6-28.7 16.5-6.6-3.8 28.5-16.5-.9-.5-28.7 16.4-1 .6 1 .6 7.7 4.5 1.1-.7h-.1l28.7-16.5z"/><path class="prefix__t" d="M203.8 179.8l26.6-15.4 4.8 2.7-26.7 15.3-4.7-2.6z"/><path d="M263.2 228.1l-32.1-18.5a1.6 1.6 0 01-.2-2.7l9.4-7.3 56.3 39.8z" style="mix-blend-mode:multiply" fill="url(#prefix__l)"/><path d="M307.6 281.4l-5.9-3.3-19.2 14.9h9.6a18.2 18.2 0 009.1-2.4l6.4-3.7a3.2 3.2 0 000-5.5z" style="mix-blend-mode:multiply" fill="url(#prefix__m)"/><path class="prefix__t" d="M301.7 274l-8.1-4.7a7.8 7.8 0 00-6.5-.5l-8.4 3.2a12.3 12.3 0 00-5.2 3.5 13.6 13.6 0 00-3.6 9.2 2.6 2.6 0 001.3 2.2l9.9 5.7a2.4 2.4 0 002.8 0l.7-.3-2-1.4a13.4 13.4 0 018.7-11.6l9.7-3.7 2.1 1.6v-.8a3 3 0 00-1.4-2.4z"/><path class="prefix__aj" d="M291.3 279.3l10.1-3.8a1.3 1.3 0 011.7 1.2v3.7a2.1 2.1 0 01-1.1 1.8l-18.2 10.6a.9.9 0 01-1.3-.8 13.6 13.6 0 013.6-9.2 13.3 13.3 0 015.2-3.5z"/><path class="prefix__ak" d="M295.8 270.6l-10 2.9.5.3 10-2.9-.5-.3z"/><path class="prefix__ak" d="M292.3 270.4l-4.7 1.3a.8.8 0 00-.5.7.7.7 0 00.3.8l.7.4h.6l4.7-1.4a.9.9 0 00.6-.6.7.7 0 00-.4-.8l-.7-.4a.7.7 0 00-.6 0z"/><path d="M270.6 257.3h4.2a22.6 22.6 0 0010.8-2.8l11.9-6.7 48.6 28.1a9.6 9.6 0 009.7-.1l18.5-10.8-75.7-43.6z" style="mix-blend-mode:multiply" fill="url(#prefix__n)"/><path class="prefix__am" d="M295.8 337.6v9l102.1-59v-8.9l-102.1 58.9z"/><path class="prefix__am" d="M302.5 442.3v-99.6l-6.7 3.9v99.6l6.7-3.9zM391.1 391.2l6.8-3.9v-99.7l-6.8 3.9v99.7z"/><path class="prefix__p" d="M106.3 228.2v108.6l6.7 3.9v-99.6l182.8 105.5v-9L106.3 228.2z"/><path class="prefix__p" d="M289 442.3l6.8 3.9v-99.6l-6.8-3.9v99.6z"/><path d="M205.4 248.8l61.8 17.8 8.1 5.4-.6 16.9L248 310v9l-50.3-29.1z" style="mix-blend-mode:multiply" fill="url(#prefix__o)"/><path class="prefix__ao" d="M267.2 262.8v3.8l-21 12.1V275l21-12.2z"/><path class="prefix__aj" d="M246.2 275v3.7L191 246.9v-3.8l55.2 31.9z"/><path class="prefix__t" d="M267.2 262.8l-21 12.2-55.2-31.9 21-12.2 55.2 31.9z"/><g class="prefix__a"><path class="prefix__ap" d="M220.5 238.4v1.2l-4.1 2.4v-1.2l4.1-2.4z"/><path class="prefix__ao" d="M216.4 240.8v1.2l-8.2-4.8v-1.1l8.2 4.7z"/><path class="prefix__ak" d="M220.5 238.4l-4.1 2.4-8.2-4.7 4.1-2.4 8.2 4.7z"/></g><g class="prefix__a"><path class="prefix__ap" d="M214.8 241.8v1.1l-4.1 2.4v-1.1l4.1-2.4z"/><path class="prefix__ao" d="M210.7 244.2v1.1l-8.2-4.8v-1.1l8.2 4.8z"/><path class="prefix__ak" d="M214.8 241.8l-4.1 2.4-8.2-4.8 4.1-2.4 8.2 4.8z"/></g><g class="prefix__a"><path class="prefix__aq" d="M205.9 243.2v1.2l-4.2 2.4v-1.2l4.2-2.4zM201.7 245.6v1.2l-4.9-2.9v-1.2l4.9 2.9z"/><path fill="#414849" d="M205.9 243.2l-4.2 2.4-4.9-2.9 4.1-2.4 5 2.9z"/></g><g class="prefix__a"><path class="prefix__ap" d="M227 242.2v1.1l-4.1 2.4v-1.1l4.1-2.4z"/><path class="prefix__ao" d="M222.9 244.6v1.1l-4.7-2.7v-1.1l4.7 2.7z"/><path class="prefix__ak" d="M227 242.2l-4.1 2.4-4.7-2.7 4.1-2.4 4.7 2.7z"/></g><g class="prefix__a"><path class="prefix__ap" d="M221.3 245.5v1.1l-4.1 2.4v-1.1l4.1-2.4z"/><path class="prefix__ao" d="M217.2 247.9v1.1l-4.8-2.7.1-1.1 4.7 2.7z"/><path class="prefix__ak" d="M221.3 245.5l-4.1 2.4-4.7-2.7 4.1-2.4 4.7 2.7z"/></g><g class="prefix__a"><path class="prefix__ap" d="M233.4 245.9v1.1l-4.2 2.4v-1.1l4.2-2.4z"/><path class="prefix__ao" d="M229.2 248.3v1.1l-4.7-2.7v-1.2l4.7 2.8z"/><path class="prefix__ak" d="M233.4 245.9l-4.2 2.4-4.7-2.8 4.1-2.4 4.8 2.8z"/></g><g class="prefix__a"><path class="prefix__ap" d="M227.7 249.2v1.1l-4.2 2.4v-1.1l4.2-2.4z"/><path class="prefix__ao" d="M223.5 251.6v1.1l-4.7-2.7v-1.2l4.7 2.8z"/><path class="prefix__ak" d="M227.7 249.2l-4.2 2.4-4.7-2.8 4.1-2.4 4.8 2.8z"/></g><g class="prefix__a"><path class="prefix__ap" d="M239.6 249.5v1.1l-4.1 2.4v-1.1l4.1-2.4z"/><path class="prefix__ao" d="M235.5 251.9v1.1l-4.7-2.7v-1.2l4.7 2.8z"/><path class="prefix__ak" d="M239.6 249.5l-4.1 2.4-4.7-2.8 4.1-2.4 4.7 2.8z"/></g><g class="prefix__a"><path class="prefix__ap" d="M233.9 252.8v1.1l-4.1 2.4v-1.1l4.1-2.4z"/><path class="prefix__ao" d="M229.8 255.2v1.1l-4.7-2.7v-1.1l4.7 2.7z"/><path class="prefix__ak" d="M233.9 252.8l-4.1 2.4-4.7-2.7 4.1-2.4 4.7 2.7z"/></g><g class="prefix__a"><path class="prefix__ap" d="M246 253.2v1.1l-4.1 2.4v-1.1l4.1-2.4z"/><path class="prefix__ao" d="M241.9 255.6v1.1l-4.8-2.8v-1.1l4.8 2.8z"/><path class="prefix__ak" d="M246 253.2l-4.1 2.4-4.8-2.8 4.1-2.4 4.8 2.8z"/></g><g class="prefix__a"><path class="prefix__ap" d="M240.3 256.5v1.1l-4.2 2.4.1-1.1 4.1-2.4z"/><path class="prefix__ao" d="M236.2 258.9l-.1 1.1-4.7-2.7v-1.2l4.8 2.8z"/><path class="prefix__ak" d="M240.3 256.5l-4.1 2.4-4.8-2.8 4.1-2.4 4.8 2.8z"/></g><g class="prefix__a"><path class="prefix__ap" d="M254.8 258.3v1.1l-5.7 3.3v-1.1l5.7-3.3z"/><path class="prefix__ao" d="M240.8 261.6v1.1l-3-1.8v-1.1l3 1.8zM245 264v1.1l-4.2-2.4v-1.1l4.2 2.4z"/><path class="prefix__ap" d="M249.1 261.6v1.1l-4.1 2.4V264l4.1-2.4z"/><path class="prefix__ak" d="M254.8 258.3l-5.7 3.3-4.1 2.4-4.2-2.4-3-1.8 4.1-2.4 3.1 1.8 5.7-3.3 4.1 2.4z"/></g><g class="prefix__a"><path class="prefix__ap" d="M243.4 264.9v1.1l-4.1 2.4v-1.1l4.1-2.4z"/><path class="prefix__ao" d="M239.3 267.3v1.1L203.9 248v-1.1l35.4 20.4z"/><path class="prefix__ak" d="M243.4 264.9l-4.1 2.4-35.4-20.4 4.1-2.4 35.4 20.4z"/></g><g class="prefix__a"><path class="prefix__ap" d="M261.5 262.1v1.1l-4.2 2.4v-1.1l4.2-2.4z"/><path class="prefix__ao" d="M257.3 264.5v1.1l-4.7-2.7v-1.2l4.7 2.8z"/><path class="prefix__ak" d="M261.5 262.1l-4.2 2.4-4.7-2.8 4.1-2.4 4.8 2.8z"/></g><g class="prefix__a"><path class="prefix__ap" d="M255.7 265.4v1.1l-4.1 2.4v-1.1l4.1-2.4z"/><path class="prefix__ao" d="M251.6 267.8v1.1l-4.7-2.7v-1.1l4.7 2.7z"/><path class="prefix__ak" d="M255.7 265.4l-4.1 2.4-4.7-2.7 4.1-2.4 4.7 2.7z"/></g><g class="prefix__a"><path class="prefix__ap" d="M250 268.7v1.1l-4.1 2.4v-1.1l4.1-2.4z"/><path class="prefix__ao" d="M245.9 271.1v1.1l-4.7-2.7v-1.1l4.7 2.7z"/><path class="prefix__ak" d="M250 268.7l-4.1 2.4-4.7-2.7 4.1-2.4 4.7 2.7z"/></g><path d="M242.3 243.9l19.8 11.5c4.9 2.8 12.8 2.4 17-.7l22.6-18.3-26.6-15.3-31.6 13.1c-5.5 2.3-6 6.9-1.2 9.7z" fill="#d0d2d3"/><path class="prefix__aj" d="M242.3 243.9l19.8 11.5c4.9 2.8 12.8 2.4 17-.7l22.6-18.3-26.6-15.3-31.6 13.1c-5.5 2.3-6 6.9-1.2 9.7z"/><path class="prefix__aj" d="M221.1 192.5l13.3-96.4c.2-1.4 5.3-4.4 8.6-2.6l115 66.4a4.4 4.4 0 012.2 4.6l-15.5 95.7a4.4 4.4 0 01-4.3 3.7h-3.3l1-.6h-.1l-114.7-66.2a4.6 4.6 0 01-2.2-4.6z"/><path class="prefix__t" d="M335 264.6l-114.7-66.3a4.4 4.4 0 01-2.2-4.6L233.3 98a4.5 4.5 0 016.7-3.2l115 66.4a4.4 4.4 0 012.2 4.6l-15.5 95.7a4.5 4.5 0 01-6.7 3.1z"/><path d="M335 256.3l-109.3-63.2a2.6 2.6 0 01-1.3-2.8l13.6-85.7a2.7 2.7 0 014.1-1.9l107.5 62a2.7 2.7 0 011.3 2.8l-14.2 88a1.1 1.1 0 01-1.7.8z" fill="#7986cb"/><path d="M227.5 192.2a2.6 2.6 0 01-1.3-2.8l13.6-85.7a2.3 2.3 0 01.7-1.4 2.8 2.8 0 00-2.5 2.3l-13.6 85.7a2.6 2.6 0 001.3 2.8L335 256.3a1.1 1.1 0 001.7-.8z" fill="#3949ab"/><path class="prefix__av" d="M246.7 118.4l17.5 10.1M337 170.5l3.4 1.9M330.5 166.8l2.9 1.6M323.7 162.8l2.9 1.7"/><path class="prefix__aw" d="M190.7 136.6s17.5 40.2-12.6 51.8 12.6-51.8 12.6-51.8zM264.4 271.9c0-.2.2-.4.5-.6l4.2-2.5c2.2-1.2 4.8-2.5 7.3-2.1s13.3 3.6 15.1 5.2.4 2.6-.6 3.4a9.7 9.7 0 01-5.1 2.4c-2.1.5-4.8.6-6.4 2.3a34.3 34.3 0 01-5.9 5.5 10.5 10.5 0 01-3 1.5c-1 .2-2.7.4-3.1-.7s-.9-2.6-1.5-3.8-2.2-5-2.1-7.7a11.8 11.8 0 01.4-2 4.1 4.1 0 01.2-.9z"/><path class="prefix__t" d="M180.2 195.7s24.7 19.7 28.8 47.5 6 31 12.1 30.9 35.6-2.6 42.5-3.3c0 0 11.1 6.4 4 18.6 0 0-44.9 17.8-58.7 17.8-19.8 0-24.4-30.6-24.4-30.6s5.6 7.5 3.8 25.1c0 0-27.3 22.7-68.5 2.7 0 0-7.7-79.4 6.6-105.8s53.8-2.9 53.8-2.9z"/><path d="M190.7 136.6s3.3 1.1 5.1 7.4c0 0 8.2-17.3-15.5-30.4-9.2-5.1-17.5-6.8-27.2-3s-18.9 9.3-24.1 19.6a44.6 44.6 0 0026.8 62.8c4.4 1.4 9.2 2.1 13.7 1 15.8-3.7 7.6-24.6 13.9-36.3 9-16.6 7.3-21.1 7.3-21.1z" fill="#0f294c"/><path class="prefix__h" d="M96.9 234.1s12.6-8.6 25-5 51.6 21.3 51.6 39.2V318c0 5.2-3.4 14.2-18.7 17.4z"/><path d="M96.9 234.1s12.6-8.6 25-5 51.6 21.3 51.6 39.2V318c0 5.2-3.4 14.2-18.7 17.4z" style="mix-blend-mode:multiply" fill="url(#prefix__p)"/><path class="prefix__l" d="M102.5 307l47.9 27.7c4.2 2.4 7.6-.2 7.6-5.8v-52.6c0-5.6-3.4-12.1-7.6-14.6l-47.9-27.6c-4.2-2.5-7.7.1-7.7 5.8v52.5c0 5.6 3.5 12.2 7.7 14.6z"/><path class="prefix__h" d="M120.7 291.9l6.5 3.8c2.9 1.7 5.2-.1 5.2-4V286c0-3.8-2.3-8.3-5.2-9.9l-6.5-3.8c-2.9-1.7-5.3.1-5.3 3.9v5.7c0 3.9 2.4 8.3 5.3 10z"/><path class="prefix__j" d="M118.3 276.2s-12.4 5-12.4 26v47.7a24.8 24.8 0 0024.8 24.8h8.7v-8.2l-16.5-9.4v-48.9c0-9 2.6-14.4 5.7-16.3 0 0 2.6-13.3-10.3-15.7z"/><path d="M118.3 276.2s-12.4 5-12.4 26v47.7a24.8 24.8 0 0024.8 24.8h8.7v-8.2l-16.5-9.4v-48.9c0-9 2.6-14.4 5.7-16.3 0 0 2.6-13.3-10.3-15.7z" style="mix-blend-mode:multiply" fill="url(#prefix__q)"/><path class="prefix__l" d="M139.4 366.5s-16.5.9-16.5-9.4z"/><path d="M139.4 366.5s-16.5.9-16.5-9.4z" style="mix-blend-mode:multiply" fill="url(#prefix__r)"/><circle class="prefix__aw" cx="178.9" cy="166.4" r="7.8"/><path class="prefix__bb" d="M371.7 281.2c-4.3 2.4-11.1 2.4-15.3 0s-4.3-6.4 0-8.9 11-2.4 15.3 0 4.2 6.4 0 8.9z"/><path class="prefix__bb" d="M353.2 276.8l-2.2-13.3h26.1l-2.3 13.3h-21.6z"/><path d="M373.5 257.1c-5.3-3.1-13.8-3.1-19.1 0-2.6 1.5-3.9 3.5-3.9 5.5v1.8c0 2 1.3 4 3.9 5.5 5.3 3.1 13.8 3.1 19.1 0 2.6-1.5 4-3.5 4-5.5v-1.8c0-2-1.4-4-4-5.5z" fill="#9d5b36"/><path class="prefix__bb" d="M372.5 267.4c-4.6 2.6-12.2 2.4-16.9-.3s-4.8-7-.2-9.6 12.2-2.4 17 .3 4.8 7.1.1 9.6z"/><path d="M372.4 260.8c-4.8-2.8-12.4-2.9-17-.3a6.8 6.8 0 00-3.1 3.2 7.6 7.6 0 003.3 3.4c4.7 2.7 12.3 2.9 16.9.3a6.6 6.6 0 003.2-3.2 7.6 7.6 0 00-3.3-3.4z" fill="#3e2723"/><circle cx="364" cy="247.5" r="17.6" fill="#378f43"/><circle cx="364" cy="247.5" r="17.6" style="mix-blend-mode:multiply" fill="url(#prefix__s)"/><path class="prefix__bg" d="M348.6 255a1.3 1.3 0 011.8-.5 1.3 1.3 0 01.4 1.9c-.3.6-2.8 2-2.8 2a13.5 13.5 0 01.6-3.4zM349.3 251.5a1.3 1.3 0 01.7 1.7 1.3 1.3 0 01-1.8.6 12.1 12.1 0 01-2.3-2.5s2.8-.2 3.4.2zM367.5 245.8a1.3 1.3 0 01-1.7.6 1.3 1.3 0 01-.6-1.8c.3-.7 2.6-2.3 2.6-2.3a16.8 16.8 0 01-.3 3.5zM379.9 246.9a1.3 1.3 0 01-1-1.5 1.3 1.3 0 011.6-1.1 15.9 15.9 0 012.8 2 17.7 17.7 0 01-3.4.6zM380.4 242.8a.8.8 0 01-1.4-.8 8.8 8.8 0 011.7-1.4 11.2 11.2 0 01-.3 2.2zM364.3 244.2a.8.8 0 01-.6.9.8.8 0 01-1-.7 8.7 8.7 0 01.4-2.1 9 9 0 011.2 1.9zM369 259.3a1.3 1.3 0 012.6-.4 13.4 13.4 0 01-.9 3.4 15.1 15.1 0 01-1.7-3zM372.5 258.8a.7.7 0 01.1-1.1.7.7 0 011.1 0 9.1 9.1 0 01.8 2 7.8 7.8 0 01-2-.9z"/><path class="prefix__bh" d="M356.1 245.1a1.2 1.2 0 01-2.4 0 1.2 1.2 0 012.4 0zM378.7 251.2a1.2 1.2 0 01-1.2 1.2 1.2 1.2 0 01-1.3-1.2 1.3 1.3 0 011.3-1.2 1.3 1.3 0 011.2 1.2zM350.7 238.1a1.2 1.2 0 01-1.2 1.2 1.2 1.2 0 01-1.2-1.2 1.3 1.3 0 011.2-1.2 1.2 1.2 0 011.2 1.2zM367.4 253.2a2 2 0 01-2 1.9 2 2 0 01-1.9-1.9 2 2 0 113.9 0z"/><circle class="prefix__bh" cx="355.6" cy="262.9" r="1.9"/><path class="prefix__bh" d="M374.5 240.2a1.7 1.7 0 01-1.7 1.7 1.8 1.8 0 01-1.7-1.7 1.7 1.7 0 011.7-1.7 1.6 1.6 0 011.7 1.7z"/><path d="M289.5 217.7c-5.6 0-11.4-3.2-16.1-9.1-10.6-12.8-14.2-35.1-8.3-50.7 3.4-9.2 9.7-14.5 17.2-14.5 5.7 0 11.4 3.2 16.2 9 10.5 12.9 14.1 35.2 8.3 50.8-3.5 9.2-9.8 14.5-17.3 14.5z" stroke-dasharray="5.08 5.08" stroke-linecap="round" stroke-miterlimit="10" stroke="#fff" fill="none"/><ellipse class="prefix__t" cx="285.9" cy="180.5" rx="19.5" ry="33.8" transform="rotate(-9.3 285.444 180.392)"/><ellipse class="prefix__bj" cx="287" cy="172.8" rx="7.6" ry="13.2" transform="rotate(-23.3 287.18 172.978)"/><path class="prefix__bj" d="M285.8 183.5c-5.9-4.4-11.4-2-12.2 5.3l21.3 15.8c.8-7.3-3.3-16.7-9.1-21.1z"/><path class="prefix__bk" d="M379.6 153.7l-57.4-33.2a2.8 2.8 0 01-1.5-2.4v-59a2.9 2.9 0 014.3-2.4l56.2 32.4a5.4 5.4 0 012.6 4.6v57.5a2.8 2.8 0 01-4.2 2.5z"/><path d="M298.9 97.9l-38.6-22.3a1.8 1.8 0 01-1-1.6V34.4a1.9 1.9 0 012.9-1.6l37.7 21.7a3.8 3.8 0 011.8 3.1v38.7a1.9 1.9 0 01-2.8 1.6z" style="mix-blend-mode:hard-light" fill="#fff9c4" opacity=".67"/><path class="prefix__w" d="M342.5 88.7l-13.7-7.8a.9.9 0 01-.3-.6v-9.1a.6.6 0 011-.5l13.4 7.7a1.1 1.1 0 01.6 1.1v8.7a.6.6 0 01-1 .5zM339.2 119.5l-10.5-6a.5.5 0 01-.3-.5v-10.7a.6.6 0 01.8-.5l10.3 6a.9.9 0 01.5.8v10.5c0 .4-.5.7-.8.4z"/><path class="prefix__bm" d="M328.5 87.1l47.6 27.5M328.5 90.7l47.6 27.4M328.5 94.2l47.6 27.5M328.5 97.7l47.6 27.5M348.7 84.5l27.4 15.8M348.7 88l27.4 15.9M348.7 91.6l27.4 15.8M328.5 83.4l47.6 27.5M343.5 109.9l32.6 18.8M343.5 113.4l32.6 18.8M343.5 117l32.6 18.8M343.5 120.5l32.6 18.8"/><path class="prefix__bn" d="M285.5 80.6A11.1 11.1 0 01280 79c-6.3-3.7-11.5-12.7-11.5-20 0-3.8 1.3-6.7 3.7-8.1s5.6-1.1 8.8.8c6.4 3.7 11.6 12.7 11.6 20 0 3.8-1.3 6.7-3.7 8a6.9 6.9 0 01-3.4.9zm-9.9-28.5a4.8 4.8 0 00-2.4.6c-1.7 1-2.7 3.2-2.7 6.3 0 6.7 4.7 14.9 10.5 18.2 2.7 1.6 5.1 1.8 6.9.8s2.7-3.2 2.7-6.3c0-6.7-4.7-14.9-10.6-18.3a9.1 9.1 0 00-4.4-1.3z"/><path class="prefix__bn" d="M277.7 70.8V56.6l8.3 11.9-8.3 2.3z"/><path class="prefix__bk" d="M250.5 140.4l-44.1-25.5a2.1 2.1 0 01-1.1-1.9V67.8a2.2 2.2 0 013.3-1.9l43.1 24.9a3.9 3.9 0 012 3.5v44.2a2.1 2.1 0 01-3.2 1.9z"/><path class="prefix__bj" d="M229.6 116l-6-10.5-11.9 6.8a1.4 1.4 0 01-2-.5 1.5 1.5 0 01.5-2l14.5-8.4 6 10.5 15.1-8.8a1.5 1.5 0 012 .6 1.4 1.4 0 01-.5 2z"/><path class="prefix__bj" d="M248 114.1a1.5 1.5 0 01-1.5-1.5v-7.5l-5.9-3.5a1.5 1.5 0 01-.6-2 1.6 1.6 0 012.1-.6l7.4 4.3v9.3a1.4 1.4 0 01-1.5 1.5z"/><path class="prefix__bo" d="M211.4 78l10.1 5.8M227.4 87l3.7 2.2"/></g></svg>