<svg xmlns="http://www.w3.org/2000/svg" viewBox="0 0 475.7 471.1"><defs><style>.prefix__a{fill:#f0f0f0}.prefix__b{fill:#e0e0e0}.prefix__c{fill:#27debf}.prefix__d{opacity:.15}.prefix__e,.prefix__j,.prefix__r{fill:#fff}.prefix__f{opacity:.3}.prefix__g{fill:#455a64}.prefix__h{fill:#37474f}.prefix__i{fill:#263238}.prefix__j{opacity:.65}.prefix__k{fill:#fafafa}.prefix__n{opacity:.1}.prefix__p{fill:#ffa8a7}.prefix__q{fill:#f28f8f}.prefix__r{opacity:.7}</style></defs><path class="prefix__a" d="M69.6 430.9c-92.9-53.6-92.9-140.6 0-194.2s243.5-53.6 336.4 0 92.9 140.6 0 194.2-243.5 53.6-336.4 0z"/><path class="prefix__b" d="M195.5 441L53.7 359.1c-5.6-3.2-5.6-8.4 0-11.6l229.6-132.7a9.3 9.3 0 018.3 0l145.2 84a4.3 4.3 0 010 7.6L203.8 441a8.7 8.7 0 01-8.3 0z"/><ellipse class="prefix__b" cx="372.1" cy="399.3" rx="52.6" ry="30.3"/><path class="prefix__c" d="M68.3 311.5s-.3-21.3-9.2-38.8-22.2-29.1-35.6-31.5-25.5 8.9-11.9 18.9 38.3 21.1 46.9 54.1z"/><path class="prefix__d" d="M68.3 311.5s-.3-21.3-9.2-38.8-22.2-29.1-35.6-31.5-25.5 8.9-11.9 18.9 38.3 21.1 46.9 54.1z"/><path class="prefix__e" d="M64.9 305.6h.2a.7.7 0 00.4-.9c-10.7-36.4-36.3-53.7-48.3-57.8a.7.7 0 00-.9.5.8.8 0 00.4.9c11.8 4 36.9 21 47.5 56.8.1.3.4.6.7.5z"/><path class="prefix__c" d="M69.7 331.6c-5 2.9-7.8 4.7-16.9 5.5a46.9 46.9 0 01-19.1-2.6c-1.7-.6-4.3-1.9-2.9-3.5s9.7-2.3 12.9-6.1a58.6 58.6 0 01-12.5 2.3c-3.9 0-7.9-.9-10.9-3.4s-4.5-6.1-6-9.6c-.5-1.2-1-2.7-.2-3.8a4.2 4.2 0 012.2-1.1l10.1-2.8c2.2-.5.7-2-.2-2.1a26.2 26.2 0 00-3.7-.2c-3.8.2-8.1 1-11.3-1.3a9.1 9.1 0 01-3.4-5.8c-.2-.8-.9-11.3-.4-11.4a49.5 49.5 0 017.7-1.3l7.3-.7a57.9 57.9 0 018.3-.6 4.5 4.5 0 012.8.6c1.1.6 1.5 2 1.6 3.3a17.6 17.6 0 00.6 3.9c1.1-.1 1.5-1.7 1.5-2.9s0-2.7 1.1-3.2a3.3 3.3 0 011.7 0 52.5 52.5 0 0111 3.6 13.3 13.3 0 014.3 3 11.1 11.1 0 012.2 7.3c.1 2.6-.3 5.2-.2 7.8 2.1-1.8 4.9-7.3 5.1-10.1 4.4 2.9 7 8.7 7.8 16.6a84.5 84.5 0 01-.3 17.4 3.7 3.7 0 01-.2 1.2z"/><path class="prefix__f" d="M69.7 331.6c-5 2.9-7.8 4.7-16.9 5.5a46.9 46.9 0 01-19.1-2.6c-1.7-.6-4.3-1.9-2.9-3.5s9.7-2.3 12.9-6.1a58.6 58.6 0 01-12.5 2.3c-3.9 0-7.9-.9-10.9-3.4s-4.5-6.1-6-9.6c-.5-1.2-1-2.7-.2-3.8a4.2 4.2 0 012.2-1.1l10.1-2.8c2.2-.5.7-2-.2-2.1a26.2 26.2 0 00-3.7-.2c-3.8.2-8.1 1-11.3-1.3a9.1 9.1 0 01-3.4-5.8c-.2-.8-.9-11.3-.4-11.4a49.5 49.5 0 017.7-1.3l7.3-.7a57.9 57.9 0 018.3-.6 4.5 4.5 0 012.8.6c1.1.6 1.5 2 1.6 3.3a17.6 17.6 0 00.6 3.9c1.1-.1 1.5-1.7 1.5-2.9s0-2.7 1.1-3.2a3.3 3.3 0 011.7 0 52.5 52.5 0 0111 3.6 13.3 13.3 0 014.3 3 11.1 11.1 0 012.2 7.3c.1 2.6-.3 5.2-.2 7.8 2.1-1.8 4.9-7.3 5.1-10.1 4.4 2.9 7 8.7 7.8 16.6a84.5 84.5 0 01-.3 17.4 3.7 3.7 0 01-.2 1.2z"/><path class="prefix__e" d="M68.8 330.7a.7.7 0 01-.5-.4c-14.2-27.2-45.6-38.7-53.2-40.3-.3 0-.5-.3-.5-.7a.6.6 0 01.8-.4c7.7 1.6 39.6 13.2 54 40.9a.7.7 0 01-.3.8z"/><path class="prefix__e" d="M27.6 315a.6.6 0 01-.6-.6.6.6 0 01.6-.6c15.6-1.3 20.7-7.4 20.7-7.5a.7.7 0 01.9-.1.8.8 0 01.1.9c-.2.3-5.4 6.6-21.6 7.9z"/><path class="prefix__c" d="M447.8 239c-6.9 7.6-19.6 20.1-27 32.1h-.1c-2.9 4.8-4.9 9.4-5.5 13.7l-.5 7.7-3.2-1.8-.5-.3-1.3-.8a6.4 6.4 0 01-3.2-5.2 97.3 97.3 0 019.4-44.5c6.7-13.2 19.1-26.7 30-25.4s11.6 13.9 1.9 24.5z"/><path class="prefix__d" d="M447.8 239c-6.9 7.6-19.6 20.1-27 32.1h-.1c-2.9 4.8-4.9 9.4-5.5 13.7l-.5 7.7-3.2-1.8-.5-.3-1.3-.8a6.4 6.4 0 01-3.2-5.2 97.3 97.3 0 019.4-44.5c6.7-13.2 19.1-26.7 30-25.4s11.6 13.9 1.9 24.5z"/><path class="prefix__e" d="M442.7 221.9c-13.2 8.4-32.2 37.6-31.7 68.6l-1.3-.8c-.2-31.1 18.9-60.4 32.3-68.9a.7.7 0 01.7 1.1z"/><path class="prefix__c" d="M455.7 263.8c-2.3 6.2-15.5 11.7-25.2 20.7a63.5 63.5 0 00-6.7 7.3 6.2 6.2 0 01-7.9 1.5l-1.2-.7-3.2-1.8a66.6 66.6 0 019.2-19.6h.1c6.4-9.3 14.4-16.1 19.9-17.6 10.9-3.1 17.8 2.6 15 10.2z"/><path class="prefix__f" d="M455.7 263.8c-2.3 6.2-15.5 11.7-25.2 20.7a63.5 63.5 0 00-6.7 7.3 6.2 6.2 0 01-7.9 1.5l-1.2-.7-3.2-1.8a66.6 66.6 0 019.2-19.6h.1c6.4-9.3 14.4-16.1 19.9-17.6 10.9-3.1 17.8 2.6 15 10.2z"/><path class="prefix__e" d="M446.4 260c-7.9 2.3-23.4 12-30.5 33.3l-1.2-.7c7.3-21.6 22.6-31.4 31.4-33.8a.7.7 0 01.8.4.6.6 0 01-.5.8z"/><path class="prefix__g" d="M60.9 344a12.3 12.3 0 005.8 9.6l126.3 73a13.1 13.1 0 0011.6 0L427 298.2c3.2-1.9 5.8-6.2 5.8-9.7s-2.6-7.7-5.8-9.6L300.7 206a12.5 12.5 0 00-11.6 0L66.7 334.4a12.3 12.3 0 00-5.8 9.6z"/><path class="prefix__h" d="M432.8 288.5c0 3.5-2.6 7.8-5.8 9.7L204.6 426.6a12.1 12.1 0 01-5.8 1.4v-12.6a12.1 12.1 0 005.8-1.4L427 285.6c2.8-1.6 3.1-4.1 1-5.9 2.7 2 4.8 5.8 4.8 8.8z"/><path class="prefix__i" d="M198.8 415.4V428a12.1 12.1 0 01-5.8-1.4l-126.3-73a12.3 12.3 0 01-5.8-9.6c0-3.2 2.3-7.2 5.2-9.2-2.6 1.8-2.4 4.5.6 6.3L193 414a12.1 12.1 0 005.8 1.4z"/><path class="prefix__h" d="M55.5 334.6c-2.9-2-2.9-4.7-2.9-8.4V139.3a12.7 12.7 0 015.8-10L280.8.9C284-.9 287 .4 290 2.1s4.9 3.3 4.9 7v186.8a13 13 0 01-5.8 10.1L66.7 334.4c-4.9 3.2-8.2 2.4-11.2.2z"/><path class="prefix__i" d="M66.7 334.4c-4.8 3.2-8.2 2.4-11.2.2s-2.9-4.7-2.9-8.4V139.3a12.5 12.5 0 011.7-5.7l8.3 4.9a11 11 0 00-1.7 5.6V331c0 3.7 2.6 5.2 5.8 3.4z"/><path class="prefix__g" d="M294.9 9.1c0-3.7-2.6-5.2-5.8-3.4L66.7 134.1a11.3 11.3 0 00-4.1 4.3l-8.3-4.8a12.1 12.1 0 014.1-4.3L280.8.9c3.2-1.8 6.1-.5 9.2 1.2s4.9 3.3 4.9 7z"/><path class="prefix__i" d="M69.8 140.8L284.2 17c1.9-1.1 3.5-.2 3.5 2.1v171.4a7.7 7.7 0 01-3.5 6L69.8 320.2c-1.9 1.1-3.5.2-3.5-2V146.8a7.7 7.7 0 013.5-6z"/><path class="prefix__c" d="M69.8 140.8a7.7 7.7 0 00-3.5 6v170.4l213.2-123a7.8 7.8 0 003.5-6.1V17.8z"/><path class="prefix__j" d="M69.8 140.8a7.7 7.7 0 00-3.5 6v170.4l213.2-123a7.8 7.8 0 003.5-6.1V17.8z"/><path class="prefix__h" d="M82.8 334.7l206.4-119.2a6.6 6.6 0 015.8 0l6 3.2c1.6.9 1.6 2.4 0 3.4L94.5 341.2a6.6 6.6 0 01-5.8 0l-5.9-3.1c-1.7-1-1.7-2.5 0-3.4z"/><path class="prefix__i" d="M98.9 344.3l206.5-119.1a5.6 5.6 0 015.3-.3l53.7 31c1.3.8 1.1 2.1-.5 3.1L157.7 378a6.2 6.2 0 01-5.3.3l-54-30.9c-1.3-.8-1.1-2.1.5-3.1z"/><path class="prefix__g" d="M276.1 274.7l6.5-3.7c.2-.2.3-.4 0-.5l-5.7-3.3a1.4 1.4 0 00-.9 0l-6.4 3.8c-.3.1-.3.4-.1.5l5.7 3.3a1 1 0 00.9-.1zm-9-12.6l-6.5 3.7c-.3.2-.3.4-.1.5l5.7 3.3a1.4 1.4 0 00.9 0l6.5-3.8c.3-.1.3-.4.1-.5L268 262a1 1 0 00-.9.1zm-20.9 12l-10.9 6.3c-.3.2-.4.4-.1.6l5.7 3.3a1 1 0 00.9-.1l10.9-6.3c.3-.2.3-.4.1-.5l-5.7-3.3c-.2-.2-.6-.1-.9 0zm11.4-6.6l-6.4 3.8c-.3.1-.3.3-.1.5l5.7 3.3a1 1 0 00.9-.1l6.4-3.7c.3-.2.4-.4.1-.5l-5.7-3.3c-.2-.2-.6-.1-.9 0zm-25.3 14.7l-6.5 3.7c-.3.2-.3.4-.1.5l5.7 3.3a1.4 1.4 0 00.9 0l6.5-3.8c.3-.1.3-.4.1-.5l-5.7-3.3a1 1 0 00-.9.1zm-9.5 5.4l-6.4 3.7c-.3.2-.3.4-.1.6l5.7 3.3a1 1 0 00.9-.1l6.4-3.7c.3-.2.4-.4.1-.5l-5.7-3.3c-.2-.2-.6-.1-.9 0zm24 14.4l6.4-3.7c.3-.2.4-.4.1-.5l-5.7-3.3c-.2-.2-.6-.1-.9 0l-6.4 3.8c-.3.1-.3.3-.1.5l5.7 3.3a1 1 0 00.9-.1zm-9.5 5.5l6.5-3.8c.3-.1.3-.4.1-.5l-5.7-3.3a1 1 0 00-.9.1l-6.5 3.7c-.3.2-.3.4-.1.5l5.7 3.3a1 1 0 00.9 0zm-9.4 5.4l6.5-3.7c.2-.2.3-.4 0-.5l-5.7-3.3c-.2-.2-.6-.1-.9 0l-6.4 3.8c-.3.1-.3.4-.1.5l5.7 3.3a1 1 0 00.9-.1zm-9.5 5.5l6.5-3.8c.3-.1.3-.3.1-.5l-5.7-3.3a1 1 0 00-.9.1l-6.5 3.7c-.2.2-.3.4-.1.5l5.7 3.3a1 1 0 00.9 0zm48.3-38.2l6.4-3.7c.3-.2.3-.4.1-.6l-5.7-3.3a1 1 0 00-.9.1l-6.5 3.7c-.2.2-.3.4-.1.6l5.7 3.2a.9.9 0 001 0zm-10.5 16.4l14.4-8.4c.3-.1.4-.4.1-.5l-14.6-8.5a.9.9 0 00-.9.1l-7.5 4.3c-.3.2-.3.4-.1.5l8.2 4.7c.2.2.2.4-.1.6l-6 3.4c-.3.2-.3.4-.1.5l5.7 3.3a1.4 1.4 0 00.9 0zm-42.8-3.5l-6.5 3.7c-.3.2-.3.4-.1.5l5.7 3.3a1.4 1.4 0 00.9 0l6.5-3.8c.3-.1.3-.4.1-.5l-5.7-3.3a1 1 0 00-.9.1zm-9.5 5.4l-6.4 3.8c-.3.1-.3.3-.1.5l5.7 3.3a1 1 0 00.9-.1l6.5-3.7c.2-.2.3-.4 0-.5l-5.7-3.3c-.2-.2-.6-.1-.9 0zm-52.5 58.1a1.4 1.4 0 00.9 0l6.5-3.8c.3-.1.3-.4.1-.5l-5.7-3.3a1 1 0 00-.9.1l-6.5 3.7c-.3.1-.3.4-.1.5zm-23-14.5l-6.5 3.8c-.3.1-.3.4-.1.5l5.7 3.3a1 1 0 00.9-.1l6.5-3.7c.3-.1.3-.4.1-.5l-5.7-3.3zm11.6 10.8a1 1 0 00.9-.1l6.4-3.7c.3-.2.4-.4.1-.5l-5.7-3.3c-.2-.2-.6-.1-.9 0l-6.4 3.7c-.3.2-.4.4-.1.6zm26.3 6l6.4-3.8c.3-.1.3-.4.1-.5l-5.7-3.3a1 1 0 00-.9.1l-6.5 3.7c-.2.2-.3.4 0 .5l5.7 3.3a1.4 1.4 0 00.9 0zm-10.4 5.5a1 1 0 00.9-.1l6.5-3.7c.3-.2.3-.4.1-.5l-5.7-3.3a1 1 0 00-.9 0l-6.5 3.7c-.3.2-.3.4-.1.6zm-18.1-27.7l-6.4 3.7c-.3.2-.4.4-.1.5l5.7 3.3c.2.2.6.1.9 0l6.4-3.7c.3-.2.4-.4.1-.6l-5.7-3.3a1 1 0 00-.9.1zm47.2-27.3l-6.4 3.8c-.3.1-.3.4-.1.5l5.7 3.3a1 1 0 00.9-.1l6.5-3.7c.2-.2.3-.4.1-.5l-5.7-3.3a1.2 1.2 0 00-1 0zm-37.7 21.8l-6.5 3.8c-.3.1-.3.4-.1.5l5.7 3.3a1 1 0 00.9-.1l6.5-3.7c.3-.2.3-.4.1-.5l-5.7-3.3a1.4 1.4 0 00-.9 0zm47.2-27.2l-6.5 3.7c-.2.2-.3.4-.1.5l5.7 3.3h.9l6.5-3.8c.3-.1.3-.4.1-.5l-5.7-3.3a1 1 0 00-.9.1zm-18.9 10.9l-6.5 3.7c-.2.2-.3.4 0 .5l5.7 3.3c.2.2.6.1.9 0l6.4-3.8c.3-.1.3-.3.1-.5l-5.7-3.3a1 1 0 00-.9.1zm-9.4 5.4l-6.5 3.8c-.3.1-.3.4-.1.5l5.7 3.3a1 1 0 00.9-.1l6.5-3.7c.2-.2.3-.4.1-.5l-5.7-3.3a1.4 1.4 0 00-.9 0zm-9.5 5.5l-6.5 3.7c-.2.2-.3.4 0 .5l5.7 3.3c.2.2.6.1.9 0l6.4-3.7c.3-.2.3-.4.1-.6l-5.7-3.3a1 1 0 00-.9.1zm42.9 3.5l6.4-3.7c.3-.2.3-.4.1-.6l-5.7-3.3a1 1 0 00-.9.1l-6.5 3.7c-.2.2-.3.4-.1.5l5.7 3.3a1.2 1.2 0 001 0zM288 250l-6.5 3.7c-.3.2-.3.4-.1.6l5.7 3.3a1 1 0 00.9-.1l6.5-3.7c.2-.2.3-.4.1-.5l-5.7-3.3a1 1 0 00-.9 0zm-11.5 6.6l-6.4 3.7c-.3.2-.4.4-.1.6l5.7 3.3a1 1 0 00.9-.1l6.4-3.7c.3-.2.4-.4.1-.5l-5.7-3.3c-.2-.2-.6-.1-.9 0zm20.9-12l-6.5 3.7c-.2.2-.3.4-.1.5l5.8 3.3a1.4 1.4 0 00.9 0l6.4-3.8c.3-.1.3-.4.1-.5l-5.7-3.3a1 1 0 00-.9.1zm-52.6 48.2l6.4-3.7c.3-.2.4-.4.1-.5l-5.7-3.3c-.2-.2-.6-.1-.9 0l-6.4 3.8c-.3.1-.4.4-.1.5l5.7 3.3a1 1 0 00.9-.1zm63-53.7a.9.9 0 00-1 0l-6.4 3.7c-.3.2-.3.4-.1.6l5.7 3.3a1 1 0 00.9-.1l6.5-3.7c.2-.2.3-.4.1-.6zM209 323.8l6.5-3.7c.2-.2.3-.4.1-.5l-5.7-3.3a1.7 1.7 0 00-1 0l-6.4 3.8c-.3.1-.3.4-.1.5l5.7 3.3a1 1 0 00.9-.1zM324.8 257l6.5-3.8c.3-.1.3-.4.1-.5l-5.7-3.3a1 1 0 00-.9.1l-6.5 3.7c-.3.2-.3.4-.1.5l5.7 3.3zm-18.4.2l6.5-3.7c.3-.2.3-.4.1-.5l-5.7-3.3a1.4 1.4 0 00-.9 0l-6.5 3.8c-.3.1-.3.4-.1.5l5.7 3.3a1 1 0 00.9-.1zm10.3-13a1 1 0 00-.9.1l-6.4 3.7c-.3.2-.4.4-.1.5l5.7 3.3c.2.2.6.1.9 0l6.4-3.8c.3-.1.3-.3.1-.5zm2-1.1l14.7 8.5a1 1 0 00.9-.1l6.4-3.7c.3-.2.4-.4.1-.6l-14.6-8.4a1 1 0 00-.9 0l-6.5 3.8c-.3.1-.3.4-.1.5zm-21.8 12.1l-6.4 3.7c-.3.2-.4.4-.1.5l5.7 3.3c.2.2.6.1.9 0l6.4-3.7c.3-.2.4-.4.1-.6l-5.7-3.3a1 1 0 00-.9.1zm-71.1 41l-6.4 3.8c-.3.1-.3.4-.1.5l5.7 3.3a1 1 0 00.9-.1l6.4-3.7c.3-.2.4-.4.1-.5l-5.7-3.3a1.4 1.4 0 00-.9 0zm88.7-33.7a1 1 0 00.9-.1l6.4-3.7c.3-.2.4-.4.1-.5l-5.7-3.3c-.2-.2-.6-.1-.9 0l-6.4 3.7c-.3.2-.3.4-.1.6zm-79.2 28.3l-6.5 3.7c-.3.2-.3.4-.1.5l5.7 3.3a1 1 0 00.9 0l6.5-3.8c.3-.1.3-.3.1-.5l-5.7-3.3a1 1 0 00-.9.1zm-74.4 60.3a.7.7 0 00.9 0l6.4-3.7c.3-.2.3-.4.1-.6l-5.7-3.2a.7.7 0 00-.9 0l-6.4 3.7c-.3.2-.4.4-.1.6zm-10.6-11.2l-6.5 3.7c-.3.2-.3.4-.1.5l5.7 3.3a1.4 1.4 0 00.9 0l6.5-3.8c.3-.1.3-.4.1-.5l-5.7-3.3a.9.9 0 00-.9.1zm20.9 5.7l6.5-3.7c.3-.1.3-.4.1-.5l-5.7-3.3a.9.9 0 00-.9.1l-6.5 3.7c-.3.1-.3.4-.1.5l5.7 3.3a1 1 0 00.9-.1zm9.5-5.4l6.4-3.7c.3-.2.3-.4.1-.6l-5.7-3.3a1 1 0 00-.9.1l-6.5 3.7c-.2.2-.3.4 0 .6l5.7 3.2c.2.2.6.1.9 0zm9.4-5.5l6.5-3.7c.2-.2.3-.4.1-.5l-5.7-3.3a1.4 1.4 0 00-.9 0l-6.5 3.8c-.3.1-.3.4-.1.5l5.7 3.3a1 1 0 00.9-.1zm-30.4-.3l-6.5 3.7c-.2.2-.3.4 0 .6l5.7 3.3a1 1 0 00.9-.1l6.4-3.7c.3-.2.3-.4.1-.6l-5.7-3.2c-.2-.2-.6-.1-.9 0zm9.5-5.4l-6.5 3.7c-.3.1-.3.4-.1.5l5.7 3.3a1 1 0 00.9-.1l6.5-3.7c.2-.1.3-.4.1-.5l-5.7-3.3a.9.9 0 00-.9.1zm37.7-21.9l-6.4 3.8c-.3.1-.3.4-.1.5l5.7 3.3a1 1 0 00.9-.1l6.5-3.7c.2-.2.3-.4 0-.5l-5.7-3.3zm-9.4 5.5l-6.5 3.7c-.2.2-.3.4-.1.5l5.7 3.3a1 1 0 00.9 0l6.5-3.7c.3-.2.3-.4.1-.6l-5.7-3.3a1 1 0 00-.9.1zm18.9-10.9l-6.5 3.7c-.3.2-.3.4-.1.5l5.7 3.3a1 1 0 00.9 0l6.5-3.7c.3-.2.3-.4.1-.6l-5.7-3.3a1 1 0 00-.9.1zm-37.8 21.8l-6.5 3.7c-.2.2-.3.4 0 .6l5.7 3.2a.7.7 0 00.9 0l6.4-3.7c.3-.2.3-.4.1-.6l-5.7-3.2a.7.7 0 00-.9 0zm9.4-5.5l-6.4 3.8c-.3.1-.3.4-.1.5l5.7 3.3a1 1 0 00.9-.1l6.5-3.7c.2-.1.3-.4.1-.5L189 318a1.7 1.7 0 00-1 0zm-12.3 35.4l6.5-3.7c.2-.2.3-.4.1-.6l-5.7-3.2a1 1 0 00-.9 0l-6.5 3.7c-.3.2-.3.4-.1.6l5.7 3.3a1 1 0 00.9-.1zm-50.2-2.6l-5.7-3.2a.7.7 0 00-.9 0l-6.4 3.7c-.3.2-.3.4-.1.6l5.7 3.2a.7.7 0 00.9 0l6.4-3.7c.3-.2.4-.4.1-.6zM138 354l-5.7-3.3a1 1 0 00-.9.1l-10 5.7c-.2.2-.3.4-.1.5l5.7 3.3a1 1 0 00.9 0l10-5.8c.3-.1.3-.4.1-.5zm-20.9-9.7l-5.7-3.3a1.4 1.4 0 00-.9 0l-7.9 4.6c-.3.2-.3.4-.1.5l5.7 3.3c.2.2.6.1.9 0l8-4.6c.2-.2.3-.4 0-.5zm6.1-3.5a.9.9 0 00.9-.1l6.5-3.7c.3-.2.3-.4.1-.6l-5.7-3.2c-.2-.2-.6-.1-.9 0l-6.5 3.7c-.2.2-.3.4-.1.6zm26.2 17l-5.7-3.3c-.2-.2-.6-.1-.9 0l-12.4 7.2c-.3.1-.3.4-.1.5l5.7 3.3a1 1 0 00.9-.1l12.4-7.1c.3-.2.4-.4.1-.5zm4.5 7.7l-5.7-3.3a1 1 0 00-.9.1l-7.9 4.6c-.3.1-.4.4-.1.5l5.7 3.3a1 1 0 00.9-.1l7.9-4.6c.3-.1.3-.4.1-.5zm39.6-65.3a1.4 1.4 0 00.9 0l6.4-3.8c.3-.1.4-.4.1-.5l-5.7-3.3a1 1 0 00-.9.1l-6.4 3.7c-.3.2-.4.4-.1.5zm-18.9 10.9a1.4 1.4 0 00.9 0l6.4-3.8c.3-.1.4-.4.1-.5l-5.7-3.3a1 1 0 00-.9.1l-6.4 3.7c-.3.2-.3.4-.1.5zm-41.9 24.2a1 1 0 00.9-.1l6.5-3.7c.2-.1.3-.4 0-.5l-5.7-3.3a1 1 0 00-.9.1l-6.4 3.7c-.3.1-.3.4-.1.5zm51.3-29.6a1 1 0 00.9-.1l6.5-3.7c.3-.2.3-.4.1-.5l-5.7-3.3c-.2-.2-.6-.1-.9 0l-6.5 3.7c-.3.2-.3.4-.1.6zm-18.9 10.9a.9.9 0 00.9-.1l6.5-3.7c.3-.2.3-.4.1-.5l-5.7-3.3c-.2-.2-.6-.1-.9 0l-6.5 3.8c-.3.1-.3.3-.1.5zm-5.9 49.6a1 1 0 00-.9.1l-10 5.7c-.2.2-.3.4-.1.6l5.7 3.3a.9.9 0 00.9-.1l10-5.7c.3-.2.3-.4.1-.6zm-7.6-41.8a1 1 0 00.9-.1l6.4-3.7c.3-.1.4-.4.1-.5l-5.7-3.3a1.4 1.4 0 00-.9 0l-6.4 3.8c-.3.1-.3.4-.1.5zm-9.5 5.4a.7.7 0 00.9 0l6.5-3.7c.3-.2.3-.4.1-.6l-5.7-3.2a.7.7 0 00-.9 0l-6.5 3.7c-.3.2-.3.4-.1.6zm192.1-64.6a.9.9 0 00-.9.1l-15.9 9.2c-.3.1-.4.3-.1.5l5.7 3.3a1 1 0 00.9-.1l15.9-9.2c.3-.1.3-.4.1-.5zm-20.9 12.1c-.2-.2-.6-.1-.9 0l-6.5 3.8c-.3.1-.3.3-.1.5l5.7 3.3a.9.9 0 00.9-.1l6.5-3.7c.3-.2.3-.4.1-.5zm-128.1 70.6l6.4-3.7c.3-.1.3-.4.1-.5l-5.7-3.3a1 1 0 00-.9.1l-6.5 3.7c-.2.1-.3.4-.1.5l5.7 3.3a1.2 1.2 0 001-.1zm109.2-59.7c-.2-.2-.6-.1-.9 0L287 292c-.2.1-.3.4-.1.5l5.7 3.3a.9.9 0 00.9-.1l6.5-3.7c.3-.2.3-.4.1-.5zm49.2-28.4c-.2-.2-.6-.1-.9 0l-6.5 3.7c-.2.2-.3.4 0 .6l5.7 3.3a1 1 0 00.9-.1l6.4-3.7c.3-.2.3-.4.1-.5zm15.2-2.2l-14.7-8.5a1 1 0 00-.9.1l-6.5 3.7c-.2.2-.3.4-.1.5l14.7 8.5a1.4 1.4 0 00.9 0l6.5-3.8c.2-.1.3-.4.1-.5zm-99.7 51a.7.7 0 00-.9 0l-8 4.6c-.2.2-.3.4 0 .5l5.7 3.3h.9l7.9-4.6c.3-.2.3-.4.1-.6zm23.9-13.8a1 1 0 00-.9 0l-10 5.8c-.3.1-.3.4-.1.5l5.7 3.3a.9.9 0 00.9-.1l10-5.7c.2-.2.3-.4.1-.5zm-45.8 26.4a1.4 1.4 0 00-.9 0l-53.2 30.7c-.2.2-.3.4-.1.6l5.7 3.3a.9.9 0 00.9-.1l53.2-30.7c.3-.2.4-.4.1-.5zm-56.1 32.4a1.2 1.2 0 00-1 .1l-7.9 4.6c-.3.1-.3.4-.1.5l5.7 3.3a1 1 0 00.9-.1l8-4.6c.2-.1.3-.4.1-.5zm67.1-38.7a1 1 0 00-.9 0l-8 4.6c-.3.2-.3.4-.1.5l5.7 3.3c.2.2.6.1.9 0l8-4.6c.2-.2.3-.4.1-.5zm-78.1 45a1 1 0 00-.9.1l-7.9 4.6c-.3.1-.4.4-.1.5l5.7 3.3a1 1 0 00.9-.1l7.9-4.6c.3-.1.3-.3.1-.5zm99.9-57.7a1 1 0 00-.9.1l-7.9 4.6c-.3.1-.3.4-.1.5l5.7 3.3a1 1 0 00.9-.1l7.9-4.5c.3-.2.4-.4.1-.6zm33.8-19.5a1 1 0 00-.9.1l-6.4 3.7c-.3.2-.3.4-.1.5l5.7 3.3h.9l6.5-3.8c.2-.1.3-.4 0-.5zm20.6-15.1l6.4-3.7c.3-.2.3-.4.1-.6l-5.7-3.3a1 1 0 00-.9.1l-6.5 3.7c-.2.2-.3.4-.1.5l5.7 3.3a1.2 1.2 0 001 0zm-38.9 1.7l6.5-3.7c.3-.2.3-.4.1-.6l-5.7-3.3a1 1 0 00-.9.1l-6.5 3.7c-.2.2-.3.4-.1.5l5.7 3.3a1 1 0 00.9 0zm-24.8 35l18.9-10.9c.3-.1.3-.4.1-.5l-5.7-3.3a1 1 0 00-.9.1l-18.9 10.9c-.3.1-.3.4-.1.5l5.7 3.3a1 1 0 00.9-.1zm53.3-31.2a1 1 0 00.9-.1l6.5-3.7c.2-.2.3-.4.1-.5l-5.7-3.3a1.4 1.4 0 00-.9 0l-6.5 3.8c-.3.1-.3.4-.1.5zm-8.1-5.2l6.5-3.8c.3-.1.3-.4.1-.5l-5.7-3.3a1 1 0 00-.9.1l-6.5 3.7c-.2.2-.3.4-.1.5l5.7 3.3a1.4 1.4 0 00.9 0zm-54.6 41.9l6.4-3.8c.3-.1.3-.3.1-.5l-5.7-3.3a1 1 0 00-.9.1l-6.4 3.7c-.3.2-.4.4-.1.5l5.7 3.3c.2.2.6.1.9 0zm41.8-24.7a.8.8 0 00.9 0l6.5-3.7c.3-.2.3-.4.1-.6l-5.7-3.3a1 1 0 00-.9.1l-6.5 3.7c-.3.2-.3.4-.1.6zM204 337l6.5-3.7c.3-.1.3-.4.1-.5l-5.7-3.3a1.4 1.4 0 00-.9 0l-6.5 3.8c-.2.1-.3.4-.1.5l5.7 3.3a.9.9 0 00.9-.1zm9.5-5.4l6.5-3.7c.2-.2.3-.4 0-.6l-5.7-3.3a1 1 0 00-.9.1l-6.4 3.7c-.3.2-.3.4-.1.6l5.7 3.2c.2.2.6.1.9 0zm-18.9 10.9l6.5-3.7c.2-.2.3-.4.1-.6l-5.7-3.2a.9.9 0 00-1 0l-6.4 3.7c-.3.2-.3.4-.1.6l5.7 3.2a.7.7 0 00.9 0zm37.8-21.8l6.4-3.7c.3-.2.4-.4.1-.6l-5.7-3.3a1 1 0 00-.9.1l-6.4 3.7c-.3.2-.3.4-.1.5l5.7 3.3c.2.2.6.1.9 0zm-9.5 5.4l6.5-3.7c.3-.2.3-.4.1-.5l-5.7-3.3h-.9l-6.5 3.8c-.3.1-.3.4-.1.5l5.7 3.3a.9.9 0 00.9-.1zm18.9-10.9l6.5-3.7c.3-.2.3-.4.1-.5l-5.7-3.3a1.4 1.4 0 00-.9 0l-6.5 3.8c-.3.1-.3.4-.1.5l5.7 3.3a1 1 0 00.9-.1zm52.2-75.5c.2.2.7.1.9 0l6.5-3.7c.3-.2.3-.4.1-.6l-1.5-.8a1 1 0 00-.9 0l-6.5 3.7c-.3.2-.3.4-.1.6zm-47.1 29.7a1 1 0 00.9-.1l6.5-3.7c.2-.2.3-.4.1-.5l-5.7-3.3a1.2 1.2 0 00-1 0l-6.4 3.7c-.3.2-.3.4-.1.6zm18.9-10.9a1 1 0 00.9-.1l6.5-3.7c.2-.2.3-.4 0-.6l-5.7-3.2c-.2-.2-.6-.1-.9 0l-6.4 3.7c-.3.2-.3.4-.1.6zM235.4 276c.2.2.6.1.9 0l6.4-3.8c.3-.1.3-.4.1-.5l-5.7-3.3a1 1 0 00-.9.1l-6.4 3.7c-.3.2-.4.4-.1.5zm20.9-12.1a1.4 1.4 0 00.9 0l6.5-3.8c.3-.1.3-.4.1-.5l-5.7-3.3a1 1 0 00-.9.1l-6.5 3.7c-.2.2-.3.4-.1.5zm-39.8 23c.2.2.6.1.9 0l6.4-3.8c.3-.1.4-.3.1-.5l-5.7-3.3a1 1 0 00-.9.1l-6.4 3.7c-.3.2-.4.4-.1.5zm9.4-5.4a1 1 0 00.9-.1l6.5-3.7c.3-.2.3-.4.1-.5l-5.7-3.3a1 1 0 00-.9 0l-6.5 3.8c-.3.1-.3.4-.1.5zm49.2-30.9a.7.7 0 00.9 0l6.5-3.7c.3-.2.3-.4.1-.6l-1.5-.8a1 1 0 00-.9 0l-6.5 3.7c-.3.2-.3.4-.1.6zm28.4-16.3a1 1 0 00.9-.1l6.4-3.7c.3-.2.3-.4.1-.5l-1.5-.9a1 1 0 00-.9.1l-6.5 3.7c-.2.1-.3.4-.1.5zm11.9 6.9a.9.9 0 00.9-.1l6.5-3.7c.3-.1.3-.4.1-.5l-5.7-3.3a1 1 0 00-.9.1l-6.5 3.7c-.2.1-.3.4-.1.5zm18.4 20.9l6.5-3.7c.2-.2.3-.4.1-.5l-5.8-3.3h-.9l-6.4 3.8c-.3.1-.3.4-.1.5l5.7 3.3a1 1 0 00.9-.1zm-49.2-16.9a1 1 0 00.9-.1l6.4-3.7c.3-.1.4-.4.1-.5l-1.5-.9a1 1 0 00-.9.1l-6.5 3.7c-.2.2-.3.4 0 .5zM207 292.4a1 1 0 00.9-.1l6.5-3.7c.3-.2.3-.4.1-.5l-5.7-3.3a1.4 1.4 0 00-.9 0l-6.5 3.8c-.3.1-.3.4-.1.5z"/><path class="prefix__i" d="M236 341.1l1.3.8 35.2 20.3 62.6-36.1 1.3-.8-36.5-21-63.9 36.8z"/><path class="prefix__h" d="M334.5 326.4l-34.6-20-62 35.8 34.6 20 62-35.8z"/><path class="prefix__c" d="M374 48.1c0-2.6-.9-4.5-2.4-5.3L359.9 36c-1.5-.9-3.6-.7-5.9.6l-163.2 94.2v54.1l11.6 6.7 163.3-94.2c4.6-2.7 8.3-9.1 8.3-14.4z"/><path class="prefix__d" d="M374 48.1c0-2.6-.9-4.5-2.4-5.3L359.9 36c-1.5-.9-3.6-.7-5.9.6l-163.2 94.2v54.1l11.6 6.7 163.3-94.2c4.6-2.7 8.3-9.1 8.3-14.4z"/><path class="prefix__c" d="M365.7 43.3c4.6-2.6 8.3-.5 8.3 4.8V83c0 5.3-3.7 11.7-8.3 14.4l-163.3 94.2v-54z"/><path class="prefix__k" d="M364 92.9a12.3 12.3 0 005.6-9.7V51c0-2.5-1.8-3.6-4-2.3l-159.9 92.4v43.3z"/><path class="prefix__g" d="M233.6 157.7a1.9 1.9 0 01-.2.7.7.7 0 01-.4.5l-2.8 1.6h-.4a.7.7 0 01-.1-.5v-8.6a3.2 3.2 0 00-.5-2c-.3-.5-.8-.5-1.4-.1a3.5 3.5 0 00-1.5 1.7 7.1 7.1 0 00-.4 2.6v8.5a2.4 2.4 0 01-.2.8l-.4.5-2.8 1.6h-.4a1.1 1.1 0 01-.2-.6v-22.1a2.4 2.4 0 01.2-.8 1 1 0 01.4-.5l2.8-1.6a.206.206 0 01.4.1.8.8 0 01.2.5v7.2a8.1 8.1 0 011.1-2 7.6 7.6 0 011.8-1.8 4.1 4.1 0 012-.6 2 2 0 011.5.5 4.8 4.8 0 011 1.9 13.9 13.9 0 01.3 3.2zM241.2 147.4a2.2 2.2 0 00.2 1c.2.2.4.2.7 0l1.8-1h.4a1.1 1.1 0 01.2.6v3.4a1.9 1.9 0 01-.2.7 1.5 1.5 0 01-.4.6l-2.1 1.2a3.8 3.8 0 01-1.9.6 2.4 2.4 0 01-1.4-.5 3.5 3.5 0 01-.9-1.6 8.9 8.9 0 01-.4-2.6v-5.6l-1.6.9h-.4a.8.8 0 01-.2-.6v-3.4a1.9 1.9 0 01.2-.7 1.1 1.1 0 01.4-.5l1.6-1v-5.5a1.9 1.9 0 01.2-.7 1.1 1.1 0 01.4-.5l2.8-1.6h.4a.8.8 0 01.2.6v5.5l2.5-1.5a.206.206 0 01.4.1.6.6 0 01.2.5v3.4a1.4 1.4 0 01-.2.7 1.5 1.5 0 01-.4.6l-2.5 1.4zM251.6 141.4a2.2 2.2 0 00.2 1c.1.2.4.2.7 0l1.8-1h.4a1.1 1.1 0 01.2.6v3.4a1.9 1.9 0 01-.2.7 1.5 1.5 0 01-.4.6l-2.1 1.2a3.8 3.8 0 01-1.9.6 2.4 2.4 0 01-1.4-.5 3.5 3.5 0 01-.9-1.6 6.5 6.5 0 01-.4-2.6v-5.6l-1.6.9h-.4a.8.8 0 01-.2-.6v-3.4a1.9 1.9 0 01.2-.7 1.1 1.1 0 01.4-.5l1.6-1v-5.5a1.9 1.9 0 01.2-.7 1.1 1.1 0 01.4-.5l2.8-1.6h.4a.8.8 0 01.2.6v5.5l2.5-1.5a.206.206 0 01.4.1.6.6 0 01.2.5v3.4a1.4 1.4 0 01-.2.7 1.5 1.5 0 01-.4.6l-2.5 1.4zM263.6 141.6a3 3 0 01-1.1.4h-.8l-.6-.3-.4-.4v7.2a1.9 1.9 0 01-.2.7l-.4.5-2.8 1.6h-.4a.8.8 0 01-.2-.6v-22.1a1.4 1.4 0 01.2-.7 1.5 1.5 0 01.4-.6l2.7-1.5h.4a1.1 1.1 0 01.2.6v.8a4.2 4.2 0 01.4-1 5.3 5.3 0 01.6-1l.8-.9a2.7 2.7 0 011.2-.9 5.6 5.6 0 011.9-.7 2 2 0 011.5.6 4 4 0 011.1 1.8 13.2 13.2 0 01.4 3.2v2.7a21 21 0 01-.4 3.7 13.3 13.3 0 01-1.1 3 7.6 7.6 0 01-1.5 2.3 7 7 0 01-1.9 1.6zm1-8.7V131a3 3 0 00-.5-1.8q-.4-.6-1.5 0a2.7 2.7 0 00-.8.7l-.6.9a6.1 6.1 0 00-.3 1.1 4.3 4.3 0 00-.2 1.1 4.9 4.9 0 00-.1 1.2 4.5 4.5 0 00.1 1.2 1.9 1.9 0 00.2.8 1.5 1.5 0 00.3.7l.6.3.8-.3a3.1 3.1 0 001.5-1.7 5.9 5.9 0 00.5-2.3zM274.6 122.2a1 1 0 01-.2.7.7.7 0 01-.4.5l-2.8 1.7h-.5c-.1-.1-.1-.3-.1-.6v-4.4a1.7 1.7 0 01.1-.7c.2-.3.3-.5.5-.6l2.8-1.6h.4c.2.1.2.3.2.6zm0 11.8a1 1 0 01-.2.7c-.1.3-.2.5-.4.5l-2.8 1.7a.5.5 0 01-.5 0c-.1-.1-.1-.3-.1-.6v-4.4a1.7 1.7 0 01.1-.7l.5-.5 2.8-1.7c.2-.1.3-.1.4 0s.2.3.2.6zM283.7 104.1a3.6 3.6 0 01.4-.9.9.9 0 01.6-.6l2.7-1.6h.4c.1.1.1.2.1.4v.4l-7.4 31.5-.3.9a2.3 2.3 0 01-.7.7l-2.7 1.6h-.3c-.1-.1-.1-.2-.1-.4v-.4zM291.3 99.8a1.6 1.6 0 01.3-.9 1.3 1.3 0 01.6-.7l2.7-1.6h.4c.1.1.1.2.1.4v.3l-7.4 31.6-.3.9a2.3 2.3 0 01-.7.7l-2.6 1.5h-.4c-.1-.1-.1-.2-.1-.4v-.4zM305.8 99.4c.2-.1.3-.2.5 0a.5.5 0 01.2.4l1.6 6.7 1.6-8.6.3-.7.5-.6 2.7-1.5c.2-.1.3-.1.4 0a.7.7 0 01.1.5v.3l-3.5 17.6a1.9 1.9 0 01-.2.7c-.1.3-.3.4-.5.6l-2.5 1.4h-.5a.5.5 0 01-.2-.4l-1.6-6.2-1.5 8-.3.7a.8.8 0 01-.5.5l-2.5 1.5h-.5c-.1-.1-.1-.3-.2-.4l-3.5-13.7v-.2a1.9 1.9 0 01.2-.7l.3-.4 2.8-1.6h.5a.5.5 0 01.2.4l1.6 6.7 1.6-8.6.3-.7.5-.5zM324.7 88.4c.3-.1.4-.1.5 0s.2.2.3.4l1.6 6.7 1.6-8.6.3-.7.5-.5 2.7-1.6a.3.3 0 01.4 0 .7.7 0 01.1.5v.3l-3.5 17.6a2.4 2.4 0 01-.2.8 1.2 1.2 0 01-.5.5l-2.5 1.4c-.2.2-.4.2-.5.1s-.2-.3-.2-.5l-1.6-6.2-1.5 8-.3.7a1 1 0 01-.5.6l-2.5 1.4c-.2.2-.4.2-.5 0a.5.5 0 01-.2-.4l-3.5-13.6V95a.7.7 0 01.2-.6 1.1 1.1 0 01.3-.5l2.7-1.6h.5c.2.1.2.3.3.4l1.6 6.7 1.6-8.6.3-.6a1 1 0 01.5-.6zM343.7 77.5c.2-.2.4-.2.5-.1l.3.4 1.6 6.8 1.6-8.6c.1-.2.1-.5.3-.7a1 1 0 01.5-.6l2.7-1.5h.4c.1.1.1.2.1.5v.2l-3.5 17.7a2.5 2.5 0 01-.2.7 1.2 1.2 0 01-.5.5l-2.5 1.5a.4.4 0 01-.5 0l-.2-.4-1.6-6.2-1.6 8a2.5 2.5 0 01-.2.7l-.5.5-2.5 1.5h-.5a.8.8 0 01-.2-.5l-3.5-13.6v-.2a1.5 1.5 0 01.1-.7l.4-.4 2.7-1.6c.2-.1.4-.2.5 0l.3.4 1.6 6.7 1.6-8.6a3.6 3.6 0 01.3-.7 1.3 1.3 0 01.5-.6zM356.5 86.7a1.7 1.7 0 01-.1.7c-.1.3-.3.5-.4.5l-2.9 1.7h-.4a.8.8 0 01-.2-.6v-4.4a1.9 1.9 0 01.2-.7.7.7 0 01.4-.5l2.9-1.7h.4c.1.1.1.3.1.6z"/><path class="prefix__h" d="M195.2 121.9l-20-11.9h-.2c-8.8-5.3-20.5-4.4-33.2 3.8-25.4 16.6-44.8 56.9-43.2 89.9.7 16.5 6.5 28 15.3 33.4h.1l20 11.9h.1c8.8 5.4 20.6 4.5 33.2-3.7 25.5-16.6 44.8-56.8 43.3-89.9-.8-16.6-6.6-28.1-15.4-33.5z"/><path class="prefix__i" d="M133.4 248.5L114 237h-.1c-8.8-5.4-14.6-17-15.3-33.4-.7-14.7 2.8-30.9 9.1-45.7v-.4l19.9 12.2c-6.3 14.9-9.8 31-9.1 45.8s6.4 27.4 14.9 33z"/><path class="prefix__g" d="M167.3 245.2c25.5-16.6 44.8-56.8 43.3-89.9s-23.4-46.4-48.8-29.8-44.7 56.8-43.2 89.9 23.3 46.4 48.7 29.8z"/><path class="prefix__c" d="M153 236.4a19.4 19.4 0 01-9.5-2.4c-8-4.6-12.6-15.2-12.6-29 0-25.4 15.5-55 34.4-66 8.7-5.1 17.1-5.7 23.8-1.9s12.6 15.2 12.6 29c0 25.4-15.5 55-34.4 66a28.3 28.3 0 01-14.3 4.3zm26.6-97.9a25 25 0 00-12.3 3.8c-17.9 10.4-32.5 38.5-32.5 62.7 0 12.4 3.9 21.8 10.6 25.7s12.6 2.4 19.9-1.9c18-10.4 32.5-38.5 32.5-62.7 0-12.4-3.8-21.7-10.6-25.6a14.4 14.4 0 00-7.6-2z"/><path class="prefix__c" d="M153 173a17.6 17.6 0 01-11.4-4l1.8-2.2c5.8 4.6 13.7 4.4 22.2-.6s17.1-14.6 23.3-26.7l2.5 1.3c-6.4 12.6-15.1 22.5-24.4 27.9-4.9 2.8-9.6 4.3-14 4.3zM143.7 231.6l-2.5-1.3c6.5-12.6 15.1-22.5 24.4-27.9s18.6-5.7 25.4-.3l-1.7 2.2c-5.9-4.5-13.8-4.3-22.3.6s-17 14.6-23.3 26.7z"/><path class="prefix__c" d="M162.6 233a8.1 8.1 0 01-3.9-1c-6.7-3.9-10.9-17.9-10.9-36.5 0-25.7 7.8-50.3 17.8-56.1a7.8 7.8 0 018.3-.2c6.7 3.8 10.9 17.8 10.9 36.4 0 25.7-7.8 50.3-17.8 56.1a8 8 0 01-4.4 1.3zm7.4-92a6.4 6.4 0 00-3 .9c-8.8 5.1-16.3 29.7-16.3 53.6 0 19.7 4.7 31.2 9.5 34a5 5 0 005.4-.2c8.9-5.2 16.3-29.8 16.3-53.7 0-19.7-4.7-31.2-9.4-34a5.7 5.7 0 00-2.5-.6z"/><path class="prefix__c" d="M164.9 140.6h2.9v89.88h-2.9z"/><path class="prefix__c" d="M130.968 203.304l66.564-38.7 1.435 2.468-66.564 38.7zM400.4 122.2a3.4 3.4 0 00-1.2-1.4l-3-1.7c-1.3-.8-2.9 0-3.7.5l-1.9-1.1c-2.2-1.4-5.4 1.5-6.1 2.2l-.8-.5c-1-.6-2.5-.2-3.7.4v-10.8a2.8 2.8 0 00-1.1-2.4h-.1l-2.9-1.7a2.7 2.7 0 00-2.7.3 8.6 8.6 0 00-3.9 6.6v33.1l-.4-.2c-2.6-1.9-5.4-3-7.8-2.5a8.5 8.5 0 00-5 3.4c-1.2 2.2.9 3.6 3.5 6.7s5.1 6.7 7.5 9a12.8 12.8 0 004.2 2.9v4.3l2.9 1.7 22.5-13v-4.3s2.8-11.1 3.7-15.8 1.7-12.2 0-15.7z"/><path d="M400.4 122.2a3.4 3.4 0 00-1.2-1.4l-3-1.7c-1.3-.8-2.9 0-3.7.5l-1.9-1.1c-2.2-1.4-5.4 1.5-6.1 2.2l-.8-.5c-1-.6-2.5-.2-3.7.4v-10.8a2.8 2.8 0 00-1.1-2.4h-.1l-2.9-1.7a2.7 2.7 0 00-2.7.3 8.6 8.6 0 00-3.9 6.6v33.1l-.4-.2c-2.6-1.9-5.4-3-7.8-2.5a8.5 8.5 0 00-5 3.4c-1.2 2.2.9 3.6 3.5 6.7s5.1 6.7 7.5 9a12.8 12.8 0 004.2 2.9v4.3l2.9 1.7 22.5-13v-4.3s2.8-11.1 3.7-15.8 1.7-12.2 0-15.7z" opacity=".8" fill="#fff"/><path d="M380 120.7v3.6a11.1 11.1 0 012.9-1.9zm13.5-1.6l-1 .5 1 .5a3.8 3.8 0 011.4 1.6 6.7 6.7 0 011.7-1zm-7 0a15 15 0 00-2 1.6l2 1.1h.1a2.1 2.1 0 01.8.6 17.7 17.7 0 012-1.7zm-17.2-6.6v33.2a23.8 23.8 0 013 1.8v-33.3zm10.6 8.2zm-9.9 43.1c-2.4-2.3-4.7-5.9-7.4-9s-4.5-4.3-3.7-6.3l-3-1.7c-.8 2 1.2 3.4 3.7 6.3s5.1 6.7 7.5 9a12.8 12.8 0 004.2 2.9v4.3l2.9 1.7v-4.3a14 14 0 01-4.2-2.9z" opacity=".2" fill="#27debf"/><path class="prefix__n" d="M380 120.7v3.6a11.1 11.1 0 012.9-1.9zm13.5-1.6l-1 .5 1 .5a3.8 3.8 0 011.4 1.6 6.7 6.7 0 011.7-1zm-7 0a15 15 0 00-2 1.6l2 1.1h.1a2.1 2.1 0 01.8.6 17.7 17.7 0 012-1.7zm-17.2-6.6v33.2a23.8 23.8 0 013 1.8v-33.3zm10.6 8.2zm-9.9 43.1c-2.4-2.3-4.7-5.9-7.4-9s-4.5-4.3-3.7-6.3l-3-1.7c-.8 2 1.2 3.4 3.7 6.3s5.1 6.7 7.5 9a12.8 12.8 0 004.2 2.9v4.3l2.9 1.7v-4.3a14 14 0 01-4.2-2.9z"/><path class="prefix__c" d="M374.2 171v-4.3a14 14 0 01-4.2-2.9c-2.4-2.3-4.7-5.9-7.4-9s-4.8-4.4-3.5-6.7a8.5 8.5 0 015-3.4c2.5-.5 5.5.8 8.2 2.8v-33.3a8.4 8.4 0 013.8-6.6c2.1-1.2 3.9-.2 3.9 2.2v14.5s5.2-4.6 7.4-1.8c0 0 5.1-5.4 7.5-.8 0 0 3.8-3.1 5.5.5s.9 11.1 0 15.7-3.7 15.8-3.7 15.8v4.3z"/><path class="prefix__j" d="M374.2 171v-4.3a14 14 0 01-4.2-2.9c-2.4-2.3-4.7-5.9-7.4-9s-4.8-4.4-3.5-6.7a8.5 8.5 0 015-3.4c2.5-.5 5.5.8 8.2 2.8v-33.3a8.4 8.4 0 013.8-6.6c2.1-1.2 3.9-.2 3.9 2.2v14.5s5.2-4.6 7.4-1.8c0 0 5.1-5.4 7.5-.8 0 0 3.8-3.1 5.5.5s.9 11.1 0 15.7-3.7 15.8-3.7 15.8v4.3z"/><g opacity=".1"><path d="M380 130.6s.4-6.6 2.9-8.2h-.1a13.7 13.7 0 00-2.8 1.9c-.1.1 0 .1 0 .1zM387.4 122.5v6.1s.6-6.2 2-7.7a9.1 9.1 0 00-2 1.6zM394.9 121.7v6.1s.3-6.2 1.7-7.1a6.7 6.7 0 00-1.7 1z"/></g><path class="prefix__d" d="M324.3 296.1c-17.2 8.6-25.1 17.6-16.1 24s33.2 14.9 33.2 14.9l3.2 10.7 35.4-20.4v-12.1s-21.8-15.1-30.4-18-15.2-4.1-25.3.9z"/><path class="prefix__p" d="M373.1 350.8s-5.4 13.1-5.6 18.3-1.6 7.1-.7 13c.2 1.3.8 3.8 1 4.8s-.2 1.7-1.4 2-6.2-3.9-8-8.7a121.3 121.3 0 01-4.6-16.8 6.8 6.8 0 01.7-3.8 6 6 0 011.1-1.9c.7-2.4 1.1-6.8 1.8-9.9z"/><path class="prefix__i" d="M349.2 368.3a4.4 4.4 0 00-.6 1.7c-.1 1.1 2.3 4.6 3.3 5.9a8.5 8.5 0 011.7 6.1 15.1 15.1 0 003.6 9.6 24.2 24.2 0 0011.8 7.7c5.6 1.7 7.6-1.1 7.6-1.1s1.8-2.7.7-3.9-28.1-26-28.1-26z"/><path class="prefix__g" d="M355.6 357.7c-.2-.1-.5-.1-.9.4s-1.3 2.8-2.1 4.1-3.1 3.9-3.4 6.1c1.3 4.2 5.2 7.1 5.8 11.1s.7 8.5 6.8 13.4 12.3 5.3 14.6 4 2-3.7-1.1-8.2-5.6-15.5-5.6-15.5l-.6-4.5a32.9 32.9 0 01.5-4.4 4.9 4.9 0 00-.3-2.1 5 5 0 00-1.7-1.1 16.3 16.3 0 00-3.1-1.1 5.3 5.3 0 00-3.3.4 13.7 13.7 0 01-2 1.3 3 3 0 01-3-.5 2.8 2.8 0 01-.8-2.8z"/><path class="prefix__k" d="M358.2 388.9a9.9 9.9 0 018.9-4.8c6.4 0 8.7 3.3 9.7 5.3s2.3 6.4-.3 7.6-6.2.9-11.5-1.7-6.8-6.4-6.8-6.4zM359.4 369.4a.6.6 0 00.6 0c1-.5 6.3-1.6 9.4 1.2.4-.3.3-.9-.2-1.7-3.6-2.3-8.6-1.3-9.8-.6a.5.5 0 00-.3.8zM370 374.4a1.8 1.8 0 00-.3-1.8 12.2 12.2 0 00-9.4-.3.6.6 0 00-.3.8l.3.3a.6.6 0 00.6 0c1-.5 6-1.5 9.1 1zM372.7 383.1a4 4 0 00-.9-2.3c-3.5-2.2-8.4-1.2-9.6-.6a.7.7 0 00-.3.9l.3.3a.6.6 0 00.6 0c1.1-.6 6.9-1.7 9.9 1.7zM361.3 377.4a.6.6 0 00.6 0c1-.5 6.1-1.6 9.2 1.1a2.1 2.1 0 00-.5-1.9 12.2 12.2 0 00-9.4-.3.5.5 0 00-.2.8z"/><path class="prefix__p" d="M378.8 366.9s2.7 16 5.6 22.1 4.5 9.2 8.5 13.9c.9 1 2.9 2.9 3.6 3.8a1.5 1.5 0 01-.1 2.4c-1.8 1.7-9.5 2.1-13.8-1.1s-8.2-10-10.7-12.6a36.5 36.5 0 01-2.7-3c-.9-1-.6-2-.7-3.1v-2.1a80.5 80.5 0 00-3-9.5z"/><path class="prefix__i" d="M367 399.3a8.4 8.4 0 00.2 1.9c.5 1.1 4.3 3.3 5.8 4.1a8.9 8.9 0 014.4 5 15.6 15.6 0 007.7 7.5 24.3 24.3 0 0014.5 2c6.1-.9 6.8-4.5 6.8-4.5s.4-3.3-1.1-3.9-38.3-12.1-38.3-12.1z"/><path class="prefix__g" d="M368.3 386.4c-.1.1-.5.1-.6.9s.1 3.1-.2 4.7-1.2 5.1-.5 7.3c3.1 3.4 8.2 4.4 10.5 7.9s4.5 7.8 12.4 9.6 14.1-.4 15.6-2.6.3-4.4-4.7-7.4-12.2-12.1-12.2-12.1a43.7 43.7 0 01-2.5-4 23.2 23.2 0 01-1.6-4.4 3.8 3.8 0 00-1.2-1.8 3 3 0 00-2.1-.3 12.7 12.7 0 00-3.4.4 4.7 4.7 0 00-2.9 1.8c-.5.6-.8 1.5-1.3 2.1a3 3 0 01-3.1.8 2.5 2.5 0 01-2-2.2z"/><path class="prefix__k" d="M384.8 414.8a10.3 10.3 0 016.2-8.5c6.1-2.9 9.7-.8 11.5.6s5.2 5.1 3.2 7.4-5.5 3.7-11.6 3.5-9.3-3-9.3-3zM377.2 395.8a.9.9 0 00.6-.3c.7-.9 5.2-4.3 9.4-3 .2-.5-.1-1-1-1.5-4.4-.6-8.7 2.6-9.6 3.7a.8.8 0 00.2 1zM389.5 395.8a1.9 1.9 0 00-1.2-1.5 12.2 12.2 0 00-9 3.8.7.7 0 00.2.9h.4c.2 0 .4 0 .5-.2s5-4 9.1-3zM395.9 402.9a4.1 4.1 0 00-1.8-1.9 12.5 12.5 0 00-9.4 3.8.6.6 0 00.1.9l.4.2a.9.9 0 00.6-.3c.7-1 5.7-4.7 10.1-2.7zM382.5 402.5a.6.6 0 00.6-.3c.7-.9 5.1-4.2 9.3-3a2.7 2.7 0 00-1.4-1.6 12.6 12.6 0 00-9 3.9.6.6 0 00.1.9z"/><path class="prefix__c" d="M343.6 276c6.5 4.8 29.3 18 38.6 26.5 2.7 2.5 3.5 5.8 2.9 12.9-.9 9.6-8.5 42.4-8.5 42.4-1 1.9-2.9-1.6-2.9-1.6l-36.1-45.9z"/><path class="prefix__f" d="M343.6 276c6.5 4.8 29.3 18 38.6 26.5 2.7 2.5 3.5 5.8 2.9 12.9-.9 9.6-8.5 42.4-8.5 42.4-1 1.9-2.9-1.6-2.9-1.6l-36.1-45.9z"/><path class="prefix__f" d="M375.1 347.6c-8.4-7-35.4-49.6-35.4-49.6 3.7-3.1 5.6-13.8 5.6-13.8 1.4 4.1-.1 10.4-1.2 12.7 2.1 1.8 14.1 11.7 22.5 18.3a12 12 0 014.9 7.5c1.7 9 3.7 23.1 3.6 24.9z"/><path class="prefix__c" d="M343.6 276l-46.5 10.3c2.3 8.5 2.9 12.9 5.3 17.4s5 9.4 17.1 15.3 25.9 11.6 28.7 13 3.2 5.3 4.1 10.9 1.1 10.3 6.9 22.6S366 380 366 380s8.8 1 14.5-4.1c0 0-7.9-41.1-9.5-48.5-1-4.1-1-6.3-6.1-10.9s-24.1-18.7-24.1-18.7 7.8-10.5 2.8-21.8z"/><path class="prefix__f" d="M343.6 276l-46.5 10.3c2.3 8.5 2.9 12.9 5.3 17.4s5 9.4 17.1 15.3 25.9 11.6 28.7 13 3.2 5.3 4.1 10.9 1.1 10.3 6.9 22.6S366 380 366 380s8.8 1 14.5-4.1c0 0-7.9-41.1-9.5-48.5-1-4.1-1-6.3-6.1-10.9s-24.1-18.7-24.1-18.7 7.8-10.5 2.8-21.8z"/><path class="prefix__p" d="M397 198.8a3.7 3.7 0 00-2.3.5 11.4 11.4 0 00-2.3 1.5l-3.6 2.4a9.5 9.5 0 01-3.5 1.7c-.4.1-1.3.1-.9-.6a17 17 0 001.8-2.6 3.9 3.9 0 00.2-3 1.1 1.1 0 00-.6-.7c-.4-.2-.6 0-.8.3l-.8.7-1.8 1.6c-3.3 3-7.4 5.6-8.8 10a27.1 27.1 0 00-1.2 8.4c0 4.8-.3 21.6-.3 21.6L353 224.5c-2.8-2.3-6.7-5.1-11-5.5s-4.8-.3-4.8-.3l9.1 22s17.2 12.8 25.4 17.2 11.1 1.1 12-1 3-5 .9-24.3c-.2-1.5-.3-5.8-.5-7.3-.2-3.1.1-6.2 1.3-6.9a35 35 0 006.3-4.3 19.9 19.9 0 003.4-3.7 6.5 6.5 0 001.1-2.2 16.2 16.2 0 010-2.2c.1-.5.5-.9.6-1.4s.1-2.3.8-3.2 1-1 .9-1.6-.6-.8-1-.9z"/><path class="prefix__q" d="M383.4 207.2a13.6 13.6 0 01-3.4 6.9 8.6 8.6 0 002.9-3c1-2 .9-3 .5-3.9z"/><path class="prefix__c" d="M336.3 218.3c4.7.2 8.3.3 12.2 2.5s21.6 17.1 21.6 17.1.2-7.5.7-11.5.7-3.6 1.6-3.5 1.5 2.4 5.8 2.7 5.8-1.5 5.8-1.5 1.3-.3 1.8 1.5 1.2 21 .4 26.5-3.2 8.2-6.6 8.9-11-3.8-20.3-10.1-19.3-12-19.3-12z"/><path class="prefix__r" d="M336.3 218.3c4.7.2 8.3.3 12.2 2.5s21.6 17.1 21.6 17.1.2-7.5.7-11.5.7-3.6 1.6-3.5 1.5 2.4 5.8 2.7 5.8-1.5 5.8-1.5 1.3-.3 1.8 1.5 1.2 21 .4 26.5-3.2 8.2-6.6 8.9-11-3.8-20.3-10.1-19.3-12-19.3-12z"/><path class="prefix__n" d="M370.1 237.9a38.2 38.2 0 00.4 10.8s-3.4-6.5-2.3-12.5z"/><path class="prefix__k" d="M298.2 222.3c-.8 4.1-8.5 42.6.3 71.3 15.8 1.8 43.4-5.4 47.6-15.8 0 0-2.8-9.9-4-14.8.2-7.9 0-23.1-.2-27.8-.3-9.3-1.8-16.4-6.4-17.1 0 0-9.2-.4-14.8-.2l-8.5.3z"/><path class="prefix__a" d="M321.4 283.5c-1.1-2.2-19.8-13.8-19.8-13.8s.3-5.4 1.4-15.2 1.5-21.6-2.1-27.6l-3.6.2c-2 11.9-6.1 42.6 1.2 66.5 8.4 1 20.2-.6 30-3.9-1.8-1.2-6.3-4.4-7.1-6.2z"/><path class="prefix__g" d="M310.6 209.1c0-1.9-3.8-7.9-5.5-12.6-2.9-7.9-3.2-14.9 4-18 0 0 4.4-7.7 15.7-8.1s19.8 9.1 16.1 21.8z"/><path class="prefix__p" d="M313.4 197c-1.5 0-2-2.1-3.1-3.2a4.2 4.2 0 00-6.7.8c-2 3 0 7.3 2.2 9s4.9.1 4.9.1l-.3 15.9s.5 3.5 7 5.5 13.6-1.5 9.1-6.5l.2-4.2a19.3 19.3 0 007.2.4c2.5-.4 4.5-2.2 5.8-6.1 2.5-7.5 1.8-17.6-.7-26.7-2.5 1.9-14 5.6-24.3 2 .4 6.3.1 13-1.3 13z"/><path class="prefix__i" d="M309.3 201.9a.9.9 0 01-.9.9.9.9 0 110-1.8.9.9 0 01.9.9z"/><path class="prefix__q" d="M326.7 214.4s-6.3-1.8-8.7-3.5a12.5 12.5 0 01-3.9-4.4 17.6 17.6 0 002.7 5.3c3 3.4 9.8 4.9 9.8 4.9z"/><path class="prefix__i" d="M326.2 196.9a1.6 1.6 0 01-1.5 1.6 1.5 1.5 0 01-1.6-1.5 1.6 1.6 0 113.1-.1zM324.5 191.6l-3.4 1.8a2.1 2.1 0 01.9-2.7 1.8 1.8 0 012.5.9z"/><path class="prefix__q" d="M325.7 205.1l5.4 1.7a3.1 3.1 0 01-3.7 1.9 2.8 2.8 0 01-1.7-3.6z"/><path class="prefix__i" d="M338.9 191.5l-3.7-1a2 2 0 012.3-1.4 2.1 2.1 0 011.4 2.4zM337.9 195.7a1.4 1.4 0 01-1.5 1.6 1.7 1.7 0 01-1.6-1.6 1.6 1.6 0 011.6-1.6 1.6 1.6 0 011.5 1.6z"/><path class="prefix__h" d="M339.7 182c3.4-2.5 5.4-5.8 4.4-10.3-1.3 1.3-5.1 1.6-8.4 0a25.3 25.3 0 00-17-2.4c-6.1 1.1-9.6 5.8-9.6 9.2s2.8 3.7 5.6 5.5a22.6 22.6 0 0014.8 4.2c5.7-.3 8.6-3.1 8.6-3.1s-3.1.3-4.6-.7a17.7 17.7 0 006.2-2.4z"/><path class="prefix__q" d="M331.3 203.1l4.8-2.2-6.1-8.4 1.3 10.6z"/><path class="prefix__d" d="M383.6 304.2a20.9 20.9 0 00-1.4-1.7c-5.6-5.1-16-11.9-24.9-17.6L317 308.2a.4.4 0 000 .7l29.3 16.9z"/><path class="prefix__h" d="M395.9 292.4v.6a2.7 2.7 0 01-1.4 2.4l-46.9 27.1a3.1 3.1 0 01-1.3.3 2.3 2.3 0 01-1.4-.4l-25.6-14.7a2.5 2.5 0 01-1.3-2.3v-.9l.2.3 28.1 16.2z"/><path class="prefix__i" d="M346.3 321v1.8a3.1 3.1 0 001.3-.3l46.9-27.1a2.7 2.7 0 001.4-2.4v-.6z"/><path class="prefix__g" d="M395.9 292.4l-27.8-16.1a1.5 1.5 0 00-1.6 0l-48.3 27.9a.4.4 0 000 .6l28.1 16.2z"/><path class="prefix__h" d="M346.1 318.6L331 310l43.9-25.3 15.1 8.6-43.9 25.3z"/><path class="prefix__i" d="M390 293.3l-.6.3-14.5-8.3-43.3 25-.5-.3 43.8-25.3 15.1 8.6zM338.7 294.6l.3.1 7.3 4.3 13.1-7.6.3-.1-7.7-4.4-13.3 7.7z"/><path class="prefix__h" d="M339 294.7l7.3 4.3 13.1-7.6-7.4-4.2-13 7.5z"/><path class="prefix__p" d="M352.9 299.8c-2.1-2-5.2-4.9-7.7-5.8l-1.9-.5a26.1 26.1 0 002.7-.6 4.2 4.2 0 002.2-1.5c.2-.2.4-.7.1-.9a.5.5 0 00-.4-.2c-1.9 0-3.4-.3-5.1-.4a6.5 6.5 0 00-2.4 0l-2.1.6c-3.2 1.1-6.1 2.1-10.6 1.1l-8.2-4.3s-1.7-.5-4.2 3.9-1.1 6.7-1.1 6.7l9.1 3.1h.1c1 .3 2 1.1 4.4 1.9s6.4-.2 8.9-.3 6.7 1 8.9 1.9 5.1-2.6 6.2-2.2 3.2-.4 1.1-2.5z"/><path class="prefix__q" d="M342.3 292.1a7.7 7.7 0 00-3.5.6 16.4 16.4 0 014.5.8 26.1 26.1 0 002.7-.6 4.1 4.1 0 002-1.2c-1.4.9-4.1.6-5.7.4z"/><path class="prefix__c" d="M298.2 222.3c2.3.9 5.3 10.6 3.5 19.8l-4.3 29 12.6 7.7c5.2 3.2 9.5 6.1 9.5 8.5-3.3 1.2-6.3 7.3-5.3 10.6-2.3 2.7-23.5-9.1-30.9-14.1-3.4-2.4-5.1-3.3-3.8-13.9s2.5-24.7 4.7-33.4 5.1-12.6 14-14.2z"/><path class="prefix__r" d="M298.2 222.3c2.3.9 5.3 10.6 3.5 19.8l-4.3 29 12.6 7.7c5.2 3.2 9.5 6.1 9.5 8.5-3.3 1.2-6.3 7.3-5.3 10.6-2.3 2.7-23.5-9.1-30.9-14.1-3.4-2.4-5.1-3.3-3.8-13.9s2.5-24.7 4.7-33.4 5.1-12.6 14-14.2z"/><path class="prefix__h" d="M347 321.4a3.1 3.1 0 002.8-.2l46.7-27a2.9 2.9 0 001.5-2.2l5.1-30.5a.9.9 0 00.1-.5 3.3 3.3 0 00-1-2.3l-48.5 28.1a2.1 2.1 0 00-1.1 1.6z"/><path class="prefix__g" d="M346.3 321l.3.2.4.2 5.6-33a2.1 2.1 0 011.1-1.6l48.5-28.1c-.1-.2-.4-.3-.6-.5l-48.7 28.1a2.5 2.5 0 00-1.1 1.7z"/><path class="prefix__i" d="M353 287.4l-.7-.4a1.9 1.9 0 00-.5 1l-5.5 33 .3.2.4.2 5.6-33a1.8 1.8 0 01.4-1z"/><path class="prefix__c" d="M373.3 293.3a10.7 10.7 0 014.7-6.1c2.3-1.3 3.9-.7 3.5 1.3s-2.4 4.8-4.7 6.1-3.8.7-3.5-1.3z"/></svg>