<svg xmlns="http://www.w3.org/2000/svg" viewBox="0 0 500 500"><path fill="#3E96CC" d="M0 0h500v500H0z"/><ellipse opacity=".5" fill="#165C7F" cx="250" cy="352.3" rx="212.4" ry="16.4"/><path fill="#C7DBE5" d="M357.3 135.1l-12-3.6c-1.8-.5-3.8.5-4.3 2.3l-1.5 5.2c-4.7-.3-9.4.2-13.9 1.5l-2.6-4.8c-.9-1.7-3-2.3-4.7-1.4l-11 6c-1.7.9-2.3 3-1.4 4.7l2.6 4.8c-3.5 3.1-6.4 6.7-8.8 10.9l-5.2-1.5c-1.8-.5-3.8.5-4.3 2.3l-3.6 12c-.5 1.8.5 3.8 2.3 4.3l5.2 1.5c-.3 4.7.2 9.4 1.5 13.9l-4.8 2.6c-1.7.9-2.3 3-1.4 4.7l6 11c.9 1.7 3 2.3 4.7 1.4l4.8-2.6c3.1 3.5 6.7 6.4 10.9 8.8l-1.5 5.2c-.5 1.8.5 3.8 2.3 4.3l12 3.6c1.8.5 3.8-.5 4.3-2.3l1.5-5.2c4.7.3 9.4-.2 13.9-1.5l2.6 4.8c.9 1.7 3 2.3 4.7 1.4l11-6c1.7-.9 2.3-3 1.4-4.7l-2.6-4.8c3.5-3.1 6.4-6.7 8.8-10.9l5.2 1.5c1.8.5 3.8-.5 4.3-2.3l3.6-12c.5-1.8-.5-3.8-2.3-4.3l-5.2-1.5c.3-4.7-.2-9.4-1.5-13.9l4.8-2.6c1.7-.9 2.3-3 1.4-4.7l-6-11c-.9-1.7-3-2.3-4.7-1.4l-4.8 2.6c-3.1-3.5-6.7-6.4-10.8-8.8l1.5-5.2c.5-1.9-.5-3.8-2.4-4.3zm-15.4 30c9.3 2.7 14.6 12.5 11.9 21.8-2.7 9.3-12.5 14.6-21.8 11.9-9.3-2.7-14.6-12.5-11.9-21.8 2.8-9.4 12.5-14.7 21.8-11.9z"/><path fill="#A7BAD8" d="M344.1 157.6c-13.4-4-27.5 3.7-31.5 17.1-4 13.4 3.7 27.5 17.1 31.5 13.4 4 27.5-3.7 31.5-17.1 4-13.5-3.6-27.6-17.1-31.5zm-2.2 7.5c9.3 2.7 14.6 12.5 11.9 21.8-2.7 9.3-12.5 14.6-21.8 11.9-9.3-2.7-14.6-12.5-11.9-21.8 2.8-9.4 12.5-14.7 21.8-11.9z"/><path fill="#C7DBE5" d="M257.6 137.5l-7.1-2.1c-1.1-.3-2.2.3-2.5 1.4l-.9 3.1c-2.8-.2-5.5.1-8.1.9l-1.5-2.8c-.5-1-1.8-1.4-2.8-.8l-6.5 3.5c-1 .5-1.4 1.8-.8 2.8l1.5 2.8c-2 1.8-3.8 3.9-5.2 6.4l-3.1-.9c-1.1-.3-2.2.3-2.5 1.4l-2.1 7.1c-.3 1.1.3 2.2 1.4 2.5l3.1.9c-.2 2.8.1 5.5.9 8.1l-2.8 1.5c-1 .5-1.4 1.8-.8 2.8l3.5 6.5c.5 1 1.8 1.4 2.8.8l2.8-1.5c1.8 2 3.9 3.8 6.4 5.1l-.9 3.1c-.3 1.1.3 2.2 1.4 2.5l7.1 2.1c1.1.3 2.2-.3 2.5-1.4l.9-3.1c2.8.2 5.5-.1 8.1-.9l1.5 2.8c.5 1 1.8 1.4 2.8.8l6.5-3.5c1-.5 1.4-1.8.8-2.8l-1.5-2.8c2-1.8 3.8-3.9 5.2-6.4l3.1.9c1.1.3 2.2-.3 2.5-1.4l2.1-7.1c.3-1.1-.3-2.2-1.4-2.5l-3.1-.9c.2-2.8-.1-5.5-.9-8.1l2.8-1.5c1-.5 1.4-1.8.8-2.8l-3.5-6.5c-.5-1-1.8-1.4-2.8-.8l-2.8 1.5c-1.8-2-3.9-3.8-6.4-5.1l.9-3.1c.3-1-.3-2.2-1.4-2.5zm-9 17.6c5.5 1.6 8.6 7.3 7 12.8-1.6 5.5-7.3 8.6-12.8 7-5.5-1.6-8.6-7.3-7-12.8 1.6-5.5 7.3-8.6 12.8-7z"/><path fill="#A7BAD8" d="M249.9 150.8c-7.9-2.3-16.2 2.2-18.5 10.1-2.3 7.9 2.2 16.2 10.1 18.5 7.9 2.3 16.2-2.2 18.5-10.1 2.2-7.9-2.3-16.2-10.1-18.5zm-1.3 4.3c5.5 1.6 8.6 7.3 7 12.8-1.6 5.5-7.3 8.6-12.8 7-5.5-1.6-8.6-7.3-7-12.8 1.6-5.5 7.3-8.6 12.8-7z"/><g><path fill="#2B2F3F" d="M347 194.7v106.5H157V194.7c0-4.3 3.5-7.8 7.8-7.8h174.3c4.4 0 7.9 3.5 7.9 7.8z"/><path fill="#1D6C93" d="M165.3 195.9h173.3v105.4H165.3z"/><path fill="#FFF" d="M276.8 339h-49.7l5.5-18.3h39.3z"/><path fill="#FFF" d="M347 301.3v11.6c0 4.3-3.5 7.8-7.8 7.8H164.8c-4.3 0-7.8-3.5-7.8-7.8v-11.6h190z"/><path fill="#CECECE" d="M232.6 320.7l-1.8 5.9h42.7l-1.6-5.9zM283.6 348.1h-63.2c-2.5 0-4.6-2-4.6-4.6 0-2.5 2-4.6 4.6-4.6h63.2c2.5 0 4.6 2 4.6 4.6 0 2.6-2.1 4.6-4.6 4.6z"/><path fill="#AFAFAF" d="M273.8 278.1l-48.5-48.2 6.2-6.2 48.4 48.2z"/><path fill="#D7D9DB" d="M216.3 221.2c-.6-.6-1.7-.1-1.6.8.4 3.8.9 6.4 3.3 8.8 3.9 3.9 10.3 3.8 14.2-.1 3.9-3.9 3.8-10.2-.1-14.1-2.2-2.2-4.5-2.2-8.3-2.5-.9-.1-1.4 1-.7 1.6l3.8 3.8c.4.4.4.9 0 1.3l-4.8 4.9c-.4.4-.9.4-1.3 0l-4.5-4.5zM282.2 286.5c.6.6.1 1.7-.7 1.6-3.8-.3-6.4-.8-8.8-3.2-3.9-3.9-4-10.2-.1-14.2 3.9-3.9 10.2-3.9 14.1-.1 2.2 2.2 2.3 4.5 2.6 8.3.1.9-1 1.4-1.6.8l-3.8-3.8c-.4-.4-.9-.4-1.3 0l-4.8 4.9c-.4.4-.4.9 0 1.3l4.4 4.4z"/><path fill="#3E96CC" d="M269.6 243.6c-5.5 2.4-13.1 5.6-16.5 14.2l-8.5-8.5c8.6-3.5 11.8-11 14.2-16.5 2.4-5.5 17.8-16.5 20.8-18.1.2-.1.4-.2.5-.2 2.9-1 6 1.9 6 1.9s2.9 3.1 1.8 6c-.1.2-.1.4-.2.5-1.5 3-12.6 18.4-18.1 20.7z"/><path fill="#FFED6E" d="M288.1 222.3c-.1-.1-2.5-1.2-4.9.7-2.4 1.9-3.9.1-3.9.1s-1.8-1.5.2-3.9c1.9-2.3.8-4.7.7-4.9 2.9-1 6 1.9 6 1.9s2.9 3.3 1.9 6.1zM253.1 257.8l-4.7 3.9c-.9.8-2.3.7-3.1-.1l-4.4-4.5c-.8-.8-.9-2.2-.1-3.1l3.9-4.7 8.4 8.5z"/><path fill="#145B7A" d="M264.7 242.6c-.8.5-3.5-1.3-3.5-1.3s-1.9-2.7-1.3-3.5c5.1-7.1 13.6-14.7 15.2-15.1 1.7-.3 3.5 1.2 3.5 1.2s1.5 1.9 1.2 3.5c-.4 1.7-8 10.2-15.1 15.2z"/><path fill="#FFED6E" d="M271.7 234.1c-4.1 4.1-8.1 6.6-9 5.7-.9-.9 1.7-4.9 5.8-9s8.1-6.6 9-5.7c.8.9-1.8 4.9-5.8 9z"/><path fill="#CBD2D8" d="M224.2 281.5l-3.4-3.4 1.8-1.1 19.1-19.1 2.7 2.8-19.1 19z"/><path fill="#CBD2D8" d="M222.9 282.6l-3.2-3.3 1.1-1.2 3.4 3.4z"/><path fill="#3E96CC" d="M219.7 285.3l-2.7-2.7 2.7-3.3 3.2 3.3z"/><path fill="#145B7A" d="M282.4 222.2c-.6.6-1.5.6-2.1 0s-.6-1.5 0-2.1c.6-.6 1.5-.6 2.1 0 .5.6.5 1.6 0 2.1z"/><path opacity=".2" fill="#FFF" d="M338.6 195.9V231l-70.2 70.3H165.3v-11.6l93.9-93.8zM235.4 195.9L165.3 266v-41.9l28.2-28.2z"/><path fill="#CECECE" d="M256.3 313.5h-.4c-1.5-.1-2.8-1.4-2.8-2.9 0-1.2.6-2.1 1.6-2.6.6-.3.5-1.1 0-1.3-.3-.1-.7-.2-1-.2h-.7l.5-2.7c0-.2-.3-.5-.7-.5h-1.6c-.4 0-.8.2-.7.5l.5 2.7h-.5c-1 0-1.9.5-2.3 1.4l-1 2c-.2.4-.3.8-.3 1.2v4.8c0 .8.4 1.6 1 2l.3.2c.4.3 1 .5 1.6.5h4.4c.6 0 1.1-.2 1.6-.5l.3-.2c.6-.5 1-1.2 1-2v-1.6c0-.5-.4-.8-.8-.8z"/></g><g><path fill="#464F60" d="M141.9 348.1H67.5c-4.1 0-7.4-3.3-7.4-7.4V157.5c0-4.1 3.3-7.4 7.4-7.4h74.4c4.1 0 7.4 3.3 7.4 7.4v183.2c0 4.1-3.3 7.4-7.4 7.4z"/><path fill="#A2A9BC" d="M149.3 311.8v28.9c0 4.1-3.3 7.4-7.4 7.4H67.5c-4.1 0-7.4-3.3-7.4-7.4v-28.9c0 9.1 7.4 16.5 16.5 16.5h56.3c9.1 0 16.4-7.4 16.4-16.5z"/><path fill="#343847" d="M140.7 199.2H69.8c-2.6 0-4.7-2.1-4.7-4.7v-20.7c0-2.6 2.1-4.7 4.7-4.7h70.9c2.6 0 4.7 2.1 4.7 4.7v20.7c0 2.6-2.1 4.7-4.7 4.7z"/><path fill="#464F60" d="M138.4 185.3h-67c-1.7 0-3.1-1.4-3.1-3.1v-2.7c0-1.7 1.4-3.1 3.1-3.1h67c1.7 0 3.1 1.4 3.1 3.1v2.7c.1 1.7-1.3 3.1-3.1 3.1z"/><path fill="#CECECE" d="M80.4 182.5h-7.2c-1.1 0-1.9-.9-1.9-1.9 0-1.1.9-1.9 1.9-1.9h7.2c1.1 0 1.9.9 1.9 1.9 0 1-.9 1.9-1.9 1.9z"/><path fill="#4098CD" d="M127.2 180.7c0 1.3-1.1 2.4-2.4 2.4-1.3 0-2.4-1.1-2.4-2.4 0-1.3 1.1-2.4 2.4-2.4 1.3 0 2.4 1.1 2.4 2.4z"/><circle fill="#4098CD" cx="134" cy="180.7" r="2.4"/><path fill="#FFF" d="M140.4 160.5h-20.2c-1.4 0-2.4-1.1-2.4-2.4 0-1.4 1.1-2.4 2.4-2.4h20.2c1.4 0 2.4 1.1 2.4 2.4 0 1.3-1.1 2.4-2.4 2.4z"/><path fill="#343847" d="M141.8 249.1H67.5c-1.8 0-3.3-1.5-3.3-3.3v-6.3c0-1.8 1.5-3.3 3.3-3.3h74.3c1.8 0 3.3 1.5 3.3 3.3v6.3c0 1.8-1.5 3.3-3.3 3.3z"/><path fill="#FFF" d="M137.5 245h-8.8c-.3 0-.6-.2-.6-.6v-3.9c0-.3.2-.6.6-.6h8.8c.3 0 .6.2.6.6v3.9c-.1.3-.3.6-.6.6z"/><path fill="#343847" d="M136.7 242.2h-7.3c-.3 0-.5-.2-.5-.5v-.6c0-.3.2-.5.5-.5h7.3c.3 0 .5.2.5.5v.6c0 .3-.2.5-.5.5z"/><path fill="#FFF" d="M125 245h-8.8c-.3 0-.6-.2-.6-.6v-3.9c0-.3.2-.6.6-.6h8.8c.3 0 .6.2.6.6v3.9c0 .3-.3.6-.6.6z"/><path fill="#343847" d="M124.3 242.2H117c-.3 0-.5-.2-.5-.5v-.6c0-.3.2-.5.5-.5h7.3c.3 0 .5.2.5.5v.6c0 .3-.2.5-.5.5z"/><path fill="#FF5E4C" d="M103.6 245c-1.3 0-2.4-1.1-2.4-2.4 0-1.3 1.1-2.4 2.4-2.4 1.3 0 2.4 1.1 2.4 2.4 0 1.3-1.1 2.4-2.4 2.4zm0-4c-.9 0-1.6.7-1.6 1.6 0 .9.7 1.6 1.6 1.6.9 0 1.6-.7 1.6-1.6 0-.9-.7-1.6-1.6-1.6z"/><path fill="#46C596" d="M110.2 245c-1.3 0-2.4-1.1-2.4-2.4 0-1.3 1.1-2.4 2.4-2.4 1.3 0 2.4 1.1 2.4 2.4 0 1.3-1.1 2.4-2.4 2.4zm0-4c-.9 0-1.6.7-1.6 1.6 0 .9.7 1.6 1.6 1.6.9 0 1.6-.7 1.6-1.6 0-.9-.7-1.6-1.6-1.6z"/><path fill="#FFF" d="M101.4 323.6h-4.1c-1.1 0-1.9-.9-1.9-1.9 0-1.1.9-1.9 1.9-1.9h4.1c1.1 0 1.9.9 1.9 1.9 0 1-.9 1.9-1.9 1.9zM112.1 323.6H108c-1.1 0-1.9-.9-1.9-1.9 0-1.1.9-1.9 1.9-1.9h4.1c1.1 0 1.9.9 1.9 1.9.1 1-.8 1.9-1.9 1.9z"/><circle fill="#343847" cx="105.2" cy="279.2" r="13.5"/><circle transform="rotate(-21.372 105.19 279.244)" fill="#FFF" cx="105.2" cy="279.2" r="8.9"/><path fill="#343847" d="M105.2 285.1c-3 0-5.5-2.5-5.5-5.5 0-1.6.7-3.1 1.9-4.1.4-.4 1.1-.3 1.5.1.4.4.3 1.1-.1 1.5-.7.7-1.2 1.6-1.2 2.6 0 1.9 1.5 3.4 3.4 3.4s3.4-1.5 3.4-3.4c0-1-.4-1.9-1.2-2.6-.4-.4-.5-1-.1-1.5.4-.4 1-.5 1.5-.1 1.2 1 1.9 2.5 1.9 4.1 0 3-2.5 5.5-5.5 5.5z"/><path fill="#343847" d="M105.2 279c-.6 0-1-.5-1-1v-3.6c0-.6.5-1 1-1 .6 0 1 .5 1 1v3.6c0 .6-.5 1-1 1z"/></g><g><path fill="#46C596" d="M437.2 348.1h-139c-2 0-3.6-1.6-3.6-3.6v-95.8c0-2 1.6-3.6 3.6-3.6h139c2 0 3.6 1.6 3.6 3.6v95.8c0 2-1.6 3.6-3.6 3.6z"/><path fill="#DFE82D" d="M370.4 330.2h61.4v3.8h-61.4z"/><path fill="#E58507" d="M393.1 330.4h2.3v1.4h-2.3zM393.1 332.4h2.3v1.4h-2.3z"/><path fill="#E58507" d="M393.9 331.6h.7v1h-.7z"/><path fill="#FFF" d="M366.1 330.4h4.3v3.4h-4.3zM431.8 330.4h4.3v3.4h-4.3z"/><path fill="#E58507" d="M371.5 331.4h20.6v1.3h-20.6zM396.3 331.4h34.5v1.3h-34.5z"/><path fill="#DFE82D" d="M370.4 324.6h61.4v3.8h-61.4z"/><path fill="#E58507" d="M393.1 324.8h2.3v1.4h-2.3zM393.1 326.8h2.3v1.4h-2.3z"/><path fill="#E58507" d="M393.9 326h.7v1h-.7z"/><path fill="#FFF" d="M366.1 324.8h4.3v3.4h-4.3zM431.8 324.8h4.3v3.4h-4.3z"/><path fill="#E58507" d="M371.5 325.9h20.6v1.3h-20.6zM396.3 325.9h34.5v1.3h-34.5z"/><path fill="#DFE82D" d="M370.4 319.1h61.4v3.8h-61.4z"/><path fill="#E58507" d="M393.1 319.3h2.3v1.4h-2.3zM393.1 321.3h2.3v1.4h-2.3z"/><path fill="#E58507" d="M393.9 320.5h.7v1h-.7z"/><path fill="#FFF" d="M366.1 319.3h4.3v3.4h-4.3zM431.8 319.3h4.3v3.4h-4.3z"/><path fill="#E58507" d="M371.5 320.4h20.6v1.3h-20.6zM396.3 320.4h34.5v1.3h-34.5z"/><path fill="#DFE82D" d="M370.4 313.5h61.4v3.8h-61.4z"/><path fill="#E58507" d="M393.1 313.8h2.3v1.4h-2.3zM393.1 315.7h2.3v1.4h-2.3z"/><path fill="#E58507" d="M393.9 315h.7v1h-.7z"/><path fill="#FFF" d="M366.1 313.8h4.3v3.4h-4.3zM431.8 313.8h4.3v3.4h-4.3z"/><path fill="#E58507" d="M371.5 314.8h20.6v1.3h-20.6zM396.3 314.8h34.5v1.3h-34.5z"/><path fill="#DFE82D" d="M374.9 339.4h26.5v5.9h-26.5z"/><path fill="#D16666" d="M376.2 340.1h1.7v1.8h-1.7zM376.2 342.8h1.7v1.8h-1.7zM379 340.1h1.7v1.8H379zM379 342.8h1.7v1.8H379zM381.8 340.1h1.7v1.8h-1.7zM381.8 342.8h1.7v1.8h-1.7zM384.6 340.1h1.7v1.8h-1.7zM384.6 342.8h1.7v1.8h-1.7zM387.3 340.1h1.7v1.8h-1.7zM387.3 342.8h1.7v1.8h-1.7zM390.1 340.1h1.7v1.8h-1.7zM390.1 342.8h1.7v1.8h-1.7zM392.9 340.1h1.7v1.8h-1.7zM392.9 342.8h1.7v1.8h-1.7zM395.7 340.1h1.7v1.8h-1.7zM395.7 342.8h1.7v1.8h-1.7zM398.5 340.1h1.7v1.8h-1.7zM398.5 342.8h1.7v1.8h-1.7z"/><path fill="#DFE82D" d="M406.2 339.4h26.5v5.9h-26.5z"/><path fill="#D16666" d="M407.5 340.1h1.7v1.8h-1.7zM407.5 342.8h1.7v1.8h-1.7zM410.3 340.1h1.7v1.8h-1.7zM410.3 342.8h1.7v1.8h-1.7zM413.1 340.1h1.7v1.8h-1.7zM413.1 342.8h1.7v1.8h-1.7zM415.9 340.1h1.7v1.8h-1.7zM415.9 342.8h1.7v1.8h-1.7zM418.7 340.1h1.7v1.8h-1.7zM418.7 342.8h1.7v1.8h-1.7zM421.5 340.1h1.7v1.8h-1.7zM421.5 342.8h1.7v1.8h-1.7zM424.3 340.1h1.7v1.8h-1.7zM424.3 342.8h1.7v1.8h-1.7zM427.1 340.1h1.7v1.8h-1.7zM427.1 342.8h1.7v1.8h-1.7zM429.9 340.1h1.7v1.8h-1.7zM429.9 342.8h1.7v1.8h-1.7z"/><path fill="#5B6B69" d="M301.582 276.565v14.9h-3.3v-14.9z"/><path fill="#3D3E43" d="M301.22 277.352v1h-1v-1zM299.67 277.303v1h-1v-1zM301.19 278.922v1h-1v-1zM299.639 278.872v1h-1v-1zM301.259 280.49v1h-1v-1zM299.708 280.441v1h-1v-1zM301.228 282.06v1h-1v-1zM299.677 282.01v1h-1v-1zM301.197 283.629v1h-1v-1zM299.646 283.58v1h-1v-1zM301.266 285.198v1h-1v-1zM299.715 285.149v1h-1v-1zM301.235 286.767v1h-1v-1zM299.685 286.718v1h-1v-1zM301.204 288.336v1h-1v-1zM299.654 288.287v1h-1v-1zM301.273 289.906v1h-1v-1zM299.723 289.856v1h-1v-1z"/><path fill="#FFF" d="M437.2 278.9c0 1.1-.9 1.9-1.9 1.9-1.1 0-1.9-.9-1.9-1.9 0-1.1.9-1.9 1.9-1.9 1-.1 1.9.8 1.9 1.9z"/><circle fill="#FFF" cx="397.2" cy="257.2" r="1.9"/><circle fill="#FFF" cx="409.3" cy="257.2" r="1.9"/><path fill="#FFF" d="M419.5 278.9c0 .8-.7 1.5-1.5 1.5s-1.5-.7-1.5-1.5.7-1.5 1.5-1.5c.9 0 1.5.7 1.5 1.5zM419.5 283.4c0 .8-.7 1.5-1.5 1.5s-1.5-.7-1.5-1.5.7-1.5 1.5-1.5c.9 0 1.5.6 1.5 1.5zM419.5 287.8c0 .8-.7 1.5-1.5 1.5s-1.5-.7-1.5-1.5.7-1.5 1.5-1.5c.9 0 1.5.7 1.5 1.5zM419.5 292.3c0 .8-.7 1.5-1.5 1.5s-1.5-.7-1.5-1.5.7-1.5 1.5-1.5c.9 0 1.5.7 1.5 1.5zM437.2 289.9c0 1.1-.9 1.9-1.9 1.9-1.1 0-1.9-.9-1.9-1.9 0-1.1.9-1.9 1.9-1.9 1-.1 1.9.8 1.9 1.9z"/><path fill="#DFE82D" d="M427.4 270.3h4v30.5h-4z"/><path fill="#E58507" d="M428.2 270.9h2.5v2.1h-2.5zM428.2 274.3h2.5v2.1h-2.5zM428.2 277.7h2.5v2.1h-2.5zM428.2 281.1h2.5v2.1h-2.5zM428.2 284.5h2.5v2.1h-2.5zM428.2 287.9h2.5v2.1h-2.5zM428.2 291.3h2.5v2.1h-2.5zM428.2 294.6h2.5v2.1h-2.5zM428.2 298h2.5v2.1h-2.5z"/><path fill="#DFE82D" d="M394.813 264.953v-4h17v4z"/><path fill="#D16666" d="M395.408 264.248v-2.5h2.1v2.5zM398.794 264.234v-2.5h2.1v2.5zM402.18 264.22v-2.5h2.1v2.5zM405.567 264.206v-2.5h2.1v2.5zM408.953 264.192v-2.5h2.1v2.5z"/><g><path fill="#5B6B69" d="M421.4 291.3h3.8v6.3h-3.8z"/><path fill="#FFF" d="M425.3 291.8h1v.6h-1zM425.3 292.9h1v.6h-1zM425.3 295.3h1v.6h-1zM425.3 294.1h1v.6h-1zM425.3 296.4h1v.6h-1z"/><g><path fill="#FFF" d="M420.4 291.8h1v.6h-1zM420.4 292.9h1v.6h-1zM420.4 295.3h1v.6h-1zM420.4 294.1h1v.6h-1zM420.4 296.4h1v.6h-1z"/></g><g><path fill="#FFF" d="M424.2 290.2h.6v1h-.6zM421.9 290.2h.6v1h-.6zM423.1 290.2h.6v1h-.6z"/></g><g><path fill="#FFF" d="M424.2 297.5h.6v1h-.6zM421.9 297.5h.6v1h-.6zM423.1 297.5h.6v1h-.6z"/></g></g><g><path fill="#5B6B69" d="M356.2 327h3.8v6.3h-3.8z"/><path fill="#FFF" d="M360.1 327.5h1v.6h-1zM360.1 328.7h1v.6h-1zM360.1 331h1v.6h-1zM360.1 329.9h1v.6h-1zM360.1 332.2h1v.6h-1z"/><g><path fill="#FFF" d="M355.2 327.5h1v.6h-1zM355.2 328.7h1v.6h-1zM355.2 331h1v.6h-1zM355.2 329.9h1v.6h-1zM355.2 332.2h1v.6h-1z"/></g><g><path fill="#FFF" d="M359.1 326h.6v1h-.6zM356.7 326h.6v1h-.6zM357.9 326h.6v1h-.6z"/></g><g><path fill="#FFF" d="M359.1 333.3h.6v1h-.6zM356.7 333.3h.6v1h-.6zM357.9 333.3h.6v1h-.6z"/></g></g><circle fill="#FFF" cx="396.5" cy="274.2" r="1.5"/><circle fill="#FFF" cx="400.9" cy="274.2" r="1.5"/><path fill="#FFF" d="M405.4 272.8c.8 0 1.5.7 1.5 1.5s-.7 1.5-1.5 1.5-1.5-.7-1.5-1.5c0-.9.7-1.5 1.5-1.5zM409.9 272.8c.8 0 1.5.7 1.5 1.5s-.7 1.5-1.5 1.5-1.5-.7-1.5-1.5c0-.9.7-1.5 1.5-1.5z"/><path fill="#ECD4B3" d="M411.1 277.3v22h-24.2v-2.2l-4.2-5.3V284l4.2-4.4v-2.3z"/><path fill="#5B6B69" d="M411.1 276.4h4.2v24h-4.2z"/><g><path fill="#FFF" d="M390.3 304.7h-2.2l-4.7-4.7v-2.2l-1.4-1.4c-.2-.2-.2-.5 0-.7.2-.2.5-.2.7 0l1.7 1.7v2.2l4.1 4.1h1.3l2.1-2.9h21.4v-8.4l-1.7-1.7v-6.4l1.6-1.6v-6.9c0-.3.2-.5.5-.5s.5.2.5.5v7.3l-1.6 1.6v5.5l1.7 1.7v9.9h-21.9l-2.1 2.9z"/></g><g><path fill="#FFF" d="M307 343.5v-5.8h.8v-.9h1.4l.8.7v7h-2.2v-1z"/><path fill="#4098CD" d="M309.1 343.3h-1v-4.8h.5v4.2h.5z"/></g><g><path fill="#FFF" d="M325.7 327.5c0 3-2.4 5.4-5.4 5.4-3 0-5.4-2.4-5.4-5.4 0-3 2.4-5.4 5.4-5.4 2.9 0 5.4 2.4 5.4 5.4z"/><path fill="#5B6B69" d="M324.3 327.5c0 2.3-1.8 4.1-4.1 4.1s-4.1-1.8-4.1-4.1 1.8-4.1 4.1-4.1 4.1 1.9 4.1 4.1z"/></g><circle fill="#FFF" cx="310.3" cy="332.2" r="1.8"/><g><path fill="#FFF" d="M298.6 314h4v7.2h-4z"/><path fill="#4098CD" d="M299.3 314.9h2.6v5.3h-2.6z"/></g><g><path fill="#FFF" d="M298.6 302.9h4v7.2h-4z"/><path fill="#D16666" d="M299.3 303.9h2.6v5.3h-2.6z"/></g><g><path fill="#FFF" d="M298.5 329h3.7v13.3h-3.7z"/><path fill="#4098CD" d="M299.6 330.1h1.4v11h-1.4z"/></g><g><path fill="#FFF" d="M409.632 305.638v3.7h-13.3v-3.7z"/><path fill="#4098CD" d="M408.432 306.738v1.4h-11v-1.4z"/></g><path fill="#FFF" d="M363.2 343.7H356c-1.3 0-2.3-1-2.3-2.3 0-1.3 1-2.3 2.3-2.3h7.2c1.3 0 2.3 1 2.3 2.3 0 1.3-1 2.3-2.3 2.3z"/><path fill="#CECECE" d="M362.9 342.8h-6.6c-.8 0-1.4-.6-1.4-1.4 0-.8.6-1.4 1.4-1.4h6.6c.8 0 1.4.6 1.4 1.4 0 .8-.6 1.4-1.4 1.4z"/><path fill="#5B6B69" d="M357.6 341.4c0 .4-.3.6-.6.6-.4 0-.6-.3-.6-.6 0-.4.3-.6.6-.6s.6.3.6.6zM362.9 341.4c0 .4-.3.6-.6.6-.4 0-.6-.3-.6-.6 0-.4.3-.6.6-.6s.6.3.6.6z"/><path fill="#ECD4B3" d="M359.3 279.1h15v5.5h-15z"/><path fill="#E0A177" d="M362.4 282.1h8.8v2h-8.8zM360.4 279.5h12.9v1h-12.9z"/><path fill="#5B6B69" d="M407.5 280l-1-1.2h-2.4l-2 1.2h-12.3v16.6h12.3l2 1.2h2.4l1-1.2h.3V280z"/><path fill="#FFF" d="M403.6 281v-.7h-1.5v-.7h-3.5v.7h-2.3v.7h-4.1v5h.6v4.8h-.6v5h4.1v.7h2.3v.7h3.5v-.7h1.5v-.7h3.6V281z"/><g><path fill="#DFE82D" d="M424.5 305h8.1v5h-8.1z"/><g fill="#D16666"><path d="M425.5 305.6h1.4v1.5h-1.4zM425.5 307.9h1.4v1.5h-1.4zM427.8 305.6h1.4v1.5h-1.4zM427.8 307.9h1.4v1.5h-1.4zM430.1 305.6h1.4v1.5h-1.4zM430.1 307.9h1.4v1.5h-1.4z"/></g></g><g><path fill="#FFF" d="M417 305.6h6.6v3.9H417z"/><path fill="#4098CD" d="M418 306.3h4.6v2.3H418z"/></g><g><path fill="#DFE82D" d="M424.5 261.2h8.1v5h-8.1z"/><g fill="#D16666"><path d="M425.5 261.8h1.4v1.5h-1.4zM425.5 264.1h1.4v1.5h-1.4zM427.8 261.8h1.4v1.5h-1.4zM427.8 264.1h1.4v1.5h-1.4zM430.1 261.8h1.4v1.5h-1.4zM430.1 264.1h1.4v1.5h-1.4z"/></g></g><g><path fill="#FFF" d="M417 261.8h6.6v3.9H417z"/><path fill="#4098CD" d="M418 262.6h4.6v2.3H418z"/></g><g><path fill="#DFE82D" d="M424.5 254.7h8.1v5h-8.1z"/><g fill="#D16666"><path d="M425.5 255.3h1.4v1.5h-1.4zM425.5 257.6h1.4v1.5h-1.4zM427.8 255.3h1.4v1.5h-1.4zM427.8 257.6h1.4v1.5h-1.4zM430.1 255.3h1.4v1.5h-1.4zM430.1 257.6h1.4v1.5h-1.4z"/></g></g><g><path fill="#FFF" d="M417 255.2h6.6v3.9H417z"/><path fill="#4098CD" d="M418 256h4.6v2.3H418z"/></g><g><path fill="#CECECE" d="M369.6 261.1h9.2v6.5h-9.2z"/><path fill="#5B6B69" d="M369.6 261.1h9.2v2.1h-9.2z"/></g><g><path fill="#4098CD" d="M352 265.5h.8v2.3h-.8zM352 268.4h.8v2.3h-.8zM352 271.3h.8v2.3h-.8zM352 274.2h.8v2.3h-.8zM352 277.2h.8v2.3h-.8zM352 280.1h.8v2.3h-.8zM352 283h.8v2.3h-.8zM352 285.9h.8v2.3h-.8zM352 288.8h.8v2.3h-.8zM352 291.7h.8v2.3h-.8zM352 294.6h.8v2.3h-.8zM352 297.5h.8v2.3h-.8zM352 300.4h.8v2.3h-.8zM352 303.3h.8v2.3h-.8zM352 306.2h.8v2.3h-.8z"/><path fill="#FFF" d="M356.3 311.3v-2.8h.3v-43.1h-3.9v43.1h.3v2.8h-1.8v4.6h3.1v-.8h.8v.8h3.1v-4.6h-1.9zm-1.2 0v1.8h-.8v-1.8h-.3v-2.8h1.3v2.8h-.2z"/><path fill="#4098CD" d="M354.1 308.5v2.8h.2v1.9h.8v-1.9h.2v-2.8zM353.9 266.9h1.6v40.2h-1.6z"/></g><g><path fill="#CECECE" d="M369.6 269.2h9.2v6.5h-9.2z"/><path fill="#5B6B69" d="M369.6 269.2h9.2v2.1h-9.2z"/></g><g><path fill="#CECECE" d="M382.4 261.1h9.2v6.5h-9.2z"/><path fill="#5B6B69" d="M382.4 261.1h9.2v2.1h-9.2z"/></g><g><path fill="#CECECE" d="M382.4 269.2h9.2v6.5h-9.2z"/><path fill="#5B6B69" d="M382.4 269.2h9.2v2.1h-9.2z"/></g><g><path fill="#CECECE" d="M362.5 265.4h3.9v11.3h-3.9z"/><path fill="#5B6B69" d="M361.7 265.5h.8v2.3h-.8zM361.7 268.4h.8v2.3h-.8zM361.7 271.3h.8v2.3h-.8zM361.7 274.2h.8v2.3h-.8zM363.7 266.9h1.6v8.3h-1.6z"/><path fill="#5B6B69" d="M363.7 271.9h1.6v.6h-1.6z"/></g><g><path fill="#FFF" d="M343.5 265.4h3.9v14.2h-3.9z"/><path fill="#4098CD" d="M342.7 265.5h.8v2.3h-.8zM342.7 268.4h.8v2.3h-.8zM342.7 271.3h.8v2.3h-.8zM342.7 274.2h.8v2.3h-.8zM342.7 277.2h.8v2.3h-.8zM344.6 266.9h1.6v11.3h-1.6z"/><path fill="#FFF" d="M344.6 274.5h1.6v.7h-1.6z"/></g><g><path fill="#FFF" d="M333.8 265.4h3.9v14.2h-3.9z"/><path fill="#4098CD" d="M333.1 265.5h.8v2.3h-.8zM333.1 268.4h.8v2.3h-.8zM333.1 271.3h.8v2.3h-.8zM333.1 274.2h.8v2.3h-.8zM333.1 277.2h.8v2.3h-.8zM335 266.9h1.6v11.3H335z"/><path fill="#FFF" d="M335 274.5h1.6v.7H335z"/></g><g><path fill="#4098CD" d="M323 265.5h.8v2.3h-.8zM323 268.4h.8v2.3h-.8zM323 271.3h.8v2.3h-.8zM323 274.2h.8v2.3h-.8zM323 277.2h.8v2.3h-.8zM323 280.1h.8v2.3h-.8zM323 283h.8v2.3h-.8zM323 285.9h.8v2.3h-.8zM323 288.8h.8v2.3h-.8zM323 291.7h.8v2.3h-.8zM323 294.6h.8v2.3h-.8zM323 297.5h.8v2.3h-.8zM323 300.4h.8v2.3h-.8zM323 303.3h.8v2.3h-.8zM323 306.2h.8v2.3h-.8z"/><path fill="#FFF" d="M327.3 311.3v-2.8h.3v-43.1h-3.9v43.1h.3v2.8h-1.8v4.6h3.1v-.8h.8v.8h3.1v-4.6h-1.9zm-1.2 0v1.8h-.8v-1.8h-.3v-2.8h1.3v2.8h-.2z"/><path fill="#4098CD" d="M325.1 308.5v2.8h.2v1.9h.8v-1.9h.2v-2.8zM324.9 266.9h1.6v40.2h-1.6z"/></g><g><path fill="#FFF" d="M318.6 262.9v41h-4.8v-41h1.5v1.7h1.8v-1.7z"/><path fill="#CECECE" d="M314.2 263.4h.6v.6h-.6zM317.5 263.4h.6v.6h-.6zM314.2 294.8h.6v.6h-.6zM317.5 294.8h.6v.6h-.6zM315.4 265.4h1.6v36.7h-1.6z"/><path fill="#FFF" d="M315.4 294.7h1.6v.9h-1.6z"/></g><g><path fill="#ECD4B3" d="M309.1 262.9v41h-4.9v-41h1.5v1.7h1.8v-1.7z"/><path fill="#E0A177" d="M304.6 263.4h.6v.6h-.6zM308 263.4h.6v.6h-.6zM304.6 294.8h.6v.6h-.6zM308 294.8h.6v.6h-.6zM305.8 265.4h1.6v36.7h-1.6z"/><path fill="#ECD4B3" d="M305.8 294.7h1.6v.9h-1.6z"/></g><path fill="#FFF" d="M298.2 261.3h4.7v8.7h-4.7z"/><path fill="#CECECE" d="M298.2 268v-4.7c-.4 0-.8.4-.8.8v3.1c0 .4.3.8.8.8z"/><path fill="#FFF" d="M299.1 248.1h10v10.3h-10z"/><g><path fill="#CECECE" d="M307.7 256.9h-7.2v-7.4h7.2v7.4zm-5.7-1.6h4.1V251H302v4.3z"/></g><g><path fill="#FFF" d="M307.4 309.3h10v10.3h-10z"/><path fill="#CECECE" d="M316 318.2h-7.2v-7.4h7.2v7.4zm-5.6-1.6h4.1v-4.3h-4.1v4.3z"/></g><g><path fill="#CECECE" d="M312.4 248.3h12.4v9.7h-12.4z"/><path fill="#5B6B69" d="M312.4 248.3h1.7v1.7h-1.7zM323.2 248.3h1.7v1.7h-1.7zM312.4 256.4h1.7v1.7h-1.7zM323.2 256.4h1.7v1.7h-1.7zM314.1 250h9.1v6.4h-9.1z"/></g><path fill="#5B6B69" d="M327.8 259.6H338v3h-10.2zM342.5 259.6h4.5v3h-4.5z"/><g fill="#FFF"><path d="M333.9 250.3c0 1.1-.9 2-2 2s-2-.9-2-2 .9-2 2-2 2 .9 2 2zM338 250.3c0 1.1-.9 2-2 2s-2-.9-2-2 .9-2 2-2 2 .9 2 2zM333.9 254.4c0 1.1-.9 2-2 2s-2-.9-2-2 .9-2 2-2 2 .9 2 2zM338 254.4c0 1.1-.9 2-2 2s-2-.9-2-2 .9-2 2-2 2 .9 2 2z"/></g><g fill="#FFF"><path d="M340.3 290c0 2.1-1.7 3.9-3.9 3.9-2.1 0-3.9-1.7-3.9-3.9 0-2.1 1.7-3.9 3.9-3.9s3.9 1.7 3.9 3.9zM348.2 290c0 2.1-1.7 3.9-3.9 3.9-2.1 0-3.9-1.7-3.9-3.9 0-2.1 1.7-3.9 3.9-3.9s3.9 1.7 3.9 3.9zM340.3 297.9c0 2.1-1.7 3.9-3.9 3.9-2.1 0-3.9-1.7-3.9-3.9 0-2.1 1.7-3.9 3.9-3.9 2.2.1 3.9 1.8 3.9 3.9zM348.2 297.9c0 2.1-1.7 3.9-3.9 3.9-2.1 0-3.9-1.7-3.9-3.9 0-2.1 1.7-3.9 3.9-3.9 2.2.1 3.9 1.8 3.9 3.9z"/></g><path fill="#5B6B69" d="M331.1 307.7h18v3.4h-18zM331.1 311.8h18v1h-18zM331.1 313.5h18v1h-18z"/><path fill="#3D3E43" d="M331.1 311.1h18v.7h-18zM331.1 312.8h18v.7h-18z"/><path fill="#5B6B69" d="M331.1 315.2h18v1h-18z"/><path fill="#3D3E43" d="M331.1 314.5h18v.7h-18z"/><path fill="#5B6B69" d="M331.1 316.9h18v1.6h-18z"/><path fill="#3D3E43" d="M331.1 316.2h18v.7h-18zM331.1 318.6h18v.7h-18z"/><path fill="#5B6B69" d="M331.1 319.3h18v1.6h-18z"/><path fill="#3D3E43" d="M331.1 320.9h18v.7h-18z"/><path fill="#5B6B69" d="M331.1 321.7h18v6.3h-18zM371.2 243.6h6.3v10.3h-6.3z"/><path fill="#3D3E43" d="M372.8 242.2h3v1.3h-3z"/><path fill="#FFF" d="M378.6 243.6h8.3v9.6h-8.3z"/><path fill="#ECD4B3" d="M378.6 253.2h8.3v3.2h-8.3z"/><path fill="#FFF" d="M388.1 244.8h6.4v8.2h-6.4z"/><g><path fill="#CECECE" d="M390.7 248.4l-.6-.7v-2.1h-.4v2.1l-.7.7-.3-.4.4-.5v-2.4h1.5v2.4l.5.5z"/></g><path fill="#5B6B69" d="M389.5 244.2h.7v1.1h-.7z"/><g><path fill="#CECECE" d="M393.5 248.4l-.6-.7v-2.1h-.4v2.1l-.7.7-.3-.4.4-.5v-2.4h1.5v2.4l.5.5z"/></g><path fill="#5B6B69" d="M392.3 244.2h.7v1.1h-.7z"/><path fill="#CECECE" d="M411 244.8H396.4v2.4h2.8v4H411v-4h2.9v-2.4z"/><path fill="#FFF" d="M412.8 242.3h-1c-.4 0-.6-.3-.6-.6v-.1c0-.2-.2-.4-.4-.4h-11.2c-.2 0-.4.2-.4.4v.1c0 .4-.3.6-.6.6h-1c-.2 0-.4.2-.4.4v2.1h16.2v-2.1c-.2-.3-.4-.4-.6-.4zM429.5 242.3h-.8c-.3 0-.5-.3-.5-.6v-.1c0-.2-.2-.4-.4-.4h-9.2c-.2 0-.4.2-.4.4v.1c0 .4-.2.6-.5.6h-.8c-.2 0-.4.2-.4.4v2.1h13.4v-2.1c0-.3-.2-.4-.4-.4z"/><path fill="#CECECE" d="M430.5 244.8H416v1.6h3.1v2h8.2v-2h3.2z"/><path fill="#FFF" d="M432.8 243.5h6.7v8.9h-6.7z"/><path fill="#ECD4B3" d="M432.8 251h6.7v1.3h-6.7z"/><path fill="#CECECE" d="M360 302.2h16.8v6.3H360z"/><path fill="#5B6B69" d="M361.3 300.8h4.6v1.4h-4.6zM367.1 300.8h8.8v1.4h-8.8z"/><path fill="#CECECE" d="M335.1 334.3h15.2v6.3h-15.2z"/><path fill="#5B6B69" d="M336.2 333h4.2v1.4h-4.2zM341.5 333h8v1.4h-8z"/><g><path fill="#FFF" d="M311.6 343.5v-5.8h.7v-.9h1.5l.8.7v7h-2.2v-1z"/><path fill="#4098CD" d="M313.7 343.3h-1v-4.8h.5v4.2h.5z"/></g><g><path fill="#FFF" d="M316.2 343.5v-5.8h.7v-.9h1.5l.7.7v7H317v-1z"/><path fill="#4098CD" d="M318.3 343.3h-1v-4.8h.5v4.2h.5z"/></g><g><path fill="#FFF" d="M320.8 343.5v-5.8h.7v-.9h1.5l.7.7v7h-2.1v-1z"/><path fill="#4098CD" d="M322.8 343.3h-.9v-4.8h.5v4.2h.4z"/></g><g><path fill="#FFF" d="M328.4 343.5v-5.8h.7v-.9h1.5l.7.7v7h-2.2v-1z"/><path fill="#4098CD" d="M330.4 343.3h-1v-4.8h.6v4.2h.4z"/></g><g><path fill="#5B6B69" d="M421.4 281.4h3.8v6.3h-3.8z"/><path fill="#FFF" d="M425.3 281.9h1v.6h-1zM425.3 283h1v.6h-1zM425.3 285.4h1v.6h-1zM425.3 284.2h1v.6h-1zM425.3 286.5h1v.6h-1z"/><g><path fill="#FFF" d="M420.4 281.9h1v.6h-1zM420.4 283h1v.6h-1zM420.4 285.4h1v.6h-1zM420.4 284.2h1v.6h-1zM420.4 286.5h1v.6h-1z"/></g><g><path fill="#FFF" d="M424.2 280.3h.6v1h-.6zM421.9 280.3h.6v1h-.6zM423.1 280.3h.6v1h-.6z"/></g><g><path fill="#FFF" d="M424.2 287.6h.6v1h-.6zM421.9 287.6h.6v1h-.6zM423.1 287.6h.6v1h-.6z"/></g></g><g><path fill="#5B6B69" d="M421.4 271.5h3.8v6.3h-3.8z"/><path fill="#FFF" d="M425.3 272h1v.6h-1zM425.3 273.2h1v.6h-1zM425.3 275.5h1v.6h-1zM425.3 274.3h1v.6h-1zM425.3 276.6h1v.6h-1z"/><g><path fill="#FFF" d="M420.4 272h1v.6h-1zM420.4 273.2h1v.6h-1zM420.4 275.5h1v.6h-1zM420.4 274.3h1v.6h-1zM420.4 276.6h1v.6h-1z"/></g><g><path fill="#FFF" d="M424.2 270.4h.6v1h-.6zM421.9 270.4h.6v1h-.6zM423.1 270.4h.6v1h-.6z"/></g><g><path fill="#FFF" d="M424.2 277.7h.6v1h-.6zM421.9 277.7h.6v1h-.6zM423.1 277.7h.6v1h-.6z"/></g></g><g><path fill="#5B6B69" d="M404.839 271.159v-3.8h6.3v3.8z"/><path fill="#FFF" d="M405.4 266.3h.6v1h-.6zM406.6 266.3h.6v1h-.6zM408.9 266.3h.6v1h-.6zM407.7 266.3h.6v1h-.6zM410 266.3h.6v1h-.6z"/><g><path fill="#FFF" d="M405.4 271.2h.6v1h-.6zM406.6 271.2h.6v1h-.6zM408.9 271.2h.6v1h-.6zM407.7 271.2h.6v1h-.6zM410 271.2h.6v1h-.6z"/></g><g><path fill="#FFF" d="M403.8 267.8h1v.6h-1zM403.8 270.1h1v.6h-1zM403.8 269h1v.6h-1z"/></g><g><path fill="#FFF" d="M411.1 267.8h1v.6h-1zM411.1 270.1h1v.6h-1zM411.1 269h1v.6h-1z"/></g></g><g><path fill="#5B6B69" d="M395.352 271.172v-3.8h6.3v3.8z"/><path fill="#FFF" d="M395.9 266.3h.6v1h-.6zM397.1 266.3h.6v1h-.6zM399.4 266.3h.6v1h-.6zM398.2 266.3h.6v1h-.6zM400.6 266.3h.6v1h-.6z"/><g><path fill="#FFF" d="M395.9 271.2h.6v1h-.6zM397.1 271.2h.6v1h-.6zM399.4 271.2h.6v1h-.6zM398.2 271.2h.6v1h-.6zM400.6 271.2h.6v1h-.6z"/></g><g><path fill="#FFF" d="M394.4 267.8h1v.6h-1zM394.4 270.1h1v.6h-1zM394.4 269h1v.6h-1z"/></g><g><path fill="#FFF" d="M401.6 267.8h1v.6h-1zM401.6 270.1h1v.6h-1zM401.6 269h1v.6h-1z"/></g></g><g><path fill="#CECECE" d="M342.7 248.3h12.4v9.7h-12.4z"/><path fill="#5B6B69" d="M342.7 248.3h1.7v1.7h-1.7zM342.7 256.4h1.7v1.7h-1.7zM353.5 248.3h1.7v1.7h-1.7zM353.5 256.4h1.7v1.7h-1.7zM344.4 250h9.1v6.4h-9.1z"/></g><path opacity=".4" fill="#3D3E43" d="M346.9 238.4v6.7h-48.8c-2 0-3.6 1.6-3.6 3.6v71.9h-6.4V242c0-2 1.6-3.6 3.6-3.6h55.2z"/></g></svg>