<svg xmlns="http://www.w3.org/2000/svg" viewBox="0 0 425.2 425.2"><defs><style>.prefix__c{fill:#b9e1ed}.prefix__c,.prefix__h,.prefix__r,.prefix__t,.prefix__v{mix-blend-mode:multiply}.prefix__d,.prefix__i,.prefix__q{fill:#fff}.prefix__e{fill:#d8ebf5}.prefix__h{fill:#fbd156}.prefix__h,.prefix__q{opacity:.5}.prefix__i,.prefix__q{mix-blend-mode:soft-light}.prefix__j{fill:#6a3906}.prefix__m{fill:#91bb24}.prefix__n{fill:#b3d247}.prefix__o{fill:#5e9a2a}.prefix__p{fill:#a3c13e}.prefix__r{fill:#d1de3b}.prefix__s{fill:#875324}.prefix__ac,.prefix__t{fill:#c9caca}.prefix__u{fill:#5d9929}.prefix__v{fill:#dde3db}.prefix__y{fill:#bd4209}.prefix__ag{fill:#f39800}.prefix__ah{fill:#512800}.prefix__ai{fill:#5cb8d9}.prefix__al{fill:#004959}.prefix__am{fill:#69bebf}.prefix__an{fill:#4e9394}.prefix__ao{fill:#002f3c}</style></defs><g style="isolation:isolate"><path fill="#b9e1ed" d="M0 0h425.2v425.2H0z"/><path class="prefix__c" d="M193.5 44.3a5.9 5.9 0 01-6 5.9h-134a5.8 5.8 0 01-5.9-5.9 5.9 5.9 0 015.9-6h134a6 6 0 016 6zM289.1 68.1a5.9 5.9 0 01-5.9 5.9H149.1a5.8 5.8 0 01-5.9-5.9 5.9 5.9 0 015.9-6h134.1a6 6 0 015.9 6zM188.6 114.8a4.5 4.5 0 01-4.5 4.5H81.7a4.5 4.5 0 01-4.5-4.5 4.5 4.5 0 014.5-4.5h102.4a4.5 4.5 0 014.5 4.5zM374.3 126.8a4.6 4.6 0 01-4.5 4.6H267.5a4.7 4.7 0 01-4.6-4.6 4.6 4.6 0 014.6-4.5h102.3a4.5 4.5 0 014.5 4.5z"/><path class="prefix__d" d="M234.5 45.8a12.4 12.4 0 00-3.3.4c0-.2.1-.3.1-.4a13.9 13.9 0 00-26.2-6.5 13.8 13.8 0 00-26.1 6.5v.6a14.1 14.1 0 00-5.8-1.3 13.9 13.9 0 100 27.8 14.5 14.5 0 006.2-1.5 11.5 11.5 0 00-.4 3.3 13.9 13.9 0 0026.5 5.7 13.9 13.9 0 0025.8-7.2 11.2 11.2 0 003.2.4 13.9 13.9 0 100-27.7z"/><path class="prefix__e" d="M234.5 45.8l-2.1.2-.7.4h-.2c7.8 2.3 9.1 9.1 6.9 14.8s-7.6 5.5-12.5 6.1c2.4 5.2-1.4 12.1-6.8 13.4-8.2 2-11.3-2.7-13.2-7.6-3.1 6.4-12.1 9.7-18.8 6.6-2.8-1.3-6.7-8-3.4-14-5.6 2.1-13.2.8-12.6-6.7.7-9 10.3-11.4 17.9-10.9-3.8-6-3.5-15.9 4.8-16h-.9A13.9 13.9 0 00179 45.8v.6a14.1 14.1 0 00-5.8-1.3 13.9 13.9 0 100 27.8 14.5 14.5 0 006.2-1.5 11.5 11.5 0 00-.4 3.3 13.9 13.9 0 0026.5 5.7 13.9 13.9 0 0025.8-7.2 11.2 11.2 0 003.2.4 13.9 13.9 0 100-27.7z"/><path d="M306.8 105.3a31.9 31.9 0 1131.9-31.9 31.9 31.9 0 01-31.9 31.9zm0-58.8a26.9 26.9 0 1026.9 26.9 27 27 0 00-26.9-26.9z" fill="#ffea5b"/><path d="M330 73.4a23.2 23.2 0 11-23.2-23.2A23.2 23.2 0 01330 73.4z" fill="#fbd156"/><path class="prefix__h" d="M313.8 89.7A16.3 16.3 0 11330 73.4a23.2 23.2 0 10-23.2 23.2A23.2 23.2 0 00330 73.4a16.2 16.2 0 01-16.2 16.3z"/><path class="prefix__i" d="M325.5 73.4a10.8 10.8 0 01-21.6 0 10.8 10.8 0 0121.6 0z"/><path class="prefix__i" d="M318.8 68.1a2.7 2.7 0 11-2.7-2.7 2.7 2.7 0 012.7 2.7zM321.6 74.8a1.3 1.3 0 01-1.3 1.3 1.3 1.3 0 01-1.4-1.3 1.4 1.4 0 011.4-1.4 1.3 1.3 0 011.3 1.4z"/><path class="prefix__h" d="M310.8 94.4a21 21 0 110-41.9 20.5 20.5 0 0110.7 3 23.2 23.2 0 100 35.9 20.5 20.5 0 01-10.7 3z"/><path class="prefix__d" d="M122.1 84a18.6 18.6 0 00-3.3.4c.1-.1.1-.2.1-.4a13.9 13.9 0 00-26.2-6.5 13.8 13.8 0 00-12.2-7.4A13.9 13.9 0 0066.6 84v.6a13.8 13.8 0 00-19.7 12.6 13.9 13.9 0 0013.9 13.9 13.2 13.2 0 006.2-1.5 12.4 12.4 0 00-.4 3.3 13.9 13.9 0 0026.5 5.7 13.9 13.9 0 0025.8-7.1 16.5 16.5 0 003.2.4 13.9 13.9 0 100-27.8z"/><path class="prefix__e" d="M122.1 84l-2.1.2a1 1 0 01-.7.4l-.2.2c7.8 2.2 9.1 9.1 6.9 14.8s-7.6 5.4-12.5 6.1c2.4 5.2-1.4 12.1-6.8 13.4-8.1 1.9-11.3-2.7-13.1-7.6-3.2 6.4-12.2 9.7-18.9 6.5-2.8-1.3-6.6-8-3.3-13.9-5.6 2-13.3.7-12.7-6.8S69 86 76.6 86.5c-3.8-6.1-3.5-16 4.8-16l.3-.2h-1.2A13.9 13.9 0 0066.6 84v.6a13.8 13.8 0 00-19.7 12.6 13.9 13.9 0 0013.9 13.9 13.2 13.2 0 006.2-1.5 12.4 12.4 0 00-.4 3.3 13.9 13.9 0 0026.5 5.7 13.9 13.9 0 0025.8-7.1 16.5 16.5 0 003.2.4 13.9 13.9 0 100-27.8z"/><path class="prefix__d" d="M393.9 125a11.5 11.5 0 00-3.3.4v-.4a13.8 13.8 0 00-26.1-6.5 14 14 0 00-12.3-7.4 13.9 13.9 0 00-13.9 13.9 1.3 1.3 0 00.1.6 14.5 14.5 0 00-5.9-1.3 13.9 13.9 0 106.2 26.3 18.6 18.6 0 00-.4 3.3 13.9 13.9 0 0013.9 13.9 14.1 14.1 0 0012.7-8.2 13.8 13.8 0 0025.7-7.2 16.6 16.6 0 003.3.4 13.9 13.9 0 000-27.8z"/><path class="prefix__e" d="M393.9 125l-2.2.2a1 1 0 01-.7.4c-.1 0-.1.1-.2.2 7.8 2.2 9.2 9 6.9 14.7s-7.6 5.5-12.4 6.2c2.3 5.1-1.5 12-6.8 13.3-8.2 2-11.4-2.7-13.2-7.6-3.2 6.4-12.2 9.8-18.8 6.6-2.9-1.3-6.7-8-3.4-13.9-5.6 2-13.3.7-12.7-6.8s10.3-11.3 17.9-10.9c-3.8-6-3.5-15.9 4.9-16 0-.1.1-.1.2-.1h-1.2a13.9 13.9 0 00-13.9 13.7 1.3 1.3 0 00.1.6 14.5 14.5 0 00-5.9-1.3 13.9 13.9 0 106.2 26.3 18.6 18.6 0 00-.4 3.3 13.9 13.9 0 0013.9 13.9 14.1 14.1 0 0012.7-8.2 13.8 13.8 0 0025.7-7.2 16.6 16.6 0 003.3.4 13.9 13.9 0 000-27.8z"/><path class="prefix__j" d="M40.1 303.7s20.9 26.1 72.4 41.7a63.5 63.5 0 0125.4 15.2c7.8 4.7 9.7 10.1 10.8 11.4 7.4 8.2 11.1 7.9 21.6 11.1h.1c8.9 2.6 10.8 7.1 22.3 11.5 4.5-2 13.4-6.4 17.3-9.7 9.6-8.4 45.9-7.8 57.5-12.4 13.2-5.4 24.2-12.8 39-14.5 12.3-1.4 28.7-3.9 37.5-13.6s57.5-41 56.3-44.7-360.2 4-360.2 4z"/><path d="M340.9 342.1c-6.1 2.5-11.9 5.7-18 7.9s-13.1 2.4-19.9 3.1a110.1 110.1 0 00-22.8 4.8c-6.7 2.3-12.7 5.6-19 8.5s-10.6 4.4-16.4 3.4a.6.6 0 01-.2-.9 15.1 15.1 0 002.1-2.3c-11.7 1-23.1 4.6-34.7 6.6s-22.3 3.5-32.5-.8a.5.5 0 01-.3-.6 30.4 30.4 0 014.5-8.3 31.1 31.1 0 002.5-3.8c.7-1.3-4.7-2.5-5.5-2.6-3.1 0-6 1.1-9.1 1.9a26.7 26.7 0 01-8.5.7c-2.2-.1-6.3-.2-6.8-3.1a7.8 7.8 0 01.6-3.1l1.8-5a5.3 5.3 0 013-3.4c1.2-.5.7-1.3 0-2.2a5.1 5.1 0 00-4.2-1.9c-2.4-.2-5 0-7.3-.6s-6.9-1.9-10.3-3c-6-2-12-3.9-17.7-6.7-4.1-2-8.7-4.5-11.3-8.3-5.4-7.6 1.7-15.2 8.1-20.3l-78.9 1.6s20.9 26.1 72.4 41.7a63.5 63.5 0 0125.4 15.2c7.8 4.7 9.7 10.1 10.8 11.4 7.4 8.2 11.1 7.9 21.6 11.1h.1c8.9 2.6 10.8 7.1 22.3 11.5 4.5-2 13.4-6.4 17.3-9.7 9.6-8.4 45.9-7.8 57.5-12.4 13.2-5.4 24.2-12.8 39-14.5 12.3-1.4 28.7-3.9 37.5-13.6a52.1 52.1 0 017.1-6.1c-3.5 1.1-6.9 2.4-10.2 3.8z" style="mix-blend-mode:multiply" fill="#b5b5b6"/><path d="M404.5 290.9c0 26.5-83.6 48-186.6 48s-186.6-21.5-186.6-48 83.5-34 186.6-34 186.6 7.5 186.6 34z" fill="#fbe5c0"/><path class="prefix__m" d="M381.9 263.4c0 5.3-6.7 9.7-14.9 9.7H60c-8.2 0-14.9-4.4-14.9-9.7v-1.9c0-5.4 6.7-9.7 14.9-9.7h307c8.2 0 14.9 4.3 14.9 9.7zM279.9 310.3a4.3 4.3 0 010-8.5h63.2a5.8 5.8 0 00-2.8-10.9h22.8a5.9 5.9 0 100-11.7H71.3a5.9 5.9 0 100 11.7H175a2.8 2.8 0 012.8 2.8 2.9 2.9 0 01-2.8 2.9H88.3a5.8 5.8 0 005.8 5.8h29.7a5.9 5.9 0 000 11.7h186.8a5.7 5.7 0 005.5-3.9z"/><path class="prefix__n" d="M199.4 293.4a4.7 4.7 0 01-4.7 4.7 4.7 4.7 0 110-9.4 4.7 4.7 0 014.7 4.7zM216 292.8a2.9 2.9 0 01-2.9 2.9 2.8 2.8 0 01-2.8-2.9 2.7 2.7 0 012.8-2.8 2.8 2.8 0 012.9 2.8zM225.9 294.4a1.6 1.6 0 01-1.6 1.6 1.6 1.6 0 010-3.2 1.6 1.6 0 011.6 1.6zM208.6 298.7a2.9 2.9 0 11-2.9-2.9 2.9 2.9 0 012.9 2.9z"/><path class="prefix__o" d="M365 276a3 3 0 01-3 2.9H217.4a2.9 2.9 0 01-2.9-2.9 2.9 2.9 0 012.9-2.9H362a3 3 0 013 2.9zM158.8 276a2.9 2.9 0 01-2.9 2.9H69.1a2.9 2.9 0 01-3-2.9 2.9 2.9 0 013-2.9h86.8a2.9 2.9 0 012.9 2.9z"/><path class="prefix__p" d="M69.9 242.4c-1.3-5.9-7.2-6.1-11.8-4.2 9.7-8-10.3-16.5-10.6-3.7-2.4-5.1-8.3-9.2-13.4-4.5s-1.3 10.1 1.9 13.2c-3.3-4.8-6.2-9-12.7-3.8a8 8 0 00-.9 12 7.5 7.5 0 001.6 1.5 3.7 3.7 0 001.5.3 5 5 0 00-3.7 5.4c0 3.1 1.6 6.9 6.7 6.7a6.6 6.6 0 006-3.1 6.5 6.5 0 003.5 4.7c9 4.1 14.8-2.2 13.7-9.4.5 6.1 3.9 10.9 11.7 7.3s2.3-13.6-2.4-16.4c4.4.8 10.1 0 8.9-6z"/><path class="prefix__q" d="M27.7 239.3c2.4-1.7 4.4 1.1 5.9 2.5s3.4 2.7 4.3.4-.6-3.1-1.4-4.6 1.2-5.3 4-5.1a8.7 8.7 0 016.6 5.4h.3c.3-1 1.1-2.8 2.1-3.1s2.7.6 3.4 1.5 0 3.6-.8 5.4a3.1 3.1 0 011.9 2.7c.2 4.2-3.9 4.4-6.8 2.8-.1-.1-.3 0-.2.2a4.9 4.9 0 01-1.2 6.2 3.4 3.4 0 01-2.7 1c-1.3 0-2.2-1.1-2.8-2.1h-.2a3.6 3.6 0 01-2.8 3.2 5.8 5.8 0 01-4.2-1.1 5.1 5.1 0 01-2.6-3.3c-.4-1.7.8-3 2.2-3.8a.2.2 0 00-.1-.3c-2.8-.1-5.4-1-6.2-3.9a3.4 3.4 0 011.3-4z"/><path class="prefix__r" d="M69.9 242.4c-1.3-5.9-7.2-6.1-11.8-4.2 8.9-7.4-7.4-15.2-10.2-6.2 1.6-2.8 5.7-2.7 7.9-.4s2 7.1.4 10.3c1.8-.5 3.4 1.1 3.8 2.8s-.9 3.7-2.7 4.7c3.1 2.2 5.2 6.9 1.4 9.2a5 5 0 01-6-.5 9.6 9.6 0 01-2.3-3.7c.2.7-.6 2.4-.8 3.1a12.8 12.8 0 01-1.5 2.5c-2.5 3.2-8.3 3.1-11 0a5.9 5.9 0 01-1.4-3c0 .4-2 1.6-2.4 1.8a4.1 4.1 0 01-2.9.5c-2.4-.6-3.3-3.4-2.8-5.6a8 8 0 012-3.6c-3.1-.4-5.9-2.2-6.4-5.6a7.8 7.8 0 011.9-6.4l-1.8 1.3a8 8 0 00-.9 12 7.5 7.5 0 001.6 1.5 3.7 3.7 0 001.5.3 5 5 0 00-3.7 5.4c0 3.1 1.6 6.9 6.7 6.7a6.6 6.6 0 006-3.1 6.5 6.5 0 003.5 4.7c8.6 4 14.3-1.7 13.8-8.5.8 5.6 4.2 9.8 11.6 6.4 8.9-4.1 2.3-13.6-2.4-16.4 4.4.8 10.1 0 8.9-6z"/><path class="prefix__r" d="M51.4 228.6a4.9 4.9 0 014.4.4 7.3 7.3 0 013.7 4 6.2 6.2 0 010 3.8c5.3-6.7-7.9-12.7-11.2-5.7a6.9 6.9 0 013.1-2.5zM24 252.9l1 .2a18.8 18.8 0 011.6-2.3c-5.2-1.2-5.5-7-3.5-11.3-3.6 3.2-4.1 8.5-.7 11.9a7.5 7.5 0 001.6 1.5zM51.1 258.3a9.5 9.5 0 01-7.4 7.1 6.7 6.7 0 01-4.8-.7 6.9 6.9 0 01-3.1-4.2c-2.5 2.9-7.3 4.1-10.4 1.3s-1.9-5.6-.5-8.4a5 5 0 00-3.1 5.2c0 3.1 1.6 6.9 6.7 6.7a6.6 6.6 0 006-3.1 6.5 6.5 0 003.5 4.7c8.2 3.8 13.8-1.2 13.8-7.6a8.6 8.6 0 01-.7-1zM69.9 242.4c-1.2-5.3-6-6-10.3-4.8 5.8.6 3.5 9.7-.1 12.2a8.1 8.1 0 014.2 5c.8 2 1.1 4.8-.5 6.5-3.1 3.6-8.3 1.3-11.2-1.8 1 5 4.5 8.5 11.4 5.3 8.9-4.1 2.3-13.6-2.4-16.4 4.4.8 10.1 0 8.9-6z"/><path class="prefix__s" d="M369.3 254.1h-8.5l2.3-80h4.4l1.8 80z"/><path class="prefix__s" d="M365.1 199.1l-1.5 6.4-16.8-31.7 3.8-2 14.5 27.3zM364.925 208.247l15.59-26.68 3.652 2.135-15.59 26.679z"/><path class="prefix__p" d="M404.8 158.9c-2.2-9.6-11.8-9.8-19.1-6.5 15.4-13.2-16.8-26.2-17-5.7-3.9-8-13.5-14.5-21.7-6.8s-1.8 16.2 3.4 21c-5.4-7.6-10.2-14.2-20.4-5.7a12.8 12.8 0 00-1.1 19.3 9.4 9.4 0 002.6 2.3 5.9 5.9 0 002.3.5c-6.2 2.3-5.8 7.1-5.8 8.7.1 5.1 2.8 11.1 11 10.6 1.7-.1 6.8-.2 9.5-5.1a11 11 0 005.7 7.4c14.6 6.4 23.8-3.9 21.9-15.3.9 9.6 6.5 17.3 18.9 11.3 14.1-6.8 3.3-21.8-4.3-26.3 7.2 1.3 16.2-.2 14.1-9.7z"/><path class="prefix__q" d="M337.1 154.9c3.7-2.7 7 1.7 9.4 3.9s5.6 4.3 7 .5-1.1-5-2.3-7.3c-2.3-4.4 1.6-8.6 6.1-8.3s9.3 4.2 10.9 8.4c.1.2.4.3.4 0s1.6-4.5 3.3-5 4.3.9 5.4 2.4c2.2 3.1.1 5.7-1.1 8.6 1.9 1 3 2.1 3.1 4.3.5 6.8-6.1 7.1-10.8 4.6-.2-.1-.4.1-.3.4a8 8 0 01-1.7 10 5.9 5.9 0 01-4.3 1.7c-2.1 0-3.6-1.7-4.6-3.4 0-.1-.4-.1-.4.1-.4 2.5-1.7 4.6-4.3 5.2s-4.8-.4-6.8-1.6a9.2 9.2 0 01-4.3-5.2c-.7-2.7 1.3-4.9 3.4-6.3a.206.206 0 00-.1-.4c-4.4-.1-8.7-1.5-10.1-6.1a5.5 5.5 0 012.1-6.5z"/><path class="prefix__r" d="M404.8 158.9c-2.2-9.6-11.8-9.8-19.1-6.5 14.2-12.2-12.2-24.3-16.4-9.8 2.4-4.5 9-4.4 12.6-.8s3.4 11.4 1 16.6c2.8-.9 5.5 1.7 6.1 4.4s-1.4 5.9-4.1 7.5c5 3.5 8.5 11 2.4 14.8a8.1 8.1 0 01-9.7-.7 16.6 16.6 0 01-3.8-5.9c.4 1.1-.8 3.9-1.2 5a13.4 13.4 0 01-2.3 4c-4 5.3-13.3 5.3-17.7.4a10.7 10.7 0 01-2.3-4.8c.1.6-3.1 2.7-3.7 3a7.6 7.6 0 01-4.7.8c-3.8-.9-5.4-5.3-4.6-8.8.4-1.8 1.6-4.7 3.1-5.8-5-.6-9.5-3.5-10.4-8.8-.6-3.6.3-7.8 2.8-10.4l-2.8 2.1a12.8 12.8 0 00-1.1 19.3 9.4 9.4 0 002.6 2.3 5.9 5.9 0 002.3.5c-6.2 2.3-5.8 7.1-5.8 8.7.1 5.1 2.8 11.1 11 10.6 1.7-.1 6.8-.2 9.5-5.1a11 11 0 005.7 7.4c14 6.2 23.1-3.1 22-14 1.4 9 7 15.7 18.8 10 14.1-6.8 3.3-21.8-4.3-26.3 7.2 1.3 16.2-.2 14.1-9.7z"/><path class="prefix__r" d="M374.7 137.1a8.4 8.4 0 017.1.5 11.9 11.9 0 016 6.3 8.8 8.8 0 01.1 6.2c8.4-10.9-12.9-20.3-18.1-8.9a12.9 12.9 0 014.9-4.1zM331.5 176.8a2.9 2.9 0 001.6.4 20.8 20.8 0 012.5-3.8c-8.5-1.8-9-11.1-5.9-17.9a12.8 12.8 0 00-.8 19 9.4 9.4 0 002.6 2.3zM375.1 184.9a15 15 0 01-11.7 11.4 10.8 10.8 0 01-7.7-.9 11.2 11.2 0 01-5.1-6.7c-3.9 4.8-11.7 6.8-16.7 2.5s-3.2-9-1-13.5c-5.3 2.4-4.9 6.8-4.9 8.3.1 5.1 2.8 11.1 11 10.6 1.7-.1 6.8-.2 9.5-5.1a11 11 0 005.7 7.4c13.4 5.9 22.2-2.3 22.1-12.5a7.9 7.9 0 01-1.2-1.5zM404.8 158.9c-2-8.5-9.7-9.6-16.6-7.5 9.3.8 5.9 15.4.1 19.5 3.3 1.3 5.7 4.7 7 7.9s1.8 7.6-.7 10.6c-4.8 5.8-13.4 2.2-18-2.7 1.7 8 7.4 13.5 18.4 8.2 14.1-6.8 3.3-21.8-4.3-26.3 7.2 1.3 16.2-.2 14.1-9.7z"/><path class="prefix__o" d="M383 226.9c.8-1.1-.7-2.2-1.7-1.5-7 5.3-11.4 14.4-12.1 23.1a49.5 49.5 0 01-.2-6.7c.1-4.8 1.9-8.9 3.9-13.2.4-1-1.2-1.7-1.7-.9-5 7.9-5 17.7-3.1 26.5.2.8 1.5.7 1.5-.1a1.2 1.2 0 001.9-.6v.2c.4 1.1 2 .4 1.8-.6-1-5.4 3.6-8.7 5.7-13.1.4-.9-.9-1.6-1.6-1a25.1 25.1 0 00-5 6.9 33.8 33.8 0 011.7-6c2.1-5.1 5.8-8.7 8.9-13zM357 230.3c-.5-.8-2-.4-1.6.5a39.9 39.9 0 012.1 13.1 25.1 25.1 0 00-6.3-8.4.814.814 0 00-1.2 1.1c4.5 5.1 7 10.4 7.3 17.2.1 1.6 2.6 1.8 2.5.2v-.4c0-.1.1-.2.1-.4.6-7.5 1.3-16.3-2.9-22.9z"/><path class="prefix__o" d="M363.5 231.3c.2-1.2-1.4-1.8-1.8-.6-2.8 6.8-.5 15.2-.4 22.3.1 1.4 2.4 1.6 2.4.1-.2-7.3-1.7-14.5-.2-21.8z"/><path class="prefix__o" d="M366.3 253.3h-.1v-1.5c0-.1.1-.2.1-.4.7-4.4-.8-9.6-1.2-14.1-.1-.8-1.4-.7-1.5.1 0 4.6 0 9.8 1 14.2v.2a.4.4 0 01-.1.3v1s-.1.3 0 .1a1 1 0 00.9 1.3c.4 0 1.1-.6.9-1.2z"/><path class="prefix__m" d="M287.4 276a2.9 2.9 0 01-2.9 2.9H139.9a2.9 2.9 0 01-2.9-2.9 2.9 2.9 0 012.9-2.9h144.6a2.9 2.9 0 012.9 2.9z"/><path class="prefix__n" d="M268.2 282.5a6.3 6.3 0 016.3-6.3 6.4 6.4 0 016.4 6.3 6.4 6.4 0 01-6.4 6.4 6.4 6.4 0 01-6.3-6.4zM250.4 280.1a3.8 3.8 0 013.9-3.9 3.9 3.9 0 013.9 3.9 4 4 0 01-3.9 3.9 3.9 3.9 0 01-3.9-3.9zM239.1 282.9a2.1 2.1 0 112.1 2.1 2.1 2.1 0 01-2.1-2.1zM260.3 272.9a3.9 3.9 0 013.9-3.9 3.9 3.9 0 110 7.7 3.9 3.9 0 01-3.9-3.8z"/><path class="prefix__j" d="M282.3 211.8L265.1 195l1.9-1.7s14.8 15.4 16.9 13.1-.6 5.5-.6 5.5"/><path class="prefix__t" d="M284.4 206v.2c-1.4 2-3.6 1.3-5.4.1a27.3 27.3 0 01-6.6-5.6 28 28 0 01-3-4.9l-2.4-2.5-1.9 1.7 17.2 16.8h1s2.1-6.1 1.1-5.8z"/><path class="prefix__j" d="M271.8 260.1a11.2 11.2 0 005.4-4.7c2.1-3.6.6-19.7 1.5-28.2 1.2-12 7.5-22.2 5.9-30.3s-6.7-14.9-6.7-14.9l2.9-1.6 10 17.1 10.9-22.2 1.9.5s-6.1 13-8.7 21.6-1.7 10.3.5 11.6 10.8-7.9 12.3-9.4 2 3.6 2 3.6-13.7 8.2-15.7 13.5c-3.5 9.1-2.8 34.6-1.5 39.2s5.8 6.9 5.8 6.9z"/><path class="prefix__t" d="M295.4 209a3.6 3.6 0 01-1.8-2.8 3.8 3.8 0 00.1 2.6c1.7 3 7.2-2.2 8.7-3.3a75.5 75.5 0 016.9-4.7c-.3-1.1-.8-2-1.6-1.2s-10 10.6-12.3 9.4zM291.5 197.5c2.6-8 7.5-14.7 12-21.7l-1.8-.5-10.6 21.7zM294.3 259.4a10.6 10.6 0 01-5.3-1.9c-2.7-1.8-4.1-4.9-4.8-7.9-2.1-8.9-1-18.3.3-27.2.8-5 1.7-10 2.2-15s.9-9.6-.8-14.2-4.5-8-6.2-12.2l-1.8 1s5.3 7.6 6.7 14.9-4.7 18.3-5.9 30.3c-.9 8.5.6 24.6-1.5 28.2a11.2 11.2 0 01-5.4 4.7l26.5 2.7a12 12 0 01-4-3.4z"/><path class="prefix__u" d="M327.4 161.1a10.2 10.2 0 00-9.1-11.1 10.4 10.4 0 00-3.9.4 6 6 0 00-5.4-5h-.5a4.7 4.7 0 00.3-1.7 10.8 10.8 0 00-9.7-11.9 11 11 0 00-6 1.1 5.7 5.7 0 00-4.1-2.1 6.8 6.8 0 00-3.2.5 9.7 9.7 0 00-8-6.1 9.6 9.6 0 00-10.5 8.5v1.3a4.9 4.9 0 00-2.2 3.5 3.2 3.2 0 00.2 1.7 4.8 4.8 0 00-3.4 4.3 4.2 4.2 0 00.4 2.5 3.2 3.2 0 00-1.5 2.5.3.3 0 000 .4h-.1a4.5 4.5 0 00-5 4.1v.3a9.9 9.9 0 00-.7 19.7 9.7 9.7 0 004.8-.7 7.2 7.2 0 009.3 4.3 11 11 0 008.4 5.4 10.6 10.6 0 008.4-2.9 9.5 9.5 0 004.4 1.4 10.7 10.7 0 0010.2-4.8 4.2 4.2 0 006.3 1.3 7.6 7.6 0 003.8 1.6 7 7 0 007.2-9.4 10.1 10.1 0 009.6-9.1z"/><path class="prefix__q" d="M296.5 133.1c2.6 1.2 5.3 2.4 6.9 5s1.5 5.4 3 7.9a22.7 22.7 0 007.8 7.6 24.6 24.6 0 004.7 2 29.9 29.9 0 013.2.9 8.4 8.4 0 014 5.2c.2.6.4 1.3.7 2a12.2 12.2 0 00.6-2.6 10.2 10.2 0 00-9.1-11.1 10.4 10.4 0 00-3.9.4 6 6 0 00-5.4-5h-.5a4.7 4.7 0 00.3-1.7 10.8 10.8 0 00-9.7-11.9 10.1 10.1 0 00-4.6.5 7.2 7.2 0 002 .8z"/><path class="prefix__v" d="M323.1 168.4c-4.4-1.2-8.7-2.3-13.3-1.2s-6.9 2.5-10.5 3.2a34.2 34.2 0 01-9.6.5 87.4 87.4 0 01-8.9-1.7l-6.4-1c-3.6-.6-7.8-1.4-10.5-4-5.6-5.4.9-12.5 4.6-16.8a19.6 19.6 0 003.9-5.9 32 32 0 001.3-6.3 26.7 26.7 0 012.4-10.1 9.6 9.6 0 00-8.8 8.5v1.3a4.9 4.9 0 00-2.2 3.5 3.2 3.2 0 00.2 1.7 4.8 4.8 0 00-3.4 4.3 4.2 4.2 0 00.4 2.5 3.2 3.2 0 00-1.5 2.5.3.3 0 000 .4h-.1a4.5 4.5 0 00-5 4.1v.3a9.9 9.9 0 00-.7 19.7 9.7 9.7 0 004.8-.7 7.2 7.2 0 009.3 4.3 11 11 0 008.4 5.4 10.6 10.6 0 008.4-2.9 9.5 9.5 0 004.4 1.4 10.7 10.7 0 0010.2-4.8 4.2 4.2 0 006.3 1.3 7.6 7.6 0 003.8 1.6 7 7 0 007.2-9.4 9.5 9.5 0 005.3-1.7z"/><path class="prefix__v" d="M315.1 176.9c-3.8-1.3-7.9-2.7-12-2.3s-7.8 3.7-11.7 2.7c-2.4-.6-4.7-2.7-7.4-2s-3.3 1.1-5.1.8a10.4 10.4 0 01-4.2-2.1c-2-1.3-4.3-1.4-6.6-1.9a7 7 0 01-4.1-3.1 10.4 10.4 0 00-2.1-2.6 5.6 5.6 0 00-2.8-1 3.8 3.8 0 01-3.3-2.1 4.4 4.4 0 010-3.7 12.8 12.8 0 012.9-3.6c1.6-1.4 2.8-2.5 3.5-4.5s1.3-5.1 2.4-7.4a60.2 60.2 0 013-5.6c1.7-3.3 3.4-7.1 2.5-10.7a9.6 9.6 0 00-2.8 5.8v1.3a4.9 4.9 0 00-2.2 3.5 3.2 3.2 0 00.2 1.7 4.8 4.8 0 00-3.4 4.3 4.2 4.2 0 00.4 2.5 3.2 3.2 0 00-1.5 2.5.3.3 0 000 .4h-.1a4.5 4.5 0 00-5 4.1v.3a9.9 9.9 0 00-.7 19.7 9.7 9.7 0 004.8-.7 7.2 7.2 0 009.3 4.3 11 11 0 008.4 5.4 10.6 10.6 0 008.4-2.9 9.5 9.5 0 004.4 1.4 10.7 10.7 0 0010.2-4.8 4.2 4.2 0 006.3 1.3 7.6 7.6 0 003.8 1.6 6.9 6.9 0 005.7-2.1z"/><path class="prefix__u" d="M327.2 195.1a4.1 4.1 0 00-3.7-4.5 4.3 4.3 0 00-1.6.1 2.6 2.6 0 00-2.2-2h-.2c0-.3.1-.5.1-.7a4.7 4.7 0 00-4-5 4.3 4.3 0 00-2.5.5 2.6 2.6 0 00-1.7-.9 3.1 3.1 0 00-1.3.3 4.1 4.1 0 00-3.3-2.6 3.9 3.9 0 00-4.3 3.5v.6a1.7 1.7 0 00-.9 1.4v.7a2.2 2.2 0 00-1.4 1.8 3.6 3.6 0 00.2 1 1.3 1.3 0 00-.6 1v.2a1.9 1.9 0 00-2.1 1.7 4.1 4.1 0 00-3.9 3.7 4 4 0 003.6 4.4 3.4 3.4 0 002-.3 2.9 2.9 0 002.5 2 3 3 0 001.3-.2 4.5 4.5 0 007 1 2.8 2.8 0 001.8.6 4.4 4.4 0 004.2-2 1.4 1.4 0 001.3.9 1.9 1.9 0 001.3-.3 2.5 2.5 0 001.5.6 2.9 2.9 0 003.2-2.5 5.1 5.1 0 00-.2-1.3 4.2 4.2 0 003.9-3.7z"/><path class="prefix__q" d="M314.5 183.6a5.4 5.4 0 012.8 2.1c.7 1 .7 2.2 1.3 3.2a8.6 8.6 0 003.2 3.1 7.2 7.2 0 002 .9l1.3.4a3.4 3.4 0 011.6 2.1l.3.8a3.6 3.6 0 00.2-1.1 4.1 4.1 0 00-3.7-4.5 4.3 4.3 0 00-1.6.1 2.6 2.6 0 00-2.2-2h-.2c0-.3.1-.5.1-.7a4.7 4.7 0 00-4-5 4 4 0 00-1.9.3z"/><path class="prefix__v" d="M325.5 198.1c-1.8-.4-3.6-.9-5.5-.4s-2.8 1-4.3 1.3a17.9 17.9 0 01-4 .2c-1.2-.1-2.4-.5-3.7-.7l-2.6-.4c-1.4-.3-3.2-.6-4.3-1.7s.4-5.1 1.9-6.9a10 10 0 001.6-2.4 11.9 11.9 0 00.5-2.6 15.1 15.1 0 011-4.2 3.9 3.9 0 00-3.6 3.5v.6a1.7 1.7 0 00-.9 1.4v.7a2.2 2.2 0 00-1.4 1.8 3.6 3.6 0 00.2 1 1.3 1.3 0 00-.6 1v.2a1.9 1.9 0 00-2.1 1.7 4.1 4.1 0 00-3.9 3.7 4 4 0 003.6 4.4 3.4 3.4 0 002-.3 2.9 2.9 0 002.5 2 3 3 0 001.3-.2 4.5 4.5 0 007 1 2.8 2.8 0 001.8.6 4.4 4.4 0 004.2-2 1.4 1.4 0 001.3.9 1.9 1.9 0 001.3-.3 2.5 2.5 0 001.5.6 2.9 2.9 0 003.2-2.5 5.1 5.1 0 00-.2-1.3 4.5 4.5 0 002.2-.7z"/><path class="prefix__v" d="M322.2 201.7a10.9 10.9 0 00-5-1c-1.5.2-3.2 1.5-4.8 1.1s-1.9-1.1-3-.8a3.9 3.9 0 01-2.1.3 4.2 4.2 0 01-1.8-.8 6.1 6.1 0 00-2.7-.8 3.6 3.6 0 01-1.7-1.3 4.4 4.4 0 00-.8-1.1l-1.2-.4a1.5 1.5 0 01-1.3-.8 1.8 1.8 0 010-1.6 4.2 4.2 0 011.2-1.5 4.2 4.2 0 001.4-1.8c.4-1 .5-2.1 1-3.1a25.3 25.3 0 011.2-2.3c.7-1.3 1.4-2.9 1-4.4a4.4 4.4 0 00-1.1 2.4v.6a1.7 1.7 0 00-.9 1.4v.7a2.2 2.2 0 00-1.4 1.8 3.6 3.6 0 00.2 1 1.3 1.3 0 00-.6 1v.2a1.9 1.9 0 00-2.1 1.7 4.1 4.1 0 00-3.9 3.7 4 4 0 003.6 4.4 3.4 3.4 0 002-.3 2.9 2.9 0 002.5 2 3 3 0 001.3-.2 4.5 4.5 0 007 1 2.8 2.8 0 001.8.6 4.4 4.4 0 004.2-2 1.4 1.4 0 001.3.9 1.9 1.9 0 001.3-.3 2.5 2.5 0 001.5.6 2.7 2.7 0 002.4-.9z"/><path class="prefix__u" d="M283.4 190.8a4.9 4.9 0 00-4.4-5.3 4 4 0 00-1.9.2 3.1 3.1 0 00-2.6-2.5h-.2c0-.2.1-.5.1-.8a5.3 5.3 0 00-4.7-5.8 4.9 4.9 0 00-2.9.6 3.1 3.1 0 00-1.9-1.1 3.8 3.8 0 00-1.6.3 4.6 4.6 0 00-8.9 1.2 1.3 1.3 0 00-.1.6 2.7 2.7 0 00-1 1.7 2.2 2.2 0 00.1.8 2.5 2.5 0 00-1.7 2.1 5 5 0 00.2 1.2 1.6 1.6 0 00-.7 1.2v.2a2.3 2.3 0 00-2.5 2 4.7 4.7 0 00-4.5 4.3 4.7 4.7 0 004.2 5.2 4.3 4.3 0 002.3-.3 3.5 3.5 0 002.9 2.2 2.9 2.9 0 001.6-.2 5.3 5.3 0 004.1 2.6 5.5 5.5 0 004.1-1.3 4.7 4.7 0 002.1.6 5.2 5.2 0 004.9-2.3 2.1 2.1 0 001.6 1.1 1.9 1.9 0 001.4-.5 3.3 3.3 0 005.5-2.2 2.6 2.6 0 00-.2-1.5 4.9 4.9 0 004.7-4.3z"/><path class="prefix__q" d="M268.4 177.3a7.6 7.6 0 013.4 2.4c.7 1.2.7 2.6 1.4 3.8a12.2 12.2 0 003.8 3.7 9.4 9.4 0 002.3 1l1.5.4a4 4 0 011.9 2.5 6.9 6.9 0 00.4 1l.3-1.3a4.9 4.9 0 00-4.4-5.3 4 4 0 00-1.9.2 3.1 3.1 0 00-2.6-2.5h-.2c0-.2.1-.5.1-.8a5.3 5.3 0 00-4.7-5.8 7.8 7.8 0 00-2.2.3z"/><path class="prefix__v" d="M281.3 194.3c-2.1-.5-4.2-1.1-6.4-.5s-3.3 1.2-5.1 1.5a17.8 17.8 0 01-4.6.3l-4.3-.8-3.1-.5c-1.7-.3-3.8-.7-5.1-2s.5-6 2.2-8.1a7.7 7.7 0 001.9-2.8 10.7 10.7 0 00.6-3.1 17.6 17.6 0 011.2-4.9 4.6 4.6 0 00-4.2 4.2 1.3 1.3 0 00-.1.6 2.7 2.7 0 00-1 1.7 2.2 2.2 0 00.1.8 2.5 2.5 0 00-1.7 2.1 5 5 0 00.2 1.2 1.6 1.6 0 00-.7 1.2v.2a2.3 2.3 0 00-2.5 2 4.7 4.7 0 00-4.5 4.3 4.7 4.7 0 004.2 5.2 4.3 4.3 0 002.3-.3 3.5 3.5 0 002.9 2.2 2.9 2.9 0 001.6-.2 5.3 5.3 0 004.1 2.6 5.5 5.5 0 004.1-1.3 4.7 4.7 0 002.1.6 5.2 5.2 0 004.9-2.3 2.1 2.1 0 001.6 1.1 1.9 1.9 0 001.4-.5 3.3 3.3 0 005.5-2.2 2.6 2.6 0 00-.2-1.5 5.8 5.8 0 002.6-.8z"/><path class="prefix__v" d="M277.4 198.5a12.9 12.9 0 00-5.8-1.2c-1.8.2-3.7 1.8-5.6 1.4s-2.3-1.4-3.6-1a6.7 6.7 0 01-2.4.4 8.1 8.1 0 01-2.1-1 8.7 8.7 0 00-3.1-1 3.4 3.4 0 01-2-1.5 5.8 5.8 0 00-1-1.2 3.9 3.9 0 00-1.4-.5 1.8 1.8 0 01-1.6-1 2.3 2.3 0 010-1.8 5.8 5.8 0 011.4-1.7 4.6 4.6 0 001.7-2.2 21.7 21.7 0 011.2-3.6c.4-.9.9-1.8 1.4-2.7s1.6-3.4 1.2-5.1a4.6 4.6 0 00-1.3 2.8 1.3 1.3 0 00-.1.6 2.7 2.7 0 00-1 1.7 2.2 2.2 0 00.1.8 2.5 2.5 0 00-1.7 2.1 5 5 0 00.2 1.2 1.6 1.6 0 00-.7 1.2v.2a2.3 2.3 0 00-2.5 2 4.7 4.7 0 00-4.5 4.3 4.7 4.7 0 004.2 5.2 4.3 4.3 0 002.3-.3 3.5 3.5 0 002.9 2.2 2.9 2.9 0 001.6-.2 5.3 5.3 0 004.1 2.6 5.5 5.5 0 004.1-1.3 4.7 4.7 0 002.1.6 5.2 5.2 0 004.9-2.3 2.1 2.1 0 001.6 1.1 1.9 1.9 0 001.4-.5 3.3 3.3 0 001.9.8 3.4 3.4 0 002.7-1z"/><path class="prefix__j" d="M216.4 177.2l-17.3-16.8 1.9-1.7s14.8 15.4 16.9 13.1-.5 5.5-.5 5.5"/><path class="prefix__t" d="M218.4 171.4c-1.4 2.1-3.6 1.4-5.3.2a26 26 0 01-6.7-5.6 25 25 0 01-2.9-5l-2.5-2.4-1.9 1.7 17.3 16.8h1s2.1-6 1-5.7z"/><path class="prefix__j" d="M205.8 225.5a11.6 11.6 0 005.5-4.7c2.1-3.6.6-19.7 1.4-28.2 1.2-12.1 7.6-22.2 6-30.3s-6.8-14.9-6.8-14.9l2.9-1.6 10 17.1 11-22.2 1.8.5s-6.1 13-8.7 21.6-1.7 10.3.6 11.6 10.7-7.9 12.2-9.4 2.1 3.6 2.1 3.6S230 176.8 228 182c-3.5 9.2-2.8 34.7-1.5 39.3s5.8 6.9 5.8 6.9z"/><path class="prefix__t" d="M229.5 174.4a3.9 3.9 0 01-1.9-2.8 3.8 3.8 0 00.1 2.6c1.7 3 7.2-2.2 8.7-3.3s4.5-3.3 6.9-4.7c-.3-1.1-.8-2-1.6-1.2s-9.9 10.6-12.2 9.4zM225.6 162.9c2.5-8 7.5-14.7 11.9-21.7l-1.7-.5-10.7 21.7zM228.3 224.8a10.6 10.6 0 01-5.3-1.9c-2.6-1.8-4.1-4.9-4.8-7.9-2.1-8.9-1-18.3.4-27.2.7-5 1.6-10 2.1-15s1-9.7-.7-14.2-4.6-8-6.3-12.2l-1.8 1s5.3 7.5 6.8 14.9-4.8 18.2-6 30.3c-.8 8.5.7 24.6-1.4 28.2a11.6 11.6 0 01-5.5 4.7l26.5 2.7a15.3 15.3 0 01-4-3.4z"/><path class="prefix__u" d="M261.4 126.5a10.1 10.1 0 00-9-11.1 10 10 0 00-3.9.4 6.2 6.2 0 00-5.5-5h-.4l.3-1.7a10.9 10.9 0 00-9.8-11.9 10.6 10.6 0 00-5.9 1 6.4 6.4 0 00-4.1-2 6.1 6.1 0 00-3.3.5 9.6 9.6 0 00-18.5 2.3v1.3a4.9 4.9 0 00-2.2 3.5 5 5 0 00.2 1.7 5 5 0 00-3.4 4.3 4.3 4.3 0 00.4 2.5 3.3 3.3 0 00-1.5 2.5v.4h-.1a4.6 4.6 0 00-5 4.1v.3a9.9 9.9 0 00-.6 19.7 9.3 9.3 0 004.7-.7 7 7 0 009.3 4.2 11.1 11.1 0 008.4 5.5 11.2 11.2 0 008.5-2.9 9.1 9.1 0 004.3 1.4 10.9 10.9 0 0010.2-4.8 4.5 4.5 0 003.3 2.2 4.2 4.2 0 003.1-.9 6.9 6.9 0 003.7 1.6 7 7 0 007.7-6.3 8.3 8.3 0 00-.4-3.1 10 10 0 009.5-9z"/><path class="prefix__q" d="M230.5 98.5c2.7 1.2 5.3 2.4 6.9 5s1.6 5.4 3.1 7.8a21.1 21.1 0 007.7 7.7 25.5 25.5 0 004.8 2 12.1 12.1 0 013.1.9 8.2 8.2 0 014 5.1c.2.7.5 1.4.7 2a10.1 10.1 0 00-8.4-13.6 10 10 0 00-3.9.4 6.2 6.2 0 00-5.5-5h-.4l.3-1.7a10.9 10.9 0 00-9.8-11.9 10.1 10.1 0 00-4.6.5z"/><path class="prefix__v" d="M257.1 133.7c-4.4-1.1-8.7-2.2-13.3-1.1s-6.8 2.5-10.4 3.2a35 35 0 01-9.7.5c-3-.3-5.9-1.1-8.9-1.7l-6.4-1c-3.5-.6-7.8-1.4-10.5-4-5.6-5.4.9-12.5 4.6-16.8a18.9 18.9 0 003.9-5.9 23.6 23.6 0 001.3-6.3 28.7 28.7 0 012.4-10.1 9.5 9.5 0 00-8.8 8.5v1.3a4.9 4.9 0 00-2.2 3.5 5 5 0 00.2 1.7 5 5 0 00-3.4 4.3 4.3 4.3 0 00.4 2.5 3.3 3.3 0 00-1.5 2.5v.4h-.1a4.6 4.6 0 00-5 4.1v.3a9.9 9.9 0 00-.6 19.7 9.3 9.3 0 004.7-.7 7 7 0 009.3 4.2 11.1 11.1 0 008.4 5.5 11.2 11.2 0 008.5-2.9 9.1 9.1 0 004.3 1.4 10.9 10.9 0 0010.2-4.8 4.5 4.5 0 003.3 2.2 4.2 4.2 0 003.1-.9 6.9 6.9 0 003.7 1.6 7 7 0 007.7-6.3 8.3 8.3 0 00-.4-3.1 9.6 9.6 0 005.2-1.8z"/><path class="prefix__v" d="M249.2 142.3c-3.8-1.4-8-2.8-12.1-2.3s-7.8 3.7-11.6 2.7-4.8-2.7-7.5-2-3.3 1.1-5 .8a10.2 10.2 0 01-4.3-2.1c-2-1.3-4.2-1.4-6.5-1.9a7.1 7.1 0 01-4.1-3.1 13.8 13.8 0 00-2.2-2.6 5.6 5.6 0 00-2.8-1 3.9 3.9 0 01-3.3-2.1 4.6 4.6 0 010-3.8 11.2 11.2 0 013-3.5 11.9 11.9 0 003.5-4.5c.8-2.5 1.3-5.1 2.3-7.5s2.1-3.7 3-5.5c1.8-3.3 3.4-7.1 2.5-10.7a9.9 9.9 0 00-2.8 5.8v1.3a4.9 4.9 0 00-2.2 3.5 5 5 0 00.2 1.7 5 5 0 00-3.4 4.3 4.3 4.3 0 00.4 2.5 3.3 3.3 0 00-1.5 2.5v.4h-.1a4.6 4.6 0 00-5 4.1v.3a9.9 9.9 0 00-.6 19.7 9.3 9.3 0 004.7-.7 7 7 0 009.3 4.2 11.1 11.1 0 008.4 5.5 11.2 11.2 0 008.5-2.9 9.1 9.1 0 004.3 1.4 10.9 10.9 0 0010.2-4.8 4.5 4.5 0 003.3 2.2 4.2 4.2 0 003.1-.9 6.9 6.9 0 003.7 1.6 7.1 7.1 0 005.8-2.2z"/><path class="prefix__u" d="M261.3 160.5a4.2 4.2 0 00-3.8-4.5 4.3 4.3 0 00-1.6.1 2.4 2.4 0 00-2.2-2h-.2a1.5 1.5 0 00.1-.7 4.5 4.5 0 00-4-4.9 3.9 3.9 0 00-2.4.5 2.8 2.8 0 00-1.7-.9 3.2 3.2 0 00-1.4.2 3.9 3.9 0 00-7.6 1v.6a1.9 1.9 0 00-.9 1.4 1.7 1.7 0 00.1.7 1.9 1.9 0 00-1.4 1.7 2 2 0 00.1 1.1 1.7 1.7 0 00-.6 1v.2a1.9 1.9 0 00-2.1 1.7 4.1 4.1 0 00-3.9 3.7 4 4 0 003.7 4.4 3.1 3.1 0 001.9-.3 3.1 3.1 0 002.5 2l1.4-.2a4.5 4.5 0 003.4 2.2 4.4 4.4 0 003.5-1.2 4.8 4.8 0 001.8.6 4.4 4.4 0 004.2-2 1.7 1.7 0 001.3.9 1.8 1.8 0 001.3-.3 3.8 3.8 0 001.6.6 2.9 2.9 0 003.1-2.6 2.5 2.5 0 00-.2-1.2 4.2 4.2 0 004-3.8z"/><path class="prefix__q" d="M248.5 149a6.6 6.6 0 012.9 2c.6 1.1.6 2.3 1.2 3.3a8.6 8.6 0 003.2 3.1 7.2 7.2 0 002 .9l1.3.4a3.1 3.1 0 011.6 2.1l.3.8.3-1.1a4.2 4.2 0 00-3.8-4.5 4.3 4.3 0 00-1.6.1 2.4 2.4 0 00-2.2-2h-.2a1.5 1.5 0 00.1-.7 4.5 4.5 0 00-4-4.9 4 4 0 00-1.9.2z"/><path class="prefix__v" d="M259.5 163.5a10.3 10.3 0 00-5.5-.4c-1.4.3-2.8 1-4.3 1.3a17 17 0 01-3.9.2c-1.3-.1-2.5-.5-3.7-.7l-2.6-.4c-1.5-.3-3.3-.6-4.4-1.7s.4-5.1 1.9-6.9a6.3 6.3 0 001.6-2.4 8 8 0 00.5-2.6 11.9 11.9 0 011.1-4.2 4 4 0 00-3.7 3.5v.6a1.9 1.9 0 00-.9 1.4 1.7 1.7 0 00.1.7 1.9 1.9 0 00-1.4 1.7 2 2 0 00.1 1.1 1.7 1.7 0 00-.6 1v.2a1.9 1.9 0 00-2.1 1.7 4.1 4.1 0 00-3.9 3.7 4 4 0 003.7 4.4 3.1 3.1 0 001.9-.3 3.1 3.1 0 002.5 2l1.4-.2a4.5 4.5 0 003.4 2.2 4.4 4.4 0 003.5-1.2 4.8 4.8 0 001.8.6 4.4 4.4 0 004.2-2 1.7 1.7 0 001.3.9 1.8 1.8 0 001.3-.3 3.8 3.8 0 001.6.6 2.9 2.9 0 003.1-2.6 2.5 2.5 0 00-.2-1.2 4.2 4.2 0 002.2-.7z"/><path class="prefix__v" d="M256.2 167a12 12 0 00-5-.9c-1.5.2-3.1 1.5-4.7 1.1s-2-1.1-3.1-.8a7.6 7.6 0 01-2.1.3 5.3 5.3 0 01-1.7-.8 7 7 0 00-2.7-.8 2.8 2.8 0 01-1.7-1.3 4.8 4.8 0 00-.9-1.1 2.5 2.5 0 00-1.2-.4 1.7 1.7 0 01-1.3-.8 1.8 1.8 0 010-1.6 5.7 5.7 0 011.2-1.5 4.2 4.2 0 001.4-1.8c.4-1 .6-2.1 1-3.1l1.3-2.3a6.8 6.8 0 001-4.4 3.9 3.9 0 00-1.2 2.4v.6a1.9 1.9 0 00-.9 1.4 1.7 1.7 0 00.1.7 1.9 1.9 0 00-1.4 1.7 2 2 0 00.1 1.1 1.7 1.7 0 00-.6 1v.2a1.9 1.9 0 00-2.1 1.7 4.1 4.1 0 00-3.9 3.7 4 4 0 003.7 4.4 3.1 3.1 0 001.9-.3 3.1 3.1 0 002.5 2l1.4-.2a4.5 4.5 0 003.4 2.2 4.4 4.4 0 003.5-1.2 4.8 4.8 0 001.8.6 4.4 4.4 0 004.2-2 1.7 1.7 0 001.3.9 1.8 1.8 0 001.3-.3 3.8 3.8 0 001.6.6 2.8 2.8 0 002.3-.9z"/><path class="prefix__u" d="M217.4 156.2a4.8 4.8 0 00-4.4-5.3 4.1 4.1 0 00-1.9.2 3 3 0 00-2.6-2.5h-.2a2.2 2.2 0 00.1-.8 5.3 5.3 0 00-4.7-5.8 5.2 5.2 0 00-2.8.5 3.5 3.5 0 00-2-1 4.1 4.1 0 00-1.6.3 4.7 4.7 0 00-3.9-3 4.7 4.7 0 00-5 4.2v.6a2.1 2.1 0 00-1.1 1.7 2.5 2.5 0 00.1.8 2.4 2.4 0 00-1.6 2 1.9 1.9 0 00.2 1.3 1.5 1.5 0 00-.8 1.2v.2a2.1 2.1 0 00-2.4 1.9v.2a4.8 4.8 0 00-.3 9.5 4.5 4.5 0 002.3-.3 3.3 3.3 0 002.9 2.2 3 3 0 001.6-.2 5.3 5.3 0 004 2.6 5.1 5.1 0 004.1-1.4 3.8 3.8 0 002.1.7 5.1 5.1 0 004.9-2.3 2.1 2.1 0 001.6 1.1 2.5 2.5 0 001.5-.5 3.7 3.7 0 001.8.8 3.4 3.4 0 003.7-3 6.8 6.8 0 00-.2-1.5 5 5 0 004.6-4.4z"/><path class="prefix__q" d="M202.5 142.7a7.3 7.3 0 013.3 2.4c.7 1.2.8 2.6 1.5 3.8a10.9 10.9 0 003.7 3.7 9.2 9.2 0 002.3.9l1.5.5a3.9 3.9 0 012 2.5l.3.9.3-1.2a4.8 4.8 0 00-4.4-5.3 4.1 4.1 0 00-1.9.2 3 3 0 00-2.6-2.5h-.2a2.2 2.2 0 00.1-.8 5.3 5.3 0 00-4.7-5.8 4.1 4.1 0 00-2.2.3z"/><path class="prefix__v" d="M215.3 159.7c-2.1-.5-4.2-1.1-6.4-.5s-3.3 1.2-5.1 1.5a14.1 14.1 0 01-4.6.2 29.7 29.7 0 01-4.3-.8l-3.1-.5c-1.7-.3-3.8-.6-5.1-1.9s.5-6 2.3-8.1a10.3 10.3 0 001.8-2.8 10.8 10.8 0 00.7-3.1 14 14 0 011.1-4.9 4.7 4.7 0 00-4.2 4.2v.6a2.1 2.1 0 00-1.1 1.7 2.5 2.5 0 00.1.8 2.4 2.4 0 00-1.6 2 1.9 1.9 0 00.2 1.3 1.5 1.5 0 00-.8 1.2v.2a2.1 2.1 0 00-2.4 1.9v.2a4.8 4.8 0 00-.3 9.5 4.5 4.5 0 002.3-.3 3.3 3.3 0 002.9 2.2 3 3 0 001.6-.2 5.3 5.3 0 004 2.6 5.1 5.1 0 004.1-1.4 3.8 3.8 0 002.1.7 5.1 5.1 0 004.9-2.3 2.1 2.1 0 001.6 1.1 2.5 2.5 0 001.5-.5 3.7 3.7 0 001.8.8 3.4 3.4 0 003.7-3 6.8 6.8 0 00-.2-1.5 5.4 5.4 0 002.5-.9z"/><path class="prefix__v" d="M211.5 163.8c-1.9-.6-3.9-1.3-5.8-1.1s-3.8 1.8-5.7 1.3-2.2-1.3-3.5-1a4.4 4.4 0 01-2.5.4 4.6 4.6 0 01-2-.9 9.2 9.2 0 00-3.2-1 3.4 3.4 0 01-2-1.5 5.8 5.8 0 00-1-1.2 2.2 2.2 0 00-1.4-.5 1.9 1.9 0 01-1.6-1 2.3 2.3 0 010-1.8 6.1 6.1 0 011.5-1.7 5.7 5.7 0 001.6-2.2c.5-1.2.7-2.5 1.2-3.6s1-1.8 1.4-2.7 1.7-3.4 1.2-5.1a4.6 4.6 0 00-1.3 2.8v.6a2.1 2.1 0 00-1.1 1.7 2.5 2.5 0 00.1.8 2.4 2.4 0 00-1.6 2 1.9 1.9 0 00.2 1.3 1.5 1.5 0 00-.8 1.2v.2a2.1 2.1 0 00-2.4 1.9v.2a4.8 4.8 0 00-.3 9.5 4.5 4.5 0 002.3-.3 3.3 3.3 0 002.9 2.2 3 3 0 001.6-.2 5.3 5.3 0 004 2.6 5.1 5.1 0 004.1-1.4 3.8 3.8 0 002.1.7 5.1 5.1 0 004.9-2.3 2.1 2.1 0 001.6 1.1 2.5 2.5 0 001.5-.5 3.7 3.7 0 001.8.8 3.5 3.5 0 002.8-1z"/><path class="prefix__j" d="M141.1 220.5l-17.2-16.9 1.9-1.7s14.8 15.5 16.9 13.2-.6 5.5-.6 5.5"/><path class="prefix__t" d="M143.2 214.7a.1.1 0 01-.1.1c-1.3 2.1-3.5 1.3-5.3.2a22.3 22.3 0 01-9.6-10.6 28.6 28.6 0 01-2.4-2.5l-1.9 1.7 17.2 16.9h1s2.1-6.1 1.1-5.8z"/><path class="prefix__j" d="M130.6 268.8a11.5 11.5 0 005.4-4.8c2.1-3.5.6-19.6 1.5-28.1 1.2-12.1 7.5-22.3 5.9-30.3s-6.7-14.9-6.7-14.9l2.9-1.6 9.9 17.1 11-22.2 1.8.5s-6.1 12.9-8.6 21.6-1.8 10.3.5 11.6 10.7-7.9 12.3-9.5 2 3.7 2 3.7-13.8 8.2-15.7 13.4c-3.5 9.2-2.8 34.7-1.6 39.3s5.9 6.9 5.9 6.9z"/><path class="prefix__t" d="M154.2 217.7a3.5 3.5 0 01-1.8-2.8 3.3 3.3 0 00.1 2.6c1.7 2.9 7.1-2.2 8.7-3.3a75.5 75.5 0 016.9-4.7c-.4-1.1-.9-2-1.6-1.3s-10 10.7-12.3 9.5zM150.3 206.1c2.6-7.9 7.5-14.6 12-21.6l-1.8-.5-10.7 21.6c.2.2.3.4.5.5zM153 268a9.6 9.6 0 01-5.3-1.8c-2.6-1.8-4-4.9-4.8-8-2.1-8.8-1-18.2.4-27.1.8-5 1.6-10 2.2-15.1s.9-9.6-.8-14.1-4.5-8-6.3-12.2l-1.7 1s5.3 7.5 6.7 14.9-4.7 18.2-5.9 30.3c-.9 8.5.6 24.6-1.5 28.1a11.5 11.5 0 01-5.4 4.8l26.5 2.7a14.2 14.2 0 01-4.1-3.5z"/><path class="prefix__u" d="M186.2 169.7a10.1 10.1 0 00-13-10.6 6.1 6.1 0 00-5.4-5.1h-.5a8.6 8.6 0 00.3-1.7 11 11 0 00-9.8-12 11.8 11.8 0 00-5.9 1.1 6.5 6.5 0 00-4.1-2.1 6.1 6.1 0 00-3.3.6 9.3 9.3 0 00-8-6.1 9.5 9.5 0 00-10.4 8.5 6.2 6.2 0 00-.1 1.3 4.6 4.6 0 00-2.1 3.5 4.9 4.9 0 00.1 1.7 5 5 0 00-3.4 4.2 5.5 5.5 0 00.4 2.6 3.3 3.3 0 00-1.5 2.4v.5a4.6 4.6 0 00-5.1 4.1v.3a9.9 9.9 0 00-.6 19.7 9.2 9.2 0 004.7-.7 7.1 7.1 0 009.4 4.2 10.5 10.5 0 008.3 5.4 10.7 10.7 0 008.5-2.8 9.5 9.5 0 004.4 1.4 10.7 10.7 0 0010.1-4.8 4.3 4.3 0 006.4 1.3 8.1 8.1 0 003.8 1.6 7 7 0 007.6-6.3 6.5 6.5 0 00-.4-3.1 10.2 10.2 0 009.6-9.1z"/><path class="prefix__q" d="M155.3 141.8c2.6 1.2 5.3 2.4 6.8 4.9s1.6 5.4 3.1 7.9a22.4 22.4 0 007.7 7.6 16.8 16.8 0 004.8 2 17 17 0 013.2 1c2.1 1 3.2 3 4 5.1l.6 2a9.9 9.9 0 00.7-2.6 10.1 10.1 0 00-13-10.6 6.1 6.1 0 00-5.4-5.1h-.5a8.6 8.6 0 00.3-1.7 11 11 0 00-9.8-12 11.9 11.9 0 00-4.6.6z"/><path class="prefix__v" d="M181.9 177c-4.4-1.1-8.8-2.2-13.4-1.1s-6.8 2.5-10.4 3.2a38.7 38.7 0 01-9.6.5 89.3 89.3 0 01-9-1.7l-6.3-1c-3.6-.7-7.9-1.4-10.6-4-5.6-5.4 1-12.5 4.7-16.8a20.5 20.5 0 003.8-5.9 23.6 23.6 0 001.3-6.3c.4-3.5.9-7 2.5-10.2a9.5 9.5 0 00-8.8 8.6 6.2 6.2 0 00-.1 1.3 4.6 4.6 0 00-2.1 3.5 4.9 4.9 0 00.1 1.7 5 5 0 00-3.4 4.2 5.5 5.5 0 00.4 2.6 3.3 3.3 0 00-1.5 2.4v.5a4.6 4.6 0 00-5.1 4.1v.3a9.9 9.9 0 00-.6 19.7 9.2 9.2 0 004.7-.7 7.1 7.1 0 009.4 4.2 10.5 10.5 0 008.3 5.4 10.7 10.7 0 008.5-2.8 9.5 9.5 0 004.4 1.4 10.7 10.7 0 0010.1-4.8 4.3 4.3 0 006.4 1.3 8.1 8.1 0 003.8 1.6 7 7 0 007.6-6.3 6.5 6.5 0 00-.4-3.1 10.2 10.2 0 005.3-1.8z"/><path class="prefix__v" d="M173.9 185.6c-3.8-1.4-8-2.8-12.1-2.3s-7.7 3.7-11.6 2.7-4.7-2.8-7.4-2.1-3.3 1.2-5.1.9a12.8 12.8 0 01-4.2-2.1c-2.1-1.3-4.3-1.4-6.6-1.9a7.1 7.1 0 01-4.1-3.1 13.3 13.3 0 00-2.1-2.6 5.9 5.9 0 00-2.9-1c-1.3-.2-2.7-.7-3.2-2.1a4.2 4.2 0 010-3.8 10.9 10.9 0 012.9-3.5c1.6-1.4 2.8-2.5 3.5-4.6s1.3-5 2.4-7.4a58.6 58.6 0 013-5.5c1.7-3.3 3.3-7.1 2.4-10.7a9.3 9.3 0 00-2.7 5.8 6.2 6.2 0 00-.1 1.3 4.6 4.6 0 00-2.1 3.5 4.9 4.9 0 00.1 1.7 5 5 0 00-3.4 4.2 5.5 5.5 0 00.4 2.6 3.3 3.3 0 00-1.5 2.4v.5a4.6 4.6 0 00-5.1 4.1v.3a9.9 9.9 0 00-.6 19.7 9.2 9.2 0 004.7-.7 7.1 7.1 0 009.4 4.2 10.5 10.5 0 008.3 5.4 10.7 10.7 0 008.5-2.8 9.5 9.5 0 004.4 1.4 10.7 10.7 0 0010.1-4.8 4.3 4.3 0 006.4 1.3 8.1 8.1 0 003.8 1.6 7 7 0 005.7-2.2z"/><path class="prefix__u" d="M186 203.8a4.1 4.1 0 00-3.7-4.5 4.2 4.2 0 00-1.6.1 2.7 2.7 0 00-2.3-2.1h-.2a6.4 6.4 0 00.2-.7 4.6 4.6 0 00-4.1-4.9 4.9 4.9 0 00-2.4.4 3 3 0 00-1.7-.8 1.9 1.9 0 00-1.3.2 4.1 4.1 0 00-3.3-2.5 3.9 3.9 0 00-4.3 3.5 1.1 1.1 0 00-.1.5 2 2 0 00-.8 1.5c-.1.2 0 .4 0 .7a2.1 2.1 0 00-1.4 1.7 2 2 0 00.2 1.1 1.1 1.1 0 00-.6 1v.2h-.1a1.8 1.8 0 00-2 1.7 4.1 4.1 0 00-.3 8.1 3.4 3.4 0 002-.3 2.8 2.8 0 002.4 1.9 3.2 3.2 0 001.4-.1 4.7 4.7 0 003.4 2.2 4.3 4.3 0 003.5-1.2 6.4 6.4 0 001.8.6 4.4 4.4 0 004.2-2 1.7 1.7 0 001.4.9 1.3 1.3 0 001.2-.4 3.3 3.3 0 001.6.7 2.8 2.8 0 003.1-2.6 2.9 2.9 0 00-.1-1.3 4.1 4.1 0 003.9-3.6z"/><path class="prefix__q" d="M173.3 192.3a5.8 5.8 0 012.8 2c.6 1 .7 2.3 1.3 3.3a8 8 0 003.2 3.1 4.6 4.6 0 001.9.8l1.3.4a3.8 3.8 0 011.7 2.1 2.9 2.9 0 01.2.9 2.3 2.3 0 00.3-1.1 4.1 4.1 0 00-3.7-4.5 4.2 4.2 0 00-1.6.1 2.7 2.7 0 00-2.3-2.1h-.2a6.4 6.4 0 00.2-.7 4.6 4.6 0 00-4.1-4.9 4.1 4.1 0 00-1.9.2z"/><path class="prefix__v" d="M184.2 206.8a11.1 11.1 0 00-5.4-.5 36.6 36.6 0 01-4.4 1.3 12.9 12.9 0 01-3.9.3l-3.7-.7-2.6-.5a7.9 7.9 0 01-4.4-1.6c-2.3-2.2.4-5.2 2-6.9a8.9 8.9 0 001.6-2.5 11.1 11.1 0 00.5-2.5 10 10 0 011-4.2 3.9 3.9 0 00-3.6 3.5 1.1 1.1 0 00-.1.5 2 2 0 00-.8 1.5c-.1.2 0 .4 0 .7a2.1 2.1 0 00-1.4 1.7 2 2 0 00.2 1.1 1.1 1.1 0 00-.6 1v.2h-.1a1.8 1.8 0 00-2 1.7 4.1 4.1 0 00-.3 8.1 3.4 3.4 0 002-.3 2.8 2.8 0 002.4 1.9 3.2 3.2 0 001.4-.1 4.7 4.7 0 003.4 2.2 4.3 4.3 0 003.5-1.2 6.4 6.4 0 001.8.6 4.4 4.4 0 004.2-2 1.7 1.7 0 001.4.9 1.3 1.3 0 001.2-.4 3.3 3.3 0 001.6.7 2.8 2.8 0 003.1-2.6 2.9 2.9 0 00-.1-1.3 3.8 3.8 0 002.1-.6z"/><path class="prefix__v" d="M181 210.3a12.3 12.3 0 00-5-.9c-1.6.1-3.2 1.5-4.8 1.1s-2-1.1-3.1-.9a4.5 4.5 0 01-2 .4 4.4 4.4 0 01-1.8-.9 10.7 10.7 0 00-2.7-.8 2.6 2.6 0 01-1.7-1.2 3.1 3.1 0 00-.9-1.1 2.1 2.1 0 00-1.1-.4 1.7 1.7 0 01-1.4-.9 2 2 0 010-1.5 6.1 6.1 0 011.2-1.5 4 4 0 001.5-1.9c.3-1 .5-2 .9-3l1.3-2.3c.7-1.3 1.4-2.9 1-4.4a4.1 4.1 0 00-1.1 2.4 1.1 1.1 0 00-.1.5 2 2 0 00-.8 1.5c-.1.2 0 .4 0 .7a2.1 2.1 0 00-1.4 1.7 2 2 0 00.2 1.1 1.1 1.1 0 00-.6 1v.2h-.1a1.8 1.8 0 00-2 1.7 4.1 4.1 0 00-.3 8.1 3.4 3.4 0 002-.3 2.8 2.8 0 002.4 1.9 3.2 3.2 0 001.4-.1 4.7 4.7 0 003.4 2.2 4.3 4.3 0 003.5-1.2 6.4 6.4 0 001.8.6 4.4 4.4 0 004.2-2 1.7 1.7 0 001.4.9 1.3 1.3 0 001.2-.4 3.3 3.3 0 001.6.7 3 3 0 002.4-.9z"/><path class="prefix__u" d="M142.1 199.5a4.8 4.8 0 00-4.3-5.3 5.9 5.9 0 00-1.9.1 3 3 0 00-2.6-2.4h-.3l.2-.8a5.3 5.3 0 00-4.7-5.8 5.6 5.6 0 00-2.9.5 3.5 3.5 0 00-2-1 4.5 4.5 0 00-1.6.3 4.6 4.6 0 00-3.8-3 4.7 4.7 0 00-5.1 4.2v.6a2 2 0 00-1 1.6 2.7 2.7 0 000 .9 2.4 2.4 0 00-1.6 2 2.7 2.7 0 00.2 1.3 1.2 1.2 0 00-.7 1.1v.2a2.3 2.3 0 00-2.5 2v.2a4.8 4.8 0 00-.3 9.5 5.8 5.8 0 002.3-.3 3.3 3.3 0 002.9 2.2 2.9 2.9 0 001.6-.2 5.3 5.3 0 004 2.6 5 5 0 004.1-1.4 5.8 5.8 0 002.1.7 5.1 5.1 0 004.9-2.3 2.2 2.2 0 003.1.6 3.7 3.7 0 001.8.8 3.4 3.4 0 003.7-3 2.4 2.4 0 00-.2-1.5 4.8 4.8 0 004.6-4.4z"/><path class="prefix__q" d="M127.2 186c1.3.6 2.6 1.1 3.3 2.4s.8 2.6 1.5 3.8a9.4 9.4 0 006 4.6l1.6.5a4.1 4.1 0 011.9 2.5l.3.9a2.7 2.7 0 00.3-1.2 4.8 4.8 0 00-4.3-5.3 5.9 5.9 0 00-1.9.1 3 3 0 00-2.6-2.4h-.3l.2-.8a5.3 5.3 0 00-4.7-5.8 4.5 4.5 0 00-2.3.3z"/><path class="prefix__v" d="M140 203a11.6 11.6 0 00-6.4-.5c-1.7.4-3.3 1.2-5 1.5a14.7 14.7 0 01-4.7.2 35.8 35.8 0 01-4.3-.8l-3-.5c-1.8-.3-3.8-.6-5.1-1.9s.4-6 2.2-8.1a9.1 9.1 0 001.9-2.9 14.5 14.5 0 00.6-3 13.6 13.6 0 011.2-4.9 4.8 4.8 0 00-4.3 4.2v.6a2 2 0 00-1 1.6 2.7 2.7 0 000 .9 2.4 2.4 0 00-1.6 2 2.7 2.7 0 00.2 1.3 1.2 1.2 0 00-.7 1.1v.2a2.3 2.3 0 00-2.5 2v.2a4.8 4.8 0 00-.3 9.5 5.8 5.8 0 002.3-.3 3.3 3.3 0 002.9 2.2 2.9 2.9 0 001.6-.2 5.3 5.3 0 004 2.6 5 5 0 004.1-1.4 5.8 5.8 0 002.1.7 5.1 5.1 0 004.9-2.3 2.2 2.2 0 003.1.6 3.7 3.7 0 001.8.8 3.4 3.4 0 003.7-3 2.4 2.4 0 00-.2-1.5 5.4 5.4 0 002.5-.9z"/><path class="prefix__v" d="M136.2 207.1a14.3 14.3 0 00-5.8-1.1c-1.8.2-3.8 1.8-5.6 1.3s-2.3-1.3-3.6-1a5.1 5.1 0 01-2.4.4 4.1 4.1 0 01-2.1-1 11.7 11.7 0 00-3.2-.9 3.7 3.7 0 01-2-1.5 3.8 3.8 0 00-1-1.2 2.1 2.1 0 00-1.3-.5 2 2 0 01-1.6-1 1.9 1.9 0 010-1.8 4.9 4.9 0 011.4-1.8 4.7 4.7 0 001.7-2.2c.4-1.1.6-2.4 1.1-3.5a23.4 23.4 0 011.5-2.7c.8-1.6 1.6-3.4 1.2-5.2a4.4 4.4 0 00-1.4 2.9v.6a2 2 0 00-1 1.6 2.7 2.7 0 000 .9 2.4 2.4 0 00-1.6 2 2.7 2.7 0 00.2 1.3 1.2 1.2 0 00-.7 1.1v.2a2.3 2.3 0 00-2.5 2v.2a4.8 4.8 0 00-.3 9.5 5.8 5.8 0 002.3-.3 3.3 3.3 0 002.9 2.2 2.9 2.9 0 001.6-.2 5.3 5.3 0 004 2.6 5 5 0 004.1-1.4 5.8 5.8 0 002.1.7 5.1 5.1 0 004.9-2.3 2.2 2.2 0 003.1.6 3.7 3.7 0 001.8.8 3.3 3.3 0 002.8-1.1z"/><path d="M289.5 265.8c0 3.3-31.9 6-71.2 6s-71.3-2.7-71.3-6 31.9-5.9 71.3-5.9 71.2 2.6 71.2 5.9z" style="mix-blend-mode:multiply" fill="#b7b8b8"/><path fill="#ce4a0f" d="M196.3 157.1h-13.8v23.4l13.8-8.6v-14.8z"/><path class="prefix__y" d="M189.9 157.1v18.8l6.4-4v-14.8h-6.4z"/><path fill="#dcdddd" d="M269.1 265.1H168.2v-71.4l50.4-34.2 50.5 34.2v71.4z"/><path fill="#efefef" d="M267.7 265.1h-98.2v-66.4l49.1-31.8 49.1 31.8v66.4z"/><path fill="#ea5514" d="M218.6 151.8l-61.9 42v7.8l61.9-42.1 62 42.1v-7.8l-62-42z"/><path class="prefix__y" d="M218.6 155.7l-61.9 42v3.9l61.9-42.1 62 42.1v-3.9l-62-42z"/><path class="prefix__ac" d="M203.2 211.3h30.9v53.8h-30.9z"/><path fill="#2e1000" d="M204.7 213.2h27.9v51.91h-27.9z"/><path class="prefix__j" d="M205.7 214.5h25.9v50.65h-25.9z"/><path fill="none" stroke="#592d00" stroke-miterlimit="10" stroke-width="1.48" d="M208.7 220.4h19.8v38.78h-19.8z"/><path fill="#ee7300" d="M227.5 240.1h2v5.3h-2z"/><path class="prefix__ag" d="M230.8 240.1a2.3 2.3 0 01-2.3 2.3 2.3 2.3 0 01-2.3-2.3 2.3 2.3 0 012.3-2.3 2.4 2.4 0 012.3 2.3z"/><path class="prefix__i" d="M226.7 240.5a2.3 2.3 0 012.2-2.3c1.3 0-2.2 3.6-2.2 2.3z"/><path class="prefix__ac" d="M176.2 215.7h20.9v36.33h-20.9z"/><path class="prefix__j" d="M177.5 217.6h18.2v32.6h-18.2z"/><path class="prefix__ah" d="M179.2 220.7H194v26.41h-14.8z"/><path class="prefix__ai" d="M180.3 221.7H193v24.44h-12.7z"/><path class="prefix__i" d="M193 221.7h-12.7v24.4l12.7-24.4z"/><path class="prefix__ah" d="M179.6 230.6h14v2.97h-14z"/><path class="prefix__j" d="M178.2 231.7h16.6v2.97h-16.6z"/><path class="prefix__ac" d="M242 215.7h20.9v36.33H242z"/><path class="prefix__j" d="M243.4 217.6h18.2v32.6h-18.2z"/><path class="prefix__ah" d="M245.1 220.7h14.8v26.41h-14.8z"/><path class="prefix__ai" d="M246.1 221.7h12.7v24.44h-12.7z"/><path class="prefix__i" d="M258.8 221.7h-12.7v24.4l12.7-24.4z"/><path class="prefix__ah" d="M245.4 230.6h14v2.97h-14z"/><path class="prefix__j" d="M244.1 231.7h16.6v2.97h-16.6z"/><path class="prefix__ag" d="M219.2 200.1a3.84 3.84 0 11-1.1 7.6 3.9 3.9 0 01-3.3-4.4 3.8 3.8 0 014.4-3.2z"/><path class="prefix__i" d="M218.8 207.1a3.9 3.9 0 01-3.2-4.4c.3-2.1 5.4 4.7 3.2 4.4z"/><path d="M224.7 204.6a6.1 6.1 0 00-12.1 0z" fill="#9fa0a0"/><path d="M220.3 199.7l.6-.2a5.9 5.9 0 00-2.3-.5 6.2 6.2 0 00-6 5.6h3.1c-.9-2.8 1.1-4.8 4.6-4.9z" fill="#898989"/><path class="prefix__al" d="M301.5 269.1h15.1l3.3 2.9h-21.6l3.2-2.9z"/><path class="prefix__am" d="M280.1 225h58.5v37.9h-58.5z"/><path class="prefix__al" d="M284.4 229h49.8v29.9h-49.8z"/><path class="prefix__am" d="M284.4 243h49.8v2h-49.8z"/><path class="prefix__am" d="M294.8 229h2v29.9h-2zM308.3 229h2v29.9h-2zM321.7 229h2v29.9h-2z"/><path class="prefix__q" d="M280.8 226.2v35.6h57l-57-35.6z"/><path class="prefix__an" d="M305.2 262.9h8.2v8h-8.2z"/><path class="prefix__ao" d="M298.3 272h21.6v1.37h-21.6z"/><path class="prefix__al" d="M100.6 269.1h15.2l3.3 2.9H97.5l3.1-2.9z"/><path class="prefix__am" d="M79.2 225h58.5v37.9H79.2z"/><path class="prefix__al" d="M83.5 229h49.8v29.9H83.5z"/><path class="prefix__am" d="M83.5 243h49.8v2H83.5z"/><path class="prefix__am" d="M94 229h2v29.9h-2zM107.4 229h2v29.9h-2zM120.9 229h2v29.9h-2z"/><path class="prefix__q" d="M79.9 226.2v35.6h57l-57-35.6z"/><path class="prefix__an" d="M104.3 262.9h8.2v8h-8.2z"/><path class="prefix__ao" d="M97.5 272h21.6v1.37H97.5z"/></g></svg>