<svg xmlns="http://www.w3.org/2000/svg" viewBox="0 0 500 500"><path fill="#ebebeb" d="M0 382.4h500v.25H0zm416.78 16.09h33.12v.25h-33.12zm-94.25 2.72h8.69v.25h-8.69zm74.06-12h19.19v.25h-19.19zm-344.13 1.68h43.19v.25H52.46zm52.1 0h6.33v.25h-6.33zm26.91 4.22h93.68v.25h-93.68zM237 337.8H43.91a5.71 5.71 0 01-5.7-5.71V60.66a5.71 5.71 0 015.7-5.66H237a5.71 5.71 0 015.71 5.71v271.38a5.71 5.71 0 01-5.71 5.71zM43.91 55.2a5.46 5.46 0 00-5.45 5.46v271.43a5.46 5.46 0 005.45 5.46H237a5.47 5.47 0 005.46-5.46V60.66A5.47 5.47 0 00237 55.2zm409.4 282.6h-193.1a5.72 5.72 0 01-5.71-5.71V60.66a5.72 5.72 0 015.71-5.66h193.1a5.71 5.71 0 015.69 5.66v271.43a5.71 5.71 0 01-5.69 5.71zM260.21 55.2a5.47 5.47 0 00-5.46 5.46v271.43a5.47 5.47 0 005.46 5.46h193.1a5.47 5.47 0 005.46-5.46V60.66a5.47 5.47 0 00-5.46-5.46z"/><path fill="#f5f5f5" d="M306.575 86.04l31.683-4.837 36.811 241.126-31.683 4.837z"/><path fill="#ebebeb" d="M307.446 91.767l9.036-1.38.382 2.502-9.036 1.38zm1.11 7.24l9.036-1.38.381 2.501-9.035 1.38zm1.102 7.251l9.035-1.38.384 2.511-9.036 1.38zm1.112 7.249l9.035-1.38.381 2.502-9.035 1.38zm1.11 7.25l9.036-1.38.382 2.501-9.035 1.38zm1.102 7.249l9.035-1.38.384 2.512-9.036 1.379zm1.102 7.251l9.035-1.38.382 2.502-9.035 1.379zm1.111 7.249l9.035-1.379.382 2.501-9.035 1.38zm1.11 7.24l9.035-1.38.384 2.511-9.036 1.38zm1.113 7.259l9.035-1.38.382 2.502-9.035 1.38zm1.092 7.251l9.035-1.38.382 2.502-9.036 1.38zm1.11 7.24l9.035-1.38.383 2.511-9.035 1.38zm1.112 7.259l9.036-1.38.382 2.502-9.036 1.38zm1.1 7.241l9.036-1.38.382 2.502-9.036 1.38zm1.112 7.25l9.035-1.38.383 2.511-9.035 1.38zm1.103 7.259l9.035-1.38.382 2.502-9.035 1.379zm1.11 7.24l9.035-1.38.382 2.501-9.035 1.38zm1.101 7.25l9.036-1.379.383 2.511-9.035 1.38zm1.112 7.25l9.035-1.38.382 2.502-9.036 1.379zm1.38 7.883l9.048-1.371.38 2.504-9.05 1.372zm.843 6.616l9.035-1.38.383 2.511-9.035 1.38zm1.091 7.251l9.035-1.38.382 2.501-9.035 1.38zm1.136 7.205l9.035-1.38.382 2.5-9.035 1.381zm1.085 7.294l9.036-1.38.383 2.511-9.035 1.38z"/><path fill="#f0f0f0" d="M371.69 119.89h12.27v162.39h-12.27z"/><path fill="#f5f5f5" d="M382.96 101.49h-10.27l-1 18.4h12.27l-1-18.4z"/><path fill="#e6e6e6" d="M435.85 136.915l10.703 1.367-20.806 162.866-10.703-1.367z"/><path d="M452 125l-3.16-3.7.68-21.93-6.73-.83-8.49 38 .57 8.19 10.7 1.36 1.52-4.3-2.32 28.85 1.37.18C450.53 153.09 452 125 452 125z" fill="#ebebeb"/><path fill="#e0e0e0" d="M428.17 176.17l-33.55 1.77 1.24-33.71 27.55-1.45 4.76 33.39z"/><path fill="#ebebeb" d="M428.17 176.17l-33.55 1.77 7.79 91.11 27.56-1.45-1.8-91.43z"/><path fill="#e6e6e6" d="M440.84 222.52H316.39l10 158.8h104.45l10-158.8z"/><path fill="#e0e0e0" d="M314.61 216.52h128.01v16.19H314.61z"/><path fill="#f0f0f0" d="M50.79 69.8h230.52v177.35H50.79z"/><path fill="#fafafa" d="M77.362 94.408l50.096-4.057 4.057 50.096-50.096 4.057zm94.595 1.456l50.21 2.236-2.235 50.21-50.21-2.236zM117.1 155.015l50.21 2.236-2.236 50.21-50.21-2.236z"/><path d="M106.28 95a1.86 1.86 0 11-1.85-1.86 1.85 1.85 0 011.85 1.86zm92.53 4.55A1.86 1.86 0 11197 97.7a1.85 1.85 0 011.81 1.85zm-53.49 60.65a1.86 1.86 0 11-1.86-1.85 1.86 1.86 0 011.86 1.85z" fill="#e6e6e6"/><path d="M98.58 110.85a5.18 5.18 0 01-4-1.62 4.45 4.45 0 01-.38-.48 2.29 2.29 0 00-.52-.57 2.21 2.21 0 00-1.26.07l-7.2 1.62-.44-2 7.2-1.62a3.79 3.79 0 012.65.13 3.65 3.65 0 011.17 1.14c.09.12.18.24.28.35a3.79 3.79 0 003.5.84 15.1 15.1 0 002.81-.92c.53-.21 1-.42 1.59-.61 3.28-1.12 6.71-1.16 10-1.21l6.89-.09v2l-6.89.09a30.28 30.28 0 00-9.41 1.11c-.51.17-1 .37-1.5.56a17.16 17.16 0 01-3.18 1 7.45 7.45 0 01-1.31.21zM89 120.61l-.1-2 13.78-.65a7.73 7.73 0 002.49-.38 7 7 0 001-.53c.22-.13.44-.26.67-.38a8.81 8.81 0 016.45-.64l-.55 1.92a6.71 6.71 0 00-5 .5c-.2.1-.4.22-.59.33a10.23 10.23 0 01-1.28.66 9.61 9.61 0 01-3.14.52zm103-10.71c-4.21 0-8.41-.35-12.54-.7l.17-2c7.59.64 15.44 1.29 23-.31l.76-.17a16.61 16.61 0 014.14-.57 6.06 6.06 0 014.92 2.38l-1.65 1.12a4.07 4.07 0 00-3.32-1.5 15.75 15.75 0 00-3.65.52l-.78.17A52.56 52.56 0 01192 109.9zm19.51 10.58a29.48 29.48 0 00-15.68-2.86l-.2-2a31.08 31.08 0 0116.76 3.05zm-14.14 4.66a100.89 100.89 0 01-16.46-1.35l.33-2a98.7 98.7 0 0023.1 1.07l.14 2c-2.37.19-4.74.28-7.11.28zM144.8 172.5a33.37 33.37 0 01-11.28-1.5c-.81-.29-1.61-.63-2.38-1a14.53 14.53 0 00-5.46-1.57v-2a16.06 16.06 0 016.23 1.74c.74.32 1.51.65 2.26.92 4.07 1.45 8.54 1.41 12.85 1.36a11.67 11.67 0 003-.29 12.54 12.54 0 001.48-.58c.34-.15.68-.3 1-.43 3.57-1.37 7.59-.81 10.82-.36l-.28 2c-3.15-.44-6.73-.94-9.83.25-.31.11-.61.25-.92.39a14.29 14.29 0 01-1.74.67 13.52 13.52 0 01-3.56.37zm-11.99 8.62h21.76v2h-21.76zm-2.74 14.04l-.06-2c8.41-.26 17-.3 25.37-.13v2c-8.38-.17-16.93-.13-25.31.13z" fill="#f0f0f0"/><path d="M97.77 114.92c10.72-30.14 53.07-38.65 80.2-23.2 26.47 15.08 49.8 43.39 82.93 41.54 32.68-1.82 54.81-31.1 83.7-42.74s65.82-3.93 82.57 24c17.08 28.48 6 66.57-12.45 91.66-26.34 35.84-66.81 59-90.8 96.73a119.76 119.76 0 00-17.66 45.89c-2.55 16-3.89 33.9-16.66 45.54-15 13.66-36.85 11.78-52.18-.21-21.23-16.61-34.42-45.13-41-70.68-7.12-27.38-11.09-56.35-26.14-80.3-12-19-30-33.32-45.59-49.53-16.54-17.19-30.73-41.72-29.32-66.3a44 44 0 012.4-12.4z" fill="#407bff"/><path d="M97.77 114.92c10.72-30.14 53.07-38.65 80.2-23.2 26.47 15.08 49.8 43.39 82.93 41.54 32.68-1.82 54.81-31.1 83.7-42.74s65.82-3.93 82.57 24c17.08 28.48 6 66.57-12.45 91.66-26.34 35.84-66.81 59-90.8 96.73a119.76 119.76 0 00-17.66 45.89c-2.55 16-3.89 33.9-16.66 45.54-15 13.66-36.85 11.78-52.18-.21-21.23-16.61-34.42-45.13-41-70.68-7.12-27.38-11.09-56.35-26.14-80.3-12-19-30-33.32-45.59-49.53-16.54-17.19-30.73-41.72-29.32-66.3a44 44 0 012.4-12.4z" fill="#fff" opacity=".9"/><ellipse cx="250" cy="416.24" rx="193.89" ry="11.32" fill="#f5f5f5"/><path d="M207.85 417.24c-.27 0-27.93-.1-55.49-1.37-56.48-2.61-57.56-7.54-58-9.39a3.46 3.46 0 01.53-2.73c2.45-3.64 12-5.33 23.07-7.28 10.29-1.82 22-3.88 24.18-7.54a2.22 2.22 0 00.21-1.92c-1.24-3.93-12.47-6.65-25.48-9.8-22.07-5.35-49.53-12-57.91-29.84-13.46-28.65.92-76.11 1.54-78.12l1.91.59c-.15.49-14.77 48.74-1.64 76.68 8 17 36.06 23.77 56.57 28.74 14.71 3.57 25.34 6.14 26.92 11.15a4.23 4.23 0 01-.41 3.56c-2.7 4.43-13.79 6.39-25.54 8.46-9.27 1.64-19.79 3.5-21.75 6.44a1.45 1.45 0 00-.25 1.18c.27 1.24 5.12 5.47 56.1 7.82 27.51 1.27 55.13 1.37 55.41 1.37zm-9.1-261.53h6.53v7.52h-6.53z" fill="#263238"/><path fill="#fff" opacity=".2" d="M198.75 155.71h6.53v7.52h-6.53z"/><path d="M188.62 169.57l1.31-4.48a3.83 3.83 0 013.67-2.75H213a3.82 3.82 0 013.35 2l2.87 5.24h-31.45" fill="#263238"/><path d="M188.62 169.57l1.31-4.48a3.83 3.83 0 013.67-2.75H213a3.82 3.82 0 013.35 2l2.87 5.24h-31.45" fill="#fff" opacity=".4"/><path d="M196.08 169.57h23.14l-2.87-5.24a3.82 3.82 0 00-3.35-2h-14.85a2.08 2.08 0 00-2.07 2.08z" fill="#fff" opacity=".2"/><circle cx="202.42" cy="148.13" r="12.08" transform="rotate(-45 202.42 148.135)" fill="#263238"/><circle cx="202.42" cy="148.13" r="12.08" transform="rotate(-45 202.42 148.135)" fill="#fff" opacity=".3"/><path d="M214.49 151a6.61 6.61 0 11-6.6-6.61 6.61 6.61 0 016.6 6.61z" fill="#263238"/><path d="M214.49 151a6.61 6.61 0 11-6.6-6.61 6.61 6.61 0 016.6 6.61z" fill="#fff" opacity=".2"/><path d="M213 151.48a4.34 4.34 0 11-4.33-4.34 4.33 4.33 0 014.33 4.34z" fill="#263238"/><path d="M201.28 143.48a.9.9 0 11-.89-.89.89.89 0 01.89.89z" style="isolation:isolate" opacity=".2"/><path d="M118.72 164.3s-44.28-3.05-47.72 82l-9.41-.58s-2.68-52.61 19.63-78.81a23.1 23.1 0 0118.68-8c7.98.35 18.17 1.57 18.82 5.39z" fill="#263238"/><circle cx="66.23" cy="254.13" r="21.47" transform="rotate(-25.18 66.232 254.155)" fill="#263238"/><circle cx="66.23" cy="254.13" r="21.47" transform="rotate(-25.18 66.232 254.155)" fill="#fff" opacity=".1"/><path d="M55.37 249.75a11.54 11.54 0 1014.77-6.95 11.53 11.53 0 00-14.77 6.95z" fill="#263238"/><circle cx="64.25" cy="253.67" r="7.75" transform="rotate(-25.18 64.266 253.693)" fill="#fff" opacity=".1"/><path d="M257.09 414v3.85a.86.86 0 01-.87.86H147.51a5.66 5.66 0 01-5.26-7.78l34.45-85.32 55.67.38-1.9 11.07-12.28 71.65a3.79 3.79 0 003.73 4.43h34.3a.86.86 0 01.87.86z" fill="#407bff"/><path d="M257.09 414v3.85a.86.86 0 01-.87.86H147.51a5.66 5.66 0 01-5.26-7.78l21.36-52.89 13.09-32.43 55.67.38-1.9 11.07-5.34 31.16-6.94 40.49a3.79 3.79 0 003.73 4.43h34.3a.86.86 0 01.87.86z" fill="#fff" opacity=".6"/><path d="M221.92 413.17h-70.73a2.48 2.48 0 01-2.29-3.43l30.2-72.65h51.37l-12.28 71.65a3.79 3.79 0 003.73 4.43z" style="isolation:isolate" opacity=".2"/><path style="isolation:isolate" opacity=".1" d="M232.37 326.02l-1.9 11.07-5.34 31.16-61.52-10.18 13.09-32.43 55.67.38z"/><path d="M340.62 167H82.89a6.59 6.59 0 00-6.59 6.6v174.45a6.59 6.59 0 006.59 6.59h257.73a6.59 6.59 0 006.6-6.59V173.57a6.59 6.59 0 00-6.6-6.57z" fill="#407bff"/><path d="M340.62 167H82.89a6.59 6.59 0 00-6.59 6.6v174.45a6.59 6.59 0 006.59 6.59h257.73a6.59 6.59 0 006.6-6.59V173.57a6.59 6.59 0 00-6.6-6.57z" fill="#fff" opacity=".7"/><path d="M88.35 354.64h-5.46a6.59 6.59 0 01-6.59-6.59V173.57a6.59 6.59 0 016.59-6.6h5.46a6.59 6.59 0 00-6.59 6.6v174.48a6.59 6.59 0 006.59 6.59z" style="isolation:isolate" opacity=".2"/><path fill="#407bff" d="M87.71 173.43h253.57v168.25H87.71z"/><path d="M314.85 173.43C279.79 208.55 189.74 286.73 87.71 281V173.43zM341.28 238v103.68H188.62c5.85-20.94 17.55-49.62 40.26-70.12 40.84-36.87 88.23-36.76 112.4-33.56z" fill="#fff" opacity=".1"/><rect x="187.57" y="272.18" width="53.85" height="4.9" rx="2.24" fill="#fff" opacity=".8"/><rect x="181.07" y="283.08" width="66.85" height="9.14" rx="1.68" style="isolation:isolate" opacity=".4"/><rect x="240.06" y="284.17" width="6.76" height="6.95" rx=".59" fill="#407bff"/><path d="M243 236.41a28.5 28.5 0 11-28.49-28.49A28.36 28.36 0 01243 236.41z" style="isolation:isolate" opacity=".4"/><path d="M236 255.07a28.48 28.48 0 01-43.08 0 22.41 22.41 0 0115.5-15.52 11 11 0 1112.09 0A22.4 22.4 0 01236 255.07z" fill="#fff" opacity=".8"/><path style="isolation:isolate" opacity=".4" d="M305.83 328.94h5.62v5.62h-5.62z"/><rect x="316.76" y="328.94" width="5.62" height="5.62" rx="1.44" style="isolation:isolate" opacity=".4"/><rect x="327.68" y="328.94" width="5.62" height="5.62" rx="2.57" style="isolation:isolate" opacity=".4"/><path d="M125.29 173.43L87.71 313.85V173.43h37.58zm42.41 0l-45.03 168.25H91.65l45.02-168.25h31.03zm45.1 0l-45.03 168.25h-14.03l45.03-168.25h14.03zm41.53 0L209.3 341.68h-5.02l45.03-168.25h5.02z" opacity=".1" fill="#fff"/><circle cx="103.8" cy="260.8" r="21.47" fill="#263238"/><circle cx="104.57" cy="260.94" r="18.82" transform="rotate(-45 104.573 260.935)" fill="#263238"/><circle cx="104.57" cy="260.94" r="18.82" transform="rotate(-45 104.573 260.935)" fill="#fff" opacity=".2"/><path d="M100.52 161.81s22.8 25.09 5.51 89.67l9 2.65s25.52-60.91 2.42-91.54c.05 0-13.77-6.38-16.93-.78z" fill="#263238"/><path d="M100.52 161.81s22.8 25.09 5.51 89.67l9 2.65s25.52-60.91 2.42-91.54c.05 0-13.77-6.38-16.93-.78z" fill="#fff" opacity=".1"/><circle cx="106.91" cy="261.54" r="11.54" transform="rotate(-76.72 106.904 261.53)" fill="#263238"/><circle cx="106.91" cy="261.54" r="11.54" transform="rotate(-76.72 106.904 261.53)" fill="#fff" opacity=".1"/><circle cx="107.68" cy="261.54" r="9.59" transform="rotate(-22.5 107.665 261.536)" fill="#263238"/><circle cx="107.68" cy="261.54" r="9.59" transform="rotate(-22.5 107.665 261.536)" fill="#fff" opacity=".2"/><g><path fill="#407bff" d="M247.19 230.29l-1.38-8.39-1.38 8.39-8.4 1.39 8.4 1.38 1.38 8.39 1.38-8.39 8.39-1.38-8.39-1.39zm44.34-87.3l-1.64-9.94-1.63 9.94-9.95 1.64 9.95 1.64 1.63 9.94 1.64-9.94 9.95-1.64-9.95-1.64zm39.95 110.16l-.99-6-.99 6-5.99.98 5.99.99.99 5.99.99-5.99 5.99-.99-5.99-.98z"/><path fill="#fff" opacity=".6" d="M247.19 230.29l-1.38-8.39-1.38 8.39-8.4 1.39 8.4 1.38 1.38 8.39 1.38-8.39 8.39-1.38-8.39-1.39z"/><path fill="#407bff" d="M138.27 323.58l-1.38-8.39-1.38 8.39-8.4 1.38 8.4 1.39 1.38 8.39 1.38-8.39 8.39-1.39-8.39-1.38z"/><path fill="#fff" opacity=".6" d="M138.27 323.58l-1.38-8.39-1.38 8.39-8.4 1.38 8.4 1.39 1.38 8.39 1.38-8.39 8.39-1.39-8.39-1.38zm153.26-180.59l-1.64-9.94-1.63 9.94-9.95 1.64 9.95 1.64 1.63 9.94 1.64-9.94 9.95-1.64-9.95-1.64z"/><path fill="#407bff" d="M258.67 373.49l-1.64-9.94-1.64 9.94-9.95 1.64 9.95 1.64 1.64 9.94 1.64-9.94 9.94-1.64-9.94-1.64z"/><path fill="#fff" opacity=".6" d="M258.67 373.49l-1.64-9.94-1.64 9.94-9.95 1.64 9.95 1.64 1.64 9.94 1.64-9.94 9.94-1.64-9.94-1.64zm72.81-120.34l-.99-6-.99 6-5.99.98 5.99.99.99 5.99.99-5.99 5.99-.99-5.99-.98z"/><path fill="#407bff" d="M77.29 155.46l-.99-5.99-.99 5.99-5.99.99 5.99.99.99 5.99.99-5.99 5.99-.99-5.99-.99z"/><path fill="#fff" opacity=".6" d="M77.29 155.46l-.99-5.99-.99 5.99-5.99.99 5.99.99.99 5.99.99-5.99 5.99-.99-5.99-.99z"/></g><g><path d="M448.16 220.68a38.11 38.11 0 00.5 9.9h-1.29a34.71 34.71 0 01-1.78-9.9z" fill="#407bff"/><path d="M450.74 222.87l-6.74-.47s.1 1 .24 2.63c0 .52.09 1.1.14 1.74.58 7.56 1.43 22.65-.77 26.16-3 4.75-16.22-5.73-16.62-11.47 0 0 3.21-12.45 9.22-19.06a18.08 18.08 0 011.8-1.72c.18-.16.36-.3.55-.44l-.3-10 2.18-1a44.33 44.33 0 0111.46 11z" fill="#407bff"/><path d="M443.62 252.93a2.22 2.22 0 01-.83.81c-4.05 2.4-15.42-7-15.79-12.28 0 0 .06-.23.18-.65.83-2.94 4.57-15 10.84-20.13a10.45 10.45 0 012.63.7 8.91 8.91 0 013.6 3.65c.56 6.68 1.75 24.09-.63 27.9z" fill="#fff" opacity=".7"/><path d="M442.79 253.74c-4.05 2.4-15.42-7-15.79-12.28 0 0 .06-.23.18-.65 4.76-2.69 17.53 6.56 15.61 12.93zm1.46-28.74c0 .52.09 1.1.14 1.74l-8.17-4.37a18.08 18.08 0 011.8-1.72c.18-.16.36-.3.55-.44l-.3-10 2.18-1s-.1 4.05 1 4.94 8.41 6.63 9.3 8.71l-6.75-.46s.11.99.25 2.6z" style="isolation:isolate" opacity=".2"/><path fill="#e4897b" d="M354.43 411.29l-8.11.85-.41-4.7-1.11-12.79 8.11-.86 1.23 14.13.29 3.37zm70.48-1.03h-7.86l-.39-1.77-.05-.22-2.44-11.35-.06-.23-.94-4.35h7.87l3.87 17.92z"/><path style="isolation:isolate" opacity=".2" d="M352.91 393.79l1.23 14.13-8.23-.48-1.11-12.79 8.11-.86zm71.77 15.48h-.01l-8.05-1h-.01l-2.38-10.95h.01l7.99.63 2.38 10.97.07.35z"/><path d="M416 409.79h9.55a.69.69 0 01.67.54l1.55 7a1.18 1.18 0 01-1.15 1.4c-3.09-.05-5.34-.24-9.22-.24-2.39 0-9.6.25-12.9.25s-3.73-3.26-2.38-3.56c6.06-1.32 10.62-3.15 12.56-4.89a1.89 1.89 0 011.32-.5zm-70.54-.25H355a.69.69 0 01.67.54l1.55 7a1.18 1.18 0 01-1.15 1.4c-3.09-.05-5.34-.24-9.22-.24-2.39 0-9.6.25-12.9.25s-3.73-3.26-2.38-3.56c6.06-1.32 10.62-3.15 12.56-4.89a1.89 1.89 0 011.33-.5z" fill="#263238"/><path d="M344.06 404.26l11.6.38c-4.22-77.56-6.19-81.52 31.46-118.15.88 11.08 1.87 22.58 2.84 32.16.61 5.93.79 11.1 1.78 14.9 6.69 25.69 22.82 71.15 22.82 71.15l11.32.51s-14.17-62.31-15.63-82.62c-1.91-26.64 4.31-55.48.78-76.33L371.48 253c-35.86 52.45-42.43 63.79-27.42 151.26z" fill="#407bff"/><path d="M344.06 404.26l11.6.38c-4.22-77.56-6.19-81.52 31.46-118.15.88 11.08 1.87 22.58 2.84 32.16.61 5.93.79 11.1 1.78 14.9 6.69 25.69 22.82 71.15 22.82 71.15l11.32.51s-14.17-62.31-15.63-82.62c-1.91-26.64 4.31-55.48.78-76.33L371.48 253c-35.86 52.45-42.43 63.79-27.42 151.26z" fill="#fff" opacity=".3"/><path d="M270.27 181.79c-3.16 4.55-8.17 20.81-8.17 26.13s-.1 3.49 2.9 5.08 12.71 6.92 17.46 10.71 6.06 1.31 7.91 5.19 13.09-28.09 15.51-31.62-.48-1.91-2.85-4-12.85-8.87-18.56-11.43-8.34 1.51-9.93 0-4.27-.06-4.27-.06z" fill="#f0f0f0"/><path d="M322.93 209.75s-8.36 20.16-11.48 20.9c-2.81.66-20.93-27.76-20.93-27.76s-2.37-8.83-2.64-11.4-11.6 3-11.87 4.54 3.32 11.87 7.86 12.66c0 0 15.52 35.08 25.32 37.45s30.26-31.38 30.26-31.38zm54.5-30.62s27.13 2.47 32.35 4.89 27.79 33.42 27.79 33.42 9.4 3.21 9 6.59-.74 9.54-3.43 8.58-9.69-6.76-9.69-6.76l-.29-3s-26.5-28.21-27.57-29-27.7-1.64-27.7-1.64z" fill="#e4897b"/><path d="M356.49 176.38c17-2.95 27.32 0 36.94 2.32l-2.59 16.87-20 3.37z" fill="#263238"/><path d="M324.58 181.87c.31.23.63.45 1 .65a10.94 10.94 0 006.29 1.55 10.19 10.19 0 001.66-.22 9.82 9.82 0 007.93-8.89c.54-5.57-2.45-9.07-7-15.37a10.67 10.67 0 00-18.12 1.07c-4 7.23 2.5 16.86 8.24 21.21z" fill="#e4897b"/><path d="M331.83 184.07a10.19 10.19 0 001.66-.22 9.92 9.92 0 006.84-5.09 11.73 11.73 0 00-2.75-1.17 15.41 15.41 0 00-5.75 6.48z" style="isolation:isolate" opacity=".2"/><path d="M350.33 182c-.76 5.12-8.85 10.06-8.85 10.06s-5.55 2.46-5.75.27c2.31-2.63 2.59-4.93 1.82-7a10 10 0 00-2.22-3.27 19.41 19.41 0 00-1.62-1.52l3.55-14c2.41 5.38 7.57 14.63 13.07 15.46z" fill="#e4897b"/><path d="M316.53 166.87c.39-.09.84.12 1.27 1.06 1.14 2.53 5 5.58 7.94 6.17s8.26 5.32 8.26 5.32 3.52-4.7 8.1-5.85c0 0 2.49-9.87-3.15-17z" fill="#263238"/><path d="M327.15 171.35a5.05 5.05 0 01.18 4.31c-.8 1.52-3 .45-4.32-1.5-1.14-1.74-2.16-4.68-.6-5.46s3.84.68 4.74 2.65z" fill="#e4897b"/><path d="M339.45 159.47s2.34-4.84-5.74-9.29-17.68 2.67-20.55 7.51a7.7 7.7 0 00-4.84 6.53c-.69 5.24 6.53 6.92 6.53 6.92s-2.58-1.61-3.07-3.13c0 0 1 2.42 5.84 1.56A2.43 2.43 0 01316 168s3.64 2.78 8.64-1.45 14.81-7.08 14.81-7.08z" fill="#263238"/><path d="M387.12 286.44C388 297.52 389 309 390 318.62c1.42-13.83 3.16-23.69 3.16-23.69s1.63-1.34 6.11-8.49 0-20.5 0-20.5c.1 12.4-12.15 20.5-12.15 20.5z" style="isolation:isolate" opacity=".2"/><path fill="#407bff" d="M342.76 403.01l.56 3.25h13.63v-3l-14.19-.25zm70.46 1.25l1.3 3h12.42l-.24-3h-13.48z"/><path d="M326 197.35s14.37-21 37.15-21.79c0 0 37.58 31.55 50.64 75.43l-50.37 13.93s-17.06-40.71-37.42-67.57z" fill="#263238"/><path d="M326 197.35c-6.1 10.62-10.89 24.86-10.89 24.86l15.42 10.5 12.16-13.39s.16-10-6.57-16.63-10.12-5.34-10.12-5.34z" fill="#263238"/><path d="M413.75 251l-50.37 13.93A428.58 428.58 0 00341 220.24c0-.56-1.21-23.48-3.08-33.19 0 0 6.6-5.82 13.52-7.15 0 0 16.42 0 32.45 17.37 10.94 13.33 23.4 32.02 29.86 53.73z" fill="#fff" opacity=".8"/><path fill="#fff" opacity=".7" d="M342.76 403.01l.56 3.25h13.63v-3l-14.19-.25zm70.46 1.25l1.3 3h12.42l-.24-3h-13.48z"/></g></svg>