<svg xmlns="http://www.w3.org/2000/svg" viewBox="0 0 750 500"><path d="M98.5 299.07c-6.39-13.13-17.57-19.87-30.17-16.14s-14.55 21.29-5.15 25.73S82 300.14 87 297.48s11.5 1.59 11.5 1.59z" fill="#ffc727"/><path d="M104.68 334c0-1.58-.09-3.17-.15-4.75q-.16-4.74-.34-9.48C104 314 103.36 308.34 101 303a26 26 0 00-10.13-11.68A20.92 20.92 0 0085.5 289a12.4 12.4 0 00-6.22-3.42 25.35 25.35 0 00-8.86-.22.09.09 0 000 .17 21.17 21.17 0 018.38.59 17.82 17.82 0 013.38 1.32 15.7 15.7 0 012 1.24 17.11 17.11 0 00-10.37.95 8.29 8.29 0 00-2.1-.18 12.57 12.57 0 00-2.73.39 20.6 20.6 0 00-5.18 2.27c-.09.05 0 .19.09.14a19.54 19.54 0 015.05-1.91 17.72 17.72 0 012.6-.38A14 14 0 0173 290a16.74 16.74 0 00-8.14 8.12c0 .1.1.18.14.08a15.33 15.33 0 0110.38-8.32c.28-.07.56-.11.85-.16A11 11 0 0076 291c-.08.64-.19 1.27-.32 1.9a32.1 32.1 0 01-1 3.85 30.92 30.92 0 01-1.53 3.72 17.6 17.6 0 01-2.13 3.6c-.08.09.07.2.13.1.76-1.19 1.64-2.28 2.33-3.51a26 26 0 001.73-3.66 24.45 24.45 0 001.12-3.93c.14-.71.25-1.42.33-2.14a4.74 4.74 0 00.08-1.3 17.23 17.23 0 014.48-.1c-.56 3.14-1.16 6.4-2.92 9.12-.06.09.1.18.15.08a36.92 36.92 0 002.16-4.48 16.63 16.63 0 001.08-4.66 20.5 20.5 0 017.4 2.48 24.45 24.45 0 019.85 10.77 40.76 40.76 0 013.65 15.44c.42 6.72.51 13.47 1.18 20.16 0 .44.73.59.82.09a24 24 0 00.09-4.53zM89.92 290.28a7.46 7.46 0 00-1.46-1.34c-.52-.43-1.06-.85-1.62-1.23a11.89 11.89 0 00-3.63-1.71c-.1 0-.14.14 0 .16a9.45 9.45 0 013.54 1.84c.54.39 1 .81 1.55 1.25a8.7 8.7 0 001.47 1.24.12.12 0 00.15-.21z" fill="#263238"/><path d="M69.53 295a37.93 37.93 0 00-2.93 3.88 22.73 22.73 0 00-2.18 4.32c0 .05 0 .07.07 0a51.07 51.07 0 015.16-8.11c.07-.01-.06-.09-.12-.09zM83.27 293.74a9.48 9.48 0 01-.72 2.38 15.72 15.72 0 01-1.22 2.1s0 .09.08.06a8.5 8.5 0 002-4.5c.04-.1-.12-.14-.14-.04z" fill="#263238"/><path d="M103.79 299.4s9-11.37 26.51-7.34c16.59 3.83 24.25 34.26 7.48 37.9s-13.81-24.52-19.92-29.3c-4.49-3.5-10.94-2.75-14.07-1.26z" fill="#ffc727"/><path d="M143.78 308.68a33 33 0 00-3.6-2.76 15.25 15.25 0 00-3.83-1.91 23 23 0 00-2.28-2.93 22.51 22.51 0 00-5.27-4.2h.52a25.63 25.63 0 012.77 0 15.43 15.43 0 015.39 1.34c.1 0 .17-.11.07-.15a24.71 24.71 0 00-5.38-1.62 15.57 15.57 0 00-2.73-.24c-.49 0-1 0-1.46.09h-.28a23.6 23.6 0 00-5-1.85l.49-.13a25 25 0 012.59-.43 20.73 20.73 0 015.22.11c.11 0 .14-.15 0-.16a33.27 33.27 0 00-5.28-.21 21.22 21.22 0 00-4.39.57 24.19 24.19 0 00-3.18-.37c-6.09-.25-12.73 2-16.48 7s-4.48 11.69-5.14 17.74a134.46 134.46 0 00-.67 25.37c0 .5.74.41.76-.06.23-7.18.48-14.35 1.17-21.5.31-3.32.67-6.64 1.22-9.92a29.36 29.36 0 012.4-8.16 14.86 14.86 0 015.9-6.34 20 20 0 018.34-2.57 22.49 22.49 0 017.84.74 5 5 0 000 1.54 9.5 9.5 0 00.38 1.91 10.51 10.51 0 00.73 1.69c.33.6.73 1.14 1.1 1.71 0 .09.2 0 .13-.1a7.87 7.87 0 01-1.35-3.44 13.11 13.11 0 01-.21-1.78v-1.35a23.14 23.14 0 017.63 4c.42.34.83.7 1.23 1.07a8.16 8.16 0 00-1.48 1.81A17.5 17.5 0 00130 306a23.58 23.58 0 00-1.62 6.07.09.09 0 00.17 0 17.62 17.62 0 012-5.75 24.53 24.53 0 011.55-2.56c.3-.42.6-.84.92-1.24.17-.21.36-.43.52-.67a24.21 24.21 0 014.95 7 11.84 11.84 0 00-2.05 2.94 26.48 26.48 0 00-1.63 3.5 58 58 0 00-2.09 7.11.09.09 0 00.17 0 30.29 30.29 0 012.47-7 65.55 65.55 0 011.66-3.23 31.93 31.93 0 001.64-3.05 22.43 22.43 0 012 8.08c0 .11.17.1.17 0a28.23 28.23 0 00-3.92-12.41c1.06.45 2.13.89 3.16 1.44a18.1 18.1 0 013.63 2.55c.05.1.16-.03.08-.1z" fill="#263238"/><path d="M131 309.32c-.53 1.73-1.19 3.4-1.66 5.14a19.85 19.85 0 00-.77 5.13h.08a50 50 0 012.5-10.23c.03-.1-.15-.15-.15-.04zM142 305.05a9.74 9.74 0 00-2.32-1.66 16.92 16.92 0 00-2.67-.94c-.1 0-.14.14 0 .16a10.48 10.48 0 012.57 1.06 18.74 18.74 0 012.38 1.46c.04.04.13-.04.04-.08z" fill="#263238"/><path d="M112.39 284.21s1.67-20.42 16.85-27c12.68-5.53 19.94 8.72 11 17.44-7.24 7.02-18.9 3.83-27.85 9.56z" fill="#ffc727"/><path d="M137.41 261.12a64.06 64.06 0 00-6.75 3.2 49.72 49.72 0 00-5.25 3.48c.25-.51.47-1.06.73-1.56a26.13 26.13 0 011.29-2.31 21.39 21.39 0 013.34-4.23c.08-.08 0-.19-.12-.12a34.31 34.31 0 00-3.52 4.1 22.87 22.87 0 00-1.44 2.31 8.91 8.91 0 00-1 2.35c-.06.05-.12.08-.17.13a50.1 50.1 0 00-7.25 7.09c0-.2.08-.4.13-.58.29-1 .6-2 .92-3a25.18 25.18 0 012.75-6c.06-.09-.09-.17-.15-.08a47.4 47.4 0 00-3.18 5.81 23 23 0 00-1 3 13.67 13.67 0 00-.49 2.05c-.66.84-1.31 1.69-1.93 2.56-6.51 9.28-9.79 20.5-10.57 31.73a96.64 96.64 0 00-.17 10.07 62 62 0 00.89 10.09c0 .21.37.15.37-.06-.08-2.95-.38-5.89-.44-8.84s0-5.92.28-8.87a82.35 82.35 0 013.32-17.38 62.18 62.18 0 017.72-16.33c.64-.13 1.27-.3 1.9-.47s1.52-.39 2.27-.6a21.87 21.87 0 004.23-1.55.08.08 0 10-.08-.14 13.89 13.89 0 01-4.3 1.48c-1.18.24-2.42.39-3.61.66 1.1-1.6 2.27-3.15 3.53-4.64a26.42 26.42 0 008.64-.64 35.91 35.91 0 004.42-1.38c1.52-.58 3-1.34 4.46-2 .12-.05 0-.22-.06-.16a25.3 25.3 0 01-8.76 2.87 55 55 0 01-8.19.68c1.08-1.24 2.19-2.45 3.38-3.58 4-3.8 8.72-7.29 14-9.11.01.1-.04-.07-.14-.03z" fill="#263238"/><path d="M125.05 261.19a22.92 22.92 0 00-1.86 2.72 15.23 15.23 0 00-1.34 3.17h.06c.51-1 .94-2 1.45-3a15.62 15.62 0 011.81-2.76c.07-.1-.05-.22-.12-.13zM139.17 268a15.72 15.72 0 01-3.11 1.3 31.51 31.51 0 01-3.17.85v.09a15.87 15.87 0 003.28-.72 28.35 28.35 0 003.08-1.38c.1-.06.01-.21-.08-.14z" fill="#263238"/><path d="M100.58 280.54c-.09.88-2.29-7.42-15.13-14.78-11.66-6.69-25.58-24.1-14.15-35.09 9.23-8.87 33.54 10.47 29.28 49.87z" fill="#ffc727"/><path d="M109.42 328.11a227.79 227.79 0 00-2-25.82 116 116 0 00-5.42-23.1c-1-2.7-2-5.36-3.23-8a19.46 19.46 0 000-3.06c-.07-1.31-.19-2.61-.31-3.91s-.25-2.61-.4-3.91-.44-2.6-.49-3.9c0-.11-.19-.09-.16 0a28.52 28.52 0 01.46 4.13c.1 1.26.17 2.52.21 3.79s0 2.52 0 3.79v1.42c-1.21-2.55-2.5-5.06-3.9-7.51.87-5.32-.26-10.88-1.35-16.09 0-.1-.18-.05-.16.05a45.63 45.63 0 01.85 8.25c0 2.19-.06 4.37-.06 6.56-.31-.53-.62-1.05-.94-1.57q-2.49-4.08-5.33-8a12.36 12.36 0 00-.12-3.79 30.6 30.6 0 00-.93-4.14 42.34 42.34 0 00-1.42-4c-.56-1.35-1.3-2.63-1.84-4 0-.11-.21 0-.15.07a19.27 19.27 0 011.61 4 37.19 37.19 0 011.05 4c.27 1.36.49 2.71.68 4.08.13.9.21 1.84.36 2.75a97.55 97.55 0 00-9-10.46c-.07-.08-.18 0-.11.12a118.69 118.69 0 0113 17.75c.14.24.28.48.41.72-.7-.44-1.51-.8-2.18-1.17-1.24-.69-2.49-1.37-3.74-2l-3.64-2c-.62-.35-1.24-.71-1.87-1a15 15 0 01-2.22-1.16c-.09-.07-.2.08-.1.14 1.24.68 2.33 1.69 3.53 2.45s2.42 1.5 3.66 2.19c2.28 1.28 4.76 2.19 7 3.51 1.56 2.73 3 5.53 4.32 8.38-1.36-.88-2.76-1.7-4.17-2.5-.91-.51-1.82-1-2.74-1.49A13.34 13.34 0 0186 262.1c-.08-.07-.19 0-.12.12a24.15 24.15 0 004.94 3.44c1.65 1 3.31 1.89 5 2.73q2.06 4.51 3.71 9.19c5.41 15.3 7.39 31.54 8.34 47.68.29 4.81.43 9.61.49 14.43s-.19 9.62-.18 14.42c0 .15.23.18.25 0 .58-4.26.68-8.6.87-12.9s.22-8.73.12-13.1z" fill="#263238"/><path d="M86.09 258.84a63.79 63.79 0 01-6.82-3.53 73 73 0 01-6.48-4.11s-.07 0 0 .06a55.88 55.88 0 006.21 4.35 61.4 61.4 0 007 3.39c.11 0 .19-.12.09-.16zM89.81 241.54c-.19-.75-.42-1.48-.67-2.21a.08.08 0 000-.08c-.16-.42-.33-.83-.5-1.24l-.06-.15c0-.08-.07-.15-.1-.23s-.05 0 0 0 .08.28.13.43a2 2 0 00.06.23 60.25 60.25 0 011.9 8.71c0 .09.15.09.15 0a29 29 0 00-.91-5.46z" fill="#263238"/><path fill="#37474f" d="M122.99 331.21l-.92 10.86-2.8 33.12H89.22l-2.8-33.12-.92-10.86h37.49z"/><path fill="#263238" d="M122.99 331.21l-.92 10.86H86.42l-.92-10.86h37.49z"/><path fill="#37474f" d="M82.56 326.86h43.38v10.42H82.56z"/><g><path fill="#263238" d="M50.72 375.19l81.07-.24 81.07-.09 162.14-.17 162.14.17 81.07.09 81.07.24-81.07.25-81.07.08-162.14.17-162.14-.17-81.07-.09-81.07-.24z"/></g><g><path fill="#ebebeb" d="M138.36 84.08h471.59v315.46H138.36z"/><path fill="#263238" d="M141.79 87.93h464.73v307.76H141.79z"/><path fill="#dbdbdb" d="M76.94 423.19h594.43v21.65H76.94z"/><path fill="#ebebeb" d="M76.94 423.19l61.43-23.65h471.58l61.43 23.65H76.94z"/><path fill="#263238" d="M143.85 414.8l39.64-15.26h381.34l39.64 15.26H143.85z"/><path fill="#fff" d="M168.06 111.31h412.21v261H168.06z"/><path fill="#455a64" d="M167.71 111.31h412.56v10.04H167.71z"/><path d="M175.69 116.33a2.49 2.49 0 11-2.49-2.49 2.49 2.49 0 012.49 2.49z" fill="#c7c7c7"/><path d="M185.86 116.33a2.49 2.49 0 11-2.49-2.49 2.48 2.48 0 012.49 2.49z" fill="#fff"/><path d="M196 116.33a2.49 2.49 0 11-2.49-2.49 2.48 2.48 0 012.49 2.49z" fill="#ffc727"/><path fill="#dbdbdb" d="M572.95 121.35h7.32V372.3h-7.32z"/><path d="M576.6 208.35a1.89 1.89 0 01-1.89-1.89v-81.75a1.89 1.89 0 011.89-1.89 1.89 1.89 0 011.89 1.89v81.75a1.89 1.89 0 01-1.89 1.89z" fill="#a6a6a6"/></g><g><path fill="#fff" d="M227.42 186.44h295.16v44.74H227.42z"/><path d="M523.08 231.67H226.92v-45.73h296.16zm-295.16-1h294.16v-43.73H227.92z" fill="#dbdbdb"/><path d="M253.48 198.56a24.25 24.25 0 011.17 5.12 40.57 40.57 0 010 10.25 24.42 24.42 0 01-1.18 5.12 23.81 23.81 0 01-1.18-5.12 41.2 41.2 0 010-10.25 24.92 24.92 0 011.19-5.12z" fill="#37474f"/><path d="M263.72 208.8a23.54 23.54 0 01-5.12 1.2 40 40 0 01-5.12.32 38.15 38.15 0 01-5.12-.32 23.76 23.76 0 01-5.13-1.18 25 25 0 015.13-1.18 39.88 39.88 0 015.12-.32 41.91 41.91 0 015.12.33 24.11 24.11 0 015.12 1.15z" fill="#37474f"/><path d="M260.72 201.56a24.43 24.43 0 01-2.79 4.45 39 39 0 01-3.39 3.85 40.16 40.16 0 01-3.85 3.4 24.51 24.51 0 01-4.46 2.79 24.51 24.51 0 012.79-4.46 40.16 40.16 0 013.4-3.85 41.47 41.47 0 013.85-3.39 24.77 24.77 0 014.45-2.79z" fill="#37474f"/><path d="M260.72 216.05a24.77 24.77 0 01-4.45-2.79 40.16 40.16 0 01-3.85-3.4A38.87 38.87 0 01249 206a24.51 24.51 0 01-2.79-4.46 24 24 0 014.46 2.79 40.07 40.07 0 017.24 7.25 24.43 24.43 0 012.81 4.47zM293.42 198.56a24.25 24.25 0 011.17 5.12 42 42 0 01.33 5.12 40.15 40.15 0 01-.32 5.13 25.07 25.07 0 01-1.18 5.12 23.81 23.81 0 01-1.18-5.12 38.41 38.41 0 01-.32-5.13 40.11 40.11 0 01.32-5.12 24.28 24.28 0 011.18-5.12z" fill="#37474f"/><path d="M303.66 208.8a23.68 23.68 0 01-5.12 1.18 40.11 40.11 0 01-5.12.32 38.41 38.41 0 01-5.13-.32 23.81 23.81 0 01-5.12-1.18 25.07 25.07 0 015.12-1.18 40.15 40.15 0 015.13-.32 42 42 0 015.12.33 24.25 24.25 0 015.12 1.17z" fill="#37474f"/><path d="M300.66 201.56a24.43 24.43 0 01-2.79 4.45 39 39 0 01-3.39 3.85 40.16 40.16 0 01-3.85 3.4 24.51 24.51 0 01-4.46 2.79 24.51 24.51 0 012.79-4.46 40.16 40.16 0 013.4-3.85 39 39 0 013.85-3.39 24.43 24.43 0 014.45-2.79z" fill="#37474f"/><path d="M300.66 216.05a24.43 24.43 0 01-4.45-2.79 37.87 37.87 0 01-3.85-3.4A38.87 38.87 0 01289 206a24.51 24.51 0 01-2.79-4.46 24 24 0 014.46 2.79 40.07 40.07 0 017.24 7.25 24.43 24.43 0 012.75 4.47zM333.35 198.56a23.68 23.68 0 011.18 5.12 40.11 40.11 0 01.32 5.12 38.41 38.41 0 01-.32 5.13 23.81 23.81 0 01-1.18 5.12 24.39 24.39 0 01-1.17-5.12 40.16 40.16 0 01-.33-5.13 42 42 0 01.33-5.12 24.25 24.25 0 011.17-5.12z" fill="#37474f"/><path d="M343.6 208.8a23.81 23.81 0 01-5.12 1.18 40.15 40.15 0 01-5.13.32 38.36 38.36 0 01-5.12-.32 23.68 23.68 0 01-5.12-1.18 24.92 24.92 0 015.12-1.18 40.11 40.11 0 015.12-.32 42.07 42.07 0 015.13.33 24.39 24.39 0 015.12 1.17z" fill="#37474f"/><path d="M340.6 201.56a24.43 24.43 0 01-2.79 4.45 39 39 0 01-3.39 3.85 40.16 40.16 0 01-3.85 3.4 24.51 24.51 0 01-4.46 2.79 24 24 0 012.79-4.46 41.47 41.47 0 013.39-3.85 40.34 40.34 0 013.86-3.39 24.43 24.43 0 014.45-2.79z" fill="#37474f"/><path d="M340.6 216.05a24.43 24.43 0 01-4.45-2.79 39.1 39.1 0 01-3.86-3.4 40.1 40.1 0 01-3.39-3.86 24 24 0 01-2.79-4.46 24 24 0 014.46 2.79 40.07 40.07 0 017.24 7.25 24.43 24.43 0 012.79 4.47zM373.29 198.56a24.28 24.28 0 011.18 5.12 41.2 41.2 0 010 10.25 23.81 23.81 0 01-1.18 5.12 24.42 24.42 0 01-1.18-5.12 40.15 40.15 0 01-.32-5.13 42 42 0 01.33-5.12 24.25 24.25 0 011.17-5.12z" fill="#37474f"/><path d="M383.54 208.8a23.81 23.81 0 01-5.12 1.18 40.15 40.15 0 01-5.13.32 38.36 38.36 0 01-5.12-.32 23.68 23.68 0 01-5.12-1.18 24.92 24.92 0 015.12-1.18 40.11 40.11 0 015.12-.32 42.07 42.07 0 015.13.33 24.39 24.39 0 015.12 1.17z" fill="#37474f"/><path d="M380.54 201.56a24.43 24.43 0 01-2.79 4.45 39.13 39.13 0 01-3.4 3.85 37.87 37.87 0 01-3.85 3.4 24.43 24.43 0 01-4.45 2.79 23.46 23.46 0 012.79-4.46 40.06 40.06 0 013.39-3.85 41.47 41.47 0 013.85-3.39 24.86 24.86 0 014.46-2.79z" fill="#37474f"/><path d="M380.54 216.05a24.86 24.86 0 01-4.46-2.79 40.16 40.16 0 01-3.85-3.4 38.77 38.77 0 01-3.39-3.84 23.46 23.46 0 01-2.79-4.46 23.89 23.89 0 014.45 2.79 37.78 37.78 0 013.85 3.39 40.44 40.44 0 013.4 3.86 24.43 24.43 0 012.79 4.45zM413.23 198.56a24.92 24.92 0 011.18 5.12 41.2 41.2 0 010 10.25 23.81 23.81 0 01-1.18 5.12 24.42 24.42 0 01-1.18-5.12 40.57 40.57 0 010-10.25 24.25 24.25 0 011.18-5.12z" fill="#37474f"/><path d="M423.48 208.8a23.76 23.76 0 01-5.13 1.18 39.88 39.88 0 01-5.12.32 38.26 38.26 0 01-5.12-.32 23.54 23.54 0 01-5.11-1.18 24.77 24.77 0 015.12-1.18 40 40 0 015.12-.32 41.78 41.78 0 015.12.33 24.34 24.34 0 015.12 1.17z" fill="#37474f"/><path d="M420.48 201.56a23.93 23.93 0 01-2.8 4.45 40.95 40.95 0 01-7.24 7.25 24.43 24.43 0 01-4.45 2.79 23.46 23.46 0 012.79-4.46 40.06 40.06 0 013.39-3.85 41.47 41.47 0 013.85-3.39 24.51 24.51 0 014.46-2.79z" fill="#37474f"/><path d="M420.48 216.05a24.51 24.51 0 01-4.46-2.79 40.16 40.16 0 01-3.85-3.4 38.77 38.77 0 01-3.39-3.84 23.46 23.46 0 01-2.79-4.46 23.89 23.89 0 014.45 2.79 37.78 37.78 0 013.85 3.39 39 39 0 013.39 3.86 23.93 23.93 0 012.8 4.45zM453.17 198.56a24.25 24.25 0 011.17 5.12 40.57 40.57 0 010 10.25 24.42 24.42 0 01-1.18 5.12 23.81 23.81 0 01-1.18-5.12 41.2 41.2 0 010-10.25 24.92 24.92 0 011.19-5.12z" fill="#37474f"/><path d="M463.41 208.8a23.54 23.54 0 01-5.12 1.18 40 40 0 01-5.12.32 38.15 38.15 0 01-5.12-.32 23.76 23.76 0 01-5.13-1.18 25 25 0 015.13-1.18 39.88 39.88 0 015.12-.32 41.91 41.91 0 015.12.33 24.11 24.11 0 015.12 1.17z" fill="#37474f"/><path d="M460.41 201.56a23.38 23.38 0 01-2.79 4.45 37.78 37.78 0 01-3.39 3.85 40.16 40.16 0 01-3.85 3.4 24.77 24.77 0 01-4.45 2.79 23.94 23.94 0 012.78-4.46 40.95 40.95 0 017.25-7.24 24.77 24.77 0 014.45-2.79z" fill="#37474f"/><path d="M460.41 216.05a24.77 24.77 0 01-4.45-2.79 41.86 41.86 0 01-7.25-7.24 23.94 23.94 0 01-2.78-4.46 24.23 24.23 0 014.45 2.79 40.06 40.06 0 013.85 3.39 39 39 0 013.39 3.86 23.38 23.38 0 012.79 4.45z" fill="#37474f"/></g><g><path d="M425.47 199.76v54.46h-15.39v-54.46c0-20.71-15.73-37.55-35.08-37.55s-35.08 16.84-35.08 37.55v54.46h-15.39v-54.46c0-29.66 22.64-53.76 50.47-53.76s50.47 24.1 50.47 53.76z" fill="#455a64"/><path fill="#263238" d="M324.53 213.92l15.39.62v39.68h-15.39v-40.3zM425.47 218.03v36.19h-15.39V217.4l15.39.63z"/><path fill="#ffc727" d="M304.81 223.21H445.2v127.37H304.81z"/><path opacity=".1" d="M375 223.21h70.19v127.37H375z"/><path d="M380.94 291.56l5.87 27.87h-24.94l5.88-27.87a12.47 12.47 0 1113.19 0z" fill="#263238"/></g><g><path d="M334.22 291.51s-7.34 58.76-19.4 72c-14.48 15.86-25 13.54-30.84 21.72-5.84-8.19-16.35-5.86-30.85-21.73-12.06-13.23-19.39-72-19.39-72 31.78-15.42 50.26-32.71 50.26-32.71.55.54 18.93 17.54 50.22 32.72z" fill="#ebebeb"/><path d="M284 258.8v126.42c-5.84-8.19-16.35-5.86-30.85-21.73-12.06-13.23-19.39-72-19.39-72 31.76-15.41 50.24-32.7 50.24-32.7z" fill="#dbdbdb"/><path d="M326.43 296.25s-6.2 49.63-16.39 60.81c-12.25 13.42-21.13 11.45-26.07 18.36-4.94-6.91-13.82-4.94-26.06-18.36-10.19-11.18-16.38-60.81-16.38-60.81 26.85-13 42.44-27.65 42.44-27.65s15.61 14.61 42.46 27.65z" fill="#dbdbdb"/><path d="M241.54 296.25s6.2 49.63 16.39 60.81C270.16 370.47 279 368.51 284 375.4V268.62c-.49.44-16 14.79-42.46 27.63z" fill="#c7c7c7"/><circle cx="283.98" cy="322.01" r="19.68" transform="rotate(-45 283.981 322.011)" fill="#ffc727"/><path fill="#fff" d="M281.74 334.8l-8.77-9.12 3.25-3.13 4.83 5.03 10.42-15.98 3.78 2.46-13.51 20.74z"/></g><g><path d="M216.087 389.951l2.334-11.954 139.643 27.27a4.9 4.9 0 013.87 5.749l-.457 2.336a4.9 4.9 0 01-5.748 3.87l-139.642-27.27z" fill="#ffc727"/><path opacity=".1" d="M216.075 389.949l2.336-11.964 16.861 3.292-2.336 11.964z"/><path d="M165 362.74L160.89 384a27.65 27.65 0 1054.28 10.59l4.14-21.21A27.65 27.65 0 00165 362.74zm45.59 5.31c-1.23 6.31-6.74 10.86-13.55 11.95 5.9 3.59 9.3 9.86 8.06 16.17-1.64 8.44-10.95 13.74-20.78 11.82s-16.44-10.33-14.79-18.76c1.23-6.31 6.74-10.86 13.56-12-5.91-3.57-9.3-9.86-8.07-16.17 1.65-8.45 10.94-13.73 20.76-11.81s16.5 10.36 14.85 18.8z" fill="#ffc727"/><rect x="206.15" y="381.67" width="27.69" height="5.62" rx="2.26" transform="rotate(-78.95 220.011 384.491)" fill="#ffc727"/><rect x="211.66" y="382.75" width="27.69" height="5.62" rx="2.26" transform="rotate(-78.95 225.524 385.567)" fill="#ffc727"/><path fill="#ffc727" d="M324.69 393.62l4.16.81 2.35-12.08 3.56.69-1.23 6.3 4.15.81 1.23-6.3 3.15.61-1.95 9.96 4.16.82 1.95-9.96 4.46.87-2.59 13.3 4.16.81 2.6-13.3 4.22.83-3.32 17-37.16-7.26 3.31-17 5.14 1-2.35 12.09z"/></g><g><path d="M468 331.35l-27.25 22c-5.23 4.18-9.74 7.94-11.89 10.11a4.87 4.87 0 00-1.31 1.68v.06c.19 2.39 32.39 45.16 34 46.27s4.93-3.43 5-6.08-4.93-24.55-4.93-24.55l27-22.26z" fill="#c95f50"/><path d="M446.31 348.86l-5.59 4.51c-5.23 4.18-9.74 7.94-11.89 10.11a9 9 0 00-1.31 1.68v.06c.19 2.39 32.39 45.16 34 46.27s4.93-3.43 5-6.08-4.93-24.55-4.93-24.55l5.74-4.51z" fill="#ebebeb"/><path d="M461.49 411.52c-1.63-1.11-33.82-43.87-34-46.28-.09-.91 5.87-6 13.24-11.86l.24-.19L462 380.55l-.47.34s5 21.88 4.93 24.55-3.35 7.2-4.97 6.08z" fill="#ffc727"/><path d="M462.78 409.79c-5.25-7.34-27.11-36.45-32.86-43.31 0-.06-.08 0 0 0 5 7.39 27.14 36.33 32.79 43.37.08.15.19.15.07-.06zM463.22 383.27c-1.61-3.23-4.65-6.38-8.31-7-.14 0-.17.17-.07.25a49.59 49.59 0 018 7 .23.23 0 00.38-.25zM463.53 386.25c-1.61-3.24-4.66-6.38-8.31-7-.14 0-.17.18-.08.25a49.72 49.72 0 018 7 .23.23 0 00.39-.25zM463.83 389.22c-1.6-3.23-4.65-6.37-8.3-7-.14 0-.18.18-.08.25a50.08 50.08 0 018 7 .22.22 0 00.38-.25z" fill="#263238"/><path d="M482.7 305.13c-1.93 9.53-41.46 47.54-41.46 47.54l27.56 31.81s56.12-56 53.19-77.07c-2.55-18.31-30-91.94-30-91.94h-31.58s24.18 80.29 22.29 89.66z" fill="#37474f"/><path d="M482.7 305.13c-1.93 9.53-41.46 47.54-41.46 47.54l27.56 31.81s56.12-56 53.19-77.07c-2.55-18.31-30-91.94-30-91.94h-31.58s24.18 80.29 22.29 89.66z" fill="#37474f"/><path d="M471.93 376.92c-3.66-4.56-2.54-3.3-6.25-7.82-1.82-2.21-13.77-16.72-15.83-18.49 0 0-.12 0-.09.08 1.38 2.33 13.58 16.63 15.44 18.81 3.8 4.44 2.76 3.13 6.6 7.53.08.08.2-.03.13-.11zM486.63 300.49c-.46-2.38-1-4.75-1.47-7.12q-1.55-7.26-3.27-14.47-3.42-14.31-7.43-28.46c-2.69-9.46-5.54-18.91-8.83-28.19-.4-1.15-.82-2.29-1.24-3.43a.07.07 0 00-.14 0c2.85 9.3 5.78 18.57 8.44 27.91s5.11 18.68 7.43 28.08c1.16 4.72 2.24 9.46 3.3 14.2.52 2.33 1 4.67 1.52 7a50.66 50.66 0 011.33 7.22 11.08 11.08 0 01-1.86 6.5c-1.19 1.94-2.58 3.76-3.93 5.59-2.7 3.66-28.44 32.35-29.27 33.13-.07.06 0 .15.1.09 3.45-3.1 25.29-26.74 28.06-30.4 1.38-1.81 2.71-3.64 4-5.5a21.64 21.64 0 003.14-5.53 13.07 13.07 0 00.12-6.62z" fill="#263238"/><path d="M486.56 215.47l-5.74 75.35c-5.48-25.79-20.41-75.35-20.41-75.35z" fill="#263238"/><path d="M473 370.61s6.83 33.24 6.83 33.27c.09 6.69.29 12.56.67 15.59a4.57 4.57 0 00.52 2.06c2 1.32 55.53 2.15 57.41 1.55s.32-6-1.74-7.68-22.4-11.17-22.4-11.17l-7.16-33.22z" fill="#c95f50"/><path d="M538.48 423.17c-1.87.6-55.4-.23-57.41-1.55a4.76 4.76 0 01-.52-2.06.13.13 0 010-.06c-.39-3-.58-8.88-.68-15.58l-1.18-5.79H513l1.34 6.22s20.35 9.49 22.42 11.18 3.61 7.05 1.72 7.64z" fill="#ebebeb"/><path d="M538.48 423.17c-1.88.6-55.4-.23-57.41-1.55-.78-.49-1.11-8.3-1.24-17.74v-.3l34.53.15v.59s20.34 9.48 22.4 11.17 3.6 7.09 1.72 7.68z" fill="#ffc727"/><path d="M537.91 421.09c-9-.36-45.43-1-54.37-.64-.07 0-.07.05 0 .06 8.93.55 45.34.86 54.37.73.19-.01.19-.14 0-.15zM517.24 404.47c-3.54-.72-7.89-.24-10.65 2.25-.1.09 0 .24.15.21a49.65 49.65 0 0110.48-2 .23.23 0 00.02-.46zM519.77 406.05c-3.53-.72-7.89-.24-10.64 2.25-.1.1 0 .25.15.21a49.68 49.68 0 0110.47-2 .23.23 0 00.02-.46zM522.31 407.64c-3.54-.72-7.89-.24-10.64 2.24-.11.1 0 .25.15.22a50.34 50.34 0 0110.47-2 .22.22 0 00.02-.46z" fill="#263238"/><path d="M489 215.47a129.51 129.51 0 00-2.72 15.78c-.65 6.62-1.48 12.48-2.36 13.21s-6 4-7.68 5c0 0 15.58 47.24 19.6 63 5.83 22.82 19.79 91.31 19.79 91.31h-37.2s-11.31-65.19-16.26-86.93c-4.24-18.63-20.48-74.52-20.48-74.52a32.44 32.44 0 011.31-26.85s46-.02 46 0z" fill="#37474f"/><path d="M514.27 396.57c-5.85 0-4.17-.1-10-.07-2.86 0-21.66.14-24.32.63a.06.06 0 000 .12c2.68.4 21.47-.06 24.33-.13 5.85-.15 4.17-.17 10-.38a.09.09 0 00-.01-.17zM486.53 242.59a71.16 71.16 0 00-10.26 6.87.13.13 0 00.14.21c3.48-2.18 7-4.3 10.39-6.67a.25.25 0 00-.27-.41zM483.69 216.89c0-.13-.26-.12-.24 0a125 125 0 011.31 12.55c.13 1.94.23 12.79-3.22 12.53-.58 0-1-.54-1.17-1.37a13.63 13.63 0 01-.06-3.32c0-2.28 0-4.55-.18-6.83a61.67 61.67 0 00-2.08-12.45.11.11 0 00-.22 0 116.62 116.62 0 011.68 17.48c0 2.83-.73 7.2 2.22 7.17s3.83-7.28 3.89-9.23a64.35 64.35 0 00-1.93-16.53z" fill="#263238"/><path d="M481.67 242.27a18 18 0 00-.4 2.31 5.29 5.29 0 000 1.86.13.13 0 00.24 0 6 6 0 00.5-1.88c.15-.72.31-1.43.44-2.16a.38.38 0 00-.78-.13zM447 242.08a36.64 36.64 0 009.42-1.78 22.27 22.27 0 009.14-5.64 18 18 0 003.51-4.91c0-.07.14 0 .12.06a16.34 16.34 0 01-2.48 4.91 18.81 18.81 0 01-4 3.84 21 21 0 01-10.23 3.95 16.38 16.38 0 01-5.5-.08c-.29-.04-.21-.33.02-.35zM474.08 376.07c-.09-.86-.21-1.72-.33-2.58-.23-1.64-.51-3.29-.77-4.93-.5-3.31-1.07-6.61-1.66-9.9-1.16-6.57-2.51-13.12-3.93-19.64-.81-3.68-1.74-7.32-2.73-11-.06-.26-.42-.13-.38.11.6 3.34 1.18 6.67 1.86 10s1.36 6.61 2 9.92c1.3 6.54 2.51 13.11 3.81 19.65.36 1.85.7 3.7 1.06 5.55.18.92.36 1.85.56 2.76s.48 1.82.63 2.74c0 .09.15.05.14 0-.14-.89-.15-1.75-.26-2.68zM499.74 326.64c-1.24-6.17-2.91-12.26-4.59-18.33-3.38-12.2-7.36-24.23-11.33-36.26q-1.72-5.19-3.44-10.39c-.57-1.73-3.37-11.08-3.72-12a.08.08 0 00-.15 0c.81 3.18 1.91 7.82 2.84 11s1.92 6.21 2.89 9.3c1.9 6.09 3.83 12.18 5.67 18.28 3.65 12.07 7.27 24.14 10.23 36.4.83 3.44 1.66 6.87 2.41 10.32s1.41 6.91 2.13 10.36c0 .1.18.07.17 0-.62-6.26-1.85-12.48-3.11-18.68z" fill="#263238"/><path d="M476.61 358.93c-2.05-11.77-4.5-23.48-7.22-35.12s-5.77-23.32-9.12-34.85-7.06-23-11-34.3a143 143 0 01-5.05-16.31c-1.23-5.5-1.85-11.45-.57-17a27 27 0 011.27-4.13c0-.09-.1-.17-.14-.08-4.47 10.43-1.57 21.83 1.84 32.11 1.86 5.63 3.85 11.22 5.7 16.86s3.69 11.6 5.43 17.44c3.43 11.57 6.62 23.21 9.47 34.93s5.4 23.52 7.64 35.38 4.13 23.85 6.05 35.8c.25 1.56.44 3.12.65 4.68 0 .09.14.09.13 0-1.48-11.85-3.04-23.65-5.08-35.41z" fill="#263238"/><path d="M475.85 166.08c4.38 16 17 35.3 23 38 5.22 2.32 29.44-6.64 38.58-12.46 2.6-1.66-8.15-16.63-11.28-15.59-10.23 3.41-21.36 8.45-22.22 8.16-1.74-.59-12.6-13.91-20.51-22.87-8.87-10.07-9.31-1.61-7.57 4.76zM554.7 178.05c2.06-.86 17.91-1.36 17.91-4.8s-20.18-2.48-20.18-2.48z" fill="#c95f50"/><path d="M524.3 178.45c2.77-3.44 5.21-7.15 7.62-7.83 1.66-.47 19.61.3 22.41.13s12.81.09 13 2.55c.33 3.47-11.51 3.44-12.77 5.22-4.37 6.13-21 15.2-21 15.2z" fill="#c95f50"/><path d="M567.64 173.35a2.75 2.75 0 00-1.15-1.55 8.57 8.57 0 00-4.28-1.05 40.16 40.16 0 00-6.58-.05v.08c1.65 0 3.28 0 4.92.18a19.72 19.72 0 014.45.68 3.62 3.62 0 011.71 1A1.42 1.42 0 01567 174c-.47 1.51-3.46 2-4.84 2.27-1.8.4-3.67.75-5.48 1.12-.08 0 0 .14 0 .12 1.88-.37 3.86-.51 5.75-.85a9.41 9.41 0 004.4-1.6 1.75 1.75 0 00.81-1.71z" fill="#263238"/><path d="M523.61 176.33l14.2 20.79s-22 11-30.42 10.83c-8-.19-10.91-1.37-13.44-3.76-1.57-1.48-10.48-14.07-17.75-35-6.1-17.54 2.93-15 11-5.24 4 4.84 16.84 19.27 17.48 19.22s18.93-6.84 18.93-6.84z" fill="#ffc727"/><path d="M519.24 179.71c2.13 3.08 4.17 6.22 6.18 9.38 1 1.54 4.68 7.84 5.75 9.63 0 .07-.15.19-.2.12-1.11-1.58-5.12-7.87-6.09-9.43-2-3.19-3.89-6.39-5.73-9.64a.05.05 0 01.09-.06z" fill="#263238"/><path d="M511.65 207.42a18.33 18.33 0 01-4.26.53c-8-.19-10.91-1.37-13.44-3.76-1.56-1.48-10.48-14.06-17.74-35a29.54 29.54 0 01-2-9.07v-.57a4.53 4.53 0 010-.53 4.3 4.3 0 01.07-.43 3.09 3.09 0 01.88-1.72c4.97 6.66 28.27 38.13 36.49 50.55z" opacity=".1"/><path fill="#c7c7c7" d="M509.94 167.8h53.84v2.89h-53.84z"/><path fill="#a6a6a6" d="M563.78 167.8v2.89h-32.7l2.21-2.89h30.49z"/><path fill="#c7c7c7" d="M535.67 170.69h36.01l18.74-31.82h-36.01l-18.74 31.82z"/><path d="M561.7 154.76c-.67 1.47-.18 3 1.1 3.46a3.06 3.06 0 003.54-1.87c.67-1.47.18-3-1.1-3.46a3.07 3.07 0 00-3.54 1.87z" fill="#fff"/><path d="M439.53 226.43c.13.14 56.37-.26 56.88-.84.7-.82-12.62-61.62-18.47-69.09-1.25-1.6-5.33-2-8.79-1.54a15.57 15.57 0 00-2.66.57h-.09a6.44 6.44 0 00-1.95 1c-9.55 7.79-17.38 34.75-19.19 42.84-3 13.34-6.2 26.53-5.73 27.06z" fill="#ebebeb"/><path d="M465.8 155.67s3.67 25 4.54 31.52 0 40.75 0 40.75l-35.29 3s7.4-22.76 7.47-24.2c0 0 5.85-27.35 11.89-38.64a34.14 34.14 0 0111.39-12.43zM477.55 156.11s4.77 25.32 5.19 27.41 6.53 43.24 6.53 43.24l8.83.19-4.79-18.8s-10.25-48.15-15.76-52.04z" fill="#ffc727"/><path d="M475.56 164.2c-2.68.31-7.76-3.42-9.18-7.37-.09-.28.71-2.85 1.53-6 .49-1.93 1-4.08 1.31-6.08.06-.41 12.06 5 12.06 5a32.08 32.08 0 00-2.43 7.48 4.86 4.86 0 000 .84v.14c-.04 1.61-.41 5.67-3.29 5.99z" fill="#c95f50"/><path d="M478.81 158.09a.71.71 0 010 .14 9 9 0 01-1.29-.14c-7.35-1.33-7.84-10.88-7.85-13.28 2.18.67 11.62 5 11.62 5a32.24 32.24 0 00-2.43 7.49 5.91 5.91 0 00-.05.79z" fill="#263238"/><path d="M469.36 128.8c-1.93 4.3-1.19 17.5 1.62 20.77 4.08 4.75 11.57 6.1 15.81 1 4.11-4.93 2.85-22.12-.37-25.18-4.74-4.5-14.22-2.93-17.06 3.41z" fill="#c95f50"/><path d="M479.08 138.15s-.07 0-.06.08c.07.89 0 1.91-.78 2.25v.05c.98-.19 1.05-1.53.84-2.38z" fill="#263238"/><path d="M478.24 137.26c-1.43 0-1.4 2.84-.07 2.87s1.27-2.84.07-2.87zM484.56 138.1s.07.05.07.08c0 .89.11 1.92.92 2.2v.05c-.99-.12-1.15-1.43-.99-2.33z" fill="#263238"/><path d="M485.34 137.17c1.43-.13 1.58 2.74.25 2.86s-1.45-2.76-.25-2.86zM477.09 136c.39-.11.73-.27 1.11-.41a1.87 1.87 0 001.05-.63.61.61 0 00-.1-.73 1.52 1.52 0 00-1.53-.14 2.22 2.22 0 00-1.26 1 .65.65 0 00.73.91zM486.44 134.75a11.33 11.33 0 01-1.15-.28 1.94 1.94 0 01-1.11-.51.62.62 0 010-.75 1.53 1.53 0 011.5-.3 2.24 2.24 0 011.36.83.65.65 0 01-.6 1.01zM478.79 146.38c.21.21.43.49.75.52a2.35 2.35 0 001-.24s.05 0 0 .05a1.21 1.21 0 01-1.13.49.94.94 0 01-.71-.77c-.01-.06.05-.08.09-.05z" fill="#263238"/><path d="M479.69 143.71a3 3 0 002 1.32 3.63 3.63 0 001.09 0 .71.71 0 00.21 0h.19a.22.22 0 00.18-.2.28.28 0 000-.09v-.08c0-.69-.07-1.73-.07-1.73.25.12 1.54.68 1.51.32a46 46 0 00-1.28-9.16.08.08 0 00-.16 0c.09 2.85.68 5.67.82 8.54a5.39 5.39 0 00-1.44-.42c-.1 0 .19 2 .16 2.32a4.2 4.2 0 01-3.15-.93c-.04-.02-.11.04-.06.11z" fill="#263238"/><path d="M482.41 144.73a3.67 3.67 0 01-1.42 1.13 1.66 1.66 0 01-1 .07c-.71-.18-.73-.83-.61-1.39a3.86 3.86 0 01.31-.86 4.68 4.68 0 002.72 1.05z" fill="#263238"/><path d="M481 145.86a1.66 1.66 0 01-1 .07c-.71-.18-.73-.83-.61-1.39a1.69 1.69 0 011.61 1.32z" fill="#ff9bbc"/><path d="M468.26 140.21s-3.19-7.92-2.1-12c.49-1.85 3.26-2.7 3.26-2.7a4.32 4.32 0 012-4.06c2.57-1.74 7.89-.39 7.89-.39s4.32-4.48 8.94-1.67.48 7.89.48 7.89 1.4 2.87-3.37 4.16-13.14-2.11-13.14-2.11a31.31 31.31 0 01-1.63 9.12 2.83 2.83 0 01-2.33 1.76z" fill="#263238"/><path d="M480.19 121.25a9 9 0 00-3.38-1.21 9.88 9.88 0 00-3.21 0 5.29 5.29 0 00-4.3 3.31 3.67 3.67 0 00.25 2.85h.05c-.91-1.61 0-3.71 1.42-4.7a8 8 0 015.54-1.08 15.32 15.32 0 013.58 1 .06.06 0 00.05-.17zM491.43 122.33a4.24 4.24 0 00-2.49-3.17 7.23 7.23 0 00-4.71-.6 9.2 9.2 0 00-4.29 2.21s0 .07 0 0a8.09 8.09 0 018.11-1.6 4 4 0 012.11 6.33 8.25 8.25 0 01-3.7 2.67v.05a8.54 8.54 0 003.61-2.18 4.8 4.8 0 001.36-3.71zM486.44 131.83a15.18 15.18 0 01-6.4.07 31.18 31.18 0 01-6.4-2c-1.2-.5-2.38-1.05-3.55-1.62v.05a33.36 33.36 0 006.36 3.16 17 17 0 006.47 1 14.31 14.31 0 003.56-.64s-.01-.03-.04-.02z" fill="#263238"/><path d="M471.28 139.87s-2.48-4.49-4.49-3.64-.45 7.13 1.69 8.2a2.29 2.29 0 003.17-.9z" fill="#c95f50"/><path d="M467.28 138v.06a5.72 5.72 0 012.58 3.89 1.26 1.26 0 00-1.83-.54v.09a1.41 1.41 0 011.49.65 7.86 7.86 0 01.6 1.32c.06.15.32.1.28-.07.25-2-1-4.95-3.12-5.4z" fill="#263238"/><path d="M458.71 161.43C444.55 177.33 433.9 199.72 434 205c.14 5.8 7.52 26.23 14.55 35.83.91 1.23 6.39.71 11-1.84 4.89-2.69 8.9-7.49 7.94-8.92-3.61-5.37-12.16-26.17-12.08-29.42.07-3 7.08-21.42 9.75-32.07 2.61-10.25.14-14.58-6.45-7.15z" fill="#c95f50"/><path d="M440 239.24l26.37-12.88S456 203.22 456 200.72s6.82-22.06 9.39-31.1 1.58-19.2-9.68-5.53-21.1 34-22.22 39.4 6.51 35.75 6.51 35.75z" fill="#ffc727"/><path d="M457.32 194.08q.81-2.57 1.68-5.13c.65-1.91 1.32-3.81 2-5.7s1.45-3.65 2.19-5.47c0-.13.28 0 .24.09-.88 2.43-1.7 4.89-2.52 7.35.62-1.12 1.24-2.23 1.9-3.33a.09.09 0 01.15.08c-.74 1.36-1.52 2.69-2.31 4-.19.59-.39 1.19-.59 1.78-1.11 3.3-2.17 6.62-3.12 10a11.32 11.32 0 00-.47 2.3 6.9 6.9 0 00.39 2.62c.48 1.55 1 3.08 1.56 4.6 1.1 3.07 2.3 6.09 3.55 9.09 1.43 3.42 3.06 6.79 4.68 10.12 0 0-1 .26-1 .28s-.08 0-.06-.05.62-.33.64-.33c-1.65-2.88-3.22-5.71-4.61-8.74s-2.6-6-3.71-9.14c-.57-1.6-1.12-3.2-1.62-4.82a9 9 0 01-.45-4.71c.37-1.66.97-3.28 1.48-4.89zM439.55 231.81a29.16 29.16 0 012.88-1.36c.86-.4 1.71-.81 2.58-1.2 1.88-.85 3.76-1.71 5.65-2.55s3.77-1.69 5.66-2.51 3.75-1.7 5.67-2.41c.07 0 .12.08.06.12-1.75 1.08-3.62 2-5.46 2.89s-3.65 1.75-5.5 2.58-3.79 1.64-5.7 2.41c-.92.37-1.85.71-2.79 1.06a24.46 24.46 0 01-3 1.07.06.06 0 01-.05-.1z" fill="#263238"/></g></svg>