<svg xmlns="http://www.w3.org/2000/svg" xmlns:xlink="http://www.w3.org/1999/xlink" viewBox="0 0 943.1 570.2"><defs><linearGradient id="prefix__a" x1="650.62" y1="494.42" x2="650.62" y2="-4.55" gradientUnits="userSpaceOnUse"><stop offset="0" stop-color="#dbfbe5"/><stop offset=".18" stop-color="#d7f8e4"/><stop offset=".37" stop-color="#cbf0e0"/><stop offset=".55" stop-color="#b7e2da"/><stop offset=".73" stop-color="#9bced1"/><stop offset=".91" stop-color="#77b5c5"/><stop offset="1" stop-color="#63a7bf"/></linearGradient><linearGradient id="prefix__b" x1="375" y1="514.24" x2="375" y2="-37.98" xlink:href="#prefix__a"/><linearGradient id="prefix__e" x1="525.55" y1="481.96" x2="525.55" y2="217.59" gradientTransform="translate(125.1 4.5)" gradientUnits="userSpaceOnUse"><stop offset="0" stop-color="#dbfbe5"/><stop offset=".22" stop-color="#d7f8e4"/><stop offset=".44" stop-color="#cbf0e1"/><stop offset=".67" stop-color="#b7e2dd"/><stop offset=".89" stop-color="#9bcfd7"/><stop offset="1" stop-color="#8ac4d3"/></linearGradient><linearGradient id="prefix__f" x1="726.8" y1="481.96" x2="726.8" y2="217.59" xlink:href="#prefix__e"/><linearGradient id="prefix__g" x1="650.67" y1="486.46" x2="650.67" y2="222.09" xlink:href="#prefix__e"/><linearGradient id="prefix__h" x1="851.92" y1="484.26" x2="851.92" y2="238.86" xlink:href="#prefix__e"/><linearGradient id="prefix__j" x1="223.83" y1="466.35" x2="223.83" y2="201.98" xlink:href="#prefix__e"/><linearGradient id="prefix__k" x1="425.08" y1="466.35" x2="425.08" y2="201.98" xlink:href="#prefix__e"/><linearGradient id="prefix__m" x1="425.08" y1="464.14" x2="425.08" y2="218.74" xlink:href="#prefix__e"/><linearGradient id="prefix__n" x1="395.3" y1="458.45" x2="749.33" y2="449.34" gradientUnits="userSpaceOnUse"><stop offset="0"/><stop offset=".09" stop-color="#292821"/><stop offset=".23" stop-color="#615e4e"/><stop offset=".36" stop-color="#918d74"/><stop offset=".5" stop-color="#b9b394"/><stop offset=".63" stop-color="#d8d1ac"/><stop offset=".76" stop-color="#ede6be"/><stop offset=".89" stop-color="#fbf3c8"/><stop offset="1" stop-color="#fff7cc"/></linearGradient><linearGradient id="prefix__o" x1="532.32" y1="470.92" x2="749.68" y2="465.33" xlink:href="#prefix__n"/><linearGradient id="prefix__p" x1="399.3" y1="366.79" x2="600.49" y2="236.04" xlink:href="#prefix__n"/><linearGradient id="prefix__q" x1="553.74" y1="164.71" x2="750" y2="164.71" xlink:href="#prefix__n"/><linearGradient id="prefix__r" x1="553.64" y1="216.75" x2="750" y2="216.75" xlink:href="#prefix__n"/><linearGradient id="prefix__s" x1="428.35" y1="376.16" x2="428.35" y2="325.69" gradientTransform="translate(113.6)" gradientUnits="userSpaceOnUse"><stop offset="0" stop-color="#616860"/><stop offset="1" stop-color="#7c843c"/></linearGradient><linearGradient id="prefix__t" x1="428.57" y1="376.39" x2="428.57" y2="356.99" xlink:href="#prefix__s"/><linearGradient id="prefix__u" x1="337.83" y1="319.08" x2="341.24" y2="319.08" xlink:href="#prefix__s"/><linearGradient id="prefix__v" x1="250.29" y1="320.84" x2="253.7" y2="320.84" xlink:href="#prefix__s"/><linearGradient id="prefix__w" x1="288.77" y1="293.78" x2="288.77" y2="195.38" xlink:href="#prefix__n"/><linearGradient id="prefix__x" x1="371.62" y1="94.19" x2="367.05" y2="348.28" gradientUnits="userSpaceOnUse"><stop offset="0" stop-color="#fff7cc"/><stop offset=".11" stop-color="#fbf3c8"/><stop offset=".24" stop-color="#ede6be"/><stop offset=".37" stop-color="#d8d1ac"/><stop offset=".5" stop-color="#b9b394"/><stop offset=".64" stop-color="#918d74"/><stop offset=".77" stop-color="#615e4e"/><stop offset=".91" stop-color="#292821"/><stop offset="1"/></linearGradient><clipPath id="prefix__d"><path class="prefix__a" d="M750 29.8L551.2 171.6v232.2L750 481.5z"/></clipPath><clipPath id="prefix__i"><path class="prefix__b" d="M0 171.6h551.2v232.19H0z"/></clipPath><clipPath id="prefix__y"><path class="prefix__b" d="M198.3 375.4h194.9V500H198.3z"/></clipPath><style>.prefix__a{fill:url(#prefix__a)}.prefix__b{fill:none}.prefix__k{fill:url(#prefix__j)}.prefix__n{fill:#fff}.prefix__o{fill:#b6c6dd}.prefix__w{fill:#33435c}.prefix__ab,.prefix__y{fill-rule:evenodd}.prefix__ah,.prefix__y{fill:#00ab9c}.prefix__ab,.prefix__ad{fill:#162844}.prefix__ac{fill:#b2b3b3}.prefix__ae{fill:#274663}.prefix__al{fill:#eba452}.prefix__aq{fill:#e2e7ed}.prefix__ar{fill:#60718f}</style></defs><g style="isolation:isolate"><path fill="url(#prefix__b)" d="M0 0h750v500H0z"/><path class="prefix__a" d="M750 29.8L551.2 171.6v232.2L750 481.5z"/><g clip-path="url(#prefix__d)"><path fill="url(#prefix__e)" d="M747.2 396.5h-14.4v-75.4H718.7v-3.8l-3.6-2.6h-14.2l-3.7 2.6v6.5h-11.8v-2.7h-45.6v2.7h-5.9v-2.7h-27.1V356.4h-15.3V240.3h-40.3v237.6h8.5v1.7h7.5v-1.7h8.3v1.7h7.5v-1.7H750.1v-90.3h-2.9v8.9z"/><path d="M916.2 336.6h-13.8V261h-20.3v-5.3h-18.3v5.3-5.3h-18.3v5.3h-20.4c0 11.3-.1 42.4-.1 53.7 0 .1.1.1.1.2v21.7h-20.3v23.5h-14.3v-5.8h2.8v-13.7h-32.6v13.7h3.6v5.8h-3.6v117.8h182.4V336.6zm-149.5 17.7h21.5v5.8h-21.5z" fill="url(#prefix__f)"/><path fill="url(#prefix__g)" d="M747.2 396.5h-14.4v-75.4H718.7v-3.8l-3.6-2.6h-14.2l-3.7 2.6v6.5h-11.8v-2.7h-45.6v2.7h-5.9v-2.7h-27.1V356.4h-15.3V240.3h-40.3v237.6h8.5v1.7h7.5v-1.7h8.3v1.7h7.5v-1.7H750.1v-90.3h-2.9v8.9z"/><path d="M916.2 336.6h-13.8V261h-20.3v-5.3h-18.3v5.3-5.3h-18.3v5.3h-20.4c0 11.3-.1 42.4-.1 53.7 0 .1.1.1.1.2v21.7h-20.3v23.5h-14.3v-5.8h2.8v-13.7h-32.6v13.7h3.6v5.8h-3.6v117.8h182.4V336.6zm-149.5 17.7h21.5v5.8h-21.5z" fill="url(#prefix__h)"/></g><g clip-path="url(#prefix__i)"><path class="prefix__k" d="M320.3 376.4h-14.4V301h-14v-3.8l-3.7-2.6h-14.1l-3.7 2.6v6.5h-11.9V301h-45.6v2.7h-5.8V301H180V336.3h-15.3V220.2h-40.3V457.8h8.5v1.7h7.5v-1.7h8.3v1.7h7.5v-1.7h167.1v-90.3h-3v8.9z"/><path d="M489.4 316.4h-13.8v-75.5h-20.4v-5.3H437v5.3h-.1v-5.3h-18.2v5.3h-20.4c-.1 11.3-.1 42.4-.2 53.7l.2.2v21.6H378V340h-14.3v-5.9h2.8v-13.6h-32.6v13.6h3.6v5.9h-3.6v117.8h182.4V316.5zm-149.6 17.7h21.5v5.9h-21.5z" fill="url(#prefix__k)"/><path class="prefix__k" d="M320.3 376.4h-14.4V301h-14v-3.8l-3.7-2.6h-14.1l-3.7 2.6v6.5h-11.9V301h-45.6v2.7h-5.8V301H180V336.3h-15.3V220.2h-40.3V457.8h8.5v1.7h7.5v-1.7h8.3v1.7h7.5v-1.7h167.1v-90.3h-3v8.9z"/><path d="M489.4 316.4h-13.8v-75.5h-20.4v-5.3H437v5.3h-.1v-5.3h-18.2v5.3h-20.4c-.1 11.3-.1 42.4-.2 53.7l.2.2v21.6H378V340h-14.3v-5.9h2.8v-13.6h-32.6v13.6h3.6v5.9h-3.6v117.8h182.4V316.5zm-149.6 17.7h21.5v5.9h-21.5z" fill="url(#prefix__m)"/></g><path class="prefix__n" d="M551.2 403.8V162.7v256.8M548.7 162.7h5v256.87h-5z"/><path class="prefix__o" d="M558.3 406.5l-89.7-30.1H0v31.2z"/><path d="M455.9 389.7H166.1v-8.1h263.1z" opacity=".25" fill="#33435c"/><path fill-rule="evenodd" fill="#b6c6dd" d="M750 481.6l-198.8-77.8H0V500h750v-18.4z"/><path d="M551.2 403.8l-202 42.3 58.1 53.9H750v-18.5z" style="mix-blend-mode:screen" fill="url(#prefix__n)" opacity=".5"/><path d="M628 433.8l-124.1 26 42.6 40.2H750v-18.5z" style="mix-blend-mode:screen" fill="url(#prefix__o)" opacity=".5"/><path d="M490.9 171.6L174.3 403.8h376.9V171.6z" style="mix-blend-mode:screen" fill="url(#prefix__p)" opacity=".5"/><path class="prefix__n" d="M467.1 171.6h3v204.81h-3z"/><path d="M692.9 70.5L553.7 262.2v37.4Q652 164.7 750 29.8z" style="mix-blend-mode:screen" fill="url(#prefix__q)" opacity=".5"/><path class="prefix__w" d="M167.292 403.325l383.88-4.02.009.91-383.88 4.02z" opacity=".25"/><path d="M553.6 169.9l.2 233.8 195.9-226.9.3-147z" style="mix-blend-mode:screen" fill="url(#prefix__r)" opacity=".5"/><path class="prefix__y" d="M536.9 376.7a89.3 89.3 0 01-5.8-15 64.4 64.4 0 019.7 13.9c3.5 7.4-3.9 1.1-3.9 1.1zM546.2 375.4s-.3-22.8 12.1-39.9c0 0-1.1 15-2.7 22.5s-7.7 17.4-7.7 17.4z"/><path class="prefix__y" d="M543.6 375.6s-1-26.3-6.7-49.9a77.6 77.6 0 018.7 18.6c2.8 9.9.6 31.1.6 31.1z"/><path class="prefix__y" d="M540.9 376.4s-4.7-13-6.3-23.7-.9-16.4-.9-16.4a159.6 159.6 0 018.6 21.8 147.6 147.6 0 014 18.1z"/><path class="prefix__y" d="M558.3 335.5a215.4 215.4 0 00-7.3 21.2c-2.4 9.4-4.7 19.5-4.7 19.5v-.8s-.2-24.5 12-39.9z"/><path d="M536.9 325.7s3.3 5.9 6.7 19.4 1.8 31.1 1.8 31.1h.9c.2-2.4.5-5.7.6-9.7.2-8.6.3-15.2-1.3-22.2a53.4 53.4 0 00-8.7-18.6z" style="mix-blend-mode:multiply" fill="url(#prefix__s)" opacity=".3" fill-rule="evenodd"/><path d="M542.1 357l1.3 19.2-2.5.2s1.5-16.7 1.2-19.4z" style="mix-blend-mode:multiply" fill="url(#prefix__t)" opacity=".3" fill-rule="evenodd"/><path class="prefix__y" d="M546.3 378a104.9 104.9 0 014.5-11.2c2.5-5.5 8.6-11.6 8.6-11.6s-3.5 10.2-5.8 14.4a54.3 54.3 0 01-5.6 8.2z"/><path class="prefix__n" d="M559.3 372.3l-1.4 9.2-4.3 27.8h-.1c0 .9-4.2 1.6-9.4 1.6h-1.5c-4.5-.1-8-.8-8-1.6l-5.8-37z"/><path class="prefix__ab" d="M244.2 389.4a1.8 1.8 0 001.9-1.9 1.8 1.8 0 00-1.9-1.8 1.8 1.8 0 00-1.8 1.8 1.8 1.8 0 001.8 1.9zM263.8 389.4a1.9 1.9 0 100-3.7 1.8 1.8 0 00-1.9 1.8 1.8 1.8 0 001.9 1.9z"/><path class="prefix__ac" d="M243.7 369.9h3.3v12.87h-3.3z"/><path class="prefix__ab" d="M243.8 381.2h3a.8.8 0 01.8.7v1.4l15.1.9a2 2 0 012 2h-38.8a2 2 0 012-2l15.2-.9v-1.4a.7.7 0 01.7-.7zM243.4 374.6h3.9a.7.7 0 00.7-.7v-4.3h-5.4v4.3a.8.8 0 00.8.7z"/><path class="prefix__ab" d="M242.2 370.6h6.3a.9.9 0 00.8-.9v-6.1h-8v6.1a.9.9 0 00.9.9zM238.2 363.6h14.3a3.6 3.6 0 003.6-3.6h-21.5a3.6 3.6 0 003.6 3.6z"/><path class="prefix__ad" d="M225.4 387.5a1.9 1.9 0 103.8 0h-3.8zM227.3 385.7a1.9 1.9 0 00-1.9 1.8h3.8a1.9 1.9 0 00-1.9-1.8zM244.2 385.7a1.8 1.8 0 00-1.8 1.8h3.7a1.8 1.8 0 00-1.9-1.8zM263.8 385.7a1.8 1.8 0 00-1.9 1.8h3.8a1.9 1.9 0 00-1.9-1.8z"/><path class="prefix__ae" d="M241.3 363.2h1.3v7h-.5a.8.8 0 01-.8-.8v-6.2zM242.6 370.2h1.4v4.1h-.5a.8.8 0 01-.8-.8v-3.3h-.1z"/><path class="prefix__w" d="M223.3 356a3.9 3.9 0 003.9 4H267a4 4 0 002.8-1.2 3.6 3.6 0 001.1-2.6 4.1 4.1 0 00-4.1-4.2h-39.6a3.9 3.9 0 00-3.9 4z"/><path class="prefix__w" d="M225.7 356h27.1a2.2 2.2 0 002.2-2.4l-3.3-30.3a2.9 2.9 0 00-2.7-2.5h-27.2a2.1 2.1 0 00-2.1 2.5l3.3 30.3a2.9 2.9 0 002.7 2.4z"/><path class="prefix__ab" d="M358.6 389.4a1.8 1.8 0 001.9-1.9 1.8 1.8 0 00-1.9-1.8 1.8 1.8 0 00-1.8 1.8 1.8 1.8 0 001.8 1.9zM378.2 389.4a1.9 1.9 0 100-3.7 1.8 1.8 0 00-1.9 1.8 1.8 1.8 0 001.9 1.9z"/><path class="prefix__ac" d="M358 369.9h3.3v12.87H358z"/><path class="prefix__ab" d="M358.2 381.2h3a.7.7 0 01.7.7v1.4l15.2.9a2 2 0 012 2h-38.8a2 2 0 012-2l15.2-.9v-1.4a.7.7 0 01.7-.7zM357.8 374.6h3.8a.7.7 0 00.8-.7v-4.3H357v4.3a.8.8 0 00.8.7z"/><path class="prefix__ab" d="M356.5 370.6h6.4a.9.9 0 00.8-.9v-6.1h-8v6.1a.9.9 0 00.8.9z"/><path class="prefix__ab" d="M352.6 363.6h14.2a3.6 3.6 0 003.7-3.6H349a3.6 3.6 0 003.6 3.6z"/><path class="prefix__ad" d="M339.8 387.5a1.8 1.8 0 001.9 1.9 1.9 1.9 0 001.9-1.9h-3.8zM341.7 385.7a1.8 1.8 0 00-1.9 1.8h3.8a1.9 1.9 0 00-1.9-1.8zM358.6 385.7a1.8 1.8 0 00-1.8 1.8h3.7a1.8 1.8 0 00-1.9-1.8zM378.2 385.7a1.8 1.8 0 00-1.9 1.8h3.8a1.9 1.9 0 00-1.9-1.8z"/><path class="prefix__ae" d="M355.7 363.2h1.3v7h-.5a.8.8 0 01-.8-.8v-6.2zM357 370.2h1.3v4.1h-.5a.8.8 0 01-.8-.8v-3.3z"/><path class="prefix__w" d="M337.7 356a3.9 3.9 0 003.9 4h39.8a4 4 0 002.8-1.2 4.1 4.1 0 001.1-2.6 4.1 4.1 0 00-4.1-4.2h-39.6a3.9 3.9 0 00-3.9 4z"/><path class="prefix__w" d="M340.1 356h27.1a2.2 2.2 0 002.2-2.4l-3.3-30.3a2.9 2.9 0 00-2.7-2.5h-27.2a2.1 2.1 0 00-2.1 2.5l3.3 30.3a2.7 2.7 0 002.7 2.4z"/><path class="prefix__n" d="M425.887 389.19l11.61-55.09 2.543.537-11.609 55.09zM440.188 334.007l2.545-.536 11.609 55.09-2.544.536z"/><path class="prefix__n" d="M428.4 380.8h23.2v2.6h-23.2zM425.2 332.3h30.2v3.52h-30.2z"/><path class="prefix__n" d="M183.4 329.8h274.9v6.13H183.4z"/><path fill="#d15030" d="M332.8 308.1h14.3v21.95h-14.3z"/><path fill="#eb7f3d" d="M343.7 308.1h3.4v21.95h-3.4z"/><path class="prefix__ah" d="M327 308.1h14.3v21.95H327z"/><path style="mix-blend-mode:multiply" fill="url(#prefix__u)" opacity=".3" d="M337.8 308.1h3.4v21.95h-3.4z"/><path fill="#7ba4bd" d="M321.1 312.2h14.3v17.85h-14.3z"/><path fill="#a2d9fd" d="M331.9 312.2h3.4v17.85h-3.4z"/><path class="prefix__n" d="M390.4 291.2h-42a1.6 1.6 0 00-1.6 1.6v27.8a1.6 1.6 0 001.6 1.6h42a1.6 1.6 0 001.6-1.6v-27.8a1.6 1.6 0 00-1.6-1.6z"/><path class="prefix__n" d="M346.8 320.6a1.6 1.6 0 001.6 1.6h42a1.6 1.6 0 001.6-1.6V316h-45.2zM359.6 329.8h18.7v1.74h-18.7z"/><path class="prefix__n" d="M366.3 322.2h7.9v7.58h-7.9zM292.2 291.2h-42a1.6 1.6 0 00-1.6 1.6v27.8a1.6 1.6 0 001.6 1.6h42a1.7 1.7 0 001.7-1.6v-27.8a1.7 1.7 0 00-1.7-1.6z"/><path class="prefix__n" d="M248.6 320.6a1.6 1.6 0 001.6 1.6h42a1.6 1.6 0 001.6-1.6V316h-45.2zM261.4 329.8h18.7v1.74h-18.7z"/><path class="prefix__n" d="M268.1 322.2h7.9v7.58h-7.9z"/><path class="prefix__ad" d="M417.4 291.2h-42a1.6 1.6 0 00-1.6 1.6v27.8a1.6 1.6 0 001.6 1.6h42a1.6 1.6 0 001.6-1.6v-27.8a1.6 1.6 0 00-1.6-1.6z"/><path class="prefix__n" d="M373.8 320.6a1.6 1.6 0 001.6 1.6h42a1.6 1.6 0 001.6-1.6V316h-45.2zM386.6 329.8h18.7v1.74h-18.7z"/><path class="prefix__n" d="M393.3 322.2h7.9v7.58h-7.9z"/><path class="prefix__ad" d="M319.4 291.2h-42a1.6 1.6 0 00-1.6 1.6v27.8a1.6 1.6 0 001.6 1.6h42a1.6 1.6 0 001.6-1.6v-27.8a1.6 1.6 0 00-1.6-1.6z"/><path class="prefix__n" d="M275.8 320.6a1.6 1.6 0 001.6 1.6h42a1.6 1.6 0 001.6-1.6V316h-45.2zM288.6 329.8h18.7v1.74h-18.7z"/><path class="prefix__n" d="M295.3 322.2h7.9v7.58h-7.9z"/><path class="prefix__ab" d="M305.7 389.4a1.8 1.8 0 01-1.9-1.9 1.8 1.8 0 011.9-1.8 1.9 1.9 0 110 3.7zM286.2 389.4a1.8 1.8 0 01-1.9-1.9 1.8 1.8 0 011.9-1.8 1.8 1.8 0 011.8 1.8 1.8 1.8 0 01-1.8 1.9z"/><path class="prefix__ac" d="M303 369.9h3.3v12.87H303z"/><path class="prefix__ab" d="M306.1 381.2h-3a.7.7 0 00-.7.7v1.4l-15.2.9a2 2 0 00-2 2H324a2 2 0 00-2-2l-15.1-.9v-1.4a.8.8 0 00-.8-.7zM306.6 374.6h-3.9a.8.8 0 01-.8-.7v-4.3h5.4v4.3a.7.7 0 01-.7.7z"/><path class="prefix__ab" d="M307.8 370.6h-6.3a.9.9 0 01-.9-.9v-6.1h8v6.1a.9.9 0 01-.8.9z"/><path class="prefix__ab" d="M311.7 363.6h-14.2a3.6 3.6 0 01-3.6-3.6h21.5a3.7 3.7 0 01-3.7 3.6z"/><path class="prefix__ad" d="M324.5 387.5a1.8 1.8 0 01-1.9 1.9 1.8 1.8 0 01-1.8-1.9h3.7zM322.6 385.7a1.8 1.8 0 011.9 1.8h-3.7a1.8 1.8 0 011.8-1.8zM305.7 385.7a1.9 1.9 0 011.9 1.8h-3.8a1.8 1.8 0 011.9-1.8zM286.2 385.7a1.8 1.8 0 011.8 1.8h-3.7a1.8 1.8 0 011.9-1.8z"/><path class="prefix__ae" d="M307.8 370.1h-.5v-7h1.3v6.2a.8.8 0 01-.8.8zM306.5 374.2h-.5v-4.1h1.3v3.3a.8.8 0 01-.8.8z"/><path class="prefix__w" d="M326.7 356a4 4 0 01-4 4H283a4 4 0 01-2.8-1.2 3.7 3.7 0 01-1.2-2.6 4.2 4.2 0 014.2-4.2h39.5a4 4 0 014 4z"/><path class="prefix__w" d="M324.2 356h-27.1a2.2 2.2 0 01-2.2-2.4l3.4-30.3a2.7 2.7 0 012.6-2.5h27.2a2.1 2.1 0 012.1 2.5l-3.3 30.3a2.7 2.7 0 01-2.7 2.4z"/><path class="prefix__ab" d="M420.1 389.4a1.9 1.9 0 111.9-1.9 1.9 1.9 0 01-1.9 1.9zM400.6 389.4a1.8 1.8 0 01-1.9-1.9 1.8 1.8 0 011.9-1.8 1.8 1.8 0 011.8 1.8 1.8 1.8 0 01-1.8 1.9z"/><path class="prefix__ac" d="M417.4 369.9h3.3v12.87h-3.3z"/><path class="prefix__ab" d="M420.5 381.2h-3a.7.7 0 00-.7.7v1.4l-15.2.9a1.9 1.9 0 00-1.9 2h38.7a2 2 0 00-2-2l-15.1-.9v-1.4a.8.8 0 00-.8-.7zM421 374.6h-3.9a.7.7 0 01-.7-.7v-4.3h5.3v4.3a.7.7 0 01-.7.7z"/><path class="prefix__ab" d="M422.2 370.6h-6.3a.9.9 0 01-.9-.9v-6.1h8v6.1a.8.8 0 01-.8.9zM426.2 363.6h-14.3a3.6 3.6 0 01-3.6-3.6h21.5a3.6 3.6 0 01-3.6 3.6z"/><path class="prefix__ad" d="M438.9 387.5a1.8 1.8 0 01-1.8 1.9 1.8 1.8 0 01-1.9-1.9h3.7zM437.1 385.7a1.8 1.8 0 011.8 1.8h-3.7a1.8 1.8 0 011.9-1.8zM420.1 385.7a1.9 1.9 0 011.9 1.8h-3.8a1.9 1.9 0 011.9-1.8zM400.6 385.7a1.8 1.8 0 011.8 1.8h-3.7a1.8 1.8 0 011.9-1.8z"/><path class="prefix__ae" d="M422.3 370.1h-.5v-7h1.3v6.2a.8.8 0 01-.8.8zM420.9 374.2h-.5v-4.1h1.3v3.3a.8.8 0 01-.8.8z"/><path class="prefix__w" d="M441.1 356a4 4 0 01-4 4h-39.7a4 4 0 01-2.8-1.2 4 4 0 013-6.8h39.5a4 4 0 014 4z"/><path class="prefix__w" d="M438.7 356h-27.2a2.1 2.1 0 01-2.1-2.4l3.3-30.3a2.7 2.7 0 012.7-2.5h27.1a2.2 2.2 0 012.2 2.5l-3.4 30.3a2.7 2.7 0 01-2.6 2.4z"/><path class="prefix__al" d="M245.3 307.8h14.3v21.95h-14.3z"/><path fill="#fbd5a2" d="M256.2 307.8h3.4v21.95h-3.4z"/><path class="prefix__ah" d="M239.4 311.9h14.3v17.85h-14.3z"/><path style="mix-blend-mode:multiply" fill="url(#prefix__v)" opacity=".3" d="M250.3 311.9h3.4v17.85h-3.4z"/><path d="M335 202.1l-113.6 67.5c-2.5 7.2-5 14.4-7.6 21.6l149.9-89.1z" style="mix-blend-mode:screen" fill="url(#prefix__w)" opacity=".5"/><path d="M554.7 390.3l-376.9 4.2 81.5-232.2h295.4z" style="mix-blend-mode:screen" opacity=".6" fill="url(#prefix__x)"/><path class="prefix__aq" d="M0 0v171.6h551.2L750 29.8V0H0z"/><path class="prefix__o" d="M143.9 84.1h296.6v7.25H143.9z"/><path class="prefix__n" d="M432.1 101.8l8.4-10.5H143.9l9.4 10.5h278.8z"/><path class="prefix__n" d="M621.1 0L514.8 138.9l-48.6 23.5-208 1.1c-4.3 13.3-8.6 26.5-12.8 39.8l223.2-2.9 82.6-28.8L750 29.8V0z"/><path class="prefix__aq" d="M551.2 171.6l-82.6 28.8H245.4v-28.8z"/><path class="prefix__n" d="M174.3 403.8H0V171.6h255.8q-40.6 116.1-81.5 232.2z"/><path class="prefix__al" d="M143.8 284.6H99.3a4.8 4.8 0 01-4.7-4.8 4.7 4.7 0 014.7-4.7h44.5a4.7 4.7 0 014.7 4.7 4.8 4.8 0 01-4.7 4.8z"/><path class="prefix__aq" d="M255.8 171.6l-2.4 7.5c-2.7 8-5.4 16.1-8 24.2L0 278.4V171.6z"/><path class="prefix__o" d="M258.2 163.4c-.9 2.5-1.7 5-2.5 7.5H2.3v-7.5z"/><path class="prefix__aq" d="M0 329.2h71v74.1a1.7 1.7 0 01-1.7 1.7H1.7a1.8 1.8 0 01-1.7-1.7z"/><path class="prefix__o" d="M0 363.2h71v1.4H59.5v2.4a1.1 1.1 0 01-1.1 1.1H44.7a3.3 3.3 0 01-2.5-1.2l-1.9-2.3H0zM0 378.7h71v1.4H59.5v2.4a1.1 1.1 0 01-1.1 1.1H44.7a3.3 3.3 0 01-2.5-1.2l-1.9-2.3H0zM0 391h71v1.4H59.5v2.4a1.1 1.1 0 01-1.1 1.1H44.7a3.3 3.3 0 01-2.5-1.2l-1.9-2.3H0z"/><path class="prefix__aq" d="M0 315.9v13.3h16.4v-11.7a1.8 1.8 0 011.8-1.7h45.2a1.5 1.5 0 001.6-1.7l-.2-1.8-.6-6.4a1.6 1.6 0 00-1.6-1.4H2.7A1.7 1.7 0 001 306l-1 9.7z"/><path class="prefix__o" d="M13.8 315.1v12.5a1.6 1.6 0 001.6 1.6h1v-11.7a1.8 1.8 0 011.8-1.7h45.2a1.5 1.5 0 001.6-1.7l-.2-1.8H16.6a2.8 2.8 0 00-2.8 2.8z"/><path class="prefix__n" d="M16.4 327.7h53.1a1.5 1.5 0 011.5 1.4H16.4z"/><path class="prefix__w" d="M63.4 315.8v3.6l1.3.5a3.3 3.3 0 012.1 3.1v1.7a2.8 2.8 0 012.7 2.8H16.4v-11.7z"/><path class="prefix__o" d="M6.5 301h53.3a1.8 1.8 0 011.7 1.7v1.8H4.9v-1.8a1.7 1.7 0 011.6-1.7z"/><path class="prefix__w" d="M12.6 292.8l22.7 5.6.6-3-23-4.2-.3 1.6z"/><path class="prefix__o" d="M39.9 294.8h10.4a10.4 10.4 0 019.4 6v.2H22.9a26.6 26.6 0 0117-6.2z"/><path class="prefix__w" d="M187.4 391.7h21.9v108.05h-21.9z"/><path class="prefix__n" d="M243.1 385.8v12.8l-121.6 85.6H0v-80.4l243.1-18z"/><path class="prefix__aq" d="M1.1 385.8h242l-126.6 83.4H0l1.1-83.4z"/><path class="prefix__w" d="M24.9 375.9c0-.3 29 53.8 29 53.8l61.9-32.6L88.1 354z"/><path class="prefix__ar" d="M55.9 423l-23.8-44.3 55-20.1c7.2 12.2 14.4 24.4 21.5 36.6zM24.9 375.9l-1.1 1.8c9.5 18.1 19.1 36.2 28.6 54.4h1.5v-2.9z"/><path class="prefix__ar" d="M53.9 429.7v2.5l69.4 3.8 55.2-33.5v-2.9L53.9 429.7z"/><path class="prefix__w" d="M53.9 429.7l68.6 3.2 56-33.3-62.7-2.5-61.9 32.6zM81.9 484.2h21.9v15.84H81.9z"/><path class="prefix__ar" d="M80.9 424.7h-5.2l-2.9 1.6h5.1l3-1.6zM85.2 422.3h-5.1l-3 1.6h5.2l2.9-1.6zM89.6 419.9h-5.1l-3 1.6h5.2l2.9-1.6zM94 417.5h-5.2l-2.9 1.6h5.2l2.9-1.6zM98.4 415h-5.2l-2.9 1.7h5.1l3-1.7zM99.8 414.2l2.9-1.6h-5.1l-2.9 1.6h5.1zM107.1 410.2H102l-3 1.6h5.2l2.9-1.6zM108.6 409.4l2.9-1.6h-5.2l-2.9 1.6h5.2zM115.9 405.4h-5.2l-2.9 1.6h5.1l3-1.6zM120.3 402.9h-5.2l-2.9 1.7h5.1l3-1.7zM124.6 400.5h-5.1l-3 1.6h5.2l2.9-1.6zM89.2 424.7H84l-2.9 1.6h5.2l2.9-1.6zM93.6 422.3h-5.2l-2.9 1.6h5.1l3-1.6zM97.9 419.9h-5.1l-2.9 1.6H95l2.9-1.6zM102.3 417.5h-5.1l-3 1.6h5.2l2.9-1.6zM106.7 415h-5.2l-2.9 1.7h5.2l2.9-1.7zM108.1 414.2l3-1.6h-5.2l-2.9 1.6h5.1zM115.4 410.2h-5.1l-2.9 1.6h5.1l2.9-1.6zM116.9 409.4l2.9-1.6h-5.1l-3 1.6h5.2zM124.2 405.4H119l-2.9 1.6h5.2l2.9-1.6zM128.6 402.9h-5.2l-2.9 1.7h5.2l2.9-1.7zM133 400.5h-5.2l-2.9 1.6h5.1l3-1.6zM100.4 423.1h-5.1l-5.9 3.2h5.2l5.8-3.2zM141.3 400.5h-5.2l-5.8 3.3h5.1l5.9-3.3zM104.3 421h-5.1l-3 1.6h5.2l2.9-1.6zM108.6 418.6h-5.1l-3 1.6h5.2l2.9-1.6zM112.9 416.2h-5.1l-3 1.6h5.2l2.9-1.6zM114.3 415.4l2.9-1.6h-5.1l-3 1.6h5.2zM121.5 411.4h-5.1l-2.9 1.7h5.1l2.9-1.7zM122.9 410.7l3-1.6h-5.2l-2.9 1.6h5.1zM130.2 406.7H125l-2.9 1.6h5.1l3-1.6zM134.5 404.3h-5.2l-2.9 1.6h5.1l3-1.6zM105.8 424.7h-5.1l-2.9 1.6h5.1l2.9-1.6zM110.2 422.3h-5.1l-3 1.6h5.2l2.9-1.6zM114.6 419.9h-5.2l-2.9 1.6h5.2l2.9-1.6zM124 411.8l-1.4.8-3 1.6-9 5h5.2l9-5 2.9-1.6 1.5-.8 2.9-1.6 4.4-2.4h-5.2l-4.4 2.4-2.9 1.6zM140.9 405.4h-5.2l-2.9 1.6h5.1l3-1.6zM145.2 402.9h-5.1l-3 1.7h5.2l2.9-1.7zM149.6 400.5h-5.2l-2.9 1.6h5.2l2.9-1.6z"/><g clip-path="url(#prefix__y)"><path class="prefix__ab" d="M303.6 570.2a5.3 5.3 0 01-5.3-5.3 5.3 5.3 0 1110.6 0 5.3 5.3 0 01-5.3 5.3zM248.3 570.2a5.3 5.3 0 01-5.4-5.3 5.4 5.4 0 0110.7 0 5.3 5.3 0 01-5.3 5.3z"/><path class="prefix__ac" d="M295.9 514.9h9.4v36.46h-9.4z"/><path class="prefix__ab" d="M304.8 546.8h-8.4a2.2 2.2 0 00-2.2 2.2v3.8l-42.9 2.5a5.9 5.9 0 00-5.6 5.9h109.8a5.9 5.9 0 00-5.6-5.9l-43-2.5V549a2.1 2.1 0 00-2.1-2.2zM306.1 528.4h-11a2.1 2.1 0 01-2.1-2.1V514h15.2v12.3a2.2 2.2 0 01-2.1 2.1z"/><path class="prefix__ab" d="M309.5 516.8h-17.9a2.4 2.4 0 01-2.4-2.4V497H312v17.4a2.5 2.5 0 01-2.5 2.4zM320.8 497h-40.5a10.3 10.3 0 01-10.2-10.3h61a10.3 10.3 0 01-10.3 10.3z"/><path class="prefix__ad" d="M357 564.9a5.4 5.4 0 01-10.7 0H357zM351.7 559.6a5.3 5.3 0 015.3 5.3h-10.7a5.4 5.4 0 015.4-5.3zM303.6 559.6a5.3 5.3 0 015.3 5.3h-10.6a5.3 5.3 0 015.3-5.3zM248.3 559.6a5.3 5.3 0 015.3 5.3h-10.7a5.4 5.4 0 015.4-5.3z"/><path class="prefix__ae" d="M309.7 515.6h-1.6v-19.8h3.8v17.6a2.2 2.2 0 01-2.2 2.2zM305.9 527.2h-1.5v-11.6h3.8v9.3a2.2 2.2 0 01-2.3 2.3z"/><path class="prefix__w" d="M363 475.5a11.2 11.2 0 01-11.2 11.2H239.2A11.1 11.1 0 01228 476c-.3-6.4 5.4-11.7 11.8-11.7h112a11.2 11.2 0 0111.2 11.2z"/><path class="prefix__w" d="M356.2 475.5h-77a6 6 0 01-6.1-6.8l9.4-86a8 8 0 017.6-6.8h77a6 6 0 016.1 6.8l-9.4 86a7.8 7.8 0 01-7.6 6.8z"/></g></g></svg>