<svg xmlns="http://www.w3.org/2000/svg" viewBox="0 0 3200 2000"><defs><style>.prefix__a{fill:#fff}.prefix__b{fill:#ebf3fa}.prefix__c{fill:#829ce8}.prefix__e{fill:#b3c9ff}.prefix__f{fill:#ccd9ff}.prefix__i{fill:#b7d3f3}.prefix__j{fill:#9db0f4}.prefix__k{fill:#ed7d2b}.prefix__l{fill:#f1a34f}.prefix__n{fill:#ffdabb}.prefix__p{fill:#c5ddff}.prefix__q{fill:#f99746}.prefix__r{fill:#233862}.prefix__s{fill:#2c3a64}.prefix__t{fill:#ffb27d}.prefix__u{fill:#f9ddbf}.prefix__w{fill:#eac3a2}.prefix__x{fill:#223d75}.prefix__y{fill:#2b478b}.prefix__ac{fill:#163560}.prefix__ad{fill:#afcdfb}.prefix__ae{fill:#87afe8}.prefix__ag{fill:#f2ccaa}.prefix__ah{fill:#35488b}.prefix__ak{fill:#b5453c}</style></defs><path class="prefix__a" d="M0 0h3200v2000H0z"/><path class="prefix__b" d="M353.2 1813.7S15.6 1346.1 171 901.3c257.6-737.2 1047.9-273.2 1309.7-552.1 434.3-462.6 1594.6-169.1 1379 654.1-104.3 398.5 317.6 412.9 102.6 811.2z"/><path class="prefix__c" d="M2332.2 1311.2v12.5c0 4.4 1.4 8 3.1 8h458.3c1.8 0 3.2-3.6 3.2-8v-12.5c0-4.4-1.4-8-3.2-8h-458.3c-1.7 0-3.1 3.6-3.1 8z"/><path d="M2332.2 1311.2v12.5c0 4.4 1.3 8 2.9 8h363.8c1.6 0 2.9-3.6 2.9-8v-12.5c0-4.4-1.3-8-2.9-8h-363.8c-1.6 0-2.9 3.6-2.9 8z" fill="#bbcdf9"/><path class="prefix__e" d="M2773.5 1806h-325.4v-474.25h325.4z"/><path class="prefix__f" d="M2682.3 1806h-325.4v-474.25h325.4z"/><path class="prefix__e" d="M2374.5 1345.1h290.4v434.7h-290.4zm287.2 3.2h-284.1v428.3h284.1z"/><path class="prefix__e" d="M2376 1488.9h287.3v3.14H2376zM2376 1635.5h287.3v3.14H2376zM2490.2 1373.2h53.3a4.8 4.8 0 004.7-4.8 4.8 4.8 0 00-4.7-4.7h-53.3a4.8 4.8 0 00-4.7 4.7 4.8 4.8 0 004.7 4.8zM2490.2 1516.5h53.3a4.7 4.7 0 004.7-4.7 4.7 4.7 0 00-4.7-4.7h-53.3a4.7 4.7 0 00-4.7 4.7 4.7 4.7 0 004.7 4.7zM2490.2 1665.9h53.3a4.7 4.7 0 004.7-4.7 4.7 4.7 0 00-4.7-4.7h-53.3a4.7 4.7 0 00-4.7 4.7 4.7 4.7 0 004.7 4.7z"/><rect x="1666.5" y="405.1" width="228.2" height="221.39" rx="16.3" fill="#c0d8fb"/><rect x="1676.4" y="414.7" width="208.4" height="202.21" rx="14.9" fill="#dfebfd"/><path class="prefix__i" d="M1775.9 434.9a4.7 4.7 0 114.7 4.7 4.7 4.7 0 01-4.7-4.7zM1814 441.6a4.8 4.8 0 016.5-1.8 4.7 4.7 0 11-6.5 1.8zM1846.7 467.6a4.7 4.7 0 115.1 7.9 4.7 4.7 0 01-5.1-7.9zM1862.9 507.7a4.8 4.8 0 014.7 4.8 4.7 4.7 0 11-9.4 0 4.8 4.8 0 014.7-4.8zM1854.6 554.4a4.6 4.6 0 010 6.7 4.7 4.7 0 01-6.7-6.7 4.6 4.6 0 016.7 0zM1824.9 584.1a4.6 4.6 0 010 6.7 4.5 4.5 0 01-6.6 0 4.6 4.6 0 010-6.7 4.7 4.7 0 016.6 0zM1775.9 599.5a4.7 4.7 0 114.7 4.7 4.7 4.7 0 01-4.7-4.7zM1747 441.6a4.7 4.7 0 10-1.8 6.4 4.6 4.6 0 001.8-6.4zM1714.4 467.6a4.7 4.7 0 10-5.2 7.9 4.8 4.8 0 006.6-1.4 4.7 4.7 0 00-1.4-6.5zM1698.2 507.7a4.8 4.8 0 00-4.7 4.8 4.7 4.7 0 009.4 0 4.8 4.8 0 00-4.7-4.8zM1706.4 554.4a4.7 4.7 0 006.7 6.7 4.7 4.7 0 00-6.7-6.7zM1736.1 584.1a4.8 4.8 0 000 6.7 4.7 4.7 0 006.7-6.7 4.8 4.8 0 00-6.7 0zM1779.3 512.5a4.9 4.9 0 014.8-4.8 4.8 4.8 0 014.7 4.8 4.7 4.7 0 01-4.7 4.7 4.8 4.8 0 01-4.8-4.7z"/><path class="prefix__i" d="M1783.4 453.4h1.3v59.05h-1.3z"/><path class="prefix__i" d="M1782.622 511.72l31.32-24.557 2.388 3.045-31.32 24.558z"/><path class="prefix__f" d="M1141.4 819.1h610.7v424h-708.6V917a98 98 0 0197.9-97.9z"/><path class="prefix__j" d="M1117.3 839.2h613.8v385.5h-670.5V896a56.7 56.7 0 0156.7-56.8z"/><path class="prefix__f" d="M1039.8 1243.1h835.5v495.94h-835.5z"/><path class="prefix__c" d="M1060 1266.7h790.5v450.94H1060zM1228.7 1806.9h-26.4l5.4-67.9h36.8l-15.8 67.9zM1694.9 1806.9h26.5l-5.4-67.9h-36.9l15.8 67.9z"/><path class="prefix__k" d="M1668.6 1430.9c8.1 4.2 21.5 7.9 26.2 18.6 1.7 3.7.8 16.9-4.9 16.2-3.1-.5-4-4.6-4.2-8.3a9.8 9.8 0 00-5.7-8.4l-36.9-16.2 7-14.2s15 10.5 18.5 12.3z"/><path class="prefix__l" d="M1303.3 1683.5h223.2c0 2.7 40.1 0 40.1 0s-2.8-13.7-9.5-17.6c-1.5-.8-12.7 1.8-15.4 1.7 1.1-.7 24.8-8 19.5-44.2l12.6 58.3a2.2 2.2 0 002.2 1.8h49.4a2.1 2.1 0 002.1-1.8c.8-3.9 2-13.2-1.9-18s-12.7-2.9-19.8-1.7l-4.2.9a2.3 2.3 0 01-2.6-2.8s3.7-10.8 10.4-25.8 16.4-34.2 28.4-51c2.4-3.4 4.9-6.6 7.5-9.8 9.4-11.2 15.7-38.2 7.5-50.1-1-1.5-5.9-6.7-4.1-5.9a19.3 19.3 0 017.9 6.6 2.3 2.3 0 004-1.3c.9-28.1-20.3-52.2-28.7-64.4-2.7-4-4-6.8-2.8-8 5.4-5.3 29.1 8.2 39.8 7.8a29.4 29.4 0 0014-4.2 2.4 2.4 0 001-1.8 2 2 0 00-1.2-2.1c-6.1-3.2-15.4-7.1-22.7-12.4-3.7-2.7-7-7.3-9-11.4a14.6 14.6 0 01-.9-6.9 91.9 91.9 0 0028.6 16.1c6.2 2.2 11.7 3.1 15.3 2.5 9.2-1.7 15-10.1 18.3-17a76.3 76.3 0 002.9-7.4 2.3 2.3 0 00-1.3-2.7l-6.7-3.1c-13.5-6.2-28.5-11.1-31.1-15.3a44.8 44.8 0 01-2.6-4.9c-4-8.4-7.9-19.4-19.1-28.2-17.4-13.8-35.2-16.5-42.6-16.9a24.7 24.7 0 00-3.6-.1c-11.5-.5-20.1 1.2-26.4 4.5-24.8 12.9-16.7 49.9-21.9 78.1-.2 1.1-.4 2.2-.7 3.3-2.1 9.3-29.4 34.6-30.4 50-2.1 29.3-24 32.1-72.6 61.8-28.1 17.1-30.1 63.6-27.5 99a17 17 0 01-14.2 18c-11.8 2-24.9 2.8-37.1.6-33.2-6.2-40.1-62.6-20-71.1 0 0-34.1-10-50.7 16.2s-16.5 68-3.4 80.7z"/><path class="prefix__k" d="M1603.7 1350.5c9.7 0 18.1 7.5 19.6 17.6 2.4 15.4 4.8 37.6 1.8 52.8-4.4 22.8-24.1 31.1-36.7 24.4-23.2-12.5-12.6-60.6-6.1-83.1a15.8 15.8 0 0114.9-11.7z"/><path d="M1712.3 1421a76.3 76.3 0 002.9-7.4 2.3 2.3 0 00-1.3-2.7l-6.7-3.1s-1.9 10.8 5.1 13.2z" fill="#bc6211"/><path class="prefix__n" d="M1303.3 1683.5h39.3c-44.9-9.2-35.5-43.6-35.5-43.6 4.7 8.5 30.5 10.1 30.5 10.1s-17.3-16.2-15.8-40.2c1.3-19.4 24-22.6 32.4-23.1h3.2s-34.1-10-50.7 16.2-16.5 67.9-3.4 80.6z"/><path class="prefix__l" d="M1581.8 1346.9s-21.9 5.8-26.5 23.2a22.9 22.9 0 015-3.7s-5.7 4.8-5 17 7.5 31.6 3.9 44.9l13.8-23.9zM1673.5 1387.6s-6.3-15.9 0-21.8c0 0-4.4-1.3-6.6 0 0 0-.8-12.1-16.2-17.5s-38.9-5.8-38.9-5.8l40.4 30z"/><path class="prefix__n" d="M1596.3 1683.5h29.1a2.1 2.1 0 002.1-1.8c.8-3.9 2-13.2-1.9-18s-12.7-2.9-19.8-1.7c-7.3 8-9.5 21.5-9.5 21.5z"/><path d="M1222.4 1717.6s1.4-26.5 29.5-42.7 129.5 14.8 194.5 5.1 284.6-35.9 273.5 37.6z" fill="#e85d52"/><path class="prefix__p" d="M1459.2 1256.7h6.3v460.93h-6.3zM1591.2 1256.7h6.3v460.93h-6.3zM1723.3 1256.7h6.3v460.93h-6.3zM1327.2 1256.7h6.3v460.93h-6.3zM1195.2 1256.7h6.3v460.93h-6.3z"/><path class="prefix__q" d="M1271.8 1224.8s33.9-39.1 109.9-42.5 73.8 25.6 126.6 15.8 98.5-22 136-8.7 55.9 35.4 55.9 35.4z"/><path class="prefix__r" d="M419.7 1722.1s-18.5 16.9-14.9 29 20.4 20 22.6 34.8 11.4 22.7 19.5 22.7h38.9s6-10.4-8.5-13.5-19.9-20.4-19-36.5-1.4-37.4-1.4-37.4l-30.8-7.2zM577 1731s-6.7 71.8 1.4 75.8l104.4-.2s0-12-16.7-14.7-46.3-12.5-51.2-34.3S577 1731 577 1731z"/><path class="prefix__k" d="M662.2 1139.9s30.1 93.6 32 125.5-57.5 453-59.9 467.7-19.4 22.7-19.4 22.7-8 4.7-19.2 1.5c-15.7-4.4-20.7-9.7-20.7-9.7s-23.4-300.4-8.9-407.7a1700.9 1700.9 0 0014.7-200z"/><path class="prefix__q" d="M534.7 1137.1s-45.9 61.6-50.2 103.2-6.7 187.9-15.8 228.5-42.6 118.6-42.6 245.2c0 0 3.5 7.3 14.2 11.2 3.5 1.2 8.1 2.4 12.5 3.4a19.7 19.7 0 0022-10.4c22.7-45.6 94.8-192.7 98.5-223.2 2.6-21.6 25.4-164.6 75.1-248.5 11.9-20.1-7.3-100.2-7.3-100.2z"/><path class="prefix__s" d="M528 691.4c-1.1-2.7-14-31-57.7-15.6 0 0 22.2-5.7 29.4 2.4 0 0-18.8-6.1-29.2 2.3s-9.3 32.4-6.8 39.4 17.4 27 25.6 26a23.4 23.4 0 009-3.6 118 118 0 00-1.8 12.9c-3.7 43.2 27.3 71.8 40.4 62.1 8.4-6.2 17.1 9.2 17.1 9.2L616.6 715s-59.7-58-88.6-23.6z"/><path class="prefix__t" d="M645.5 954.1c-59.4 27.3-104-69.2-100.1-70.1 5.9-7 12.1-31.6 7.7-67.1l3.1.3 51.6 3.9s.8 16.5 2.6 31.9c1.1 10.1 2.8 19.7 4.8 23.9.7 1.3 11.8 3 11.9 3s34.2 66.9 18.4 74.2z"/><path class="prefix__u" d="M687.5 984c3.9 14.5 7 27.5 8.6 36.3 7.1 40.3 3.5 245.4 3.5 245.4-104.7 39.9-230-11.5-230-11.5-3.9-38.2 11-123.2 20.1-198.9 2.2-18.6 4-36.5 5.2-53.1a343.3 343.3 0 014.8-38.7c15-80.9 53.7-89.8 53.7-89.8 18.1 36.2 75.2 46 75.2 46 .7-20.4-5.7-46.4-5.7-46.4 7.2.9 31.6 4 38.2 7.3 19.6 9.7 65.9 91.5 65.9 91.5s12-5.5-39.5 11.9z"/><path d="M607.8 821.1s.8 16.5 2.6 31.9c-28.3 2.7-46.4-21.9-54.2-35.8z" fill="#ed985f"/><path class="prefix__t" d="M618.9 834.5s-66.5 9.5-71.7-33.3-17.1-70.4 25.2-78.3 52.5 7.4 57.5 21.3 6.2 86.7-11 90.3z"/><path class="prefix__s" d="M625.1 720.6c-11.8-11.6-19.3-7.8-23.2-3.3-38.9-16.1-58.7 17.4-58.7 17.4-.8 31.3-20.3 51.6-20.3 51.6s13.1 6.2 40.3-4.8c8.2-3.3 15.1-10.6 20.7-19a163.7 163.7 0 01-22.7 37.1c31.5-20.2 39.3-69.8 40-75.1 4.6 3.3 13.6 10.5 16.9 18.2 4.7 10.5 8.8 32.7 15.1 31.1 0 0 9.7-35.8-8.1-53.2z"/><path class="prefix__w" d="M553.1 861s-7.8 6.6-7.8 16.4c0 0 12.2 34.3 83.3 42.3 0 0-68-33.2-75.5-58.7z"/><path class="prefix__w" d="M613.5 875s15.6 28.1 15.1 44.7c0 0 1.2-37.6-1.3-46.4s-16.4-16-16.4-16z"/><path class="prefix__a" d="M598 812c.6 0 6.3 5.3 13.8 3.8s7.5-7.5 7.5-7.5a30.8 30.8 0 00-9.7 0A75.4 75.4 0 00598 812z"/><path class="prefix__x" d="M747.3 961.8s11.2-19.2 5.3-35.8a125.3 125.3 0 00-8.7-18.1c-3.5-6.1-5.5-4.7-8.3 1.7s-6.8 10.5-7.8 14.1c-3 11.2-6.3 18.7 1.5 29s18 9.1 18 9.1z"/><path class="prefix__y" d="M769.4 1132.7s44.7-46.2-7.7-88c-12.8-10.2-55.8-53.3-29.9-61.7 13.3-4.3 19.6-13.1 22.7-20.8.4-1.1.7-2.1 1.1-3.1a37.1 37.1 0 001.7-10.5s1.3-9.6-12.1-20.1a70.3 70.3 0 00-14.6-8.6h-.1l-4.2-1.8c-14.6-5.9-19.4-.2-25.6-3.7s-12.7-7.5-13.9-8.3a.1.1 0 01-.1-.1s-7.1-6.4-10.5 1.2l-1 2.4c-2.4 5.4-3.5 8.7-2.5 11.7s5.7 7.2 9.8 10 11 6.9 11.3 7.2-6.3.8-23-8.6l-.9-.5a1.9 1.9 0 00-2.4.6 7.4 7.4 0 00-.6 7.1c2.2 5.2 17.3 13.3 12.8 16.3a9 9 0 01-3.8 1.1c-5.7.7-14.6-.7-20 4.1 0 0 6.6.7 10.2 3.5 0 0-15-2.8-18.9 3.4a7.8 7.8 0 015.3 1.3s-15.8 4.2-22.9 19.4a32 32 0 00-1.7 4.3c-5.2 16.4-2.7 6.9 13 40.2 8.8 18.5 55.1 67.8 82.1 74.6 33.5 8.3 46.4 27.4 46.4 27.4z"/><path d="M681.4 932.4s-10.6-4.8-11.9-2 28.6 14 29.3 12.2-13.6-8.5-17.4-10.2z" fill="#e57970"/><path class="prefix__y" d="M744.9 952.9s14.6-.4 18.7-16.7c1.6-6.3-1.2-13.6-2.5-20s-3.7-6.2-8.4-.9-9.8 7.7-11.8 10.8c-6.4 9.7 4 26.8 4 26.8zM674.3 982.2s-48.6-4.3-60.4-17.1c0 0 .6-10.3-1.4-13.9s-10.5-6.3-14.9-4 5.4 24.1 7.6 26.2 37.3 61.2 55.1 68.9c7.3 3.2-.9-24.6 7.2-30.6s6.8-29.5 6.8-29.5z"/><path class="prefix__y" d="M704.4 962.7s-48.2-6.8-59.4-20.2c0 0 1.2-10.4-.6-14s-10.2-6.8-14.6-4.8 4 24.3 6.1 26.6 33.9 63.1 51.3 71.8c7.2 3.6.4-24.7 8.9-30.3s8.3-29.1 8.3-29.1z"/><path d="M686.8 906.1c-2.3 2.1-7.1 5.4-11.6 3.5l1-2.4c3.4-7.6 10.5-1.2 10.5-1.2a.1.1 0 00.1.1z" fill="#1d3972"/><path class="prefix__y" d="M768.1 1085.9s14.7.3 25.6-3.3c13.4-4.4 18.9-23.3-10.3-37.9 0 0 12.4-7.1 26.9 4.4a13.3 13.3 0 00-.2-7.4s20.3 10.8 17.2 29.5c0 0 8.6-6.7 9.6-12 0 0 14.9 20.1-2.8 36.9a14.9 14.9 0 0010.7-3.9s-21.1 36-71.4 12.4z"/><path class="prefix__x" d="M742.4 928.8a21 21 0 015-4.5c3.7-2.6 6.9-8.7 7.6-8.1s-.5 19.1-7.6 20.7c0 0-4.8-.9-5-8.1z"/><path class="prefix__y" d="M678.7 1124c11.4-4.2 62.3 21 85 7.6 11.9-6.9 16.7-30.1 18.6-50.5s-19.9-37.3-39.7-28.7a94.3 94.3 0 00-32.7 24.1c-16.8 18.9-32.8 22.2-45 22.4-3.2-3-7.7-6-12.5-5.8-9.1.4-10.5 9.1-10.5 9.1-3.9 12.5 25.5 26.1 36.8 21.8z"/><path class="prefix__t" d="M540.6 955.7c-21.1-9.4-36.1 10-32.1 32.7 10.9 63.2 36.9 153.8 58.1 160.3 32 9.7 146.9-63.9 146.9-63.9l-16-19.1s-95.5 29.2-97.2 24.6-36.7-124.4-36.7-124.4z"/><path class="prefix__u" d="M550.1 907.3s-28.3 10.8-38.1 25.6-11.1 61.9 4.2 123.1c0 0 58.3-18.5 88.5-49.8 0 0-23.5-107.7-54.6-98.9z"/><path class="prefix__t" d="M697.5 1065.7a65.6 65.6 0 005.5-14c1.8-7.4 7.4-16 7.9-22.8s4.5-2.3 6 2-1.7 17.7 1.3 15.8 10-18.6 11.3-23.6 17.8 4.7 17.9 16.9-8.7 26.1-13.2 29.8-20.7 15-20.7 15zM774.3 1113.1a63.6 63.6 0 01-14.7-3.4c-7-2.7-17.3-3-23.1-6.6s-4.5 2.5-1.8 6.2 15.5 8.7 12.2 10-17.6-1.1-22.6-4.3c-10.2-6.5-6.9 18.1.4 24.5s26.5 7.8 32.1 6.1 24.1-8.4 24.1-8.4z"/><path class="prefix__t" d="M774.3 1113.1l8.6-1.9s13.2 12.8-2 26z"/><rect x="171" y="1806.9" width="2919.7" height="7.61" rx="3.3" fill="#2e3552"/><path class="prefix__f" d="M2249.6 1232.4h-483.7V839h483.7zm-471.8-8.8h460V847.9h-460z"/><path class="prefix__f" d="M2006 839.2h3.9v388.36h-3.9zM2087.7 839.2h3.9v388.36h-3.9zM2169.4 839.2h3.9v388.36h-3.9zM1924.2 839.2h3.9v388.36h-3.9zM1842.5 839.2h3.9v388.36h-3.9z"/><path class="prefix__ac" d="M2095.9 765.3c-19.8-10.3-35.7-3.8-35.7-3.8-60.7-7.1-78.4 63.7-77.6 88s3.6 50.5-23.5 82.2c-78.3 91.4 85.7 95.4 85.7 95.4 1.4-73 88.9-46.4 85.1-39 112.2 27 11.2-199.4-34-222.8z"/><path class="prefix__t" d="M1865.6 1074.2s-12.6-19.3-22.8-19.7-29.1-5.6-27.6-1.8 13.3 4.1 14.4 6.4-17.4 5.6-22.7 6-17.7 0-17.3 2.7 22.4 13.5 38 12 34.8 4.6 34.8 4.6z"/><path class="prefix__ad" d="M2016.2 1075.1a172.6 172.6 0 01-16.4 24.7c-12.7 15.8-32.2 34.2-56.8 37.8-11.7 1.7-23.2-.8-33.7-5.5h-.1c-29.8-13.2-52.2-43.7-52.2-43.7-5.3-14.3 3.3-24 3.3-24s60.3 13.5 66 10.7 39.2-99.3 47.1-111.4 35.2-18.4 35.2-18.4z"/><path class="prefix__ae" d="M1999.8 1099.8c-12.7 15.8-32.2 34.2-56.8 37.8-11.7 1.7-23.2-.8-33.7-5.5 1.1.2 30.9 3.9 42.8-17.4s25.2-56.1 43.2-44.6c7.8 5 7.4 17.3 4.5 29.7z"/><path class="prefix__r" d="M2240.9 1725.2s18.3 16.8 14.7 28.7-20.1 19.8-22.4 34.4-11.2 22.5-19.2 22.5h-38.5s-5.9-10.2 8.4-13.3 19.8-20.2 18.9-36.1 1.3-37.1 1.3-37.1l30.5-7.1zM2085.3 1732.3s6.6 71.1-1.5 75l-103.2-.2s0-11.9 16.6-14.5 45.7-12.4 50.6-34 37.5-26.3 37.5-26.3z"/><path class="prefix__t" d="M2158.9 1222.6c-21.3-47.7-34.3-61.4-31.8-76.1 1.9-11.1-5.6-205.3-5.6-205.3-2.5-.8-7.6-1.5-10.3-2.1a25.7 25.7 0 01-19-16.4c-3.6-10.2-6.5-25.1-6.4-43.9l-2.7.6-45.8 9s1.1 14.4 1.1 28v.3a26.5 26.5 0 01-19 25.5l-10.8 3.1s-16.8 48-20 97.3 30.5 70.7-.3 169.1c-31.5 100.6 182.3 37.2 170.6 10.9z"/><path d="M2037.3 888.4s1.1 14.4 1.1 28c25.6-.7 39.1-24.1 44.7-37z" fill="#e8945b"/><path class="prefix__t" d="M2028.8 901.3s60.5 1 60.6-36.8 7.9-63-30.8-65.2-46.2 12.1-49.3 24.7 3.7 76 19.5 77.3z"/><path class="prefix__ac" d="M2031 798.3s16.6 44.3 42.1 50.9 36.5-.3 36.5-.3-19.6-15.5-23.6-42.6c0 0-42.5-29-55-8z"/><path class="prefix__ac" d="M2035.1 801.9s-12.3 4.6-17.4 13.6a61.4 61.4 0 00-8.1 34.7s-12.5-30.1 1.5-47.2 24-1.1 24-1.1z"/><path class="prefix__b" d="M2041.9 877.9a15 15 0 01-12.5 5.1 11.3 11.3 0 01-9.3-6.2s12.3-3 21.8 1.1z"/><path class="prefix__ad" d="M2150.6 1027.1s-.2 28.8-1.7 54.8c-1.1 17.3-2.6 33.3-5.1 39-6.2 14.4-13.2 16.7-13.2 16.7l-54.3 13.3-19 4.7-60.1-18s-27.4-76.4-16.4-119.4 27.8-72.9 27.8-72.9 49 48 112.9-4.1z"/><path class="prefix__ae" d="M2148.9 1081.9c-1.1 17.3-2.6 33.3-5.1 39-6.2 14.4-13.2 16.7-13.2 16.7l-54.3 13.3-23.5-6.9s84.1-36 75.3-103.6z"/><path class="prefix__k" d="M2001 1149.2s-29.8 92.7-31.7 124.2 56.9 448.2 59.3 462.7 19.2 22.5 19.2 22.5 7.9 4.6 19 1.4c15.5-4.3 20.4-9.6 20.4-9.6s23.2-297.1 8.8-403.3a1689.3 1689.3 0 01-14.5-197.9z"/><path class="prefix__q" d="M2127.1 1146.5s45.4 60.9 49.7 102.1 6.6 185.8 15.6 226 42.2 117.4 42.2 242.6c0 0-3.5 7.2-14.1 11a98.6 98.6 0 01-12.4 3.5 19.5 19.5 0 01-21.8-10.4c-22.4-45.1-93.7-190.6-97.4-220.8-2.6-21.3-25.1-162.8-74.3-245.8-11.8-19.9 7.3-99.1 7.3-99.1z"/><path class="prefix__a" d="M2040.6 878.9s-1.1 4.4-12.1 3.7c0 0-9.3-.5-9-5.4 0 0 9-3.5 21.1 1.7z"/><path class="prefix__r" d="M1996.2 1134.9s12 9.5 35.7 9.9c28.4.6 98.7-7.2 98.7-7.2a57.1 57.1 0 012.9 18s-85.8 21.6-135.5 3.1c0 0-6.4-12.1-1.8-23.8z"/><path class="prefix__a" d="M2025.1 1169.3c-7.1 0-12.9-6.6-12.9-14.7s5.8-14.6 12.9-14.6 13 6.6 13 14.6-5.8 14.7-13 14.7zm0-25c-4.7 0-8.6 4.6-8.6 10.3s3.9 10.4 8.6 10.4 8.7-4.7 8.7-10.4-3.9-10.3-8.7-10.3z"/><path class="prefix__t" d="M2120.7 1214.4s-5.1 12-11.6 13.8-11.5 7.7-13.8 9.4-6.6 2.3-5.4 4.1 12.9-1.5 14.5-2-9.5 11-13 14.6-11.7 8.8-9.8 11.2 24.9-.2 34.3-6.4 18-31.2 18-31.2z"/><path class="prefix__ad" d="M2121.5 941.2s35.2 5.1 48.7 30.1 45.9 139.4 39 159.4-75.6 104.6-75.6 104.6-18.8-4.8-18.8-14.4c0 0 41.5-97.4 40.8-105s-38.9-66.1-37.5-92.5 3.4-82.2 3.4-82.2z"/><path class="prefix__ac" d="M1752.1 862.1h13.8v31.26h-13.8zM1752.1 1149.4h13.8v31.26h-13.8z"/><path class="prefix__j" d="M962.2 1241.5h789.9v1.57H962.2z"/><path class="prefix__ag" d="M1403.9 1098.9s9.8 53.1 59.4 79.2c0 0 9.1 2.2 11.1 7.1s13.4 39.4 19.5 39.4c11-.2 7-19.3 4.4-29.4-1.8-7.1-2.4-26-4.7-28.7s-15-23.5-9.7-35.8 6.6-42.2-23.9-52.9-56.1 21.1-56.1 21.1z"/><path class="prefix__ag" d="M1489.3 1204.4s-15.8 4.7-16.1 10.3a21.3 21.3 0 002.4 10.1l19.8-.2z"/><path class="prefix__s" d="M806.2 1716s-19.2 17.8-15.4 30.4 21.1 21.1 23.4 36.6 11.7 23.9 20.2 23.9h40.2s6.2-10.9-8.8-14.2-20.7-21.4-19.7-38.3-1.4-39.4-1.4-39.4l-31.9-7.5zM1042 1762.1s-4.5 40.6 4 44.8h108.8s.2-12.9-17.2-15.7-47.8-13.1-52.9-36.1-42.7 7-42.7 7z"/><path class="prefix__ah" d="M1133.2 1189.5s-5.7 71.1-12.4 156.5c-9.1 116-20.1 258.5-21.1 285.5-1.9 46.9-9.4 121.9-9.4 121.9s-17.8 17.8-53.5 10.3c0 0-31.7-107-40.8-220.3-.1-1.9-.3-3.7-.4-5.6-8.4-115.3-21.6-358.1-21.6-358.1z"/><path class="prefix__s" d="M1133.2 1189.5s-5.7 71.1-12.4 156.5L996 1543.4c-.1-1.9-.3-3.7-.4-5.6-8.4-115.3-21.6-358.1-21.6-358.1z"/><path class="prefix__ah" d="M1107.2 1198s-102.7 257.3-170.2 378.2-88.6 154.7-88.6 154.7-38.7-15.5-42.2-26c0 0 25.8-233.5 71-290.4 25.6-32.1 55.6-128.7 57-162.4s9.1-100.5 9.1-100.5z"/><path class="prefix__t" d="M1398.3 1076.7s28.5-.6 33.1.7 19.2 11.3 19.1 12.6-1 2.3-3.8 1.9-11.7-3.4-11.4-2.2 25.6 11.8 24.8 17.2-17.2 12.2-29.6 10.3-33.3-20.9-35.3-21.5c-17.1-5.1 3.1-19 3.1-19z"/><path class="prefix__k" d="M1408.5 1086.1c6.5-11.7 6-13.8 6-13.8s-98.2-82.6-107.1-90.8-98-153.3-98-153.3l-123.6 8.1s152.6 175.3 175.5 195.5c37.8 33.4 134.2 67.8 134.2 67.8a37.8 37.8 0 0013-13.5z"/><path class="prefix__t" d="M1152.4 792.8s41.9 73.7 82.8 83.3c0 0-1.2-18.1-7.8-33.9a14.8 14.8 0 012.3-15.1l4.6-5.8a245.5 245.5 0 0015.2-21.3l-13.9-37.4-9.4-25.3a121.4 121.4 0 01-14.7 21.2c-26.9 30.9-59.1 34.3-59.1 34.3z"/><path d="M1211.5 758.5s-5 36.9 22.8 62.8a245.5 245.5 0 0015.2-21.3l-13.9-37.4c-14.9-4.5-24.1-4.1-24.1-4.1z" fill="#ed975d"/><path class="prefix__t" d="M1260.5 805.4s-62.5-24.4-46.7-63.1 18.3-68 58.9-54.1 42.3 31.9 40.2 46.1-35.7 76.5-52.4 71.1z"/><path class="prefix__q" d="M937.3 1171c25.2 36.3 214 84.8 211.7 59.7a281.4 281.4 0 010-49.6q.8-8.1 2.1-17.1c4.7-33 16.1-75.5 41.5-124.6q2.9-5.6 6-11.1a396.2 396.2 0 0026.2-58.8c13-37.8 18.3-74 11.7-97.6 0-.1-6.2-25-6.2-25.1-39.5-18.2-48.6-64.3-48.6-64.3s-134.6 24.2-210 203.6c0 0-56.4 153.3-34.4 184.9z"/><path class="prefix__k" d="M1149 1181.1q.8-8.1 2.1-17.1c4.7-33 16.1-75.5 41.5-124.6-4.3-26.4-10.3-48.4-17-58.3-26.8-40.2-42.4-46.5-42.4-46.5s-40.3 169.7 15.8 246.5z"/><path class="prefix__y" d="M1204.8 670.3c-.5-.8-1.7-1.8-4.8-2.7a12.5 12.5 0 016.3-.2c1.7-4.3 6-11.6 14-11.7a9.9 9.9 0 00-6.3 5.8c11-7 31.3-9 82.1 7.9 67 22.3 33.5 61.2 23.4 64.3s-28.9-16.9-45.7-19.6-25.8 20.7-32.2 22.6-2.8-3.4-9.5-8.7-10.6 7.2-10.4 16-13 17.2-13 17.2l-7.6-14.1c-7.7-14-5.6-65.1 1.7-74.3z"/><path class="prefix__a" d="M1258.4 778.5s.2 6.3 2.4 8.3 10.6 5.5 12.6 5 6.3-3.9 6.3-3.9-12.4-8.3-21.3-9.4z"/><path class="prefix__ag" d="M1309.6 993.6s-54.1 15.7-87.4 3.6c0 0-12.3-19.1-19.1-14.5s-4.1 20.2 8.7 28.6 82.7 28 87.3 26.2 10.5-43.9 10.5-43.9z"/><path class="prefix__u" d="M1295.2 942.8s10.9 18.8 7.3 37.1c-3 15.2-18.1 40.4-10.1 60.7s72.3 36.4 88.7 54.4 84.7 49.6 96.6 27.3c13.8-25.7 18.7-62.4-36.3-88.4-45.1-21.4-106-105.7-106-105.7z"/><path class="prefix__u" d="M1360.2 905.5s-18.1-11.8-32.5-7.9-32.9-18.5-41.8-10.7-18.8 29.2 2.2 50.1 38.4 32.6 53.4 25.9 35.6-50 18.7-57.4zM1337.2 1013.9s-72.1 44.3-79.4 45.3-16.8-9.4-23-.8 13.7 21.1 21.2 24.1 87.8-18.4 87.8-18.4zM1401.6 1086.9s-4.2 53.7 37 91.8c0 0 8.2 4.4 9 9.6s-.3 35.5 11.5 36.4 8.9-10.1 8.9-20.6c.1-7.3 4.4-25.7 2.9-28.9s-8.5-26.5-.2-37.1 17.3-39-9.4-57.2-59.7 6-59.7 6zM1462.4 1046.3s46.9 36.9 70.7 35.2c29.2-2 30.3-26.5 30.3-26.5a32.8 32.8 0 016.4 31.2c-6.7 21.9-54.6 48.6-90.1 8.7z"/><path class="prefix__ah" d="M1303.2 972.5s29.5 10.8 65.7-5c0 0 9.8 8.5 9 12.6 0 0-41.8 19.2-76.9 5.6 0 0-6.9-7.3 2.2-13.2z"/><path d="M1345 921s-21.5 60.7 4.9 85.5 34.6-18.5 29-35.8-16.8-66.3-33.9-49.7z" fill="#d39e7a"/><path class="prefix__t" d="M1364.2 1077.2s36.7-6.6 42.8-5.9 27.1 10.7 27.3 12.4-.9 3.1-4.6 3.2-15.8-2-15.1-.5 35.4 10 35.5 17.1-19.8 19.2-36 19.4-47.3-20.3-50-20.7c-23.1-3.1.1-25 .1-25z"/><path class="prefix__q" d="M1371.1 1092.2c.7-7.3-6.9-15-6.9-15s-108.9-30-117.9-39.1-50.8-153.9-50.8-153.9-14.4-58.7-48-65.1c-29.3-5.7-49.5 8.8-62.7 25.8a62.4 62.4 0 00-4.3 70.1c29.4 49.5 88.7 147.8 106 164.5 38.5 37.4 177.6 29.7 177.6 29.7s5.6-2.5 7-17z"/><path class="prefix__u" d="M1454.3 1204.4s-15.9 4.6-16.2 10.2a21.9 21.9 0 002.3 10.1h19.8z"/><path class="prefix__f" d="M2617.2 925.1l-39.6-201.3-10.4 201.2h-1.1l10.9-210.3 41.3 210.2-1.1.2zM2519.7 1132.5l-1.1-.1 35.1-413.1h1.1l19.3 412.3h-1.1l-18.9-403.9-34.4 404.8z"/><path class="prefix__f" d="M2618 928.6h-49.9a3.6 3.6 0 01-3.6-3.6 3.6 3.6 0 013.6-3.6h49.9a3.6 3.6 0 013.6 3.6 3.6 3.6 0 01-3.6 3.6z"/><path class="prefix__q" d="M2591.5 730l-28-1.1-28 1.1a28 28 0 0156 0zM2563.7 690.8a22.5 22.5 0 1122.5-22.5 22.5 22.5 0 01-22.5 22.5zm0-41.7a19.2 19.2 0 1019.1 19.2 19.2 19.2 0 00-19.1-19.2z"/><path class="prefix__q" d="M2562.3 688.9h2.7v24.27h-2.7zM2589.2 909.3s.6 11 0 11-9.7-.2-11.5.8 3.4 7.3 5.1 7.5c0 0-2.7-5.6-1.1-5.4s7.9 1.1 8.7.7 7-8.3 4.2-12.1-5.4-2.5-5.4-2.5z"/><path class="prefix__ak" d="M2547.5 834.9s-3.9-4.6 2.6-8.3 24.1-4.5 33.4 2 5 19.6 12.4 21.5 24.4 10 30.2 28 56.3 47 47.7 47.7-25.6-7.4-25.6-7.4 4.7 5.8 2 6.4-21.2-3-27-9.7c0 0 4 4.1 1.1 4.6s-31.9-7.1-39.3-12.7-29.4-21-24.1-40.1c0 0-5.1-12.2-2-16.4s-.1-9.9-.1-9.9z"/><path class="prefix__q" d="M2554.9 858.3s-17.2-9.3-7.4-23.4c0 0 1.5-2.2 5.7.6s6.3 3.4 5.6 5.1-3.3 2.7-2.9 3.9 1.1 2-.4 3.2-4.1 4.7-.6 10.6z"/><path class="prefix__q" d="M2554.3 849.4s2.9-.7 2.7-2a8.7 8.7 0 01.7-4.2c.7-1.3.6-3 1.6-3s8.7 5.5 7.2 8.8-10.6 3.5-12.2.4z"/><path class="prefix__ak" d="M2588.7 896.7s-4.2 15.4 0 17.3 11 .2 11.2-5.9-10.8-13-11.2-11.4z"/><path class="prefix__q" d="M2591.5 859.9s-14 .7-16.6 7.2 21 32.6 41.7 33.4c0 0 2.8-2.4-1.2-6.5 0 0 13.3 10.7 15.7 6.5 0 0 12.6 4.2 9.5-.3s-7.6-8.5-11.9-9.5-21-1.6-28.8-4.9-21.6-13.3-19.7-17.2 5.2-6.4 11.3-8.7z"/><path class="prefix__f" d="M2520 1135.2h53.5a3.6 3.6 0 003.6-3.6 3.6 3.6 0 00-3.6-3.6H2520a3.6 3.6 0 00-3.6 3.6 3.6 3.6 0 003.6 3.6z"/><path class="prefix__q" d="M2549.7 1115.4s-1.4 11.5-.8 11.5 9-.4 10.9.6-3.4 8-5.2 8.2c0 0 3.4-6.1 1.8-5.9s-8.8.7-9.6.2-4.3-6.1-3.3-11.6 6.2-3 6.2-3z"/><path class="prefix__ak" d="M2590.5 1041.5s4-4.5-2.5-8.3-24.2-4.5-33.4 2-5 19.6-12.5 21.5-24.3 10-30.2 28-56.2 47-47.6 47.7 25.5-7.4 25.5-7.4-4.7 5.8-1.9 6.4 21.2-3 26.9-9.7c0 0-3.9 4.1-1 4.7s31.9-7.2 39.2-12.8 29.4-21 24.1-40.1c0 0 5.1-12.2 2-16.4s.2-9.9.2-9.9z"/><path class="prefix__q" d="M2583.2 1064.9s17.1-9.3 7.3-23.4c0 0-1.5-2.2-5.6.6s-6.3 3.5-5.6 5.1 3.2 2.7 2.8 3.9-1 2 .4 3.2 4.2 4.7.7 10.6z"/><path class="prefix__q" d="M2583.8 1056s-2.9-.6-2.8-2a7.8 7.8 0 00-.7-4.2c-.6-1.3-.6-3-1.6-3s-8.7 5.5-7.1 8.8 10.6 3.6 12.2.4z"/><path class="prefix__ak" d="M2549.4 1103.3s4.1 15.4 0 17.3-11.1.2-11.2-5.9 10.8-12.9 11.2-11.4z"/><path class="prefix__q" d="M2546.5 1066.5s14 .8 16.6 7.2-21 32.7-41.7 33.4c0 0-2.7-2.4 1.2-6.5 0 0-13.3 10.7-15.7 6.5 0 0-12.6 4.2-9.5-.3s7.6-8.5 11.9-9.5 21.1-1.6 28.9-4.8 21.6-13.3 19.7-17.3-5.2-6.4-11.4-8.7z"/><path class="prefix__j" d="M2755.6 918.8h-2.3c0-104.1-84.7-188.8-188.8-188.8s-188.9 84.7-188.9 188.8h-2.2c0-105.3 85.7-191.1 191.1-191.1s191.1 85.8 191.1 191.1zM2755.6 1237.1h-382.2V918.8h2.2v316.1h377.7V918.8h2.3v318.3z"/><path class="prefix__j" d="M2732 918.8h-2.2c0-104.1-74.2-188.8-165.3-188.8s-165.3 84.7-165.3 188.8h-2.2c0-105.3 75.1-191.1 167.5-191.1S2732 813.5 2732 918.8zM2732 1237.1h-335V918.8h2.2v316.1h330.6V918.8h2.2v318.3z"/><path class="prefix__j" d="M2698.9 918.8h-2.2c0-104.1-59.3-188.8-132.2-188.8s-132.2 84.7-132.2 188.8h-2.2c0-105.3 60.3-191.1 134.4-191.1s134.4 85.8 134.4 191.1zM2698.9 1237.1h-268.8V918.8h2.2v316.1h264.4V918.8h2.2v318.3z"/><path class="prefix__j" d="M2653.2 918.8h-2.2c0-104.1-38.8-188.8-86.5-188.8s-86.6 84.7-86.6 188.8h-2.2c0-50.9 9.2-98.7 25.8-134.8s39.1-56.3 63-56.3 46.2 20 62.9 56.3 25.8 83.9 25.8 134.8zM2653.2 1237.1h-177.5V918.8h2.2v316.1H2651V918.8h2.2v318.3z"/><path class="prefix__j" d="M2601.6 918.8h-2.2c0-102.3-16-188.8-34.9-188.8s-35 86.5-35 188.8h-2.2c0-107.1 16.3-191.1 37.2-191.1s37.1 84 37.1 191.1zM2601.6 1237.1h-74.3V918.8h2.2v316.1h69.9V918.8h2.2v318.3z"/><path class="prefix__q" d="M2372.5 1237h383.8a17.6 17.6 0 0117.6 17.6v49.5h-418.8v-49.8a17.4 17.4 0 0117.4-17.3z"/><path class="prefix__j" d="M2374.5 901.2h380v2.22h-380zM2374.5 1115.3h380v2.22h-380z"/></svg>