<svg xmlns="http://www.w3.org/2000/svg" viewBox="0 0 3000 2000"><defs><style>.prefix__a{fill:#fff}.prefix__d{fill:#aec3ff}.prefix__f{opacity:.5}.prefix__g{fill:#c5ddff}.prefix__j{fill:#f99746}.prefix__k{fill:#a8d29f}.prefix__l{fill:#d8702a}.prefix__m{fill:#ed7d2b}.prefix__p{fill:#e6f0ff}.prefix__q{fill:#f78248}.prefix__r{fill:#2c3a64}.prefix__s{fill:#ffb27d}.prefix__u{fill:#2f539b}.prefix__v{fill:#233862}.prefix__w{fill:#94b0ed}.prefix__z{fill:#0e2644}.prefix__aa{fill:#163560}</style></defs><path class="prefix__a" d="M0 0h3000v2000H0z"/><path d="M306.2 1715.7s-183.7-278 16.4-605 468.9-162.6 455.9-543.3 555.4-417.5 756.3-307.2 378.3 47.2 618.2 54.9c389.1 12.5 498.1 396.4 390.2 583.3-153.1 265.1 479.5 296.3 115.4 817.3z" fill="#ebf3fa"/><path class="prefix__d" d="M610.5 1116.6c-18.1-66.3 89-105.1 89-105.1s124.4 61.7 144.9 52.9-96.1-73.5-96.1-73.5c34.9-25.3 155.7-35.3 155.7-35.3s62.6 120.4 80.3 106.8-60.9-103.7-60.9-103.7c42.1-10.3 100 11.8 100 11.8 81.6 43.5 21.5 146.1 21.5 146.1s22.6 41.2 75 73 10.7 5.3 25 16.5l-9.8 5.8c-2.3-2.2-4.7-4.2-7.1-6.1h-.1l-6.5-4.6c-6.4-4.1-11-7.2-14.1-9.6-19.7-13.1-46.5-29.4-58.1-29.3a22 22 0 00-.5-5.7c.2 1.8.4 3.7.5 5.7 4.3 45.5-75.6 100.5-127.7 118.2s-39.6-7.2-27-43.2 68.3-61.2 78.9-78.6-17-12.5-46.6 8.1-26.9 60.6-74.2 94.8-140.7-37.6-140.7-37.6c40.9-9.6 91.7-65.1 87.1-78.4s-95.7 41.8-112.2 46.6-58.2-9.2-76.3-75.6z" opacity=".3"/><path d="M2401.7 1604.6c66.5-64.6-31.2-183.1-31.2-183.1s-186.7-13.7-204.5-38 162-19.4 162-19.4c-23.2-53.3-156.6-147.8-156.6-147.8s-155.3 96.8-166.5 68.9 141.9-78.7 141.9-78.7c-41.8-40.8-124.2-54.8-124.2-54.8-124.6-5.5-125.3 154.8-125.3 154.8s-54.5 32.4-137.1 33.4-16-1.2-40.3 2l7.3 13.3c4.2-.9 8.4-1.6 12.4-2.1h.3l10.7-.9c10.2-.4 17.7-.9 22.9-1.5 31.8-1.7 74.2-2.2 87.6 5.7a27.4 27.4 0 014.5-6.2l-4.5 6.2c-36.3 50 18.8 168.7 67.2 225s50.8 18.7 61-31.7-37.4-117.8-37.7-145.4 28.2-2.9 48.5 41.4-10.4 88.9 21 161 189.3 52.8 189.3 52.8c-40.9-39.1-61.9-138.4-47.4-150.7s82.5 114.2 98.3 131 73.8 29.4 140.4-35.2z" fill="#dfebfd"/><g class="prefix__f"><path class="prefix__g" d="M993.1 920.3s-84.9-88.5-178.6-109c-12.4-2.7-21.4 11.8-13.5 21.8l.4.5c13.7 16.8 124.8 47.9 191.7 86.7z"/></g><g class="prefix__f"><path class="prefix__g" d="M1020.2 943.6s-141.4-84.2-266.8-74a14.6 14.6 0 00-13.4 14.8c.2 5 3.1 10.9 11.7 17 22.9 16.3 171.8 16.9 268.5 42.2z"/></g><g class="prefix__f"><g class="prefix__f"><path class="prefix__d" d="M2016 1138.4s20.2-126.2 88.2-199.2c9-9.7 25.3-2.7 24.5 10.6a1.5 1.5 0 00-.1.7c-1.7 22.5-78.2 115-112.6 187.9z"/></g><g class="prefix__f"><path class="prefix__d" d="M2006.7 1174.4s71-155.9 184.3-221.5c7-4 16-2.1 20.3 4.6 2.7 4.4 3.8 11.2.1 21.5-9.9 27.5-136.9 116.4-204.7 195.4z"/></g></g><path d="M1434.9 848.6l49.5-5.4a11.1 11.1 0 0110.4 5c2.8 4.4 5.9 8.8 9.2 13.1a178.2 178.2 0 0019.5 21.9 10.9 10.9 0 012.6 12l-19.1 48.4a10.6 10.6 0 005.3 13.5l42.5 21.3a10.7 10.7 0 0013.6-3.7l25.9-40.3a10.4 10.4 0 0111.8-4.6 194.7 194.7 0 0060.4 6.2 10.9 10.9 0 0110.9 7.6l8.7 27.8a10.9 10.9 0 0012.5 7.5l46.3-9.2a7.8 7.8 0 002.7-.9 10.7 10.7 0 006-10.8l-4.1-37-1-9a180.9 180.9 0 0022.5-14.7 191.7 191.7 0 0026.4-24.3 10.5 10.5 0 0111.9-2.9l38.9 15.5a11 11 0 0013.9-5.4l16.3-32.5 4.6-9.3a11.2 11.2 0 00-3.9-14.4l-33.7-21.7a10.6 10.6 0 01-4.7-11.5 191.4 191.4 0 005.3-40.5c.1-1.2.1-2.3.1-3.4a4.8 4.8 0 010-1.2 11 11 0 017.7-9.3l45.2-14.1 1.4-.6a10.9 10.9 0 006-11.9l-9.1-46.2a11 11 0 00-12-8.8l-51.6 5.7a10.7 10.7 0 01-10.6-5.6 190.7 190.7 0 00-16.1-24.8c-3.2-4.2-6.6-8.3-10.1-12.2a11.4 11.4 0 01-2.1-11.6l18.4-46.5a10.7 10.7 0 00-5.2-13.5l-42.1-20.9a11.2 11.2 0 00-14.4 4l-20.5 31.8a11 11 0 01-12.8 4.5 191.7 191.7 0 00-58.1-10.6 10.9 10.9 0 01-10.3-7.7l-12.7-40.7a11.3 11.3 0 00-12.9-7.6l-46 9a10.8 10.8 0 00-8.7 11.8l.3 2.2 4.6 42.9a11 11 0 01-5.9 11.1h-.1a193.2 193.2 0 00-28.6 18.1 175.3 175.3 0 00-13.9 11.7 10.9 10.9 0 01-11.4 2.2l-39.5-15.7a11.2 11.2 0 00-14.2 5.4l-20.8 41.9a10.4 10.4 0 00-1.1 3.7 11.3 11.3 0 004.9 10.5l27 17.2a11.4 11.4 0 015 9.7 15.9 15.9 0 01-.6 3 190.6 190.6 0 00-9.9 74.9 10.9 10.9 0 01-5.8 10.3l-1.7.7-36.6 11.5a10.9 10.9 0 00-7.5 12.5l.2 1.1 8.9 45a11.2 11.2 0 0012.1 8.8zm316.9-139.5a121 121 0 016.6 22.8c3 15.6-.2 40.1-7.3 54.3-.7 1.5-1.5 3-2.3 4.5-48.6 89.7-175.4 71.5-196.1-30-2.6-13.2-.9-32.5 3.9-47.3a74.7 74.7 0 013.8-9.3 120.1 120.1 0 0123.7-32.5c52.3-49.8 139.3-33.2 167.7 37.5z" fill="#91b5f8" opacity=".2"/><path class="prefix__d" d="M2061 767.6l30.7-3.4a7.2 7.2 0 016.5 3.1 86.3 86.3 0 005.7 8.2 121.1 121.1 0 0012.1 13.6 6.6 6.6 0 011.6 7.4l-11.8 30.1a6.6 6.6 0 003.2 8.4l26.4 13.2a6.8 6.8 0 008.5-2.3l16-25.1a6.6 6.6 0 017.4-2.8 121.2 121.2 0 0037.5 3.8 7 7 0 016.8 4.8l5.4 17.3a6.7 6.7 0 007.7 4.6l28.8-5.7a5.8 5.8 0 001.7-.6 6.6 6.6 0 003.7-6.7l-2.5-22.9-.6-5.6a133.5 133.5 0 0013.9-9.2 124.5 124.5 0 0016.4-15.1 6.7 6.7 0 017.4-1.8l24.2 9.6a6.8 6.8 0 008.6-3.3l10.1-20.2 2.8-5.8a6.8 6.8 0 00-2.4-8.9l-20.9-13.5a6.5 6.5 0 01-2.9-7.1 113 113 0 003.2-25.2 14.8 14.8 0 00.1-2.1 1.5 1.5 0 01.1-.7 6.6 6.6 0 014.7-5.8l28.1-8.8a3.2 3.2 0 00.9-.3 6.8 6.8 0 003.7-7.4l-5.7-28.7a6.9 6.9 0 00-7.4-5.5l-32 3.6a6.7 6.7 0 01-6.7-3.5 121.7 121.7 0 00-9.9-15.4c-2-2.6-4.1-5.2-6.3-7.6a6.8 6.8 0 01-1.3-7.2l11.4-28.8a6.6 6.6 0 00-3.2-8.4l-26.2-13a6.8 6.8 0 00-8.9 2.4l-12.7 19.8a6.9 6.9 0 01-8 2.8 119.9 119.9 0 00-36.1-6.6 6.7 6.7 0 01-6.4-4.8l-7.9-25.2a7 7 0 00-8-4.8l-28.5 5.6a6.7 6.7 0 00-5.4 7.4v1.3l2.9 26.7a6.7 6.7 0 01-3.7 6.8 112.5 112.5 0 00-17.8 11.2c-3 2.3-5.8 4.7-8.6 7.2a6.7 6.7 0 01-7.1 1.4l-24.5-9.7a6.9 6.9 0 00-8.8 3.3l-13 26.1a8.8 8.8 0 00-.7 2.3 6.9 6.9 0 003.1 6.4l16.7 10.7a7 7 0 013.2 6.1 11.6 11.6 0 01-.4 1.8 120.9 120.9 0 00-6.2 46.6 6.6 6.6 0 01-3.6 6.4l-1 .4-22.7 7.1a6.9 6.9 0 00-4.7 7.8l.2.6 5.5 28a6.8 6.8 0 007.6 5.6zm196.8-86.7a86.9 86.9 0 014.1 14.2c1.9 9.7-.2 24.9-4.5 33.7l-1.5 2.8c-30.2 55.7-108.9 44.4-121.7-18.6-1.7-8.2-.6-20.2 2.4-29.4a38.9 38.9 0 012.3-5.8 73.6 73.6 0 0114.7-20.1c32.5-31 86.5-20.7 104.2 23.2z"/><path class="prefix__j" d="M1881.8 579.9l21-7a4.9 4.9 0 015 1.2l5.2 4.8a86.6 86.6 0 0010.6 7.7 4.9 4.9 0 012.3 4.9l-3.8 22.8a4.8 4.8 0 003.6 5.4l20.5 5.2a4.6 4.6 0 005.5-2.9l7.5-19.9a4.7 4.7 0 014.7-3.1 86.6 86.6 0 0026.8-3 4.8 4.8 0 015.5 2.2l6.4 11.3a4.8 4.8 0 006.1 2.1l19.3-8.4 1.1-.6a4.8 4.8 0 001.5-5.3l-5.2-15.7-1.3-3.8a96.3 96.3 0 008.4-8.5 85.6 85.6 0 009.1-13.1 4.9 4.9 0 014.9-2.4l18.4 3.1a4.9 4.9 0 005.5-3.7l4-15.6 1.1-4.5a4.8 4.8 0 00-3-5.9l-16.7-6.2a4.7 4.7 0 01-3.1-4.6 84.1 84.1 0 00-1.6-18.1 4 4 0 00-.3-1.5v-.5a4.8 4.8 0 012.4-4.8l18.3-10.4.6-.4a4.9 4.9 0 001.5-5.7l-8.4-19.2a4.9 4.9 0 00-6-2.7l-21.9 7.3a4.5 4.5 0 01-5.1-1.4 91.1 91.1 0 00-9.4-9.2c-1.8-1.6-3.6-3-5.5-4.4a4.9 4.9 0 01-2-4.8l3.6-21.9a4.8 4.8 0 00-3.5-5.4l-20.3-5.1a4.9 4.9 0 00-5.9 3.1l-5.9 15.7a4.9 4.9 0 01-5.1 3.2 82.8 82.8 0 00-26.3.9 5 5 0 01-5.2-2.4l-9.4-16.5a5 5 0 00-6.3-2.1l-19.1 8.3a4.9 4.9 0 00-2.7 6l.3.9 6.1 18.2a4.9 4.9 0 01-1.5 5.4 88.9 88.9 0 00-10.8 10.5c-1.7 2.1-3.3 4.2-4.9 6.4a4.7 4.7 0 01-4.7 2.1l-18.7-3.1a4.9 4.9 0 00-5.6 3.7l-5.1 20.2a5 5 0 00-.2 1.7 4.7 4.7 0 003.2 4l13.3 5a4.9 4.9 0 013.1 3.7 6.6 6.6 0 01.1 1.4 84.3 84.3 0 002.7 33.5 4.7 4.7 0 01-1.5 5l-.7.5-14.8 8.4a4.9 4.9 0 00-2.1 6.1l.2.5 8.1 18.7a4.9 4.9 0 006.1 2.7zm124.5-90.6a58.8 58.8 0 015.1 9.3c2.7 6.5 3.6 17.4 1.9 24.3l-.6 2.1c-12.6 43.6-69.4 47.7-88 5.6-2.4-5.5-3.5-14.1-2.8-21a28.7 28.7 0 01.8-4.4 53.8 53.8 0 017.2-16.3c18-26.6 57.4-27.6 76.4.4z"/><path class="prefix__k" d="M376.6 1713.9h90.5c4.8-4.1-3.4-13.5-12-14.1-3.7-.3-8.4.5-13.8 1.6-1.2-16.5-8.3-90.8-35.1-87.8-30.1 3.3 0 32.7 8.5 50.1 6.3 12.9 13 31.4 16 40.1l-7.6 1.5c-4-12.2-18.8-53.5-37.7-51.1-22.2 2.8-13.3 19.4 2.4 29.2 11.6 7.2 25.7 17.5 32.5 22.4a94 94 0 01-17.7 1.4c-15.5-.3-23.1 4.2-26 6.7zM2595.3 1711.7H2493c-5.5-4.7 3.8-15.2 13.5-15.9 4.2-.4 9.5.5 15.6 1.8 1.4-18.7 9.5-102.7 39.8-99.4 34 3.8 0 37.1-9.7 56.7-7.1 14.6-14.6 35.5-18.1 45.4l8.6 1.7c4.5-13.9 21.3-60.5 42.7-57.8 25.1 3.2 15 21.9-2.8 33-13.1 8.2-29.1 19.8-36.7 25.4a120 120 0 0020 1.6c17.5-.5 26.1 4.7 29.4 7.5z"/><path class="prefix__l" d="M1460.3 1087.7l-49.5 588.4s-5.2 35.7 21.3 35.7c43.7.2 217.2 0 217.2 0s-32.9-7.4-32.5-24.1c.5-19.7 57.9-605.5 57.9-605.5z"/><path class="prefix__j" d="M1665.6 1701.4c-8.6 0-176.6.3-219-.2-18.5-.3-21.8-16.5-21.9-27a55.5 55.5 0 01.5-8.8l1.3-15.2 3.3-39 2.9-34.5 3.7-44.2 3.1-37.4 35.2-418.1 214.4-5.5s-24.2 245.2-41.3 423.6l-5.4 56.8c-.5 5.7-1 11.2-1.6 16.6-1.5 16.9-3 32.4-4.2 46.1-.7 7.2-1.3 13.9-1.9 20.1-2.2 24.1-3.4 39.4-3.5 42.3a24.4 24.4 0 00.5 4.8c3.5 18.8 30.7 19.6 33.9 19.6z"/><path class="prefix__j" d="M939.6 767.6l120.6 484.1 16.5 66.3 56.1 225.5h1043l-206.9-775.9H939.6z"/><path class="prefix__l" d="M939.6 767.6l-16.7 5.5 187.7 787.3 22.2-16.9-193.2-775.9z"/><path class="prefix__m" d="M1110.6 1560.4h1036.6l28.6-16.9h-1043l-22.2 16.9z"/><path class="prefix__j" d="M1699.1 1712.1h-224.4v-10.66h224.4z"/><path fill="#e27329" d="M1642 1560.4l-1.2 8.1-211 42.7 2.9-34.5 1.4-16.3H1642z"/><g class="prefix__f"><path class="prefix__m" d="M1665.6 1701.4c-8.6 0-176.6.3-219-.2-18.5-.3-21.8-16.5-21.9-27l210-39.5c-2.2 24.1-3.4 39.4-3.5 42.3a24.4 24.4 0 00.5 4.8c3.5 18.8 30.7 19.6 33.9 19.6z"/></g><path class="prefix__m" d="M939.6 767.6h1029.3l167 623.6h-1041L939.6 767.6z"/><path fill="#505aba" d="M2087.3 1364.2h-963.6l-34.5-137.2-13.3-53.1-5.4-21.6-35.4-141-1.9-7.4-18.7-74.5-8.3-33.3-7.2-28.5-16.7-66.6h949.8l18.4 66.6 7.8 28.5 9.2 33.3 60.5 219.7 5.2 18.6 2.4 8.7 41.8 151.6 9.9 36.2z"/><path class="prefix__m" d="M1485.9 1391.2l-352.7 154.2-38.3-154.2h391z"/><path class="prefix__p" d="M1572.3 1153.6c-78.7 0-153.4-64.1-166.4-142.8S1446.2 868 1525 868s153.4 64 166.4 142.8-40.3 142.8-119.1 142.8zm-43.3-261c-65.1 0-109.3 53-98.5 118.2s72.6 118.1 137.7 118.1 109.4-53 98.6-118.1-72.6-118.2-137.8-118.2z"/><path class="prefix__j" d="M1572.4 1153.9c-78.9 0-153.8-64.2-166.9-143.1s40.5-143.1 119.4-143.1c42.9 0 86.3 18.9 119.1 52 25.3 25.6 42.3 57.9 47.8 91.1 1.1 6.9-3.6 12.6-10.6 12.6a15.5 15.5 0 01-14.7-12.6c-4.5-27.3-18.5-54-39.3-75-27.1-27.2-62.8-42.9-98.1-42.9-65 0-109.1 52.9-98.3 117.9s72.4 117.8 137.4 117.8a15.5 15.5 0 0114.7 12.6c1.2 7-3.5 12.7-10.5 12.7z"/><path class="prefix__p" d="M1843.3 1263.5l2.3 13.7c1.2 7.4-3.9 13.5-11.3 13.5h-478.4a16.6 16.6 0 01-15.8-13.5l-2.3-13.7c-1.2-7.4 3.9-13.5 11.3-13.5h478.4a16.6 16.6 0 0115.8 13.5z"/><path class="prefix__j" d="M1688.8 1250l6.7 40.7h-339.6a16.6 16.6 0 01-15.8-13.5l-2.3-13.7c-1.2-7.4 3.9-13.5 11.3-13.5z"/><path class="prefix__q" d="M1618.3 1250l-30.9 40.7h-70.3l30.9-40.7h70.3zM1688.8 1250l6.7 40.7h-65.2l30.9-40.7h27.6zM1505.1 1250l-30.9 40.7h-70.3l30.9-40.7h70.3zM1391.9 1250l-30.9 40.7h-5.1a16.6 16.6 0 01-15.8-13.5l-2.3-13.7c-1.2-7.4 3.9-13.5 11.3-13.5z"/><path class="prefix__p" d="M1495.4 991.8h-26.6l-1.4-8.2h37.3l1.2 7.1-16.4 46h-10.4zM1515.6 1010.2c-2.5-15.2 4.7-27.5 18.6-27.5s25.1 12.2 27.6 27.5-4.7 27.4-18.6 27.4-25.1-12.1-27.6-27.4zm36.6 0c-1.8-10.5-8.6-19.1-16.7-19.1s-12.1 8.4-10.3 19.1 8.5 19 16.7 19 12-8.4 10.3-19zM1567.5 996.6c-1.2-7.3 2.8-13.6 10.3-13.6s13.5 6.2 14.7 13.6-2.8 13.6-10.3 13.6-13.5-6.2-14.7-13.6zm18.3 0c-.7-4.2-3.7-7.7-7.2-7.7s-5.1 3.5-4.4 7.7 3.7 7.7 7.2 7.7 5.1-3.5 4.4-7.7zm23.7-13h7.5l-30 53.1h-7.5zm-5.5 40.1c-1.2-7.3 2.9-13.5 10.4-13.5s13.4 6.1 14.6 13.5-2.8 13.6-10.3 13.6-13.4-6.2-14.7-13.6zm18.3 0c-.7-4.2-3.7-7.7-7.1-7.7s-5.1 3.5-4.4 7.7 3.7 7.7 7.1 7.7 5.1-3.4 4.4-7.7zM1535.2 1217.8h2.9l2.3 13.7h8.6l.4 2.6h-11.5zM1550.1 1228a5.5 5.5 0 015.6-6.5 7.9 7.9 0 017.6 6.5c.6 3.5-1.7 6.4-5.6 6.4a7.9 7.9 0 01-7.6-6.4zm10.4 0a4.8 4.8 0 00-4.5-4c-2.2 0-3.4 1.8-3 4a4.6 4.6 0 004.4 3.9c2.3 0 3.4-1.8 3.1-3.9zM1574.7 1234.1l-.2-1.5a4.3 4.3 0 01-3.7 1.8 5 5 0 01-5.1-3.9c-.4-2.7 1.5-4 4.4-4a11.3 11.3 0 013.5.5v-.2a3.2 3.2 0 00-3.5-2.7 7 7 0 00-3.3.8l-1.2-2.3a9.7 9.7 0 014.5-1c3.7 0 5.8 1.9 6.3 5.2l1.2 7.3zm-.8-5.1a7.9 7.9 0 00-2.9-.5c-1.7 0-2.7.7-2.5 1.9a2.5 2.5 0 002.7 1.8c1.9 0 3.1-1 2.8-2.5zM1579.2 1227.9c-.7-4.1 1.7-6.4 4.7-6.4a6.1 6.1 0 014.5 2.2l-1.1-6.6h2.9l2.8 17h-2.8l-.4-2a4.2 4.2 0 01-3.8 2.3c-2.9 0-6.1-2.3-6.8-6.5zm10 0a4.4 4.4 0 00-4.2-3.9c-2 0-3.3 1.5-2.9 4a4.4 4.4 0 004.2 3.9c1.9 0 3.3-1.6 2.9-4zM1593.8 1217.2h3l.4 2.7h-3zm.8 4.6h2.9l2 12.3h-2.8zM1601.2 1221.8h2.8l.3 1.9a3.6 3.6 0 013.5-2.2c2.8 0 4.7 1.9 5.2 4.8l1.3 7.8h-2.9l-1.1-7a3.2 3.2 0 00-3.2-3c-1.6 0-2.5 1.1-2.2 3.1l1.1 6.9h-2.8zM1618 1236.4l.7-2.1a9.7 9.7 0 004.6 1.3c2.6 0 3.7-1.3 3.3-3.8v-.9a4.5 4.5 0 01-4 2.2 6.8 6.8 0 01-6.6-5.8c-.6-3.6 1.8-5.8 4.7-5.8a6.4 6.4 0 014.6 2.1l-.3-1.8h2.8l1.7 9.8c.3 2.1 0 3.6-.8 4.6s-2.6 1.7-4.8 1.7a11.9 11.9 0 01-5.9-1.5zm7.9-9.1a4.3 4.3 0 00-4.2-3.4 2.7 2.7 0 00-2.9 3.4 4.1 4.1 0 004 3.5 2.9 2.9 0 003.1-3.5z"/><path class="prefix__r" d="M876.6 1125.1s2.4-26.3-26.9-26.3c0 0 8.9 2.4 13.5 7.2 0 0-18.8-11-39.2 5.9s-7.7 59.3-13.9 67.4-30.3 9.6-27.4 35.7 76.7 58.6 71.9 80.1c0 0 28.9-42.4 8.2-61.8 0 0 10.1 9.5 11.1 20.7 0 0 2.8-22-11.2-29-12.4-6.2-22.6-29-21.5-33.1s35.4-66.8 35.4-66.8z"/><path class="prefix__s" d="M847.7 1251.3s21.9 90.8 43.5 109c12.9 10.9 51.4 35.9 51.4 35.9l-16 5.8s-53.4-18-65.3-32.1-44.7-84.5-44.7-84.5z"/><path d="M973.7 1429.4l-5.1-12.8A36.3 36.3 0 00935 1394h-95.2v318.1h393.6v-257.8h-222.7a39.8 39.8 0 01-37-24.9z" fill="#6376e5"/><path class="prefix__u" d="M641.4 1410.8l.6 1.1c4.8 8.3 15.9 28.8 28 51.2 5.7 10.6 11.7 21.7 17.4 32.1 9.9 17.9 18.8 33.9 24 42.3s9.2 14.7 10.8 17.1a3.6 3.6 0 01.5 2.5 129.8 129.8 0 00.4 22.5c7.3 72.8 56.4 111.8 56.4 111.8l14.6 2.2s-20.7-76.5-26.7-119.8c-1.1-7.4-1.5-13.3-1.2-17.2 1.1-11.3-.9-27.8-4.7-46.8-6.7-33.8-19.1-75.2-29.8-108.4-.7-2.1-21.2-76.4-21.2-76.4-17.3 15.1-80.1 21.3-80.1 21.3s-10.7 25.9 11 64.5z"/><path class="prefix__v" d="M824.7 1712.1h-60.9s-1.5-9.3 1.7-16.4 7.4-6.9.6-17.5c3.9 4 16.3 5.6 25.1 4.4 1.1 1.8 7 13.5 10.6 16.1s21.7 1.8 22.9 13.4zM641.4 1410.8l.6 1.1c4.8 8.3 30.8 56.3 42.9 78.7-14-57.9-4.2-115.7-4.2-115.7z"/><path class="prefix__r" d="M868.3 1121.4c.4-1.6-34.8 15.9-36.6 17.9-16.5 18.3-11.8 42.2-2.3 42.4 6 .2 4.9 10.2 4.9 10.2l67.4-28.5s-8.1-47.4-33.4-42z"/><path class="prefix__d" d="M845.6 1237.7s10.3 20.5 9 37.1c0 0-12.4 19.6-44.5 24.5 0 0 27.6-61.6 35.5-61.6z"/><path class="prefix__u" d="M688.9 1350.8l.2-11.4c-22.7 2.9-78.3-27.1-78.3-27.1s-23.7 15.8-27 60.9c-1.5 22-11.6 115.2-12.7 143-.4 10.1-.5 17.3-.6 20.1a4.1 4.1 0 01-.9 2.3 127.4 127.4 0 00-12.3 18.9c-34.7 64.4-16.6 152-16.6 152l8.1-2s29.3-90.8 48.4-130.1c3.3-6.7 6.2-11.9 8.7-14.9 7.2-8.7 14.8-23.5 22.3-41.4 14.1-33.7 60.7-170.3 60.7-170.3z"/><path class="prefix__v" d="M589.2 1712.1h-61s-1.4-9.3 1.8-16.4 7.8-9.8 6.6-18c3.9 4 10.2 8.5 19 7.3 1.1 1.7 7 11.1 10.6 13.7s21.8 1.8 23 13.4z"/><path class="prefix__d" d="M806 1312.4c-8.2 1.4 1.3 7.9-9.9 9.2-16 1.7-32.6 2.9-41.3 6.4-3.1 1.2-5.2 2.8-5.9 4.8-3.7 11.3-27.5 30.7-27.5 30.7-106.1-4.9-113-52.1-113-52.1 68.9-66.9 127.5-103.4 175.9-107.9 11.8-1.1 27.7.4 35.1 3.7 16.9 7.5 26.2 30.5 26.2 30.5s-8.5 69.4-39.6 74.7z"/><path class="prefix__w" d="M796.1 1321.6c-16 1.7-32.6 2.9-41.3 6.4-25-50 21.5-92.8 21.5-92.8s16.3 66.3 19.8 86.4z"/><path class="prefix__s" d="M809.9 1226.3s-40.3-2.2-47.5 23.1 13.5 126.3 17.9 136.7c8.1 18.9 48.8 75.5 48.8 75.5l13.1-6.8s-26.2-82.7-32.1-90.9c-9.2-12.9 11.9-126.6-.2-137.6z"/><path class="prefix__s" d="M842.2 1454.8a56.1 56.1 0 016.1 6.2c2.7 3.3.3 4.5 8.1 19.5 0 0-.4 2.1-2.1 1.7s-7.6-6.2-10.6-5.7c0 0-2.1 1.7-2.4 7.6s-.2 17.7-1.2 20-7.9-9.6-11.4-18.2 0-32.9 0-32.9z"/><path class="prefix__d" d="M754.5 1283.2c.1.6 38.1 7 61.9-5.1 0 0 19.9-62.2-8.5-59.2s-45.2 11.9-45.9 25.5-7.5 38.8-7.5 38.8z"/><path class="prefix__s" d="M818.5 1211.6c.4 5 1.1 10.9 7.7 17.7 5 5.2 12.3 9.2 17.4 4.1 2.6-2.6 6.2-6.5 8-9.6 4.4-7.6 9.7-15.4 9.7-15.4l-22.8-19.9-1.4-1.2c-6 10.4-11.8 15.4-17 19.2-1.5 1.2-1.8 3.1-1.6 5.1z"/><path d="M861.3 1208.5s-5.3 7.7-9.7 15.3c-14.2-8.7-14.2-26.2-13.1-35.3z" fill="#ed985f"/><path class="prefix__s" d="M861.9 1218.5s-34.4-19.2-22.2-40.4 16.1-38.1 38.6-26.7 22 21.8 19.7 29.9-26.8 41.6-36.1 37.2z"/><path class="prefix__r" d="M903.8 1168.9c-1.6-9.4-6.4-10.3-9.7-9.7-12.7-21-33.5-12.8-33.5-12.8a47 47 0 01-27.1 16.3s4 7.4 20.4 12c5.1 1.4 10.8.6 16.3-1.3a91.4 91.4 0 01-23.4 8.8c21.7 2 42.3-17.8 44.5-19.9 1 3 2.7 9.5 1.7 14.2-1.5 6.4-7.1 17.9-3.7 19.4 0 0 16.9-12.8 14.5-27z"/><path class="prefix__s" d="M948.9 1396.3s-9.6 7.2-2.3 11.9 20.1 5.9 20.2 2.9c.2-10.4-5-17.8-17.9-14.8z"/><path class="prefix__d" d="M942.9 1617.4h203.4c8.4 0 14.9-12.8 15-21.9.3-28.5-30.3-74-99.6-53.9 0 0-19.6-52.8-88.3-46.4-40.3 3.8-62.8 45-65.5 81.7-1.6 21.9 14.7 40.5 35 40.5z"/><path class="prefix__j" d="M1054.2 1664.8h-39.4v-90.49h39.4z"/><path class="prefix__j" d="M1083.4 1592.6h-97.8l48.9-45.9 48.9 45.9z"/><path class="prefix__v" d="M1954.6 1169.1l-51.4 11.8-25.5 46.1-19.1-105.3 96 47.4z"/><path class="prefix__v" d="M1892.996 1176.082l7.507-5.657 32.69 43.382-7.506 5.657z"/><path class="prefix__s" d="M1153.7 905.1a5.8 5.8 0 00-1 6.4c1.5 4.3 6.7 9.1 12.6 13.9l2 1.7.5.4.3.3c5.6 5.1 3.5 6.3 13.4 16.6 11.4 11.9 19.2 12.1 21.5 11s-2-7.2-6.2-14.2l-.6-1.1-1.7-2.8c-5-8.5-3.7-12.4-2.5-25.1.9-10.2 15.9-57.3 15.9-57.3l-21.8-3.7s-6.5 37.4-13.7 43.2c-3.9 3.1-8.2 3.1-11.9 5.4l-.8.5a27.5 27.5 0 00-6 4.8z"/><path class="prefix__v" d="M1153.7 905.1a5.8 5.8 0 00-1 6.4c1.9 4.3 6.9 9.1 12.6 13.8l2 1.8.5.4.3.3c5.6 5.1 3.5 6.3 13.4 16.6 11.4 11.9 19.2 12.1 21.5 11s-2-7.2-6.2-14.2a48.5 48.5 0 01-20.3-15c-6.6-8.4-11-19.1-15.5-25.7l-1.3-.2a27.5 27.5 0 00-6 4.8z"/><path class="prefix__s" d="M1329.3 891.5c1.3 6.7 10.9 5.6 21.6 3s8.1.5 23.4-1.2 19.8-7.4 20.3-9.7-7.1-2.7-15.2-3.6l-3.1-.4c-9.1-1.1-15.7-7-24-11.8s-19.6-23.2-19.6-23.2l-20.9 1.6s11 16.7 15.2 23.9c2.5 4.3 2.4 9.9 2.1 14.2a24.8 24.8 0 00.2 7.2z"/><path class="prefix__v" d="M1350.9 894.5c10.7-2.6 8.1.5 23.4-1.2s19.8-7.4 20.3-9.7-7.1-2.7-15.2-3.6v.2a43.1 43.1 0 01-21.8 6.7c-10.3.3-21.3-2.7-28.4-2.6a24.8 24.8 0 00.2 7.2c1.2 6.7 10.8 5.6 21.5 3z"/><path class="prefix__w" d="M1249.2 757.9l-19.5 52.6-25.5 68.6a42.2 42.2 0 01-13.5-1.3c-6.1-1.7-13.1-6.3-13.1-6.3s7-73.7 20.3-116c3.3-10.8 7.1-19.6 11.3-24.5 20.5-24.2 40 26.9 40 26.9z"/><path class="prefix__d" d="M1229.4 674.5c-11.1-3.6-40.1 0-71.6 5.6a21.1 21.1 0 01-22-9.9l-79.2-6.2s-26.1 57.9-11.8 94.9c2.1 5.4 6.7 8.8 13.8 8.9h63.2c39.3 0 83.3-27 89-28.2 9.3-1.8 13 16.8 22.3 36.3s87.5 86.6 87.5 86.6 12 .1 16.9-1.8 7.3-4.6 7.3-4.6-86.6-172.3-115.4-181.6z"/><path class="prefix__v" d="M1127.4 437.8a28.3 28.3 0 00-15.1-4 44.1 44.1 0 01-7.3-.4c-30.3-4.4-48.4 39.4-49.5 52.7-2 24.3-14.8 28.1-33 43.3-36.3 30.6-25.7 66.1-5.8 79.3 11.9 7.9 33 0 33 0s57.4-32 85.6-47.5c42.3-6 9-113.3-7.9-123.4z"/><path class="prefix__s" d="M1111.7 548c.1.1-13.9 4.8-23.2.7s-15.5-18.4-15.4-18.4c4-.2 8.4-3.7 11.8-26.6l1.7.6 28.7 10.3s-2.1 9.2-3.4 17.9-1.8 14.4-.2 15.5z"/><path d="M1115.3 514.6s-1.2 5-2.8 14.2c-16.5-2.9-23.6-15.6-25.9-24.5z" fill="#ed975d"/><path class="prefix__s" d="M1119.6 523.7s-39.3-5.2-35.6-29.6 1-41.5 26.2-39.2 28.7 12.4 29.5 20.8-9.8 48.8-20.1 48z"/><path class="prefix__v" d="M1138.2 462.4s-25.1 21.6-42.2 23.4-23.5-3.8-23.5-3.8a65.3 65.3 0 0016.1-21.8 12.1 12.1 0 019.9-7.1c12.2-1.1 35.3-1.5 39.7 9.3z"/><path class="prefix__v" d="M1122.5 460.4s8.4 8.2 11.1 14.2 3.3 19.7 1.3 25.2c0 0 13-25.4 5.6-37.8s-18-1.6-18-1.6z"/><path class="prefix__j" d="M1144.7 605.8c-1.2 79.4-.3 62.8-9 70.3-2.1 1.8-8 2.9-15.7 3.4-24.4 1.6-67.1-2.4-68.8-6.9-5.6-15.6-1.6-20.4-6.3-44.2-.5-2.6-1.1-5.3-1.8-8.3-3.9-16.4-7.7-21.9 6.1-48.2 12.6-23.8 25.7-43.2 26.8-42.5 33.2 19.7 35.9 3.2 35.9 3.2s33.4 34.4 32.8 73.2z"/><path class="prefix__d" d="M1229.7 810.5l-25.5 68.6a42.2 42.2 0 01-13.5-1.3c-6.1-1.7-13.1-6.3-13.1-6.3s7-73.7 20.3-116z"/><path class="prefix__j" d="M1111.9 532.5s34.1 5.8 38.1 20.5 17.2 103.9 17.2 103.9-9.6 9.4-17.6 1.4-25.3-83.5-25.3-83.5z"/><path class="prefix__m" d="M1120 679.5c-24.4 1.6-67.1-2.4-68.8-6.9-5.6-15.6-1.6-20.4-6.3-44.2l11.7-33.1s-1.9 36.8 8.9 46.5 44.5 18.7 49.8 26.8a30.9 30.9 0 014.7 10.9z"/><path class="prefix__s" d="M1092.1 664s24-5.3 27.9-3.2 13.3 9.9 14.5 12.6-8.6-2.1-11.8-2.9-7.5 1.3-10.2 2.2c-11.3 3.8-18.3 1.9-18.3 1.9z"/><path class="prefix__j" d="M1076 529.4s-32.2 2-43.4 17.6c-15.7 21.9-46.9 115.3-29 127.7 20.1 14.1 91.5 3.7 91.5 3.7s2.4-11.1-.9-16.5-57.1-14-59.5-16.5 31-48.4 31-55.8 10.3-60.2 10.3-60.2z"/><path class="prefix__s" d="M1121.2 667.5s5 6.5 6.6 7.3a5.5 5.5 0 002.8.5l-3.4-6.1zM1120 660.8l14.6 7.1a2.5 2.5 0 01-2.4.9c-1.8 0-6.3-1.7-6.3-1.7z"/><path class="prefix__v" d="M1244.9 677.5h-152.8v3.4h151.5l1.3-3.4z"/><path class="prefix__v" d="M1127.8 680.9h115.8l34.8-86.6h-115.6l-35 86.6z"/><path class="prefix__a" d="M1214.4 637.6c.8-3.1-.9-5.5-4-5.5a7.9 7.9 0 00-7.1 5.5c-.8 3 .9 5.5 4 5.5a8 8 0 007.1-5.5z"/><path class="prefix__m" d="M2344.8 1033.3s56 57 58.9 80.7-29.1 60.7-29.1 60.7z"/><path class="prefix__z" d="M2312.7 1679.7s-2.1 33.3-8.6 33.8h-32.8l-40.7-.3s.3-9.8 12.2-11.9 31.9-10.4 39.1-26.1 30.8 4.5 30.8 4.5zM2403.4 1679.9s-2.1 33.3-8.6 33.8h-32.7l-40.8-.3s.3-9.8 12.2-11.9 31.9-10.4 39.1-26.1 30.8 4.5 30.8 4.5z"/><path class="prefix__aa" d="M2268.4 1320.7s10.5 68.2 50 189.2 44.7 173.4 44.7 173.4l42.7-1.1s.6-132.2-17.6-193-3.4-219.3-3.4-219.3z"/><path d="M2247.7 1273.4s-1.7 102.6 15.8 228.7 11.4 179.6 11.4 179.6l42.5 1.5s25.7-126.1 18.5-189.2 35.3-216.4 35.3-216.4z" fill="#1c468a"/><path class="prefix__s" d="M2330.6 1033.3l-22.7 14.8-32.7-6.2c.4-2.6 2.6-13.6 4.6-23.5.1-.6.3-1.2.4-1.7 1.7-8.5 3.1-15.7 3.1-15.7l30.7-13.5 11.4-5c0 .2-.9 9.4-1 10.7-2.2 23.9 6.2 40.1 6.2 40.1z"/><path class="prefix__m" d="M2283.6 1025.7c.6-.3 39.5-11.6 43.7-10.2s6.7 9.5 6.7 9.5l-63.5 14.2s5-10.1 13.1-13.5z"/><path class="prefix__j" d="M2387.6 1286.3c-6.7 30-116.2 33.4-144.4 6-3.2-3.1-3.3-17.5-2-37 2.4-38 10.2-95.3 10.5-124.5a235.5 235.5 0 014.8-41.7 332.9 332.9 0 0114-49.9s53.5-17.1 63.5-14.2c48.2 14.3 60.2 231.3 53.6 261.3z"/><path class="prefix__m" d="M2241.2 1255.3c2.4-38 10.2-95.3 10.5-124.5a235.5 235.5 0 014.8-41.7l32.2-5.6s35.4 136.3-47.5 171.8z"/><path class="prefix__s" d="M2258.7 1202.3a7.6 7.6 0 01-2.4 8.8c-4.6 3.5-7.6 9.2-6.6 13.3s11.1 11 14.6 9.9 10.7-6.5 9.9-8.7 4.9-19.3-3.7-25.9-11.8 2.6-11.8 2.6z"/><path class="prefix__j" d="M2294.2 1033.4s-30.5 4-55.6 40.8-41.6 64.1-37 77.4 46.4 59.4 53.7 59.4 18.9-5.2 19.6-17c0 0-26.6-47.1-20.7-53.7 2.5-2.9 35.5-29.2 40.6-16 8.4 21.8-.6-90.9-.6-90.9z"/><path d="M2322.1 993.7c-6.8 11.3-31.8 21.1-42.3 24.7.1-.6.3-1.2.4-1.7 1.7-8.5 3.1-15.7 3.1-15.7l30.7-13.5c6.7 0 10.8 1.5 8.1 6.2z" fill="#fca56b"/><path class="prefix__s" d="M2271.8 999.1s49.3 15.5 58.4-15.4 21.7-49.5-9.3-60.7-40.7-1.3-46.3 8.3-15.4 63-2.8 67.8z"/><path class="prefix__aa" d="M2276.6 928.3s3 35.9 10.5 34.4 14.1-2.7 13 8.1-11.4 23.3 11.4 25.2 55.9-56.9 49.7-68.1c-18.1-32.3-110.8-39-84.6.4z"/><rect x="206.5" y="1712.1" width="2656.7" height="7.29" rx="3.1" fill="#2e3552"/></svg>