<svg xmlns="http://www.w3.org/2000/svg" viewBox="0 0 500 400"><defs><style>.prefix__b{fill:#efefef}.prefix__d{fill:#e7e7e7}.prefix__e{fill:#d6d5d2}.prefix__h{fill:#191919}.prefix__i{fill:#97dad8}.prefix__j{fill:#c1e9e8}.prefix__k{fill:#ffd2a9}.prefix__l{fill:#f9bf98}.prefix__m{fill:#fff}.prefix__n{fill:#fdd03a}.prefix__o{fill:#666}.prefix__p{fill:#505091}.prefix__q{fill:#9ad65b}.prefix__r{fill:#58616c;opacity:.75}.prefix__s{fill:#f4f6f5}.prefix__x{fill:#a4a4a4}.prefix__y{fill:#f5f5f5}</style></defs><path fill="#8f8eb2" d="M0 0h500v400H0z"/><path class="prefix__b" d="M39.5 242.1l-9.3-4.9a1.5 1.5 0 00-1.4.2 3.7 3.7 0 00-1.1 1.5c-.4.7-1.2 2.4-.1 3.1l8 4.2.5-.9-8-4.2c-.6-.4-.3-1.1.1-2 .2-.4.4-.7.7-.8a.7.7 0 01.8-.2L39 243c.7.9.2 2-.2 2.8-1.2 2.3-2.2 1.9-2.3 1.8l-11.1-5.9a2.2 2.2 0 01-1.5-2 6.6 6.6 0 01.8-2.4 3.5 3.5 0 012.6-2.1 2.7 2.7 0 011.4.2l8.7 4.6.5-.9-8.7-4.6a2.4 2.4 0 00-1.6-.2c-1.4.1-2.5 1.1-3.4 2.8a6.2 6.2 0 00-1 3.1 2.6 2.6 0 001.7 2.4l11.1 5.9a1.7 1.7 0 001.5-.2 8.5 8.5 0 001.8-2.2c.4-.8 1.4-2.6.2-3.9zM424.3 348.9l-10.3-1.5a1.5 1.5 0 00-1.3.6 4.8 4.8 0 00-.6 1.8c0 .7-.2 2.6 1 2.9l9 1.4v-1l-8.9-1.4c-.7-.2-.7-1-.6-1.9a4.1 4.1 0 01.3-1 .8.8 0 01.8-.4L424 350c1.1.5.9 1.8.8 2.6-.4 2.5-1.4 2.4-1.6 2.4l-12.4-1.9a2.4 2.4 0 01-2.1-1.4 5.2 5.2 0 010-2.5 3.6 3.6 0 011.7-2.9 3.4 3.4 0 011.5-.2l9.7 1.4v-1l-9.7-1.5a3.1 3.1 0 00-1.6.3 4.8 4.8 0 00-2.3 3.8 8.7 8.7 0 00.1 3.3 2.8 2.8 0 002.4 1.7L423 356a1.5 1.5 0 001.3-.7 7.1 7.1 0 00.9-2.6c.2-.9.5-2.9-1-3.7zM357.7 128H145.1c-3.1 0-5.7 4.8-5.7 10.7v122.1c0 5.9 2.6 10.7 5.7 10.7h212.6c3.2 0 5.7-4.8 5.7-10.7V138.7c0-5.9-2.5-10.7-5.7-10.7z"/><path d="M351.3 153.8H151.5a5.2 5.2 0 00-5.4 4.9v56a5.2 5.2 0 005.4 4.9h199.8a5.2 5.2 0 005.4-4.9v-56a5.2 5.2 0 00-5.4-4.9z" fill="#999"/><path class="prefix__d" d="M149.9 158.2h6.7a.5.5 0 01.5.5v6.7a.6.6 0 01-.6.6h-6.7a.5.5 0 01-.5-.5v-6.7a.5.5 0 01.6-.6z"/><rect class="prefix__d" x="149.4" y="170" width="7.8" height="7.77" rx=".5"/><rect class="prefix__d" x="158.5" y="170" width="7.8" height="7.77" rx=".5"/><path class="prefix__d" d="M168.1 170h6.7a.5.5 0 01.5.5v6.7a.5.5 0 01-.5.5h-6.7a.6.6 0 01-.6-.6v-6.7a.5.5 0 01.6-.4zM177.2 170h6.7a.5.5 0 01.5.5v6.7a.6.6 0 01-.6.6h-6.7a.6.6 0 01-.6-.6v-6.7a.5.5 0 01.7-.5zM186.2 170h6.7a.5.5 0 01.5.5v6.7a.5.5 0 01-.5.5h-6.7a.6.6 0 01-.6-.6v-6.7a.5.5 0 01.5-.5z"/><rect class="prefix__d" x="194.7" y="170" width="7.8" height="7.77" rx=".5"/><rect class="prefix__d" x="203.8" y="170" width="7.8" height="7.77" rx=".5"/><rect class="prefix__d" x="212.9" y="170" width="7.8" height="7.77" rx=".5"/><rect class="prefix__d" x="222" y="170" width="7.8" height="7.77" rx=".5"/><rect class="prefix__d" x="231" y="170" width="7.8" height="7.77" rx=".5"/><rect class="prefix__d" x="240.1" y="170" width="7.8" height="7.77" rx=".5"/><rect class="prefix__d" x="249.2" y="170" width="7.8" height="7.77" rx=".5"/><rect class="prefix__d" x="258.3" y="170" width="7.8" height="7.77" rx=".5"/><rect class="prefix__d" x="267.3" y="170" width="15.7" height="7.77" rx=".5"/><rect class="prefix__d" x="149.4" y="179.4" width="11.4" height="7.77" rx=".5"/><rect class="prefix__d" x="149.4" y="188.7" width="13.7" height="7.77" rx=".5"/><path class="prefix__d" d="M149.9 198.1h17.3a.5.5 0 01.5.5v6.7a.6.6 0 01-.6.6h-17.2a.5.5 0 01-.5-.5v-6.7a.5.5 0 01.5-.5z"/><rect class="prefix__d" x="149.4" y="207.3" width="11.7" height="7.77" rx=".5"/><rect class="prefix__d" x="162.3" y="179.4" width="7.8" height="7.77" rx=".5"/><path class="prefix__d" d="M165.1 188.7h6.7a.5.5 0 01.5.5v6.7a.5.5 0 01-.5.5h-6.7a.5.5 0 01-.5-.5v-6.7a.6.6 0 01.5-.5zM174.5 188.7h6.7a.6.6 0 01.6.6v6.7a.5.5 0 01-.5.5h-6.7a.5.5 0 01-.5-.5v-6.7a.5.5 0 01.5-.5z"/><rect class="prefix__d" x="169.4" y="198.1" width="7.8" height="7.77" rx=".5"/><rect class="prefix__d" x="162.6" y="207.3" width="7.8" height="7.77" rx=".5"/><rect class="prefix__d" x="172" y="207.3" width="7.8" height="7.77" rx=".5"/><rect class="prefix__d" x="181.3" y="207.3" width="7.8" height="7.77" rx=".5"/><rect class="prefix__d" x="190.5" y="207.3" width="54.4" height="7.77" rx=".5"/><rect class="prefix__d" x="178.8" y="198.1" width="7.8" height="7.77" rx=".5"/><rect class="prefix__d" x="188.2" y="198.1" width="7.8" height="7.77" rx=".5"/><rect class="prefix__d" x="197.7" y="198.1" width="7.8" height="7.77" rx=".5"/><path class="prefix__d" d="M207.7 198.1h6.7a.5.5 0 01.5.5v6.7a.5.5 0 01-.5.5h-6.7a.6.6 0 01-.6-.6v-6.7a.5.5 0 01.5-.5z"/><rect class="prefix__d" x="216.6" y="198.1" width="7.8" height="7.77" rx=".5"/><rect class="prefix__d" x="226" y="198.1" width="7.8" height="7.77" rx=".5"/><rect class="prefix__d" x="235.4" y="198.1" width="7.8" height="7.77" rx=".5"/><rect class="prefix__d" x="244.9" y="198.1" width="7.8" height="7.77" rx=".5"/><rect class="prefix__d" x="246.9" y="207.3" width="7.8" height="7.77" rx=".5"/><rect class="prefix__d" x="256.4" y="207.3" width="7.8" height="7.77" rx=".5"/><rect class="prefix__d" x="265.8" y="207.3" width="7.8" height="7.77" rx=".5"/><rect class="prefix__d" x="275.3" y="207.3" width="7.8" height="7.77" rx=".5"/><rect class="prefix__d" x="254.3" y="198.1" width="7.8" height="7.77" rx=".5"/><rect class="prefix__d" x="263.8" y="198.1" width="19.3" height="7.77" rx=".5"/><path class="prefix__d" d="M183.9 188.7h6.7a.5.5 0 01.5.5v6.7a.5.5 0 01-.5.5h-6.7a.6.6 0 01-.6-.6v-6.7a.5.5 0 01.6-.4z"/><rect class="prefix__d" x="192.7" y="188.7" width="7.8" height="7.77" rx=".5"/><rect class="prefix__d" x="202.1" y="188.7" width="7.8" height="7.77" rx=".5"/><rect class="prefix__d" x="211.5" y="188.7" width="7.8" height="7.77" rx=".5"/><rect class="prefix__d" x="220.8" y="188.7" width="7.8" height="7.77" rx=".5"/><rect class="prefix__d" x="230.2" y="188.7" width="7.8" height="7.77" rx=".5"/><rect class="prefix__d" x="239.6" y="188.7" width="7.8" height="7.77" rx=".5"/><rect class="prefix__d" x="249" y="188.7" width="7.8" height="7.77" rx=".5"/><rect class="prefix__d" x="258.3" y="188.7" width="7.8" height="7.77" rx=".5"/><rect class="prefix__d" x="171.6" y="179.4" width="7.8" height="7.77" rx=".5"/><rect class="prefix__d" x="180.9" y="179.4" width="7.8" height="7.77" rx=".5"/><rect class="prefix__d" x="190.2" y="179.4" width="7.8" height="7.77" rx=".5"/><rect class="prefix__d" x="199.5" y="179.4" width="7.8" height="7.77" rx=".5"/><rect class="prefix__d" x="208.8" y="179.4" width="7.8" height="7.77" rx=".5"/><rect class="prefix__d" x="218.1" y="179.4" width="7.8" height="7.77" rx=".5"/><rect class="prefix__d" x="227.4" y="179.4" width="7.8" height="7.77" rx=".5"/><path class="prefix__d" d="M237.2 179.4h6.7a.5.5 0 01.5.5v6.7a.6.6 0 01-.6.6h-6.7a.5.5 0 01-.5-.5V180a.5.5 0 01.6-.6z"/><rect class="prefix__d" x="245.9" y="179.4" width="7.8" height="7.77" rx=".5"/><rect class="prefix__d" x="255.2" y="179.4" width="7.8" height="7.77" rx=".5"/><rect class="prefix__d" x="264.5" y="179.4" width="7.8" height="7.77" rx=".5"/><path class="prefix__d" d="M282.5 179.4h-8.2a.5.5 0 00-.5.5v6.7a.5.5 0 00.5.5h2.2a.6.6 0 01.5.6v8.2a.6.6 0 00.6.6h4.9a.6.6 0 00.6-.6v-16a.6.6 0 00-.6-.5z"/><path class="prefix__d" d="M274.9 188.7h-6.6a.6.6 0 00-.6.6v6.6a.6.6 0 00.6.6h6.6a.6.6 0 00.6-.6v-6.6a.6.6 0 00-.6-.6z"/><rect class="prefix__d" x="163.9" y="158.2" width="7.8" height="7.77" rx=".5"/><rect class="prefix__d" x="174" y="158.2" width="7.8" height="7.77" rx=".5"/><rect class="prefix__d" x="184" y="158.2" width="7.8" height="7.77" rx=".5"/><rect class="prefix__d" x="194.1" y="158.2" width="7.8" height="7.77" rx=".5"/><rect class="prefix__d" x="204.4" y="158.2" width="7.8" height="7.77" rx=".5"/><path class="prefix__d" d="M215.1 158.2h6.7a.5.5 0 01.5.5v6.7a.6.6 0 01-.6.6H215a.5.5 0 01-.5-.5v-6.7a.5.5 0 01.6-.6z"/><rect class="prefix__d" x="224.6" y="158.2" width="7.8" height="7.77" rx=".5"/><rect class="prefix__d" x="234.7" y="158.2" width="7.8" height="7.77" rx=".5"/><rect class="prefix__d" x="245" y="158.2" width="7.8" height="7.77" rx=".5"/><rect class="prefix__d" x="255.1" y="158.2" width="7.8" height="7.77" rx=".5"/><rect class="prefix__d" x="265.2" y="158.2" width="7.8" height="7.77" rx=".5"/><rect class="prefix__d" x="275.3" y="158.2" width="7.8" height="7.77" rx=".5"/><rect class="prefix__d" x="287.7" y="158.2" width="7.8" height="7.77" rx=".5"/><rect class="prefix__d" x="297.4" y="158.2" width="7.8" height="7.77" rx=".5"/><rect class="prefix__d" x="307.2" y="158.2" width="7.8" height="7.77" rx=".5"/><path class="prefix__d" d="M288.2 170h6.7a.5.5 0 01.5.5v6.7a.5.5 0 01-.5.5h-6.7a.5.5 0 01-.5-.5v-6.7a.6.6 0 01.5-.5zM298 170h6.7a.5.5 0 01.5.5v6.7a.5.5 0 01-.5.5H298a.5.5 0 01-.5-.5v-6.7a.6.6 0 01.5-.5z"/><rect class="prefix__d" x="307.2" y="170" width="7.8" height="7.77" rx=".5"/><rect class="prefix__d" x="317.8" y="170" width="7.8" height="7.77" rx=".5"/><rect class="prefix__d" x="327.1" y="170" width="7.8" height="7.77" rx=".5"/><rect class="prefix__d" x="336.4" y="170" width="7.8" height="7.77" rx=".5"/><rect class="prefix__d" x="345.7" y="170" width="7.8" height="7.77" rx=".5"/><rect class="prefix__d" x="317.8" y="158.2" width="7.8" height="7.77" rx=".5"/><rect class="prefix__d" x="327.1" y="158.2" width="7.8" height="7.77" rx=".5"/><rect class="prefix__d" x="336.4" y="158.2" width="7.8" height="7.77" rx=".5"/><rect class="prefix__d" x="345.7" y="158.2" width="7.8" height="7.77" rx=".5"/><rect class="prefix__d" x="317.8" y="179.4" width="7.8" height="7.77" rx=".5"/><rect class="prefix__d" x="327.1" y="179.4" width="7.8" height="7.77" rx=".5"/><rect class="prefix__d" x="336.4" y="179.4" width="7.8" height="7.77" rx=".5"/><rect class="prefix__d" x="345.7" y="179.4" width="7.8" height="7.77" rx=".5"/><rect class="prefix__d" x="317.8" y="188.8" width="7.8" height="7.77" rx=".5"/><rect class="prefix__d" x="327.1" y="188.8" width="7.8" height="7.77" rx=".5"/><rect class="prefix__d" x="336.4" y="188.8" width="7.8" height="7.77" rx=".5"/><rect class="prefix__d" x="345.7" y="188.8" width="7.8" height="7.77" rx=".5"/><rect class="prefix__d" x="317.8" y="198.1" width="7.8" height="7.77" rx=".5"/><rect class="prefix__d" x="327.1" y="198.1" width="7.8" height="7.77" rx=".5"/><rect class="prefix__d" x="336.4" y="198.1" width="7.8" height="7.77" rx=".5"/><rect class="prefix__d" x="345.7" y="198.1" width="7.8" height="16.89" rx=".5"/><rect class="prefix__d" x="317.8" y="207.5" width="17" height="7.77" rx=".5"/><path class="prefix__d" d="M336.9 207.5h6.7a.5.5 0 01.5.5v6.7a.5.5 0 01-.5.5h-6.7a.5.5 0 01-.5-.5V208a.6.6 0 01.6-.6z"/><rect class="prefix__d" x="287.7" y="179.4" width="7.8" height="7.77" rx=".5"/><rect class="prefix__d" x="297.4" y="179.4" width="7.8" height="7.77" rx=".5"/><rect class="prefix__d" x="307.2" y="179.4" width="7.8" height="7.77" rx=".5"/><path class="prefix__d" d="M288.2 188.7h6.7a.5.5 0 01.5.5v6.7a.5.5 0 01-.5.5h-6.7a.5.5 0 01-.5-.5v-6.7a.6.6 0 01.5-.5z"/><rect class="prefix__d" x="297.4" y="188.7" width="7.8" height="7.77" rx=".5"/><rect class="prefix__d" x="307.2" y="188.7" width="7.8" height="7.77" rx=".5"/><rect class="prefix__d" x="297.4" y="197.9" width="7.8" height="7.77" rx=".5"/><rect class="prefix__d" x="287.7" y="207.3" width="7.8" height="7.77" rx=".5"/><rect class="prefix__d" x="297.4" y="207.3" width="7.8" height="7.77" rx=".5"/><rect class="prefix__d" x="307.2" y="207.3" width="7.8" height="7.77" rx=".5"/><rect class="prefix__e" x="225.6" y="225.3" width="51.6" height="34.94" rx="3.6"/><path d="M180 124.5c-.4 4.7 1.1 10.1 4.5 10.1h133.8c3.5 0 5-5.4 4.5-10.1z" fill="#333"/><path d="M316.7 125.8H186.1c-6 0-6 8 0 8h130.6c6 0 6-8 0-8z" fill="#b3b3b3"/><path class="prefix__h" d="M381.6 77.5H121.2c-3 0-4.5 2-3.3 4.4l20.3 42.3c.8 1.7 3.5 3 5.9 3h214.6c2.5 0 5.1-1.3 6-3L385 81.9c1.1-2.4-.4-4.4-3.4-4.4z"/><path class="prefix__i" d="M144.1 122h214.6l20.4-40.5H123.8l20.3 40.5z"/><path class="prefix__j" d="M307.9 122h50.8l20.4-40.5H269.5l38.4 40.5zM171.3 81.5l26.3 40.5h21l-28.3-40.5h-19zM200.5 81.5l29.9 40.5h10.4L210 81.5h-9.5z"/><path class="prefix__k" d="M194.2 264.4c.9-22 2.6-24.5 9.5-36.9 4.7-8.6 6.6-13.7 6.7-17.2.3-7-5-5.5-8.9 1.1-1.7 2.9-5.7 8-7.7 12-1 2.1-6.7 9.6-7.7 11.4.2-1.4 2.1-11.6 2.9-14.2 2.5-9.4 8-20.9 8-22.2 0-4.4-4.9-8.2-8.9-2-.8 1.1-8.2 17.1-9.5 21.4-.9 2.7-3.7 13.2-4.2 14.8.1-.8 1-11.3 1.3-12.6 1.4-8.4 7.1-19.3 7.3-20 1.2-6.2-5.3-7.3-7.6-2.7-.6 1.1-8.5 15.1-9.7 21.4s-3 15-3.6 16.9c.1-.7 1.1-8.2 1-10.3l1.8-12c.9-5.2-4.2-6.3-6.1-2.2-.6 1.3-4 12-4.1 14.3s-.9 13-1.5 15.3-3.2 17.3-3.9 23.1c-.5 3.8-.3 12.2 0 23.9l-6.6 27.5c-1 3.9 0 14.1 3.9 15.1l2.4.5c1.7.5 13.4 2.2 13.4 2.2a7.2 7.2 0 008.6-5.5l8.5-31.5c8.2-4.5 16.9-13.8 19-18 4.4-8.6 9.7-18.7 9.7-18.7 1.8-10.1 5.9-14.3 3.6-16.4-6.6-5.8-17.1 20.6-17.6 21.5z"/><path class="prefix__l" d="M173.2 243c2.6-5 .9-8.6.9-8.6-2.7 4.9-.9 8.6-.9 8.6zM183.7 246.5a10.6 10.6 0 001.6-8.9 10.6 10.6 0 00-1.6 8.9zM162 237.3c-1.9 5.3.2 6.9.2 6.9 1.8-5.4-.2-6.9-.2-6.9z"/><path class="prefix__m" d="M141.075 307.827l4.263-16.973 37.728 9.477-4.263 16.973z"/><path class="prefix__i" d="M138 298.1L114.6 400h50.9l20.4-89.8-47.9-12.1z"/><path class="prefix__k" d="M352.7 290.7c.6-11.7 1.1-20 .7-23.8-.5-5.9-2.8-20.7-3.3-23.3s-.9-12.2-1-15.4-3.2-13-3.7-14.3c-1.8-4.2-6.9-3.3-6.2 2 .1.7 1.5 12 1.5 12-.1 2.1.7 9.7.6 10.3-.4-1.9-2.1-10.9-3-16.9s-8.6-20.6-9.1-21.7c-2.2-4.7-8.8-3.7-7.7 2.5.2.7 5.5 11.7 6.8 20.2.2 1.3.8 11.8.8 12.7-.4-1.7-2-12.8-3.7-15-4.1-5.6-7.8-12.7-8.6-13.9-3.8-6.3-8-2.3-8.2 2 0 1.4-.2 2.9 6.4 14.4 1.3 2.3 2.3 12.9 2.4 14.3-.9-1.8-3-5.7-6.1-13.2-1.7-4.1-4.1-9.8-5.8-12.8-3.7-6.7-9-8.4-8.9-1.4.1 3.6 2.7 9.7 5.3 18.1 4.5 14.6 6.3 16.7 6.6 38.6-.5-.9-10.2-27.6-17-21.9-2.4 2 1.7 6.3 3.2 16.5 0 0 5 10.2 9.1 18.9 2 4.3 10.4 13.9 18.5 18.5l7.6 31.7a7.2 7.2 0 008.5 5.8s11.7-1.4 13.4-1.8l2.4-.5c3.9-.8 5.2-11 4.3-14.9z"/><path class="prefix__l" d="M330.1 245.4s1.9-3.7-.7-8.7c0 0-1.8 3.6.7 8.7zM319.5 248.6a10.7 10.7 0 00-1.4-9 10.7 10.7 0 001.4 9zM341.1 246.9s2-1.6.4-6.9c0 0-2.1 1.4-.4 6.9z"/><path class="prefix__m" d="M318.768 302.059l37.978-8.42 3.794 17.115-37.978 8.42z"/><path class="prefix__i" d="M315.5 312.2l19.8 87.8h49.9l-21.5-98.6-48.2 10.8z"/><path class="prefix__m" d="M211.525 307.427l2.753-8.042 12.015 4.114-2.753 8.042z"/><path class="prefix__n" d="M244.9 307.8l-23-7.9-4 11.5 23 7.9a2.1 2.1 0 002.5-1.6l2.5-7.2a2 2 0 00-1-2.7z"/><path class="prefix__o" d="M215.112 307.005l.615-1.797 1.959.67-.616 1.798zM216.284 303.569l.615-1.798 1.959.67-.616 1.798z"/><path class="prefix__p" d="M264.1 49l25.4 6.1 1.3-5.3 5.3 1.3 5.4-22.7-30.7-7.3-6.7 27.9z"/><path class="prefix__m" d="M273.737 29.11l.533-2.238 22.131 5.273-.533 2.237zM272.523 34.136l.533-2.237 22.13 5.272-.532 2.237zM271.409 39.162l.533-2.237 22.13 5.272-.532 2.237zM270.207 44.142l.533-2.238 15.195 3.62-.533 2.238zM289.5 55.1l6.6-4-5.3-1.3-1.3 5.3z"/><path class="prefix__q" d="M424.9 104.7l24.5 9.2 1.9-5.1 5.1 1.9 8.1-21.9-29.6-11-10 26.9z"/><path class="prefix__m" d="M437.45 86.36l.806-2.154 21.31 7.967-.806 2.154zM435.616 91.227l.806-2.154 21.31 7.967-.806 2.154zM433.782 95.994l.806-2.154 21.309 7.967-.806 2.154zM432.005 100.886l.806-2.154 14.63 5.47-.805 2.154zM449.4 113.9l7-3.2-5.1-1.9-1.9 5.1z"/><path class="prefix__n" d="M419.9 40.7l-28.4 13.8 12.6 25.8 23.5-11.4-2.4-4.9 4.9-2.4-10.2-20.9z"/><path class="prefix__m" d="M398.17 56.699l20.51-9.96 1.022 2.105-20.51 9.96zM400.448 61.232l20.51-9.96 1.022 2.106-20.51 9.959zM402.68 65.999l20.51-9.96 1.022 2.106-20.51 9.959zM404.927 70.64l14.033-6.814 1.022 2.105-14.033 6.814zM427.6 68.9l2.5-7.3-4.9 2.4 2.4 4.9z"/><path class="prefix__r" d="M274.3 335.5c-7.6 3.3-30.2 18.5-30.2 18.5s-.7 4.4 8.4-1.2l22.6-14.2c14.9-5.4 21.7-9 21.7-9l-2.4-3.5s-12.5 6.1-20.1 9.4z"/><path class="prefix__r" d="M286.5 337.7s-25.7 3.4-33 5.9-20.3 5.7-20.3 5.7l1.4 4.5s6.8-1.7 20.4-7.3c0 0 17.1-2.7 24.3-4.3 10.9-2.2 7.2-4.5 7.2-4.5z"/><path class="prefix__h" d="M278 329.5l-13.5 9.1-16.1 2.4c-12.5 1.8-19.3 6.7-19.7 8.6l2 5.3c-.1-.4 2.2.5 2.3.5 2.4 2.2 3.8 4.5 5.8 6.8 3.2 3.8 8 4.6 12.8 3.5a22.2 22.2 0 004.9-1.8c3.3-1.5 5.9-4 6.8-6.7s1.4-5.5 1.5-13.7l2.8-1.1c5.6 6 8.5 8 10.3 9.1s6.1 1.4 9.6.4a19.9 19.9 0 004.7-2.1c4.4-2.4 7.3-6.2 7.2-11.2-.1-3-.7-5.7-.4-8.9 0-.1 1.2-2.3 1.3-2l-2-5.2c-1.6-1.1-10-.1-20.3 7zm-19.4 30c-2.5 2.9-10 4.4-12.5 4-7.5-1.4-9.8-9.5-9.8-12.7a4.1 4.1 0 011.5-3.4c2.8-2.6 9.3-3.9 14.1-4.6s7.8 2.4 9 7.4a10.7 10.7 0 01-2.3 9.3zm36.2-15c-1.5 2-8.1 6-11.9 5.5a10.6 10.6 0 01-7.9-5.2c-2.6-4.6-3.3-8.2 1.6-11.6s9.7-6.1 13.5-6.2a4.4 4.4 0 013.4 1.5c2.1 2.4 5.9 9.9 1.3 16z"/><path class="prefix__s" d="M436.1 135.5a30.5 30.5 0 1029.8 31.2 30.5 30.5 0 00-29.8-31.2z"/><path d="M459.7 174l-4.5-3.1a3.6 3.6 0 00-1.7-.7 22.3 22.3 0 001.8-8.2 22.7 22.7 0 10-23.2 22.1 22.4 22.4 0 0017.1-7.2 3.5 3.5 0 001 1.1l4.5 3.1a4.3 4.3 0 105-7.1z" fill="#d6d6d6"/><path class="prefix__m" d="M459 172.7l-4.3-3a4.4 4.4 0 00-1.6-.6 23.3 23.3 0 001.7-7.9 21.7 21.7 0 10-22.3 21.2 21.4 21.4 0 0016.4-6.9 5.2 5.2 0 001 1.1l4.3 3a4.2 4.2 0 005.8-1.1 4.1 4.1 0 00-1-5.8z"/><path d="M433.5 143.2a17.7 17.7 0 1017.2 18.1 17.8 17.8 0 00-17.2-18.1z" fill="#746262"/><path class="prefix__m" d="M429.6 150.1a11.2 11.2 0 00-8.3 11.6 11 11 0 007.4 9.9c2.2.7 7.9 1 11-3.6a7.9 7.9 0 00-3-11.1c-7.1-3.6-10.7 2.5-9.6 5.8s4.9 3.3 6.9 2.5c-2.8-.4-4.6-2.5-4.1-4.2s5.3-2.3 6.8-.1 1.8 6.6-1.4 8.1a8.2 8.2 0 01-11.3-7.2c-.2-4.5 2.6-8.5 6.4-9.2 11.7-2.3 13.4 10.5 13.4 10.5.9-13.9-10.8-13.9-14.2-13z"/><path class="prefix__q" d="M87.9 53.5l-1.3-2.8-.6-1.4-48 22.4 2.6 5.6 48-22.4-.7-1.4z"/><path class="prefix__s" d="M88.6 54.9l7.2-6.7-9.8 1.1 2.6 5.6z"/><path class="prefix__m" d="M40.4 75.6l-1.3-2.8-.6-1.4-3.1 1.5 2.6 5.6 3.1-1.5-.7-1.4z"/><path class="prefix__h" d="M91 125a1.2 1.2 0 00-.5-1.5l-30.9-14.4a1.1 1.1 0 00-1.5.5L34 161.3a1.1 1.1 0 00.5 1.5l30.9 14.4a1.2 1.2 0 001.5-.6z"/><path class="prefix__m" d="M91.2 125.1a1.5 1.5 0 00-.1-1.3 1.2 1.2 0 00-.5-.5l-30.9-14.4a1.4 1.4 0 00-1.8.7l-24.1 51.6a1.2 1.2 0 00.1 1.3l.5.5 30.9 14.4a1.2 1.2 0 001.7-.7zM65.5 177l-30.9-14.4-.4-.3a1.4 1.4 0 010-.9l24.1-51.7a.9.9 0 011.2-.4l30.9 14.4a1 1 0 01.4 1.2l-24.1 51.7a1 1 0 01-1.2.4z"/><path class="prefix__b" d="M38.852 156.765l20.201-43.322 28.44 13.262-20.201 43.322z"/><path class="prefix__n" d="M39.643 156.251l19.525-41.871 27.47 12.81-19.525 41.87z"/><path fill="#fff1a1" d="M59.2 114.4l7.9 54.7 19.5-41.8-27.4-12.9z"/><path d="M77 119.4a.4.4 0 00-.5.2.4.4 0 00.2.6c.2.1.4 0 .5-.3a.4.4 0 00-.2-.5z" fill="#7b91ab"/><rect class="prefix__e" x="51.3" y="163.9" width="1.2" height="3.98" rx=".4" transform="rotate(-65 51.797 165.845)"/><path class="prefix__e" d="M75.2 118.5l-3.7-1.7c-.3-.1-.6-.1-.7.1s0 .5.3.7l3.8 1.7c.2.1.5.1.6-.1s0-.5-.3-.7z"/><path class="prefix__m" d="M142.548 35.614l40.298-10.722 7.058 26.527-40.298 10.722z"/><path class="prefix__n" d="M142.645 35.62l40.298-10.722 1.409 5.296-40.298 10.723z"/><path class="prefix__x" d="M166.249 38.57l16.042-4.269.324 1.218-16.042 4.268zM167.02 41.66l16.041-4.269.324 1.218-16.042 4.268zM167.886 44.724l16.042-4.268.324 1.217-16.042 4.269zM168.756 47.914l16.042-4.268.324 1.217-16.042 4.269zM169.526 51.004l16.042-4.268.324 1.217-16.042 4.269z"/><path class="prefix__i" d="M154.9 49.4a3.6 3.6 0 00-2.6 4.4l.8 3 12.3-3.2-.8-3a3.6 3.6 0 00-4.4-2.6zM153 45.9a3.7 3.7 0 007.1-1.8 3.7 3.7 0 00-4.5-2.6 3.7 3.7 0 00-2.6 4.4z"/><path class="prefix__p" d="M164 26.6a1.3 1.3 0 00.1-1.2 1.8 1.8 0 00-2.2-1.3l-1.5.4a1.8 1.8 0 00-1.4 2.2h.1a1.7 1.7 0 00.7 1l-2.7.7a1.8 1.8 0 00-1.3 2.3v.4a2.5 2.5 0 00.4.7l12.8-3.4a2.7 2.7 0 000-.9v-.4a1.9 1.9 0 00-2.3-1.3z"/><path class="prefix__b" d="M451.7 337.9a6.6 6.6 0 00-2.7-.8h-.1c-.9-.1-2.9-.3-3.7 1.3l-.9 10.5a1.3 1.3 0 00.7 1.2 4.8 4.8 0 001.8.4h.1c.7.1 2.7.2 2.9-1.1l.8-9.1h-1l-.8 9c-.2.7-1 .7-1.9.7h-.1c-.5-.1-.8-.1-1-.3a.9.9 0 01-.5-.7l1-10.4c.5-1.1 1.7-1 2.6-.9 2.5.2 2.5 1.2 2.5 1.3l-1.1 12.6a2.2 2.2 0 01-1.3 2.1 6.1 6.1 0 01-2.5.2 3.4 3.4 0 01-2.9-1.6 2.1 2.1 0 01-.4-1.4l.9-9.8h-1l-.9 9.8a2.6 2.6 0 00.4 1.6c.6 1.2 2 1.9 3.9 2.1a7.5 7.5 0 003.2-.3 2.8 2.8 0 001.6-2.5l1.2-12.6a1.5 1.5 0 00-.8-1.3zM232.6 51.3l-9.3-4.9a1.5 1.5 0 00-1.4.2 5.8 5.8 0 00-1.1 1.5h-.1c-.3.7-1.1 2.4 0 3.1l8 4.3.5-1-8-4.2c-.6-.4-.3-1.1.1-2a1.8 1.8 0 01.6-.8.9.9 0 01.9-.2l9.2 4.9c.8.9.3 2-.1 2.8h-.1c-1.1 2.3-2.1 1.9-2.2 1.8l-11.1-5.9a2.2 2.2 0 01-1.5-2 5.1 5.1 0 01.8-2.4 3.8 3.8 0 012.6-2.1 2.7 2.7 0 011.4.2l8.7 4.6.5-.9-8.7-4.6a3.7 3.7 0 00-1.7-.2c-1.3.1-2.4 1.1-3.3 2.8a6.5 6.5 0 00-1 3.1 2.8 2.8 0 001.7 2.5l11.1 5.8c.1.1.6.3 1.5-.2a5.8 5.8 0 001.7-2.2h.1c.4-.8 1.3-2.7.2-3.9z"/><path class="prefix__y" d="M60.4 239.6l3.3 2.8a.5.5 0 00.8-.1l22.1-26.9a.8.8 0 00-.1-.8l-3.4-2.8a.6.6 0 00-.8.1l-22 27a.4.4 0 00.1.7z"/><path class="prefix__n" d="M83.9 219.6l11.8-14.5 1 .8-7.7 9.4 1.2 1 10.1-12.4-1.1-1-1.1 1.3-1-.8 2.7-3.3-5.1-4.2-16 19.5 5.2 4.2z"/><rect class="prefix__y" x="85" y="227.2" width="35.9" height="5.44" rx=".5" transform="rotate(-67.9 102.827 229.935)"/><path class="prefix__q" d="M110.7 219.7l7.1-17.4 1.2.5-4.6 11.3 1.4.5 6-14.8-1.4-.6-.6 1.6-1.2-.5 1.6-4-6.1-2.5-9.5 23.4 6.1 2.5z"/><path class="prefix__y" d="M373.8 54.4a.5.5 0 01.1.7l-2.5 3.6a.5.5 0 01-.7.2L342 39a.6.6 0 01-.1-.8l2.5-3.6a.6.6 0 01.8-.1z"/><path class="prefix__n" d="M345.8 42.3l-15.4-10.7-.7 1 10 7-.9 1.2-13.1-9.1.8-1.3 1.4 1 .7-1-3.5-2.5 3.8-5.4 20.7 14.4-3.8 5.4zM469.4 229.4l-62.6-17.8-25.2 88.9 62.6 17.8zm-63.3-8.1a2.4 2.4 0 012.9-1.7 2.5 2.5 0 011.7 3 2.4 2.4 0 01-3 1.6 2.4 2.4 0 01-1.6-2.9zm-2.2 7.8a2.3 2.3 0 012.9-1.6 2.3 2.3 0 011.6 2.9 2.3 2.3 0 11-4.5-1.3zm-2.3 7.9a2.5 2.5 0 013-1.7 2.4 2.4 0 011.6 3 2.3 2.3 0 01-2.9 1.6 2.4 2.4 0 01-1.7-2.9zm-2.2 7.8a2.4 2.4 0 012.9-1.6 2.4 2.4 0 11-2.9 1.6zm-2.2 7.9a2.2 2.2 0 012.9-1.6 2.4 2.4 0 011.7 2.9 2.5 2.5 0 01-3 1.7 2.4 2.4 0 01-1.6-3zm-2.3 7.9a2.5 2.5 0 013-1.7 2.4 2.4 0 011.6 3 2.3 2.3 0 01-2.9 1.6 2.4 2.4 0 01-1.7-2.9zm-2.2 7.8a2.4 2.4 0 012.9-1.6 2.4 2.4 0 011.7 2.9 2.5 2.5 0 01-3 1.7 2.4 2.4 0 01-1.6-3zm-2.1 24.9a2.5 2.5 0 01-3 1.7 2.4 2.4 0 01-1.6-3 2.4 2.4 0 014.6 1.3zm2.2-7.8a2.3 2.3 0 01-2.9 1.6 2.4 2.4 0 01-1.7-2.9 2.5 2.5 0 013-1.7 2.4 2.4 0 011.6 3zm2.3-7.9a2.4 2.4 0 01-3 1.6 2.3 2.3 0 011.3-4.5 2.4 2.4 0 011.7 2.9z"/><path class="prefix__s" d="M407.3 222.9a1.4 1.4 0 001.8-1 1.4 1.4 0 00-1-1.7l-5.3-1.5a1.4 1.4 0 00-1.8 1 1.5 1.5 0 001 1.7zM405.1 231a1.4 1.4 0 10.7-2.7l-5.3-1.5a1.4 1.4 0 00-1.7 1 1.4 1.4 0 00.9 1.7zM402.8 238.7a1.4 1.4 0 001.8-1 1.4 1.4 0 00-1-1.7l-5.3-1.5a1.5 1.5 0 00-1.8 1 1.5 1.5 0 001 1.7zM400.5 246.9a1.5 1.5 0 001.8-1 1.4 1.4 0 00-1-1.8l-5.3-1.5a1.4 1.4 0 00-1.8 1 1.5 1.5 0 001 1.7zM398.3 254.6a1.4 1.4 0 001.8-1 1.4 1.4 0 00-1-1.7l-5.3-1.5a1.4 1.4 0 00-1.8.9 1.5 1.5 0 001 1.8zM396.2 262.3a1.4 1.4 0 001.7-1 1.4 1.4 0 00-.9-1.8l-5.4-1.5a1.5 1.5 0 00-1.7 1 1.4 1.4 0 001 1.8zM393.8 270.4a1.4 1.4 0 001.8-1 1.4 1.4 0 00-1-1.7l-5.3-1.5a1.4 1.4 0 00-1.8.9 1.5 1.5 0 001 1.8zM391.6 278.3a1.5 1.5 0 001.8-1 1.5 1.5 0 00-1-1.7l-5.3-1.5a1.4 1.4 0 00-1.8.9 1.4 1.4 0 001 1.8zM389.4 286.1a1.4 1.4 0 001.7-.9 1.5 1.5 0 00-.9-1.8l-5.4-1.5a1.4 1.4 0 00-.7 2.7zM387.2 293.7a1.4 1.4 0 001.8-1 1.4 1.4 0 00-1-1.7l-5.3-1.5a1.4 1.4 0 00-1.8 1 1.4 1.4 0 001 1.7zM433.739 246.24l3.534-12.407 24.245 6.906-3.534 12.407z"/></svg>