<svg id="freepik_stories-monitor-computer" xmlns="http://www.w3.org/2000/svg" viewBox="0 0 500 500" version="1.1" xmlns:xlink="http://www.w3.org/1999/xlink" xmlns:svgjs="http://svgjs.com/svgjs" width="720" height="315"><g id="freepik--background-complete--inject-54" class="animable" style="transform-origin: 250px 228.23px;"><rect y="382.4" width="500" height="0.25" style="fill: rgb(235, 235, 235); transform-origin: 250px 382.525px;" id="elkpukqlaj1ab" class="animable"></rect><rect x="416.78" y="398.49" width="33.12" height="0.25" style="fill: rgb(235, 235, 235); transform-origin: 433.34px 398.615px;" id="el3chkft4xert" class="animable"></rect><rect x="322.53" y="401.21" width="8.69" height="0.25" style="fill: rgb(235, 235, 235); transform-origin: 326.875px 401.335px;" id="elaguk0ftcmds" class="animable"></rect><rect x="396.59" y="389.21" width="19.19" height="0.25" style="fill: rgb(235, 235, 235); transform-origin: 406.185px 389.335px;" id="el0j623c16o62" class="animable"></rect><rect x="52.46" y="390.89" width="43.19" height="0.25" style="fill: rgb(235, 235, 235); transform-origin: 74.055px 391.015px;" id="el9mw52n4o8qi" class="animable"></rect><rect x="104.56" y="390.89" width="6.33" height="0.25" style="fill: rgb(235, 235, 235); transform-origin: 107.725px 391.015px;" id="el5djvlhhqd16" class="animable"></rect><rect x="131.47" y="395.11" width="93.68" height="0.25" style="fill: rgb(235, 235, 235); transform-origin: 178.31px 395.235px;" id="el2gnh2pjr8zy" class="animable"></rect><path d="M237,337.8H43.91a5.71,5.71,0,0,1-5.7-5.71V60.66A5.71,5.71,0,0,1,43.91,55H237a5.71,5.71,0,0,1,5.71,5.71V332.09A5.71,5.71,0,0,1,237,337.8ZM43.91,55.2a5.46,5.46,0,0,0-5.45,5.46V332.09a5.46,5.46,0,0,0,5.45,5.46H237a5.47,5.47,0,0,0,5.46-5.46V60.66A5.47,5.47,0,0,0,237,55.2Z" style="fill: rgb(235, 235, 235); transform-origin: 140.46px 196.4px;" id="el72ta9tgfmcm" class="animable"></path><path d="M453.31,337.8H260.21a5.72,5.72,0,0,1-5.71-5.71V60.66A5.72,5.72,0,0,1,260.21,55h193.1A5.71,5.71,0,0,1,459,60.66V332.09A5.71,5.71,0,0,1,453.31,337.8ZM260.21,55.2a5.47,5.47,0,0,0-5.46,5.46V332.09a5.47,5.47,0,0,0,5.46,5.46h193.1a5.47,5.47,0,0,0,5.46-5.46V60.66a5.47,5.47,0,0,0-5.46-5.46Z" style="fill: rgb(235, 235, 235); transform-origin: 356.75px 196.4px;" id="ellahsqx7fy9e" class="animable"></path><g id="eljdntmkq623"><rect x="324.81" y="82.2" width="32.05" height="243.92" style="fill: rgb(245, 245, 245); transform-origin: 340.835px 204.16px; transform: rotate(-8.68deg);" class="animable"></rect></g><g id="el9gbp4vz5lv"><rect x="307.59" y="91.04" width="9.14" height="2.53" style="fill: rgb(235, 235, 235); transform-origin: 312.16px 92.305px; transform: rotate(-8.68deg);" class="animable"></rect></g><g id="eltbmov5m8ri"><rect x="308.7" y="98.28" width="9.14" height="2.53" style="fill: rgb(235, 235, 235); transform-origin: 313.27px 99.545px; transform: rotate(-8.68deg);" class="animable"></rect></g><g id="el2kqlns6vdly"><rect x="309.8" y="105.53" width="9.14" height="2.54" style="fill: rgb(235, 235, 235); transform-origin: 314.37px 106.8px; transform: rotate(-8.68deg);" class="animable"></rect></g><g id="elws9yvmo8gpd"><rect x="310.91" y="112.78" width="9.14" height="2.53" style="fill: rgb(235, 235, 235); transform-origin: 315.48px 114.045px; transform: rotate(-8.68deg);" class="animable"></rect></g><g id="el726kwiuuppo"><rect x="312.02" y="120.03" width="9.14" height="2.53" style="fill: rgb(235, 235, 235); transform-origin: 316.59px 121.295px; transform: rotate(-8.68deg);" class="animable"></rect></g><g id="elnn9pm5atz0s"><rect x="313.13" y="127.28" width="9.14" height="2.54" style="fill: rgb(235, 235, 235); transform-origin: 317.7px 128.55px; transform: rotate(-8.68deg);" class="animable"></rect></g><g id="elfirgjt586k7"><rect x="314.23" y="134.53" width="9.14" height="2.53" style="fill: rgb(235, 235, 235); transform-origin: 318.8px 135.795px; transform: rotate(-8.68deg);" class="animable"></rect></g><g id="el7b8ern5riao"><rect x="315.34" y="141.78" width="9.14" height="2.53" style="fill: rgb(235, 235, 235); transform-origin: 319.91px 143.045px; transform: rotate(-8.68deg);" class="animable"></rect></g><g id="elcf5c7pe037u"><rect x="316.45" y="149.02" width="9.14" height="2.54" style="fill: rgb(235, 235, 235); transform-origin: 321.02px 150.29px; transform: rotate(-8.68deg);" class="animable"></rect></g><g id="elks2u0alsvjb"><rect x="317.56" y="156.28" width="9.14" height="2.53" style="fill: rgb(235, 235, 235); transform-origin: 322.13px 157.545px; transform: rotate(-8.68deg);" class="animable"></rect></g><g id="el72vkjzlehub"><rect x="318.66" y="163.53" width="9.14" height="2.53" style="fill: rgb(235, 235, 235); transform-origin: 323.23px 164.795px; transform: rotate(-8.68deg);" class="animable"></rect></g><g id="elrk24ebbga9"><rect x="319.77" y="170.77" width="9.14" height="2.54" style="fill: rgb(235, 235, 235); transform-origin: 324.34px 172.04px; transform: rotate(-8.68deg);" class="animable"></rect></g><g id="el2o4uwffd9mq"><rect x="320.88" y="178.03" width="9.14" height="2.53" style="fill: rgb(235, 235, 235); transform-origin: 325.45px 179.295px; transform: rotate(-8.68deg);" class="animable"></rect></g><g id="elf6g1atz88ki"><rect x="321.98" y="185.27" width="9.14" height="2.53" style="fill: rgb(235, 235, 235); transform-origin: 326.55px 186.535px; transform: rotate(-8.68deg);" class="animable"></rect></g><g id="eldt7steuj7kd"><rect x="323.09" y="192.52" width="9.14" height="2.54" style="fill: rgb(235, 235, 235); transform-origin: 327.66px 193.79px; transform: rotate(-8.68deg);" class="animable"></rect></g><g id="elz7xuz3r6gsp"><rect x="324.2" y="199.78" width="9.14" height="2.53" style="fill: rgb(235, 235, 235); transform-origin: 328.77px 201.045px; transform: rotate(-8.68deg);" class="animable"></rect></g><g id="elyig5lvwczes"><rect x="325.31" y="207.02" width="9.14" height="2.53" style="fill: rgb(235, 235, 235); transform-origin: 329.88px 208.285px; transform: rotate(-8.68deg);" class="animable"></rect></g><g id="el3zimsr7uld"><rect x="326.41" y="214.27" width="9.14" height="2.54" style="fill: rgb(235, 235, 235); transform-origin: 330.98px 215.54px; transform: rotate(-8.68deg);" class="animable"></rect></g><g id="el1tj360ai0cni"><rect x="327.52" y="221.52" width="9.14" height="2.53" style="fill: rgb(235, 235, 235); transform-origin: 332.09px 222.785px; transform: rotate(-8.68deg);" class="animable"></rect></g><g id="ellsc6eb7zrx"><rect x="328.63" y="228.77" width="9.14" height="2.53" style="fill: rgb(235, 235, 235); transform-origin: 333.2px 230.035px; transform: rotate(-8.61565deg);" class="animable"></rect></g><g id="elbs6wt374ono"><rect x="329.74" y="236.02" width="9.14" height="2.54" style="fill: rgb(235, 235, 235); transform-origin: 334.31px 237.29px; transform: rotate(-8.68deg);" class="animable"></rect></g><g id="elezzf8k1r1rh"><rect x="330.84" y="243.27" width="9.14" height="2.53" style="fill: rgb(235, 235, 235); transform-origin: 335.41px 244.535px; transform: rotate(-8.68deg);" class="animable"></rect></g><g id="eluc6jnr4l35"><rect x="331.95" y="250.52" width="9.14" height="2.53" style="fill: rgb(235, 235, 235); transform-origin: 336.52px 251.785px; transform: rotate(-8.69deg);" class="animable"></rect></g><g id="el0k9drd3u3of"><rect x="333.06" y="257.76" width="9.14" height="2.54" style="fill: rgb(235, 235, 235); transform-origin: 337.63px 259.03px; transform: rotate(-8.68deg);" class="animable"></rect></g><rect x="371.69" y="119.89" width="12.27" height="162.39" style="fill: rgb(240, 240, 240); transform-origin: 377.825px 201.085px;" id="elijlwiwebn2k" class="animable"></rect><polygon points="382.96 101.49 372.69 101.49 371.69 119.89 383.96 119.89 382.96 101.49" style="fill: rgb(245, 245, 245); transform-origin: 377.825px 110.69px;" id="elld3mmncoj5g" class="animable"></polygon><g id="elbc5hv15beej"><rect x="425.42" y="136.92" width="10.79" height="164.19" style="fill: rgb(230, 230, 230); transform-origin: 430.815px 219.015px; transform: rotate(7.28deg);" class="animable"></rect></g><path d="M452,125l-3.16-3.7.68-21.93-6.73-.83-8.49,38,.57,8.19,10.7,1.36,1.52-4.3-2.32,28.85,1.37.18C450.53,153.09,452,125,452,125Z" style="fill: rgb(235, 235, 235); transform-origin: 443.15px 134.68px;" id="eleiux03ic5dw" class="animable"></path><polygon points="428.17 176.17 394.62 177.94 395.86 144.23 423.41 142.78 428.17 176.17" style="fill: rgb(224, 224, 224); transform-origin: 411.395px 160.36px;" id="elg9k1z8n2ugs" class="animable"></polygon><polygon points="428.17 176.17 394.62 177.94 402.41 269.05 429.97 267.6 428.17 176.17" style="fill: rgb(235, 235, 235); transform-origin: 412.295px 222.61px;" id="elmvbjm3agh3" class="animable"></polygon><polygon points="440.84 222.52 316.39 222.52 326.39 381.32 430.84 381.32 440.84 222.52" style="fill: rgb(230, 230, 230); transform-origin: 378.615px 301.92px;" id="elznnt765o46t" class="animable"></polygon><rect x="314.61" y="216.52" width="128.01" height="16.19" style="fill: rgb(224, 224, 224); transform-origin: 378.615px 224.615px;" id="elqycuz2kbs5k" class="animable"></rect><rect x="50.79" y="69.8" width="230.52" height="177.35" style="fill: rgb(240, 240, 240); transform-origin: 166.05px 158.475px;" id="elupuc5s8vr98" class="animable"></rect><g id="elfmmbt1a0qyd"><rect x="79.3" y="92.3" width="50.26" height="50.26" style="fill: rgb(250, 250, 250); transform-origin: 104.43px 117.43px; transform: rotate(-4.63deg);" class="animable"></rect></g><g id="el7r1b6dosfqb"><rect x="170.82" y="96.95" width="50.26" height="50.26" style="fill: rgb(250, 250, 250); transform-origin: 195.95px 122.08px; transform: rotate(2.55deg);" class="animable"></rect></g><g id="el9n88z6bmzmg"><rect x="115.97" y="156.1" width="50.26" height="50.26" style="fill: rgb(250, 250, 250); transform-origin: 141.1px 181.23px; transform: rotate(2.55deg);" class="animable"></rect></g><path d="M106.28,95a1.86,1.86,0,1,1-1.85-1.86A1.85,1.85,0,0,1,106.28,95Z" style="fill: rgb(230, 230, 230); transform-origin: 104.42px 95px;" id="elmjuf9g9b9l" class="animable"></path><path d="M198.81,99.55A1.86,1.86,0,1,1,197,97.7,1.85,1.85,0,0,1,198.81,99.55Z" style="fill: rgb(230, 230, 230); transform-origin: 196.95px 99.5593px;" id="eljee7jr5rco" class="animable"></path><path d="M145.32,160.2a1.86,1.86,0,1,1-1.86-1.85A1.86,1.86,0,0,1,145.32,160.2Z" style="fill: rgb(230, 230, 230); transform-origin: 143.46px 160.21px;" id="el12wni9o8dfec" class="animable"></path><path d="M98.58,110.85a5.18,5.18,0,0,1-4-1.62,4.45,4.45,0,0,1-.38-.48,2.29,2.29,0,0,0-.52-.57,2.21,2.21,0,0,0-1.26.07l-7.2,1.62-.44-2,7.2-1.62a3.79,3.79,0,0,1,2.65.13,3.65,3.65,0,0,1,1.17,1.14c.09.12.18.24.28.35a3.79,3.79,0,0,0,3.5.84,15.1,15.1,0,0,0,2.81-.92c.53-.21,1-.42,1.59-.61,3.28-1.12,6.71-1.16,10-1.21l6.89-.09,0,2-6.89.09a30.28,30.28,0,0,0-9.41,1.11c-.51.17-1,.37-1.5.56a17.16,17.16,0,0,1-3.18,1A7.45,7.45,0,0,1,98.58,110.85Z" style="fill: rgb(240, 240, 240); transform-origin: 102.825px 108.368px;" id="elbv3zous6q19" class="animable"></path><path d="M89,120.61l-.1-2,13.78-.65a7.73,7.73,0,0,0,2.49-.38,7,7,0,0,0,1-.53c.22-.13.44-.26.67-.38a8.81,8.81,0,0,1,6.45-.64l-.55,1.92a6.71,6.71,0,0,0-5,.5c-.2.1-.4.22-.59.33a10.23,10.23,0,0,1-1.28.66,9.61,9.61,0,0,1-3.14.52Z" style="fill: rgb(240, 240, 240); transform-origin: 101.095px 118.151px;" id="ellier4vjrg5" class="animable"></path><path d="M192,109.9c-4.21,0-8.41-.35-12.54-.7l.17-2c7.59.64,15.44,1.29,23-.31l.76-.17a16.61,16.61,0,0,1,4.14-.57,6.06,6.06,0,0,1,4.92,2.38l-1.65,1.12a4.07,4.07,0,0,0-3.32-1.5,15.75,15.75,0,0,0-3.65.52l-.78.17A52.56,52.56,0,0,1,192,109.9Z" style="fill: rgb(240, 240, 240); transform-origin: 195.955px 108.026px;" id="elqys3ph9ylqo" class="animable"></path><path d="M211.51,120.48a29.48,29.48,0,0,0-15.68-2.86l-.2-2a31.08,31.08,0,0,1,16.76,3.05Z" style="fill: rgb(240, 240, 240); transform-origin: 204.01px 117.976px;" id="elzg1qenki6g" class="animable"></path><path d="M197.37,125.14a100.89,100.89,0,0,1-16.46-1.35l.33-2a98.7,98.7,0,0,0,23.1,1.07l.14,2C202.11,125.05,199.74,125.14,197.37,125.14Z" style="fill: rgb(240, 240, 240); transform-origin: 192.695px 123.465px;" id="elzioftwm52pa" class="animable"></path><path d="M144.8,172.5A33.37,33.37,0,0,1,133.52,171c-.81-.29-1.61-.63-2.38-1a14.53,14.53,0,0,0-5.46-1.57l0-2a16.06,16.06,0,0,1,6.23,1.74c.74.32,1.51.65,2.26.92,4.07,1.45,8.54,1.41,12.85,1.36a11.67,11.67,0,0,0,3-.29,12.54,12.54,0,0,0,1.48-.58c.34-.15.68-.3,1-.43,3.57-1.37,7.59-.81,10.82-.36l-.28,2c-3.15-.44-6.73-.94-9.83.25-.31.11-.61.25-.92.39a14.29,14.29,0,0,1-1.74.67,13.52,13.52,0,0,1-3.56.37Z" style="fill: rgb(240, 240, 240); transform-origin: 144.5px 169.478px;" id="elw50vmt6jl6" class="animable"></path><rect x="132.81" y="181.12" width="21.76" height="2" style="fill: rgb(240, 240, 240); transform-origin: 143.69px 182.12px;" id="elu12y0b3ry9l" class="animable"></rect><path d="M130.07,195.16l-.06-2c8.41-.26,17-.3,25.37-.13l0,2C147,194.86,138.45,194.9,130.07,195.16Z" style="fill: rgb(240, 240, 240); transform-origin: 142.695px 194.044px;" id="el5m2hdynv7h5" class="animable"></path></g><g id="freepik--Shadow--inject-54" class="animable" style="transform-origin: 250px 416.24px;"><ellipse id="freepik--path--inject-54" cx="250" cy="416.24" rx="193.89" ry="11.32" style="fill: rgb(245, 245, 245); transform-origin: 250px 416.24px;" class="animable"></ellipse></g><g id="freepik--Monitor--inject-54" class="animable" style="transform-origin: 192.443px 274.878px;"><path d="M207.85,417.24c-.27,0-27.93-.1-55.49-1.37-56.48-2.61-57.56-7.54-58-9.39a3.46,3.46,0,0,1,.53-2.73c2.45-3.64,12-5.33,23.07-7.28,10.29-1.82,22-3.88,24.18-7.54a2.22,2.22,0,0,0,.21-1.92c-1.24-3.93-12.47-6.65-25.48-9.8-22.07-5.35-49.53-12-57.91-29.84-13.46-28.65.92-76.11,1.54-78.12l1.91.59c-.15.49-14.77,48.74-1.64,76.68,8,17,36.06,23.77,56.57,28.74,14.71,3.57,25.34,6.14,26.92,11.15a4.23,4.23,0,0,1-.41,3.56c-2.7,4.43-13.79,6.39-25.54,8.46-9.27,1.64-19.79,3.5-21.75,6.44a1.45,1.45,0,0,0-.25,1.18c.27,1.24,5.12,5.47,56.1,7.82,27.51,1.27,55.13,1.37,55.41,1.37Z" style="fill: rgb(38, 50, 56); transform-origin: 130.539px 343.245px;" id="ellw3g9j5im1j" class="animable"></path><rect x="198.75" y="155.71" width="6.53" height="7.52" style="fill: rgb(38, 50, 56); transform-origin: 202.015px 159.47px;" id="elbcu2zoxcjgt" class="animable"></rect><g id="elgj5lpdpgc1m"><rect x="198.75" y="155.71" width="6.53" height="7.52" style="fill: rgb(255, 255, 255); opacity: 0.2; transform-origin: 202.015px 159.47px;" class="animable"></rect></g><path d="M188.62,169.57l1.31-4.48a3.83,3.83,0,0,1,3.67-2.75H213a3.82,3.82,0,0,1,3.35,2l2.87,5.24H187.77" style="fill: rgb(38, 50, 56); transform-origin: 203.495px 165.96px;" id="eltgga30rgp5" class="animable"></path><g id="elx6rlhbofxcb"><path d="M188.62,169.57l1.31-4.48a3.83,3.83,0,0,1,3.67-2.75H213a3.82,3.82,0,0,1,3.35,2l2.87,5.24H187.77" style="fill: rgb(255, 255, 255); opacity: 0.4; transform-origin: 203.495px 165.96px;" class="animable"></path></g><g id="eln3crc11sin8"><path d="M196.08,169.57h23.14l-2.87-5.24a3.82,3.82,0,0,0-3.35-2H198.15a2.08,2.08,0,0,0-2.07,2.08Z" style="fill: rgb(255, 255, 255); opacity: 0.2; transform-origin: 207.65px 165.95px;" class="animable"></path></g><g id="elfcoupmzvrk"><circle cx="202.42" cy="148.13" r="12.08" style="fill: rgb(38, 50, 56); transform-origin: 202.42px 148.13px; transform: rotate(-45deg);" class="animable"></circle></g><g id="el6tni9trb4u"><circle cx="202.42" cy="148.13" r="12.08" style="fill: rgb(255, 255, 255); opacity: 0.3; transform-origin: 202.42px 148.13px; transform: rotate(-45deg);" class="animable"></circle></g><path d="M214.49,151a6.61,6.61,0,1,1-6.6-6.61A6.61,6.61,0,0,1,214.49,151Z" style="fill: rgb(38, 50, 56); transform-origin: 207.88px 151px;" id="elg4hiy89n87e" class="animable"></path><g id="elguh5cg530gd"><path d="M214.49,151a6.61,6.61,0,1,1-6.6-6.61A6.61,6.61,0,0,1,214.49,151Z" style="fill: rgb(255, 255, 255); opacity: 0.2; transform-origin: 207.88px 151px;" class="animable"></path></g><path d="M213,151.48a4.34,4.34,0,1,1-4.33-4.34A4.33,4.33,0,0,1,213,151.48Z" style="fill: rgb(38, 50, 56); transform-origin: 208.66px 151.48px;" id="el2nzh4fh9qtu" class="animable"></path><g id="el4uvgvhckq89"><path d="M201.28,143.48a.9.9,0,1,1-.89-.89A.89.89,0,0,1,201.28,143.48Z" style="opacity: 0.2; isolation: isolate; transform-origin: 200.38px 143.49px;" class="animable"></path></g><path d="M118.72,164.3s-44.28-3.05-47.72,82l-9.41-.58s-2.68-52.61,19.63-78.81a23.1,23.1,0,0,1,18.68-8C107.88,159.26,118.07,160.48,118.72,164.3Z" style="fill: rgb(38, 50, 56); transform-origin: 90.1047px 202.59px;" id="elp10bxjs2aa" class="animable"></path><g id="el7xfay44y037"><circle cx="66.23" cy="254.13" r="21.47" style="fill: rgb(38, 50, 56); transform-origin: 66.23px 254.13px; transform: rotate(-25.18deg);" class="animable"></circle></g><g id="elxmjm61mn3cr"><circle cx="66.23" cy="254.13" r="21.47" style="fill: rgb(255, 255, 255); opacity: 0.1; transform-origin: 66.23px 254.13px; transform: rotate(-25.18deg);" class="animable"></circle></g><path d="M55.37,249.75a11.54,11.54,0,1,0,14.77-6.95A11.53,11.53,0,0,0,55.37,249.75Z" style="fill: rgb(38, 50, 56); transform-origin: 66.2285px 253.655px;" id="eluuz9rd1kdls" class="animable"></path><g id="elhirp2jbh5eb"><circle cx="64.25" cy="253.67" r="7.75" style="fill: rgb(255, 255, 255); opacity: 0.1; transform-origin: 64.25px 253.67px; transform: rotate(-25.18deg);" class="animable"></circle></g><path d="M257.09,414v3.85a.86.86,0,0,1-.87.86H147.51a5.66,5.66,0,0,1-5.26-7.78l34.45-85.32,55.67.38-1.9,11.07-12.28,71.65a3.79,3.79,0,0,0,3.73,4.43h34.3A.86.86,0,0,1,257.09,414Z" style="fill: rgb(64, 123, 255); transform-origin: 199.464px 372.16px;" id="elphwtco6lt2" class="animable"></path><g id="el1q0vm7tfpbt"><path d="M257.09,414v3.85a.86.86,0,0,1-.87.86H147.51a5.66,5.66,0,0,1-5.26-7.78l21.36-52.89,13.09-32.43,55.67.38-1.9,11.07-5.34,31.16-6.94,40.49a3.79,3.79,0,0,0,3.73,4.43h34.3A.86.86,0,0,1,257.09,414Z" style="fill: rgb(255, 255, 255); opacity: 0.6; transform-origin: 199.464px 372.16px;" class="animable"></path></g><g id="elshtjrf9pxw"><path d="M221.92,413.17H151.19a2.48,2.48,0,0,1-2.29-3.43l30.2-72.65h51.37l-12.28,71.65A3.79,3.79,0,0,0,221.92,413.17Z" style="opacity: 0.2; isolation: isolate; transform-origin: 189.59px 375.13px;" class="animable"></path></g><g id="elnclblcxzoq"><polygon points="232.37 326.02 230.47 337.09 225.13 368.25 163.61 358.07 176.7 325.64 232.37 326.02" style="opacity: 0.1; isolation: isolate; transform-origin: 197.99px 346.945px;" class="animable"></polygon></g><path d="M340.62,167H82.89a6.59,6.59,0,0,0-6.59,6.6V348.05a6.59,6.59,0,0,0,6.59,6.59H340.62a6.59,6.59,0,0,0,6.6-6.59V173.57A6.59,6.59,0,0,0,340.62,167Z" style="fill: rgb(64, 123, 255); transform-origin: 211.76px 260.82px;" id="ela9iudd6jyzv" class="animable"></path><g id="el55hzwpiefr7"><path d="M340.62,167H82.89a6.59,6.59,0,0,0-6.59,6.6V348.05a6.59,6.59,0,0,0,6.59,6.59H340.62a6.59,6.59,0,0,0,6.6-6.59V173.57A6.59,6.59,0,0,0,340.62,167Z" style="fill: rgb(255, 255, 255); opacity: 0.7; transform-origin: 211.76px 260.82px;" class="animable"></path></g><g id="elui821nqeg7"><path d="M88.35,354.64H82.89a6.59,6.59,0,0,1-6.59-6.59V173.57a6.59,6.59,0,0,1,6.59-6.6h5.46a6.59,6.59,0,0,0-6.59,6.6V348.05A6.59,6.59,0,0,0,88.35,354.64Z" style="opacity: 0.2; isolation: isolate; transform-origin: 82.325px 260.805px;" class="animable"></path></g><rect x="87.71" y="173.43" width="253.57" height="168.25" style="fill: rgb(64, 123, 255); transform-origin: 214.495px 257.555px;" id="elvcrb5yotx2" class="animable"></rect><g id="eln1aoc3b727n"><path d="M314.85,173.43C279.79,208.55,189.74,286.73,87.71,281V173.43Z" style="fill: rgb(255, 255, 255); opacity: 0.1; transform-origin: 201.28px 227.364px;" class="animable"></path></g><g id="elnised2s3ijo"><path d="M341.28,238V341.68H188.62c5.85-20.94,17.55-49.62,40.26-70.12C269.72,234.69,317.11,234.8,341.28,238Z" style="fill: rgb(255, 255, 255); opacity: 0.1; transform-origin: 264.95px 289.187px;" class="animable"></path></g><g id="elo3mc15t8j5m"><rect x="187.57" y="272.18" width="53.85" height="4.9" rx="2.24" style="fill: rgb(255, 255, 255); opacity: 0.8; transform-origin: 214.495px 274.63px;" class="animable"></rect></g><g id="elpnpc5dygie"><rect x="181.07" y="283.08" width="66.85" height="9.14" rx="1.68" style="opacity: 0.4; isolation: isolate; transform-origin: 214.495px 287.65px;" class="animable"></rect></g><rect x="240.06" y="284.17" width="6.76" height="6.95" rx="0.59" style="fill: rgb(64, 123, 255); transform-origin: 243.44px 287.645px;" id="el3at39u5boh9" class="animable"></rect><g id="elgrvxhi0bnuk"><path d="M243,236.41a28.5,28.5,0,1,1-28.49-28.49A28.36,28.36,0,0,1,243,236.41Z" style="opacity: 0.4; isolation: isolate; transform-origin: 214.5px 236.42px;" class="animable"></path></g><g id="elkgct52dq1o"><path d="M236,255.07a28.48,28.48,0,0,1-43.08,0,22.41,22.41,0,0,1,15.5-15.52,11,11,0,1,1,12.09,0A22.4,22.4,0,0,1,236,255.07Z" style="fill: rgb(255, 255, 255); opacity: 0.8; transform-origin: 214.46px 242.139px;" class="animable"></path></g><g id="elsvigbhfizmq"><rect x="305.83" y="328.94" width="5.62" height="5.62" style="opacity: 0.4; isolation: isolate; transform-origin: 308.64px 331.75px;" class="animable"></rect></g><g id="el6pj8cin9hh"><rect x="316.76" y="328.94" width="5.62" height="5.62" rx="1.44" style="opacity: 0.4; isolation: isolate; transform-origin: 319.57px 331.75px;" class="animable"></rect></g><g id="ele6wpbb1ac8k"><rect x="327.68" y="328.94" width="5.62" height="5.62" rx="2.57" style="opacity: 0.4; isolation: isolate; transform-origin: 330.49px 331.75px;" class="animable"></rect></g><g id="el1mjtmvyinle"><g style="opacity: 0.1; transform-origin: 171.02px 257.555px;" class="animable"><polygon points="125.29 173.43 87.71 313.85 87.71 173.43 125.29 173.43" style="fill: rgb(255, 255, 255); transform-origin: 106.5px 243.64px;" id="elnouszylb4m" class="animable"></polygon><polygon points="167.7 173.43 122.67 341.68 91.65 341.68 136.67 173.43 167.7 173.43" style="fill: rgb(255, 255, 255); transform-origin: 129.675px 257.555px;" id="elam4hjl94nla" class="animable"></polygon><polygon points="212.8 173.43 167.77 341.68 153.74 341.68 198.77 173.43 212.8 173.43" style="fill: rgb(255, 255, 255); transform-origin: 183.27px 257.555px;" id="elzkjun5t4jx" class="animable"></polygon><polygon points="254.33 173.43 209.3 341.68 204.28 341.68 249.31 173.43 254.33 173.43" style="fill: rgb(255, 255, 255); transform-origin: 229.305px 257.555px;" id="elmx2pgakj8p" class="animable"></polygon></g></g><circle cx="103.8" cy="260.8" r="21.47" style="fill: rgb(38, 50, 56); transform-origin: 103.8px 260.8px;" id="el86l2vrjvbq2" class="animable"></circle><g id="el8i6hvq7vib"><circle cx="104.57" cy="260.94" r="18.82" style="fill: rgb(38, 50, 56); transform-origin: 104.57px 260.94px; transform: rotate(-45deg);" class="animable"></circle></g><g id="elcjjii8cnkd7"><circle cx="104.57" cy="260.94" r="18.82" style="fill: rgb(255, 255, 255); opacity: 0.2; transform-origin: 104.57px 260.94px; transform: rotate(-45deg);" class="animable"></circle></g><path d="M100.52,161.81s22.8,25.09,5.51,89.67l9,2.65s25.52-60.91,2.42-91.54C117.5,162.59,103.68,156.21,100.52,161.81Z" style="fill: rgb(38, 50, 56); transform-origin: 113.822px 206.819px;" id="el5quwty0nua5" class="animable"></path><g id="elbi5jt0lnar8"><path d="M100.52,161.81s22.8,25.09,5.51,89.67l9,2.65s25.52-60.91,2.42-91.54C117.5,162.59,103.68,156.21,100.52,161.81Z" style="fill: rgb(255, 255, 255); opacity: 0.1; transform-origin: 113.822px 206.819px;" class="animable"></path></g><g id="elpj1gqx2evy8"><circle cx="106.91" cy="261.54" r="11.54" style="fill: rgb(38, 50, 56); transform-origin: 106.91px 261.54px; transform: rotate(-76.72deg);" class="animable"></circle></g><g id="el08kvircvwbrq"><circle cx="106.91" cy="261.54" r="11.54" style="fill: rgb(255, 255, 255); opacity: 0.1; transform-origin: 106.91px 261.54px; transform: rotate(-76.72deg);" class="animable"></circle></g><g id="elhxn0pidtend"><circle cx="107.68" cy="261.54" r="9.59" style="fill: rgb(38, 50, 56); transform-origin: 107.68px 261.54px; transform: rotate(-22.5deg);" class="animable"></circle></g><g id="eltr410deif2"><circle cx="107.68" cy="261.54" r="9.59" style="fill: rgb(255, 255, 255); opacity: 0.2; transform-origin: 107.68px 261.54px; transform: rotate(-22.5deg);" class="animable"></circle></g></g><g id="freepik--Sparkles--inject-54" class="animable" style="transform-origin: 203.395px 259.88px;"><polygon points="247.19 230.29 245.81 221.9 244.43 230.29 236.03 231.68 244.43 233.06 245.81 241.45 247.19 233.06 255.58 231.68 247.19 230.29" style="fill: rgb(64, 123, 255); transform-origin: 245.805px 231.675px;" id="eliylf79tuw0p" class="animable"></polygon><polygon points="291.53 142.99 289.89 133.05 288.26 142.99 278.31 144.63 288.26 146.27 289.89 156.21 291.53 146.27 301.48 144.63 291.53 142.99" style="fill: rgb(64, 123, 255); transform-origin: 289.895px 144.63px;" id="el4p1edo1er1h" class="animable"></polygon><polygon points="331.48 253.15 330.49 247.15 329.5 253.15 323.51 254.13 329.5 255.12 330.49 261.11 331.48 255.12 337.47 254.13 331.48 253.15" style="fill: rgb(64, 123, 255); transform-origin: 330.49px 254.13px;" id="el4q0w8gj5ww" class="animable"></polygon><g id="elglo5bpkr235"><polygon points="247.19 230.29 245.81 221.9 244.43 230.29 236.03 231.68 244.43 233.06 245.81 241.45 247.19 233.06 255.58 231.68 247.19 230.29" style="fill: rgb(255, 255, 255); opacity: 0.6; transform-origin: 245.805px 231.675px;" class="animable"></polygon></g><polygon points="138.27 323.58 136.89 315.19 135.51 323.58 127.11 324.96 135.51 326.35 136.89 334.74 138.27 326.35 146.66 324.96 138.27 323.58" style="fill: rgb(64, 123, 255); transform-origin: 136.885px 324.965px;" id="elq6ezcbfxi7m" class="animable"></polygon><g id="elgo9gytua2h"><polygon points="138.27 323.58 136.89 315.19 135.51 323.58 127.11 324.96 135.51 326.35 136.89 334.74 138.27 326.35 146.66 324.96 138.27 323.58" style="fill: rgb(255, 255, 255); opacity: 0.6; transform-origin: 136.885px 324.965px;" class="animable"></polygon></g><g id="el30h3xjadk3r"><polygon points="291.53 142.99 289.89 133.05 288.26 142.99 278.31 144.63 288.26 146.27 289.89 156.21 291.53 146.27 301.48 144.63 291.53 142.99" style="fill: rgb(255, 255, 255); opacity: 0.6; transform-origin: 289.895px 144.63px;" class="animable"></polygon></g><polygon points="258.67 373.49 257.03 363.55 255.39 373.49 245.44 375.13 255.39 376.77 257.03 386.71 258.67 376.77 268.61 375.13 258.67 373.49" style="fill: rgb(64, 123, 255); transform-origin: 257.025px 375.13px;" id="el74ez2ny040l" class="animable"></polygon><g id="elkxi6k5c4oh"><polygon points="258.67 373.49 257.03 363.55 255.39 373.49 245.44 375.13 255.39 376.77 257.03 386.71 258.67 376.77 268.61 375.13 258.67 373.49" style="fill: rgb(255, 255, 255); opacity: 0.6; transform-origin: 257.025px 375.13px;" class="animable"></polygon></g><g id="elco6stkn91el"><polygon points="331.48 253.15 330.49 247.15 329.5 253.15 323.51 254.13 329.5 255.12 330.49 261.11 331.48 255.12 337.47 254.13 331.48 253.15" style="fill: rgb(255, 255, 255); opacity: 0.6; transform-origin: 330.49px 254.13px;" class="animable"></polygon></g><polygon points="77.29 155.46 76.3 149.47 75.31 155.46 69.32 156.45 75.31 157.44 76.3 163.43 77.29 157.44 83.28 156.45 77.29 155.46" style="fill: rgb(64, 123, 255); transform-origin: 76.3px 156.45px;" id="elwmkty12zro" class="animable"></polygon><g id="el1un85zugz4w"><polygon points="77.29 155.46 76.3 149.47 75.31 155.46 69.32 156.45 75.31 157.44 76.3 163.43 77.29 157.44 83.28 156.45 77.29 155.46" style="fill: rgb(255, 255, 255); opacity: 0.6; transform-origin: 76.3px 156.45px;" class="animable"></polygon></g></g><g id="freepik--Character--inject-54" class="animable" style="transform-origin: 357px 283.758px;"><g id="freepik--group--inject-54" class="animable" style="transform-origin: 357px 283.758px;"><path d="M448.16,220.68a38.11,38.11,0,0,0,.5,9.9h-1.29a34.71,34.71,0,0,1-1.78-9.9Z" style="fill: rgb(64, 123, 255); transform-origin: 447.125px 225.63px;" id="el4krgsjumjeo" class="animable"></path><path d="M450.74,222.87,444,222.4s.1,1,.24,2.63c0,.52.09,1.1.14,1.74.58,7.56,1.43,22.65-.77,26.16-3,4.75-16.22-5.73-16.62-11.47,0,0,3.21-12.45,9.22-19.06a18.08,18.08,0,0,1,1.8-1.72c.18-.16.36-.3.55-.44l-.3-10,2.18-1a44.33,44.33,0,0,1,11.46,11Z" style="fill: rgb(64, 123, 255); transform-origin: 439.445px 231.686px;" id="el2e4zk3uw11g" class="animable"></path><g id="eld5j5nr1wmhc"><path d="M443.62,252.93a2.22,2.22,0,0,1-.83.81c-4.05,2.4-15.42-7-15.79-12.28,0,0,.06-.23.18-.65.83-2.94,4.57-15,10.84-20.13a10.45,10.45,0,0,1,2.63.7,8.91,8.91,0,0,1,3.6,3.65C444.81,231.71,446,249.12,443.62,252.93Z" style="fill: rgb(255, 255, 255); opacity: 0.7; transform-origin: 436.024px 237.402px;" class="animable"></path></g><g id="elw6iiyqzrdy"><path d="M442.79,253.74c-4.05,2.4-15.42-7-15.79-12.28,0,0,.06-.23.18-.65C431.94,238.12,444.71,247.37,442.79,253.74Z" style="opacity: 0.2; isolation: isolate; transform-origin: 434.993px 247.228px;" class="animable"></path></g><g id="eloypww2zktul"><path d="M444.25,225c0,.52.09,1.1.14,1.74l-8.17-4.37a18.08,18.08,0,0,1,1.8-1.72c.18-.16.36-.3.55-.44l-.3-10,2.18-1s-.1,4.05,1,4.94,8.41,6.63,9.3,8.71L444,222.4S444.11,223.39,444.25,225Z" style="opacity: 0.2; isolation: isolate; transform-origin: 443.485px 217.975px;" class="animable"></path></g><polygon points="354.43 411.29 346.32 412.14 345.91 407.44 344.8 394.65 352.91 393.79 354.14 407.92 354.43 411.29" style="fill: rgb(228, 137, 123); transform-origin: 349.615px 402.965px;" id="elbpojseu854n" class="animable"></polygon><polygon points="424.91 410.26 417.05 410.26 416.66 408.49 416.61 408.27 414.17 396.92 414.11 396.69 413.17 392.34 421.04 392.34 424.91 410.26" style="fill: rgb(228, 137, 123); transform-origin: 419.04px 401.3px;" id="elw46yugn0h0s" class="animable"></polygon><g id="el4uch5wkneww"><polygon points="352.91 393.79 354.14 407.92 345.91 407.44 344.8 394.65 352.91 393.79" style="opacity: 0.2; isolation: isolate; transform-origin: 349.47px 400.855px;" class="animable"></polygon></g><g id="ellyyvnh4x4m"><polygon points="424.68 409.27 424.67 409.27 416.62 408.27 416.61 408.27 414.23 397.32 414.24 397.32 422.23 397.95 424.61 408.92 424.68 409.27" style="opacity: 0.2; isolation: isolate; transform-origin: 419.455px 403.295px;" class="animable"></polygon></g><path d="M416,409.79h9.55a.69.69,0,0,1,.67.54l1.55,7a1.18,1.18,0,0,1-1.15,1.4c-3.09-.05-5.34-.24-9.22-.24-2.39,0-9.6.25-12.9.25s-3.73-3.26-2.38-3.56c6.06-1.32,10.62-3.15,12.56-4.89A1.89,1.89,0,0,1,416,409.79Z" style="fill: rgb(38, 50, 56); transform-origin: 414.597px 414.265px;" id="el7n7ueek348c" class="animable"></path><path d="M345.46,409.54H355a.69.69,0,0,1,.67.54l1.55,7a1.18,1.18,0,0,1-1.15,1.4c-3.09-.05-5.34-.24-9.22-.24-2.39,0-9.6.25-12.9.25s-3.73-3.26-2.38-3.56c6.06-1.32,10.62-3.15,12.56-4.89A1.89,1.89,0,0,1,345.46,409.54Z" style="fill: rgb(38, 50, 56); transform-origin: 344.047px 414.015px;" id="ela6tnrui57v7" class="animable"></path><path d="M344.06,404.26l11.6.38c-4.22-77.56-6.19-81.52,31.46-118.15.88,11.08,1.87,22.58,2.84,32.16.61,5.93.79,11.1,1.78,14.9,6.69,25.69,22.82,71.15,22.82,71.15l11.32.51s-14.17-62.31-15.63-82.62c-1.91-26.64,4.31-55.48.78-76.33L371.48,253C335.62,305.45,329.05,316.79,344.06,404.26Z" style="fill: rgb(64, 123, 255); transform-origin: 381.204px 325.735px;" id="elj544w2xllrr" class="animable"></path><g id="elyv8rgv0x037"><path d="M344.06,404.26l11.6.38c-4.22-77.56-6.19-81.52,31.46-118.15.88,11.08,1.87,22.58,2.84,32.16.61,5.93.79,11.1,1.78,14.9,6.69,25.69,22.82,71.15,22.82,71.15l11.32.51s-14.17-62.31-15.63-82.62c-1.91-26.64,4.31-55.48.78-76.33L371.48,253C335.62,305.45,329.05,316.79,344.06,404.26Z" style="fill: rgb(255, 255, 255); opacity: 0.3; transform-origin: 381.204px 325.735px;" class="animable"></path></g><path d="M270.27,181.79c-3.16,4.55-8.17,20.81-8.17,26.13S262,211.41,265,213s12.71,6.92,17.46,10.71,6.06,1.31,7.91,5.19,13.09-28.09,15.51-31.62-.48-1.91-2.85-4-12.85-8.87-18.56-11.43-8.34,1.51-9.93,0S270.27,181.79,270.27,181.79Z" style="fill: rgb(240, 240, 240); transform-origin: 284.446px 205.104px;" id="el41ebeqrcsze" class="animable"></path><path d="M322.93,209.75s-8.36,20.16-11.48,20.9c-2.81.66-20.93-27.76-20.93-27.76s-2.37-8.83-2.64-11.4-11.6,3-11.87,4.54,3.32,11.87,7.86,12.66c0,0,15.52,35.08,25.32,37.45s30.26-31.38,30.26-31.38Z" style="fill: rgb(228, 137, 123); transform-origin: 307.723px 218.541px;" id="el63s4t6zqbg3" class="animable"></path><path d="M377.43,179.13s27.13,2.47,32.35,4.89,27.79,33.42,27.79,33.42,9.4,3.21,9,6.59-.74,9.54-3.43,8.58-9.69-6.76-9.69-6.76l-.29-3s-26.5-28.21-27.57-29-27.7-1.64-27.7-1.64Z" style="fill: rgb(228, 137, 123); transform-origin: 412.006px 205.92px;" id="elr61s19yqpm" class="animable"></path><path d="M356.49,176.38c17-2.95,27.32,0,36.94,2.32l-2.59,16.87-20,3.37Z" style="fill: rgb(38, 50, 56); transform-origin: 374.96px 187.041px;" id="ely87g66cq1o" class="animable"></path><path d="M324.58,181.87c.31.23.63.45,1,.65a10.94,10.94,0,0,0,6.29,1.55,10.19,10.19,0,0,0,1.66-.22,9.82,9.82,0,0,0,7.93-8.89c.54-5.57-2.45-9.07-7-15.37a10.67,10.67,0,0,0-18.12,1.07C312.34,167.89,318.84,177.52,324.58,181.87Z" style="fill: rgb(228, 137, 123); transform-origin: 328.314px 169.572px;" id="elmwfkt5bar2o" class="animable"></path><g id="el4jrvoku2at7"><path d="M331.83,184.07a10.19,10.19,0,0,0,1.66-.22,9.92,9.92,0,0,0,6.84-5.09,11.73,11.73,0,0,0-2.75-1.17A15.41,15.41,0,0,0,331.83,184.07Z" style="opacity: 0.2; isolation: isolate; transform-origin: 336.08px 180.83px;" class="animable"></path></g><path d="M350.33,182c-.76,5.12-8.85,10.06-8.85,10.06s-5.55,2.46-5.75.27c2.31-2.63,2.59-4.93,1.82-7a10,10,0,0,0-2.22-3.27,19.41,19.41,0,0,0-1.62-1.52l3.55-14C339.67,171.92,344.83,181.17,350.33,182Z" style="fill: rgb(228, 137, 123); transform-origin: 342.02px 179.889px;" id="el9ol5htxp7ds" class="animable"></path><path d="M316.53,166.87c.39-.09.84.12,1.27,1.06,1.14,2.53,5,5.58,7.94,6.17s8.26,5.32,8.26,5.32,3.52-4.7,8.1-5.85c0,0,2.49-9.87-3.15-17Z" style="fill: rgb(38, 50, 56); transform-origin: 329.589px 167.995px;" id="elejy8h6dyvxf" class="animable"></path><path d="M327.15,171.35a5.05,5.05,0,0,1,.18,4.31c-.8,1.52-3,.45-4.32-1.5-1.14-1.74-2.16-4.68-.6-5.46S326.25,169.38,327.15,171.35Z" style="fill: rgb(228, 137, 123); transform-origin: 324.671px 172.433px;" id="elo354mtbp45" class="animable"></path><path d="M339.45,159.47s2.34-4.84-5.74-9.29-17.68,2.67-20.55,7.51a7.7,7.7,0,0,0-4.84,6.53c-.69,5.24,6.53,6.92,6.53,6.92s-2.58-1.61-3.07-3.13c0,0,1,2.42,5.84,1.56A2.43,2.43,0,0,1,316,168s3.64,2.78,8.64-1.45S339.45,159.47,339.45,159.47Z" style="fill: rgb(38, 50, 56); transform-origin: 324.019px 159.958px;" id="elnzctvf5kqc" class="animable"></path><g id="elrk0ymigfbf7"><path d="M387.12,286.44C388,297.52,389,309,390,318.62c1.42-13.83,3.16-23.69,3.16-23.69s1.63-1.34,6.11-8.49,0-20.5,0-20.5C399.37,278.34,387.12,286.44,387.12,286.44Z" style="opacity: 0.2; isolation: isolate; transform-origin: 394.191px 292.28px;" class="animable"></path></g><polygon points="342.76 403.01 343.32 406.26 356.95 406.26 356.95 403.26 342.76 403.01" style="fill: rgb(64, 123, 255); transform-origin: 349.855px 404.635px;" id="elq7qzo58qt7i" class="animable"></polygon><polygon points="413.22 404.26 414.52 407.26 426.94 407.26 426.7 404.26 413.22 404.26" style="fill: rgb(64, 123, 255); transform-origin: 420.08px 405.76px;" id="el4g20frkgxas" class="animable"></polygon><path d="M326,197.35s14.37-21,37.15-21.79c0,0,37.58,31.55,50.64,75.43l-50.37,13.93S346.36,224.21,326,197.35Z" style="fill: rgb(38, 50, 56); transform-origin: 369.895px 220.24px;" id="elish31pg6dz" class="animable"></path><path d="M326,197.35c-6.1,10.62-10.89,24.86-10.89,24.86l15.42,10.5,12.16-13.39s.16-10-6.57-16.63S326,197.35,326,197.35Z" style="fill: rgb(38, 50, 56); transform-origin: 328.9px 214.979px;" id="elbq4h6sbko97" class="animable"></path><g id="elckdvz6ns31m"><path d="M413.75,251l-50.37,13.93A428.58,428.58,0,0,0,341,220.24h0c0-.56-1.21-23.48-3.08-33.19,0,0,6.6-5.82,13.52-7.15,0,0,16.42,0,32.45,17.37C394.83,210.6,407.29,229.29,413.75,251Z" style="fill: rgb(255, 255, 255); opacity: 0.8; transform-origin: 375.835px 222.415px;" class="animable"></path></g><g id="el29yq3tdgdwf"><polygon points="342.76 403.01 343.32 406.26 356.95 406.26 356.95 403.26 342.76 403.01" style="fill: rgb(255, 255, 255); opacity: 0.7; transform-origin: 349.855px 404.635px;" class="animable"></polygon></g><g id="elq6kshaqe3uf"><polygon points="413.22 404.26 414.52 407.26 426.94 407.26 426.7 404.26 413.22 404.26" style="fill: rgb(255, 255, 255); opacity: 0.7; transform-origin: 420.08px 405.76px;" class="animable"></polygon></g></g></g><defs> 
    <filter id="active" height="200%"> 
        <feMorphology in="SourceAlpha" result="DILATED" operator="dilate" radius="2"></feMorphology>
        
        <feFlood flood-color="#32DFEC" flood-opacity="1" result="PINK"></feFlood>
        <feComposite in="PINK" in2="DILATED" operator="in" result="OUTLINE"></feComposite>

        <feMerge>
            <feMergeNode in="OUTLINE"></feMergeNode>
            <feMergeNode in="SourceGraphic"></feMergeNode>
        </feMerge>
    </filter>
    <filter id="hover" height="200%">
        <feMorphology in="SourceAlpha" result="DILATED" operator="dilate" radius="2"></feMorphology>
        
        <feFlood flood-color="#ff0000" flood-opacity="0.5" result="PINK"></feFlood>
        <feComposite in="PINK" in2="DILATED" operator="in" result="OUTLINE"></feComposite>

        <feMerge>
            <feMergeNode in="OUTLINE"></feMergeNode>
            <feMergeNode in="SourceGraphic"></feMergeNode>
        </feMerge>
            <feColorMatrix type="matrix" values="0   0   0   0   0
                0   1   0   0   0
                0   0   0   0   0
                0   0   0   1   0 "></feColorMatrix>
    </filter>
</defs></svg>