<svg xmlns="http://www.w3.org/2000/svg" viewBox="0 0 750 500"><path fill="#FFF" d="M0 0h750v500H0z"/><path fill="#8B77E6" d="M627.8 174.5c0-.4.3-.7.7-.7.4 0 .7.3.7.7v3.2c0 .4-.3.7-.7.7-.4 0-.7-.3-.7-.7v-3.2zm-4.9 2.6c-.3-.3-.3-.7 0-1 .3-.3.7-.3 1 0l2.3 2.3c.3.3.3.7 0 1-.3.3-.7.3-1 0l-2.3-2.3zm-1.6 5.3c-.4 0-.7-.3-.7-.7 0-.4.3-.7.7-.7h3.2c.4 0 .7.3.7.7 0 .4-.3.7-.7.7h-3.2zm2.6 4.8c-.3.3-.7.3-1 0-.3-.3-.3-.7 0-1l2.3-2.3c.3-.3.7-.3 1 0 .3.3.3.7 0 1l-2.3 2.3zm5.3 1.6c0 .4-.3.7-.7.7-.4 0-.7-.3-.7-.7v-3.2c0-.4.3-.7.7-.7.4 0 .7.3.7.7v3.2zm4.8-2.6c.3.3.3.7 0 1-.3.3-.7.3-1 0l-2.3-2.2c-.3-.3-.3-.7 0-1 .3-.3.7-.3 1 0l2.3 2.2zm1.6-5.2c.4 0 .7.3.7.7 0 .4-.3.7-.7.7h-3.2c-.4 0-.7-.3-.7-.7 0-.4.3-.7.7-.7h3.2zm-2.6-4.9c.3-.3.7-.3 1 0 .3.3.3.7 0 1l-2.3 2.3c-.3.3-.7.3-1 0-.3-.3-.3-.7 0-1l2.3-2.3z"/><path fill-rule="evenodd" clip-rule="evenodd" fill="#D1D2FD" d="M169.4 55.2c-43.5 0-79.1 35.6-79.1 79.2 0 43.5 35.6 79.1 79.1 79.1 8.7 0 15.9 7.2 15.9 15.9s-7.1 15.9-15.9 15.9H128c-21.2 0-38.6 17.4-38.6 38.6 0 21.2 17.4 38.6 38.6 38.6 18.4 0 33.4 15 33.4 33.4 0 33.5 27.4 60.9 60.9 60.9H580c43.5 0 79.1-35.6 79.1-79.2 0-43.5-35.6-79.1-79.1-79.1h-55.8c-8.7 0-15.9-7.2-15.9-15.9s7.2-15.9 15.9-15.9h14.2c21.2 0 38.6-17.4 38.6-38.6 0-21.2-17.3-38.6-38.5-38.6h-4.1c-18.4 0-33.4-15-33.4-33.4 0-33.5-27.4-60.9-60.9-60.9H169.4z"/><path fill-rule="evenodd" clip-rule="evenodd" fill="#D1D2FD" d="M628.5 227.8c21.1 0 38.3-17.1 38.3-38.3 0-21.1-17.1-38.3-38.3-38.3-21.1 0-38.3 17.1-38.3 38.3 0 21.2 17.1 38.3 38.3 38.3z"/><g fill-rule="evenodd" clip-rule="evenodd" fill="#BBBBF6"><path d="M184.1 98.4h37.1v11.2h-37.1zM129.1 111.8h37.1V123h-37.1zM167.9 111.8H205V123h-37.1zM145.3 125.3h37.1v11.2h-37.1zM129.1 138.8h37.1V150h-37.1zM167.9 138.8H205V150h-37.1z"/></g><path fill-rule="evenodd" clip-rule="evenodd" fill="#BBBBF6" d="M208.2 344.9h37.1v11.2h-37.1zM247 344.9h37.1v11.2H247zM192 358.3h37.1v11.2H192zM230.8 358.3h37.1v11.2h-37.1zM247 371.8h37.1V383H247zM192 385.3h37.1v11.2H192zM230.8 385.3h37.1v11.2h-37.1z"/><g fill-rule="evenodd" clip-rule="evenodd"><path fill="#BBBBF6" d="M271.1 89.3h163.2c4.2 0 7.6 3.4 7.6 7.6v232.7h5.8c2.8 0 5.1 2.3 5.1 5.1v20.8c0 2.8-2.3 5.1-5.1 5.1H257.8c-2.8 0-5.1-2.3-5.1-5.1v-20.8c0-2.8 2.3-5.1 5.1-5.1h5.8V96.9c0-4.2 3.4-7.6 7.5-7.6z"/><path fill="#F4F5F9" d="M267 87.6h163.2c4.2 0 7.6 3.4 7.6 7.6v236.3c0 4.2-3.4 7.6-7.6 7.6H267c-4.2 0-7.6-3.4-7.6-7.6V95.1c0-4.1 3.4-7.5 7.6-7.5z"/><path fill="#645193" d="M273.2 219.1h150.6v98.6H273.2z"/><path fill="#E6E6F9" d="M273.2 101.4h150.6v120.2H273.2z"/><path fill="#7060A0" d="M288.1 116.2V154h53v-37.8h-53zm0 52.7v37.8h53v-37.8h-53zm67.9 37.9h53V169h-53v37.8zm53-52.7v-37.8h-53v37.8h53z"/><path fill="#BBBBF6" d="M403 144.8l-9.3 9.3H369l31.5-31.5h2.4v22.2zm-23.3-22.3h10.7L358.9 154H356v-7.8l23.7-23.7zm-38.6 78h-18.5l18.5-18.5v18.5zm-28.6 0h-10.7l31.5-31.5h7.8v2.9l-28.6 28.6zm66.3-31.6L356 191.8v-22.9h22.8z"/><path fill="#DEDFFD" d="M253.6 327.9h189.9c2.8 0 5.1 2.3 5.1 5.1v20.8c0 2.8-2.3 5.1-5.1 5.1H253.6c-2.8 0-5.1-2.3-5.1-5.1V333c0-2.9 2.3-5.1 5.1-5.1z"/><g><path fill="#443572" d="M353.7 231.5l-2 .2h-1.2l-1.2-.1-1.9-.4-11.1-11.4-25.5 11.2c.8 40.1-3.4 58.9-8.3 86.5H380c.1-11.9 4.9-29.5 5.9-39.1l4.4-44.3-24.5-13.2-12.1 10.6z"/><path fill="#31275B" d="M358.4 317.7h14c3-2.5 6-4.7 7.9-5.6 1.1-11.3 4.7-25.3 5.6-33.5l.1-1.3c-.3-3.1-.7-6.4-1-9.9-1.4-13.1 1.7-21.9 4.7-27.1l.6-6-24.5-13.2-3.9 3.4-1.3 6.3s13.3 10.2 14.9 15.8c1.6 5.6-4 44.1-8 60.8-1.1 4.1-4.5 7.5-9.1 10.3zM310.8 232.8c.4 24.6-1.1 41.1-3.5 56.8 0 0 13-48.7 11.6-50-1.1-1-2.5-2.2-8.1-6.8z"/><path fill="#B1AEC1" d="M364.6 218.2c-8.9-4.3-17.7-4.6-26.9-1.1l1.4 4.3 23.8.9 1.7-4.1z"/><path fill="#31275B" d="M353.7 231.5l-2 .2-2.4-.1-1.9-.4-7.5-7.6-1.2.3-2.6 3.2s5.1 13.3 5.4 13.8c.3.5.9.7 1.8-.3s3.7-4.3 3.7-4.3.8-.8 1.1.2c.3.9 4.4-1.4 4.4-1.4l.2.9s.6-.7 1.2.3 3.3 5.2 3.5 5.4c.2.2 1.1.8 1.8-.4.6-1.2 7.9-16 9.2-18.5l-2.9-1.6-11.8 10.3z"/><path fill="#31275B" d="M353.7 231.5l-2 .2-2.4-.1-1.9-.4-.7-.8-1.7 2.7s3.6 1.3 3.5 4.5l-7 79.9h3.9l7-79.7c.3-3.2 3.8-4.2 3.8-4.2l-1.5-2.9-1 .8z"/><path fill="#E76D60" d="M351.9 198.6c5.6.2 10 5 9.8 10.6l-.5 13.5c-.2 5.6-5 10-10.6 9.8-5.6-.2-10-5-9.8-10.6l.5-13.5c.2-5.6 5-10 10.6-9.8z"/><path fill="#31275B" d="M348.2 230.4l1.2-.1s.2.3.2.7v1.7c-.4.1-2.7.5-2.7.2.1-.2 1.3-2.5 1.3-2.5zM353 230.6l-1.2-.2s-.2.2-.3.7c-.1.4-.1 1.7-.1 1.7.4.4 2.7.7 2.6.4 0-.2-1-2.6-1-2.6z"/><path fill="#FFF" d="M364.6 218.2c.1.1 1.5 2.7 2.2 4 0 0 .6 1 .1 2.7-.6 1.7-7.7 15.3-7.7 15.3s-.5.7-1.2 0-6.1-9.8-6.1-9.8l11.3-11c.5-.7 1.3-1.3 1.4-1.2zM337.6 217.2c-.1 0-1.7 2.6-2.5 3.8 0 0-.7 1-.3 2.7.4 1.7 6.5 15.8 6.5 15.8s.4.7 1.2.1c.8-.7 6.9-9.3 6.9-9.3l-10.4-12c-.7-.9-1.3-1.2-1.4-1.1z"/><path fill="#E76D60" d="M331.7 185.8h-.5c-2.8.2-5.3 2.3-5.8 5.2-.6 3.4 1.7 6.6 5.1 7.2 3.4.6 6.6-1.7 7.2-5.1.3-2-.3-3.9-1.6-5.2-.1 1.8-.7 4.1-3.1 3.9l.6-3.5c.3-1.5-1-2.4-1.9-2.5zM376.2 192.3c.1 0 .3.1.4.1 2.7 1 4.4 3.7 4 6.6-.4 3.4-3.5 5.8-7 5.4-3.4-.4-5.8-3.5-5.4-7 .2-2 1.4-3.6 3-4.6-.4 1.8-.5 4.1 1.8 4.7l.5-3.6c.3-1.3 1.7-1.8 2.7-1.6z"/><path fill="#FCB187" d="M358.4 158.2c-11.6-1.7-22.5 6.4-24.2 18.1l-2.8 19.2c-1.7 11.6 6.4 22.5 18.1 24.2 11.6 1.7 22.5-6.4 24.2-18.1l2.8-19.2c1.6-11.6-6.5-22.5-18.1-24.2z"/><path fill="#F49677" d="M346.5 219.1c1 .3 2 .5 3 .7 11.6 1.7 22.5-6.4 24.2-18.1l2.8-19.2c.5-3.5.1-6.9-1-10-8.5-2.5-15.8-4.6-15.8-4.6s-26.9 0-24 7.4l.8 1.2s2.3-2.1 6.4-1.1c4.1 1 17.8 4.6 22.3 6.2 4.5 1.7 5.7 5 5 9.6-.7 4.6-.2 6.4.9 7.1 0 0-1.7 20.8-24.6 20.8z"/><path fill="#FFF" d="M346.3 203.5c-.6 3 1.4 5.9 4.4 6.4 3 .6 5.9-1.4 6.4-4.4.1-.5-.2-1-.8-1.1l-9-1.7c-.4 0-.9.3-1 .8z"/><path fill="#FFF" d="M347.5 208.1c.8.9 1.9 1.6 3.2 1.8 1.1.2 2.1.1 3-.3-.2-1.2-1.3-2.3-2.7-2.6-1.4-.2-2.8.2-3.5 1.1zM356.5 204.5l-8.4-1.6c-.3.9-.1 1.9.5 2.2.7.4 6.8 1.4 7.4 1 .2-.2.4-.9.5-1.6z"/><path fill="#E76D60" d="M364.4 201.4c-1.5-.2-3 .8-3.2 2.3-.2 1.5.8 3 2.3 3.2 1.5.2 3-.8 3.2-2.3.2-1.5-.8-3-2.3-3.2zM340.5 197.4c-1.5-.2-3 .8-3.2 2.3-.2 1.5.8 3 2.3 3.2 1.5.2 3-.8 3.2-2.3.3-1.5-.7-2.9-2.3-3.2z"/><path fill="#31275B" d="M344.4 195c.1-.5-.1-1-.4-1.5-.3-.4-.8-.7-1.3-.8-.5-.1-1 .1-1.5.4-.4.3-.7.8-.8 1.3-.1.4-.4.7-.9.6-.4-.1-.7-.4-.6-.9.1-.9.6-1.7 1.4-2.3.7-.5 1.7-.8 2.6-.7.9.1 1.7.6 2.3 1.4.6.7.8 1.7.7 2.6-.1.4-.4.7-.9.6-.4.1-.7-.3-.6-.7zm21.7 3.2c.1-.5-.1-1-.4-1.5-.3-.4-.8-.7-1.3-.8-.5-.1-1 .1-1.5.4-.4.3-.7.8-.8 1.3-.1.4-.4.7-.9.6-.4-.1-.7-.4-.6-.9.1-.9.6-1.7 1.4-2.3.7-.5 1.7-.8 2.6-.7.9.1 1.7.6 2.3 1.4s.8 1.7.7 2.6c-.1.4-.4.7-.9.6-.3.1-.6-.3-.6-.7zm1.7-6.8c-1.5-1-3.4-1.5-5.2-.8-.4.2-.8 0-1-.4-.2-.4 0-.8.4-1 2.1-.9 4.8-.4 6.6.9.3.2.4.7.2 1.1-.2.3-.7.4-1 .2zm-27-4c-.4.1-.8-.1-1-.5-.1-.4.1-.8.5-1 2.1-.7 4.8-.5 6.6 1 .3.3.4.7.1 1.1-.3.3-.7.4-1.1.1-1.4-1.1-3.4-1.2-5.1-.7z"/><path fill="#31275B" d="M331.9 192s3.3-.8 4.1-6.2c.8-5.4.6-4.1 1-6.9.4-2.8 3.1-7.5 8.8-6.6 5.7.8 10.3 1.5 10.3 1.5s4.6.7 10.3 1.5c5.7.8 7 6.1 6.5 8.9-.4 2.8-.2 1.5-1 6.9s2.2 7.1 2.2 7.1c.6-4.3 2.2-5.8 2.2-5.8s.8-5.7 1.6-10.8c.7-5 .3-11.9-5.6-17.5-5.9-5.6-13.8-6.6-13.8-6.6s-7.8-1.2-15.1 2.4c-7.2 3.7-9.6 10.2-10.4 15.2-.7 5-1.6 10.7-1.6 10.7s1.2 1.9.5 6.2z"/><path fill="#443572" d="M345.9 172.2s9.6 10.5 24.1 4.3c0 0 6.2-3.6 8.1-.9 0 0 4.3-11.3-5.4-14.2 0 0 2.2-1.1 2.1-2.6-.1-1.5-3.3-5.8-13.3-3.6 0 0 .3-3.6-2.9-4.6-3.2-1-13.9 2.6-16.5 9.9 0 .1-2.1 5.5 3.8 11.7z"/><path fill="#4F4D6E" d="M378.9 168.6c-.1-.5-.2-1-.3-1.6-2.8 1.5-8.8 3.5-18.1 1-8.2-2.1-8.9-10.4-8.2-16.5-3 1.1-6.2 3-8.3 5.7 0 3 1.6 7.4 8.3 11.9 9.6 6.6 21.8 1.9 26.6-.5z"/><path fill="#FCB187" d="M254.6 143.2v1.6s.8.3 1.4 1.6c.6 1.3.9 2.3.9 2.3l8.6-3.1v-.7l-.7-2s-.2-.4 0-.6l-4.3-1.9-5.9 2.8z"/><path fill="#443572" d="M334.7 220.6s-41-21.4-47.5-28.7c-6.5-7.3-9.5-17.5-19.5-46.6 0 0-.4-1.4-2.5-1.2-2.1.1-8 2.2-8.8 3.2-.8 1-1.3 2-1 3.4.3 1.4 12 46.7 15.3 53.5 3.3 6.8 33.3 34.7 39.6 41.2 6.3 6.5 24.4-24.8 24.4-24.8z"/><path fill="#31275B" d="M263.5 144.4c-2.6.6-6.5 2.1-7.1 2.9-.8 1-1.3 2-1 3.4.3 1.4 12 46.7 15.3 53.5 3.3 6.8 33.3 34.7 39.6 41.2 1.9 2 5.1.4 8.4-2.9.3-1.7.4-2.8.2-3-1.4-1.3-3.4-2.9-13.9-11.7-10.6-8.8-26.9-23.9-29.7-29.5-2.7-5.6-11.1-35.2-13.8-44.1-2.6-8.4 1.7-9.7 2-9.8z"/><path fill="#FCB187" d="M267.1 133.4c.6-3.2 2.4-5.5 3.1-6.2 1-1-3.6-3.8-5.4 1 0 0-1.6 1.8-2.5 1.3-.9-.5-2.4-14.7-2.5-16.2-.2-1.5-1.9-1.7-2.4-1.2-.5.4-.2 2.7-.1 5.5.1 2.9.3 6.1 0 6.3-.2.3-.9.3-1.6-1.2-.7-1.5-4.1-10.1-4.9-10.5-.8-.4-2.2.4-2 1.8.1 1.4 3.9 10 4.1 11.2.1 1.3-1.1 1.2-1.7.5-.6-.7-6-9.4-6.7-9.8-.7-.4-2.1.4-1.6 1.9s5.4 10 5.3 10.7c0 .7-1 1.3-2.6.1-1.6-1.1-4.6-3.8-5.2-3.8-.6 0-1.3 1.8.1 3.2 1.4 1.4 4.8 5.1 5.2 5.7 2.3 3.2 3.4 6.7 5.6 9 .8.8 1.8 1.4 2.9 1.8 2.7 1 6 .8 8.5-.6 4.3-2.2 3.6-6 4.4-10.5zM335.5 325.5l-2.7 2.3h-22.6s.9-2.8 2.4-3.7c0 0 .6-.3 1.3-.3 0 0 .7-.9 1.8-1.4 1.1-.4 6.3-1.7 9.1-2.2 2.8-.5 5.4.5 6.8.5 1.3 0 3.4-.3 3.4-.3l.5 5.1z"/><path fill="#443572" d="M390.2 234.3s4.2 2.9 6.2 11.8 7 54 8 61.8c1 7.8.6 20-16.6 20h-55.1v-8c0-2.1 1.4-2.8 2.8-2.8s43.4-4.6 45.4-5.1c2-.6 3-1.7 3-4.1.1-2.4-6.8-30.1-8.2-40.5-1.4-10.6 4.7-33.4 14.5-33.1z"/><path fill="#31275B" d="M404.7 311.7c.2 7.4-2.3 16.1-16.9 16.1h-55.1v-6.3c1.3 1.7 4.1 3.6 9.4 3.6h43.3c6.7 0 19-4.8 19.3-13.4zM375.7 267.2c1 7 4.4 22 6.5 31.7 1 4.6 1.7 8.1 1.7 8.9-.1 2.2-.9 3.3-2.6 3.9 4.2-.7 5.6-2.6 6.3-5.3.6-2.2.1-11.7-1.7-29.1-.3-3.1-.7-6.4-1-9.9-1.4-13.1 1.7-21.9 4.7-27.1.9-1.6 1.9-2.9 2.6-3.8-1.2-1.6-2.1-2.2-2.1-2.2-9.7-.3-15.8 22.5-14.4 32.9z"/><path fill="#FCCCB1" d="M348.7 200s1.9-2 2.5-2.5c.6-.5.7.1.7.9-.1.8.1 2.3-.3 2.6-.4.4-2.5 0-2.9-.2-.5-.1 0-.8 0-.8z"/></g></g><path fill="#8B77E6" d="M210.5 244.2c0-.3.3-.6.6-.6.4 0 .6.3.6.6v2.8c0 .3-.3.6-.6.6s-.6-.3-.6-.6v-2.8zm-4.2 2.3c-.2-.2-.2-.6 0-.9.2-.2.6-.2.9 0l2 2c.2.2.2.6 0 .9-.2.2-.6.2-.9 0l-2-2zm-1.4 4.6c-.3 0-.6-.3-.6-.6s.3-.6.6-.6h2.8c.4 0 .6.3.6.6s-.3.6-.6.6h-2.8zm2.2 4.3c-.2.2-.6.2-.9 0-.2-.2-.2-.6 0-.9l2-2c.2-.2.6-.2.9 0 .2.2.2.6 0 .9l-2 2zm4.7 1.4c0 .3-.3.6-.6.6s-.6-.3-.6-.6V254c0-.3.3-.6.6-.6.4 0 .6.3.6.6v2.8zm4.2-2.3c.2.2.2.6 0 .9-.2.2-.6.2-.9 0l-2-2c-.2-.2-.2-.6 0-.9.2-.2.6-.2.9 0l2 2zm1.4-4.6c.4 0 .6.3.6.6s-.3.6-.6.6h-2.8c-.3 0-.6-.3-.6-.6s.3-.6.6-.6h2.8zm-2.3-4.3c.2-.2.6-.2.9 0 .2.2.2.6 0 .9l-2 2c-.2.2-.6.2-.9 0-.2-.2-.2-.6 0-.9l2-2z"/><g fill-rule="evenodd" clip-rule="evenodd" fill="#DED8F9"><path d="M88.5 352.4H92c.6 0 1.2.5 1.2 1.2v3.5c0 .6-.5 1.2-1.2 1.2h-3.5c-.7 0-1.2-.5-1.2-1.2v-3.5c0-.6.5-1.2 1.2-1.2zM100.6 352.4h3.5c.6 0 1.2.5 1.2 1.2v3.5c0 .6-.5 1.2-1.2 1.2h-3.5c-.6 0-1.2-.5-1.2-1.2v-3.5c0-.6.5-1.2 1.2-1.2zM112.6 352.4h3.5c.6 0 1.2.5 1.2 1.2v3.5c0 .6-.5 1.2-1.2 1.2h-3.5c-.6 0-1.2-.5-1.2-1.2v-3.5c0-.6.6-1.2 1.2-1.2zM124.7 352.4h3.5c.7 0 1.2.5 1.2 1.2v3.5c0 .6-.5 1.2-1.2 1.2h-3.5c-.7 0-1.2-.5-1.2-1.2v-3.5c0-.6.5-1.2 1.2-1.2z"/></g><path fill="#8B77E6" d="M165.6 79.2c0-.3.3-.6.6-.6s.6.3.6.6V82c0 .3-.3.6-.6.6-.4 0-.6-.3-.6-.6v-2.8zm-4.3 2.3c-.2-.2-.2-.6 0-.9.2-.2.6-.2.9 0l2 2c.2.2.2.6 0 .9-.2.2-.6.2-.9 0l-2-2zm-1.4 4.6c-.4 0-.6-.3-.6-.6s.3-.6.6-.6h2.8c.3 0 .6.3.6.6s-.3.6-.6.6h-2.8zm2.3 4.2c-.2.2-.6.2-.9 0-.2-.2-.2-.6 0-.9l2-2c.2-.2.6-.2.9 0 .2.2.2.6 0 .9l-2 2zm4.6 1.4c0 .3-.3.6-.6.6-.4 0-.6-.3-.6-.6v-2.8c0-.3.3-.6.6-.6s.6.3.6.6v2.8zm4.3-2.2c.2.2.2.6 0 .9-.2.2-.6.2-.9 0l-2-2c-.2-.2-.2-.6 0-.9.2-.2.6-.2.9 0l2 2zm1.4-4.7c.3 0 .6.3.6.6s-.3.6-.6.6h-2.8c-.4 0-.6-.3-.6-.6s.3-.6.6-.6h2.8zm-2.3-4.2c.2-.2.6-.2.9 0 .2.2.2.6 0 .9l-2 2c-.2.2-.6.2-.9 0-.2-.2-.2-.6 0-.9l2-2z"/><g fill-rule="evenodd" clip-rule="evenodd" fill="#F1EFFD"><path d="M194.7 199.9h3.5c.6 0 1.2.5 1.2 1.2v3.5c0 .6-.5 1.2-1.2 1.2h-3.5c-.6 0-1.2-.5-1.2-1.2V201c0-.6.5-1.1 1.2-1.1zM206.7 199.9h3.5c.7 0 1.2.5 1.2 1.2v3.5c0 .6-.5 1.2-1.2 1.2h-3.5c-.7 0-1.2-.5-1.2-1.2V201c.1-.6.6-1.1 1.2-1.1zM218.8 199.9h3.5c.6 0 1.2.5 1.2 1.2v3.5c0 .6-.5 1.2-1.2 1.2h-3.5c-.6 0-1.2-.5-1.2-1.2V201c0-.6.6-1.1 1.2-1.1zM230.9 199.9h3.5c.6 0 1.2.5 1.2 1.2v3.5c0 .6-.5 1.2-1.2 1.2h-3.5c-.7 0-1.2-.5-1.2-1.2V201c0-.6.5-1.1 1.2-1.1z"/></g><g fill-rule="evenodd" clip-rule="evenodd"><path fill="#BBBBF6" d="M536.4 149.6v77.2h-12.2c-8.7 0-15.9 7.1-15.9 15.9 0 8.7 7.2 15.9 15.9 15.9h12.2v158.3h-69.9V61.3c20.4 9.9 34.5 30.8 34.5 54.9 0 18.4 15 33.4 33.4 33.4h2z"/><path fill="#DEDFFD" d="M472.5 64.7v352.1h-12.2V58.7c4.3 1.6 8.4 3.6 12.2 6zM487.6 78.3v338.6h-12.2V66.7c4.6 3.2 8.7 7.2 12.2 11.6zM502.7 126.9v289.9h-12.2V82.2c6.6 9.7 10.4 21.4 10.4 34 0 3.7.6 7.3 1.8 10.7zM517.8 145.1v83c-5.6 2.5-9.5 8.1-9.5 14.5 0 6.5 3.9 12.1 9.5 14.5v159.7h-12.2V133.1c2.9 5 7.1 9.2 12.2 12zM532.9 149.5v77.3h-8.7c-1.2 0-2.4.1-3.5.4v-80.6c3.7 1.7 7.8 2.7 12.2 2.9zm0 109v158.3h-12.2V258.2c1.1.3 2.3.4 3.5.4h8.7z"/></g><g fill-rule="evenodd" clip-rule="evenodd" fill="#F1EFFD"><path d="M369.1 388.6h3.5c.6 0 1.2.5 1.2 1.2v3.5c0 .7-.5 1.2-1.2 1.2h-3.5c-.6 0-1.2-.5-1.2-1.2v-3.5c0-.7.6-1.2 1.2-1.2zM381.2 388.6h3.5c.7 0 1.2.5 1.2 1.2v3.5c0 .7-.5 1.2-1.2 1.2h-3.5c-.7 0-1.2-.5-1.2-1.2v-3.5c0-.7.5-1.2 1.2-1.2zM393.3 388.6h3.5c.6 0 1.2.5 1.2 1.2v3.5c0 .7-.5 1.2-1.2 1.2h-3.5c-.6 0-1.2-.5-1.2-1.2v-3.5c0-.7.5-1.2 1.2-1.2zM405.3 388.6h3.5c.7 0 1.2.5 1.2 1.2v3.5c0 .7-.5 1.2-1.2 1.2h-3.5c-.7 0-1.2-.5-1.2-1.2v-3.5c.1-.7.6-1.2 1.2-1.2z"/></g><g fill-rule="evenodd" clip-rule="evenodd" fill="#F1EFFD"><path d="M389.4 68.2h3.5c.6 0 1.2.5 1.2 1.2v3.5c0 .7-.5 1.2-1.2 1.2h-3.5c-.6 0-1.2-.5-1.2-1.2v-3.5c0-.7.5-1.2 1.2-1.2zM401.4 68.2h3.5c.6 0 1.2.5 1.2 1.2v3.5c0 .7-.5 1.2-1.2 1.2h-3.5c-.7 0-1.2-.5-1.2-1.2v-3.5c.1-.7.6-1.2 1.2-1.2zM413.5 68.2h3.5c.7 0 1.2.5 1.2 1.2v3.5c0 .7-.5 1.2-1.2 1.2h-3.5c-.6 0-1.2-.5-1.2-1.2v-3.5c0-.7.6-1.2 1.2-1.2zM425.6 68.2h3.5c.6 0 1.2.5 1.2 1.2v3.5c0 .7-.5 1.2-1.2 1.2h-3.5c-.6 0-1.2-.5-1.2-1.2v-3.5c0-.7.5-1.2 1.2-1.2z"/></g><g fill-rule="evenodd" clip-rule="evenodd" fill="#F1EFFD"><path d="M558.8 285.9h3.5c.6 0 1.2.5 1.2 1.2v3.5c0 .6-.5 1.2-1.2 1.2h-3.5c-.7 0-1.2-.5-1.2-1.2v-3.5c0-.7.5-1.2 1.2-1.2zM570.9 285.9h3.5c.6 0 1.2.5 1.2 1.2v3.5c0 .6-.5 1.2-1.2 1.2h-3.5c-.6 0-1.2-.5-1.2-1.2v-3.5c0-.7.5-1.2 1.2-1.2zM582.9 285.9h3.5c.6 0 1.2.5 1.2 1.2v3.5c0 .6-.5 1.2-1.2 1.2h-3.5c-.6 0-1.2-.5-1.2-1.2v-3.5c.1-.7.6-1.2 1.2-1.2zM595 285.9h3.5c.7 0 1.2.5 1.2 1.2v3.5c0 .6-.5 1.2-1.2 1.2H595c-.6 0-1.2-.5-1.2-1.2v-3.5c0-.7.6-1.2 1.2-1.2z"/></g><g fill-rule="evenodd" clip-rule="evenodd"><path fill="#443572" d="M147.2 407.7c0-7.1.8-15.3 2.7-24.6 0-.1 0-.1.1-.2.1-.4.4-1.1 1.1-.9 1 .3 9.3 4.9 17.1 12.8 7.8 7.9 7.6-4 .9-8.6-6.7-4.7-13.6-6.6-15.7-8.4-2.1-1.8-1.7-3.8-1.7-3.8 1.6-9 2.8-18.3 3.6-27.4 0 0 .4-2 2.3.3s9.2 10.5 14.9 11c5.7.5.5-8.5-7.6-12.9s-9.1-5.4-9-6.5c.5-7.2.8-14.2.9-20.9 0 0 .3-1.2 1.4-.3 1.1.9 9.1 10 13.4 9.1 4.3-1 .1-8.8-6.7-11.5-6.8-2.7-8-3.6-8-4.6-.1-19.8-1.8-35.8-4.5-42.6-2.7-7.1 14.7 8.9 30.8 35.1 1.4 2.4 1.3 3.7.4 6.6-1 3.1-2 10.1.5 8.4 2.5-1.6 2.9-7.7 3.1-7.9.2-.1.3 0 .3.1 2.6 4.7 5.2 9.6 7.5 14.7 2.4 5.7-.8 9.7-5.3 15.2-4.7 5.8-3.8 12 1.1 9.4 5-2.6 7.3-14.6 7.7-15 .4-.3.7.1.7.2 3.3 8.4 5.9 17.3 7.5 26.3.3 4.5-3.3 8.2-7.1 14.2-3.8 6.1-.9 9.8 2.1 8.9 3-.8 5.1-8.3 5.7-8.7.6-.4.8-.1.8 0 .3 8.7-.5 17.4-2.8 25.9-2.1 7.5-4.2 13.8-6.4 19.3h-39.4l-12.4-12.7z"/><path fill="#31275B" d="M193 420.2c-5.2-69-22.9-128.7-23-129.1-.2-.8-1.1-1.3-1.9-1.1-.8.2-1.3 1.1-1.1 1.9.1.3 17.7 59.7 22.9 128.2h3.1z"/><path fill="#A8A8E5" d="M225.5 325.4c29.9-17.7 38.1 19.1 32.1 35.8-4.5 12.3-20.4 39.4-31.6 59.1h-41.7c5.4-41.4 19.3-81.9 41.2-94.9z"/><path fill="#DBDBFD" d="M202.5 420.2c15.2-48.3 38.5-88.2 38.6-88.4.3-.6 1.2-.9 1.9-.7.7.2 1 .9.7 1.5-.1.2-23.2 39.8-38.3 87.6h-2.9z"/><path fill="#F1EFFD" d="M97.5 304.2c9.2-34.8 41.7-15.8 55.6 14 7.9 16.8 21.5 61.1 36.9 102h-39l-11.6-6.5c-26.9-50.4-45.6-95.6-41.9-109.5z"/><path fill="#FFF" d="M160.5 411.8c-29.6-56.2-45.1-110.8-45.2-111-.2-.8.2-1.6 1-1.8.8-.2 1.6.2 1.8 1 .1.3 17.1 60.2 49.4 118.9l-7-7.1z"/></g><path fill-rule="evenodd" clip-rule="evenodd" fill="#BBBBF6" d="M611.8 310.1h37.1v11.2h-37.1zM595.6 323.6h37.1v11.2h-37.1zM634.4 323.6h23.5c.7 3.7 1.1 7.4 1.2 11.2h-24.7v-11.2zM611.8 337.1h37.1v11.2h-37.1zM650.6 337.1h8.5v.6c0 3.6-.2 7.1-.7 10.6h-7.8v-11.2zM634.4 350.6h23.7c-.6 3.8-1.5 7.6-2.7 11.2h-20.9v-11.2z"/><path fill="#8B77E6" d="M572.2 362.5c0-.3.3-.6.6-.6s.6.3.6.6v2.8c0 .3-.3.6-.6.6s-.6-.3-.6-.6v-2.8zm-4.2 2.3c-.2-.2-.2-.6 0-.9.2-.2.6-.2.9 0l2 2c.2.2.2.6 0 .9-.2.2-.6.2-.9 0l-2-2zm-1.4 4.6c-.3 0-.6-.3-.6-.6s.3-.6.6-.6h2.8c.3 0 .6.3.6.6s-.3.6-.6.6h-2.8zm2.3 4.2c-.2.2-.6.2-.9 0-.2-.2-.2-.6 0-.9l2-2c.2-.2.6-.2.9 0 .2.2.2.6 0 .9l-2 2zm4.6 1.4c0 .3-.3.6-.6.6s-.6-.3-.6-.6v-2.8c0-.3.3-.6.6-.6s.6.3.6.6v2.8zm4.2-2.3c.2.2.2.6 0 .9-.2.2-.6.2-.9 0l-2-2c-.2-.2-.2-.6 0-.9.2-.2.6-.2.9 0l2 2zm1.4-4.6c.3 0 .6.3.6.6s-.3.6-.6.6h-2.8c-.3 0-.6-.3-.6-.6s.3-.6.6-.6h2.8zm-2.2-4.2c.2-.2.6-.2.9 0 .2.2.2.6 0 .9l-2 2c-.2.2-.6.2-.9 0-.2-.2-.2-.6 0-.9l2-2z"/><path fill-rule="evenodd" clip-rule="evenodd" fill="#31275B" d="M639.1 305.3c8.6 28 11.8 43.2 16.5 55.8 2.3-7.4 3.5-15.2 3.5-23.4v-40.2c0-73-30.6-26.7-20 7.8z"/><path fill-rule="evenodd" clip-rule="evenodd" fill="#443572" d="M532.3 411.8c-6.7-9-13.6-20.8-17.7-35.3-7.1-25.2 22.2 2.7 45.3 35.3h-27.6zM572.5 411.8c-7.2-12.2-14.4-28.2-15.5-45.1-2.4-35.5-3-46.7-9.8-52.5-5.8-4.9 64.2-3.9 93.6 74a79.71 79.71 0 01-33 23.6h-35.3z"/><path fill-rule="evenodd" clip-rule="evenodd" fill="#645193" d="M557.2 312.9c26.5 24.1 47.4 59.8 62.6 93-.7.4-1.5.8-2.2 1.3-15.6-34.2-37.1-70.8-64.6-94.7 1.2.1 2.7.2 4.2.4z"/><path fill-rule="evenodd" clip-rule="evenodd" fill="#BBBBF6" d="M632.5 273.9c5.8 14.4 14.5 46.7 24.7 81.5-4.2 18.1-14.6 33.9-28.8 44.9-24.7-35.3-46.2-75.3-54.2-107.1-16.3-63.9 34-79.2 58.3-19.3z"/><path fill-rule="evenodd" clip-rule="evenodd" fill="#938ACA" d="M642.5 386c-34.2-59.8-50.1-129.9-50.2-130.2-.2-.7.3-1.4 1-1.5.7-.2 1.4.3 1.5 1 .1.3 15.8 69.5 49.3 128.6-.5.7-1 1.4-1.6 2.1zM609.5 411.1c-1.3-5.8-3.2-12.1-6.2-18.4-11.4-23.9-39.9-33.2-48-29.6-6.6 3-20 21.4-10 48.6h62.5c.6-.2 1.1-.4 1.7-.6z"/><path fill-rule="evenodd" clip-rule="evenodd" fill="#ADA5D8" d="M593 411.8c1.5-3.9 4.4-12.5 4.8-17.7 0-.4-.3-.8-.7-.8-.4 0-.7.3-.8.7-.4 4.8-3.1 12.8-4.6 16.8-3.3-6.6-7.4-13.4-12.3-20.4 2.6-10 2.3-17.5 2.3-17.5 0-.4-.4-.7-.8-.7s-.7.4-.7.8c0 0 .3 6.7-1.9 15.9-5.6-7.7-12.3-15.5-20.3-23-.6-.5-1.5-.5-2.1.1-.5.6-.5 1.5.1 2.1 3.9 3.7 7.5 7.4 10.8 11.1-3-.5-7.5-1.1-11.9-.7-.4 0-.7.4-.7.8s.4.7.8.6c5.4-.5 10.8.5 13.3 1 5.1 5.9 9.4 11.9 13.1 17.7-5.2-.5-18-1.3-30.4.9-.4.1-.7.5-.6.8.1.4.5.7.9.6 13.2-2.4 27-1.3 31.1-.8 2.4 3.9 4.6 7.8 6.5 11.5h4.1z"/><g><g fill-rule="evenodd" clip-rule="evenodd" fill="#DED8F9"><path d="M541.8 107h4c.7 0 1.3.6 1.3 1.3v4c0 .7-.6 1.3-1.3 1.3h-4c-.7 0-1.3-.6-1.3-1.3v-4c0-.7.6-1.3 1.3-1.3zM555.5 107h4c.7 0 1.3.6 1.3 1.3v4c0 .7-.6 1.3-1.3 1.3h-4c-.7 0-1.3-.6-1.3-1.3v-4c0-.7.6-1.3 1.3-1.3zM569.2 107h4c.7 0 1.3.6 1.3 1.3v4c0 .7-.6 1.3-1.3 1.3h-4c-.7 0-1.3-.6-1.3-1.3v-4c0-.7.6-1.3 1.3-1.3zM583 107h4c.7 0 1.3.6 1.3 1.3v4c0 .7-.6 1.3-1.3 1.3h-4c-.7 0-1.3-.6-1.3-1.3v-4c-.1-.7.5-1.3 1.3-1.3z"/></g><path fill="#C9C0ED" d="M644.5 100.4c0-.4.3-.7.7-.7.4 0 .7.3.7.7v3.2c0 .4-.3.7-.7.7-.4 0-.7-.3-.7-.7v-3.2zm-4.8 2.6c-.3-.3-.3-.7 0-1 .3-.3.7-.3 1 0l2.3 2.3c.3.3.3.7 0 1-.3.3-.7.3-1 0l-2.3-2.3zm-1.6 5.3c-.4 0-.7-.3-.7-.7 0-.4.3-.7.7-.7h3.2c.4 0 .7.3.7.7 0 .4-.3.7-.7.7h-3.2zm2.6 4.8c-.3.3-.7.3-1 0-.3-.3-.3-.7 0-1l2.3-2.3c.3-.3.7-.3 1 0 .3.3.3.7 0 1l-2.3 2.3zm5.2 1.6c0 .4-.3.7-.7.7-.4 0-.7-.3-.7-.7v-3.2c0-.4.3-.7.7-.7.4 0 .7.3.7.7v3.2zm4.9-2.6c.3.3.3.7 0 1-.3.3-.7.3-1 0l-2.3-2.3c-.3-.3-.3-.7 0-1 .3-.3.7-.3 1 0l2.3 2.3zm1.5-5.2c.4 0 .7.3.7.7 0 .4-.3.7-.7.7h-3.2c-.4 0-.7-.3-.7-.7 0-.4.3-.7.7-.7h3.2zm-2.6-4.9c.3-.3.7-.3 1 0 .3.3.3.7 0 1l-2.3 2.3c-.3.3-.7.3-1 0-.3-.3-.3-.7 0-1l2.3-2.3z"/></g><path fill="#C9C0ED" d="M92.5 226.6c0-.4.3-.7.7-.7.4 0 .7.3.7.7v3.2c0 .4-.3.7-.7.7-.4 0-.7-.3-.7-.7v-3.2zm-4.8 2.6c-.3-.3-.3-.7 0-1 .3-.3.7-.3 1 0l2.3 2.3c.3.3.3.7 0 1-.3.3-.7.3-1 0l-2.3-2.3zm-1.6 5.2c-.4 0-.7-.3-.7-.7 0-.4.3-.7.7-.7h3.2c.4 0 .7.3.7.7 0 .4-.3.7-.7.7h-3.2zm2.6 4.9c-.3.3-.7.3-1 0-.3-.3-.3-.7 0-1L90 236c.3-.3.7-.3 1 0 .3.3.3.7 0 1l-2.3 2.3zm5.2 1.5c0 .4-.3.7-.7.7-.4 0-.7-.3-.7-.7v-3.2c0-.4.3-.7.7-.7.4 0 .7.3.7.7v3.2zm4.9-2.5c.3.3.3.7 0 1-.3.3-.7.3-1 0l-2.3-2.3c-.3-.3-.3-.7 0-1 .3-.3.7-.3 1 0l2.3 2.3zm1.6-5.3c.4 0 .7.3.7.7 0 .4-.3.7-.7.7h-3.2c-.4 0-.7-.3-.7-.7 0-.4.3-.7.7-.7h3.2zm-2.6-4.8c.3-.3.7-.3 1 0 .3.3.3.7 0 1l-2.3 2.3c-.3.3-.7.3-1 0-.3-.3-.3-.7 0-1l2.3-2.3z"/><g><path fill-rule="evenodd" clip-rule="evenodd" fill="#31275B" d="M64 412.5h622c4.4 0 8 3.6 8 8s-3.6 8-8 8h-27c-2.5 0-4.5 2-4.5 4.5 0 2.4 2 4.5 4.5 4.5h9.9c3.1 0 5.6 2.5 5.6 5.6 0 3.1-2.5 5.6-5.6 5.6H82c-3.1 0-5.6-2.5-5.6-5.6 0-3.1 2.5-5.6 5.6-5.6h7.8c2.5 0 4.5-2 4.5-4.5s-2-4.5-4.5-4.5H64c-4.4 0-8-3.6-8-8s3.6-8 8-8zm4.2 36c-2.9 0-5.3-2.4-5.3-5.3v-.4c0-2.9 2.4-5.3 5.3-5.3s5.3 2.4 5.3 5.3v.4c0 2.9-2.4 5.3-5.3 5.3z"/></g></svg>